<svg width="44" height="46" viewBox="0 0 44 46" fill="none" xmlns="http://www.w3.org/2000/svg">
<path fill-rule="evenodd" clip-rule="evenodd" d="M31.2004 6.04399H5.77273C2.58454 6.04399 0 8.59955 0 11.752V40.292C0 43.4444 2.58454 46 5.77273 46H34.6364C37.8245 46 40.4091 43.4444 40.4091 40.292V11.752C40.4091 11.5878 40.4021 11.4253 40.3883 11.2646L36.2857 16.5475V40.292C36.2857 41.1927 35.5473 41.9229 34.6364 41.9229H5.77273C4.86182 41.9229 4.12338 41.1927 4.12338 40.292V11.752C4.12338 10.8513 4.86181 10.1211 5.77273 10.1211H28.0573L31.2004 6.04399ZM39.3977 8.52359C38.3571 7.02606 36.6127 6.04399 34.6364 6.04399H34.3113L31.1682 10.1211H34.6364C35.5473 10.1211 36.2857 10.8513 36.2857 11.752V12.5309L39.3977 8.52359Z" fill="#191919"/>
<path fill-rule="evenodd" clip-rule="evenodd" d="M43.2235 3.5977L19.1602 34.5838L8.24731 22.8201L12.2462 18.9294L18.872 26.0719L38.9711 0L43.2235 3.5977Z" fill="#D0121B"/>
</svg>
