<svg width="160" height="36" viewBox="0 0 160 36" fill="none" xmlns="http://www.w3.org/2000/svg">
<g id="footer_petsafe">
<path id="Vector" d="M56.3564 4.78906H49.5591V11.499H46.7251V18.4289H49.5591V26.8621C49.5591 31.5847 53.3282 35.4273 57.9605 35.4273H61.636V28.4974H57.9605C57.0757 28.4974 56.3564 27.7641 56.3564 26.8621V18.4289H61.636V11.499H56.3564V4.78906Z" fill="#676767"/>
<path id="Vector_2" d="M12.1345 0.367188H0V3.46181V24.8822V35.4274H6.79731V24.8822H12.1273C18.7591 24.8822 24.1467 19.3823 24.1467 12.6284C24.1538 5.86711 18.7591 0.367188 12.1345 0.367188ZM12.1345 17.9523H6.79731V7.29709H12.1273C15.0116 7.29709 17.3493 9.68773 17.3493 12.621C17.3565 15.5616 15.0116 17.9523 12.1345 17.9523Z" fill="#676767"/>
<path id="Vector_3" d="M34.8208 11.1823C28.2681 11.1823 22.9309 16.6235 22.9309 23.3041C22.9309 29.9847 28.2681 35.4259 34.8208 35.4259C39.899 35.4259 44.2292 32.1626 45.9339 27.5867H39.4674C38.3166 28.8773 36.6694 29.6987 34.828 29.6987C32.1307 29.6987 29.8361 27.9534 28.9514 25.5187H40.7046H43.9127H46.5165C46.646 24.8001 46.7251 24.0667 46.7251 23.3114C46.7107 16.6162 41.3736 11.1823 34.8208 11.1823ZM34.8208 16.9095C37.511 16.9095 39.7983 18.6475 40.6902 21.0748H28.9514C29.8433 18.6475 32.1307 16.9095 34.8208 16.9095Z" fill="#676767"/>
<path id="Vector_4" d="M101.945 11.0963C95.4071 11.0963 90.0844 16.5229 90.0844 23.1888C90.0844 29.8547 95.4071 35.2813 101.945 35.2813H105.427V28.3368H101.945C99.1618 28.3368 96.8961 26.0268 96.8961 23.1888C96.8961 20.3509 99.1618 18.0409 101.945 18.0409C104.729 18.0409 106.995 20.3509 106.995 23.1888V35.428H113.807V23.1888C113.807 16.5229 108.484 11.0963 101.945 11.0963Z" fill="#676767"/>
<path id="Vector_5" d="M78.8993 14.4177L76.8061 14.4543C74.9288 14.4543 73.4039 12.8484 73.4039 10.8757C73.4039 8.90307 74.9288 7.29709 76.8061 7.29709H87.3654V0.367188H76.8061C71.1813 0.367188 66.6066 5.08246 66.6066 10.8757C66.6066 16.669 71.1813 21.3842 76.8061 21.3842H79.1438L79.2158 21.3622C80.9421 21.5309 82.3015 23.0635 82.3015 24.9189C82.3015 26.8915 80.7766 28.4975 78.8993 28.4975H68.3473V35.4274H78.9065C84.5313 35.4274 89.106 30.7121 89.106 24.9189C89.0988 19.1256 84.5241 14.4177 78.8993 14.4177Z" fill="#676767"/>
<path id="Vector_6" d="M147.182 22.9817C147.268 24.727 146.664 26.4943 145.362 27.8216C143.456 29.7649 140.622 30.1829 138.306 29.0976L146.613 20.6277L148.879 18.3177L150.721 16.4404C150.318 15.8391 149.857 15.2598 149.332 14.7245C144.693 9.99452 137.155 9.99452 132.515 14.7245C127.883 19.4544 127.883 27.1396 132.515 31.8696C137.155 36.5995 144.693 36.5995 149.332 31.8696C152.922 28.2103 153.72 22.7763 151.749 18.3177L147.182 22.9817ZM136.493 18.7797C138.392 16.8438 141.219 16.4184 143.528 17.4964L135.234 25.959C134.177 23.5977 134.594 20.723 136.493 18.7797Z" fill="#676767"/>
<path id="Vector_7" d="M116.964 8.56522V11.4912H114.13V18.4211H116.964V35.4195H123.761V18.4211H129.041V11.4912H123.761V8.56522C123.761 7.66323 124.48 6.92991 125.365 6.92991H129.041V0H125.365C120.733 0 116.964 3.84261 116.964 8.56522Z" fill="#676767"/>
<path id="Vector_8" d="M155.62 0C153.203 0 151.239 2.00197 151.239 4.46594C151.239 6.92991 153.203 8.93188 155.62 8.93188C158.036 8.93188 160 6.92991 160 4.46594C159.993 2.00197 158.029 0 155.62 0ZM155.62 8.22056C153.591 8.22056 151.937 6.53391 151.937 4.46594C151.937 2.39797 153.591 0.711324 155.62 0.711324C157.648 0.711324 159.302 2.39797 159.302 4.46594C159.302 6.53391 157.648 8.22056 155.62 8.22056Z" fill="#676767"/>
<path id="Vector_9" d="M156.597 5.17121L156.382 4.82654C156.547 4.76054 156.705 4.67255 156.856 4.55521C157.015 4.43055 157.137 4.27655 157.23 4.09322C157.324 3.90989 157.374 3.68256 157.374 3.4259C157.374 3.08123 157.302 2.79524 157.159 2.56791C157.015 2.34058 156.792 2.16458 156.504 2.05458C156.216 1.94458 155.857 1.89325 155.432 1.89325L153.972 1.98125L154.058 7.05585L154.943 6.96785L154.857 5.06121L155.569 5.01721L156.828 7.05585H157.734C157.763 7.05585 157.791 7.04118 157.806 7.01185C157.82 6.98251 157.82 6.95318 157.806 6.92385L156.597 5.17121ZM154.936 2.7439H155.367C155.72 2.7439 155.986 2.80257 156.152 2.91257C156.31 3.01523 156.382 3.19123 156.382 3.45523C156.382 3.70456 156.31 3.88789 156.159 4.01255C156.008 4.13722 155.756 4.20322 155.403 4.20322L154.929 4.29122V2.7439H154.936Z" fill="#676767"/>
</g>
</svg>
