<svg width="891" height="231" viewBox="0 0 891 231" fill="none" xmlns="http://www.w3.org/2000/svg">
<rect x="0.5" y="0.5" width="889" height="229" stroke="#E1E1E1"/>
<line x1="0.5" y1="2.18557e-08" x2="0.49999" y2="230" stroke="#E1E1E1"/>
<line x1="14.627" y1="2.12261e-08" x2="14.6269" y2="230" stroke="#E1E1E1"/>
<line x1="28.7539" y1="2.17703e-08" x2="28.7539" y2="230" stroke="#E1E1E1"/>
<line x1="42.8809" y1="2.17703e-08" x2="42.8808" y2="230" stroke="#E1E1E1"/>
<line x1="57.0078" y1="2.17703e-08" x2="57.0078" y2="230" stroke="#E1E1E1"/>
<line x1="71.1348" y1="2.19494e-08" x2="71.1348" y2="230" stroke="#E1E1E1"/>
<line x1="85.2617" y1="2.17703e-08" x2="85.2617" y2="230" stroke="#E1E1E1"/>
<line x1="99.3887" y1="2.19494e-08" x2="99.3887" y2="230" stroke="#E1E1E1"/>
<line x1="113.516" y1="2.19494e-08" x2="113.516" y2="230" stroke="#E1E1E1"/>
<line x1="127.643" y1="2.19494e-08" x2="127.643" y2="230" stroke="#E1E1E1"/>
<line x1="141.77" y1="2.19494e-08" x2="141.77" y2="230" stroke="#E1E1E1"/>
<line x1="155.896" y1="2.19494e-08" x2="155.896" y2="230" stroke="#E1E1E1"/>
<line x1="170.023" y1="2.19494e-08" x2="170.023" y2="230" stroke="#E1E1E1"/>
<line x1="184.15" y1="2.19494e-08" x2="184.15" y2="230" stroke="#E1E1E1"/>
<line x1="198.277" y1="2.19494e-08" x2="198.277" y2="230" stroke="#E1E1E1"/>
<line x1="212.404" y1="2.19494e-08" x2="212.404" y2="230" stroke="#E1E1E1"/>
<line x1="226.531" y1="2.19494e-08" x2="226.531" y2="230" stroke="#E1E1E1"/>
<line x1="240.658" y1="2.19494e-08" x2="240.658" y2="230" stroke="#E1E1E1"/>
<line x1="254.786" y1="2.19494e-08" x2="254.786" y2="230" stroke="#E1E1E1"/>
<line x1="268.912" y1="2.19494e-08" x2="268.912" y2="230" stroke="#E1E1E1"/>
<line x1="283.04" y1="2.19494e-08" x2="283.04" y2="230" stroke="#E1E1E1"/>
<line x1="297.167" y1="2.19494e-08" x2="297.167" y2="230" stroke="#E1E1E1"/>
<line x1="311.294" y1="2.19494e-08" x2="311.294" y2="230" stroke="#E1E1E1"/>
<line x1="325.421" y1="2.19494e-08" x2="325.421" y2="230" stroke="#E1E1E1"/>
<line x1="339.548" y1="2.19494e-08" x2="339.548" y2="230" stroke="#E1E1E1"/>
<line x1="353.675" y1="2.19494e-08" x2="353.675" y2="230" stroke="#E1E1E1"/>
<line x1="367.802" y1="2.19494e-08" x2="367.802" y2="230" stroke="#E1E1E1"/>
<line x1="381.929" y1="2.19494e-08" x2="381.929" y2="230" stroke="#E1E1E1"/>
<line x1="396.056" y1="2.19494e-08" x2="396.056" y2="230" stroke="#E1E1E1"/>
<line x1="410.183" y1="2.19494e-08" x2="410.183" y2="230" stroke="#E1E1E1"/>
<line x1="424.31" y1="2.19494e-08" x2="424.31" y2="230" stroke="#E1E1E1"/>
<line x1="438.437" y1="2.19494e-08" x2="438.437" y2="230" stroke="#E1E1E1"/>
<line x1="452.563" y1="2.19494e-08" x2="452.563" y2="230" stroke="#E1E1E1"/>
<line x1="466.69" y1="2.19494e-08" x2="466.69" y2="230" stroke="#E1E1E1"/>
<line x1="480.817" y1="2.19494e-08" x2="480.817" y2="230" stroke="#E1E1E1"/>
<line x1="494.944" y1="2.19494e-08" x2="494.944" y2="230" stroke="#E1E1E1"/>
<line x1="509.071" y1="2.19494e-08" x2="509.071" y2="230" stroke="#E1E1E1"/>
<line x1="523.198" y1="2.19494e-08" x2="523.198" y2="230" stroke="#E1E1E1"/>
<line x1="537.325" y1="2.19494e-08" x2="537.325" y2="230" stroke="#E1E1E1"/>
<line x1="551.452" y1="2.19494e-08" x2="551.452" y2="230" stroke="#E1E1E1"/>
<line x1="565.58" y1="2.19494e-08" x2="565.58" y2="230" stroke="#E1E1E1"/>
<line x1="579.707" y1="2.19494e-08" x2="579.707" y2="230" stroke="#E1E1E1"/>
<line x1="593.834" y1="2.19494e-08" x2="593.834" y2="230" stroke="#E1E1E1"/>
<line x1="607.961" y1="2.19494e-08" x2="607.961" y2="230" stroke="#E1E1E1"/>
<line x1="622.088" y1="2.19494e-08" x2="622.088" y2="230" stroke="#E1E1E1"/>
<line x1="636.215" y1="2.19494e-08" x2="636.215" y2="230" stroke="#E1E1E1"/>
<line x1="650.342" y1="2.19494e-08" x2="650.342" y2="230" stroke="#E1E1E1"/>
<line x1="664.469" y1="2.19494e-08" x2="664.469" y2="230" stroke="#E1E1E1"/>
<line x1="678.596" y1="2.19494e-08" x2="678.596" y2="230" stroke="#E1E1E1"/>
<line x1="692.723" y1="2.19494e-08" x2="692.723" y2="230" stroke="#E1E1E1"/>
<line x1="706.85" y1="2.19494e-08" x2="706.85" y2="230" stroke="#E1E1E1"/>
<line x1="720.977" y1="2.19494e-08" x2="720.977" y2="230" stroke="#E1E1E1"/>
<line x1="735.104" y1="2.19494e-08" x2="735.104" y2="230" stroke="#E1E1E1"/>
<line x1="749.23" y1="2.19494e-08" x2="749.23" y2="230" stroke="#E1E1E1"/>
<line x1="763.357" y1="2.19494e-08" x2="763.357" y2="230" stroke="#E1E1E1"/>
<line x1="777.484" y1="2.19494e-08" x2="777.484" y2="230" stroke="#E1E1E1"/>
<line x1="791.611" y1="2.19494e-08" x2="791.611" y2="230" stroke="#E1E1E1"/>
<line x1="805.738" y1="2.19494e-08" x2="805.738" y2="230" stroke="#E1E1E1"/>
<line x1="819.865" y1="2.19494e-08" x2="819.865" y2="230" stroke="#E1E1E1"/>
<line x1="833.992" y1="2.19494e-08" x2="833.992" y2="230" stroke="#E1E1E1"/>
<line x1="848.119" y1="2.19494e-08" x2="848.119" y2="230" stroke="#E1E1E1"/>
<line x1="862.246" y1="2.19494e-08" x2="862.246" y2="230" stroke="#E1E1E1"/>
<line x1="876.373" y1="2.19494e-08" x2="876.373" y2="230" stroke="#E1E1E1"/>
<line x1="890.5" y1="2.19494e-08" x2="890.5" y2="230" stroke="#E1E1E1"/>
<line x1="890" y1="0.5" x2="6.09842e-05" y2="0.499932" stroke="#E1E1E1"/>
<line x1="890" y1="14.875" x2="0.000122021" y2="14.8749" stroke="#E1E1E1"/>
<line x1="890" y1="29.25" x2="0.00012202" y2="29.2499" stroke="#E1E1E1"/>
<line x1="890" y1="43.625" x2="0.00012202" y2="43.6249" stroke="#E1E1E1"/>
<line x1="890" y1="58" x2="0.00012202" y2="57.9999" stroke="#E1E1E1"/>
<line x1="890" y1="72.375" x2="0.00012202" y2="72.3749" stroke="#E1E1E1"/>
<line x1="890" y1="86.75" x2="0.00012202" y2="86.7499" stroke="#E1E1E1"/>
<line x1="890" y1="101.125" x2="0.00012202" y2="101.125" stroke="#E1E1E1"/>
<line x1="890" y1="115.5" x2="0.00012202" y2="115.5" stroke="#E1E1E1"/>
<line x1="890" y1="129.875" x2="0.00012202" y2="129.875" stroke="#E1E1E1"/>
<line x1="890" y1="144.25" x2="0.00012202" y2="144.25" stroke="#E1E1E1"/>
<line x1="890" y1="158.625" x2="0.00012202" y2="158.625" stroke="#E1E1E1"/>
<line x1="890" y1="173" x2="0.00012202" y2="173" stroke="#E1E1E1"/>
<line x1="890" y1="187.375" x2="0.00012202" y2="187.375" stroke="#E1E1E1"/>
<line x1="890" y1="201.75" x2="0.00012202" y2="201.75" stroke="#E1E1E1"/>
<line x1="890" y1="216.125" x2="0.00012202" y2="216.125" stroke="#E1E1E1"/>
<line x1="890" y1="230.5" x2="0.00012202" y2="230.5" stroke="#E1E1E1"/>
</svg>
