<svg width="60" height="34" viewBox="0 0 60 34" fill="none" xmlns="http://www.w3.org/2000/svg">
<g id="kolas_logo" clip-path="url(#clip0_1_1433)">
<g id="Group">
<path id="Vector" d="M59.3518 17.0018C59.3518 26.0373 46.2096 33.362 30.0036 33.362C13.7904 33.362 0.651855 26.0373 0.651855 17.0018C0.651855 7.96627 13.7904 0.641603 30.0036 0.641603C46.2096 0.638039 59.3518 7.96627 59.3518 17.0018Z" fill="white"/>
<path id="Vector_2" d="M8.92685 4.87598C3.16876 8.08387 0 12.3896 0 17.0018C0 21.614 3.16876 25.9197 8.92685 29.1276C14.5654 32.2713 22.0509 34.0036 30 34.0036C37.9491 34.0036 45.4346 32.2713 51.0732 29.1276C56.8312 25.9197 60 21.614 60 17.0018C60 12.3896 56.8312 8.08387 51.0732 4.87598C45.4346 1.73226 37.9491 0 30 0C22.0509 0 14.5654 1.73226 8.92685 4.87598ZM1.3001 17.0018C1.3001 8.33337 14.1743 1.27959 30 1.27959C45.8257 1.27959 58.6999 8.33337 58.6999 17.0018C58.6999 25.6702 45.8257 32.7204 30 32.7204C14.1743 32.7204 1.3001 25.6702 1.3001 17.0018Z" fill="#0C3388"/>
<path id="Vector_3" d="M53.6154 16.8877C53.6154 23.2429 42.9901 28.3969 29.8841 28.3969C16.7781 28.3969 6.15643 23.2429 6.15643 16.8877C6.15643 10.5325 16.7817 5.37854 29.8877 5.37854C42.9901 5.37854 53.6154 10.5325 53.6154 16.8877Z" fill="#0C3388"/>
<g id="Group_2">
<path id="Vector_4" d="M3.62867 20.73L3.53813 20.4555L4.57024 20.1205L3.19409 19.4219L3.06372 19.0298L4.2081 19.6357L5.16416 18.3276L5.28728 18.6948L4.47608 19.7783L4.91428 20.01L5.64943 19.7712L5.73996 20.0456L3.62867 20.73Z" fill="#0C3388"/>
<path id="Vector_5" d="M4.92152 17.3012C4.92876 17.5756 4.85271 17.7788 4.68612 17.9071C4.52316 18.0354 4.31674 18.1031 4.07048 18.1103C3.76266 18.121 3.52726 18.0568 3.36792 17.9178C3.20495 17.7788 3.12166 17.597 3.11442 17.3689C3.10718 17.1337 3.1796 16.9483 3.33533 16.8093C3.49105 16.6703 3.69747 16.5954 3.95821 16.5883C4.20447 16.5812 4.42538 16.6311 4.61732 16.7451C4.81287 16.8521 4.91427 17.0374 4.92152 17.3012ZM2.85005 17.3903C2.86092 17.761 3.0094 18.0319 3.28825 18.2136C3.50553 18.3526 3.76628 18.4168 4.06324 18.4097C4.39641 18.399 4.66802 18.3063 4.87806 18.1281C5.09897 17.9285 5.20037 17.6612 5.1895 17.3261C5.17864 16.9661 5.04102 16.6952 4.77666 16.5063C4.55213 16.3459 4.27328 16.2747 3.94373 16.2853C3.63953 16.296 3.38965 16.3745 3.19771 16.5242C2.95507 16.7166 2.83557 17.0053 2.85005 17.3903Z" fill="#0C3388"/>
<path id="Vector_6" d="M4.08135 15.4192L3.34981 15.2196L3.54175 14.5495C3.5671 14.4569 3.60332 14.3856 3.65039 14.3357C3.73369 14.2466 3.85319 14.2216 4.0053 14.2644C4.14653 14.3036 4.23345 14.3677 4.26604 14.4569C4.29863 14.546 4.29863 14.6565 4.26242 14.7848L4.08135 15.4192ZM5.16053 16.0251L5.24021 15.7364L4.32036 15.4869L4.49781 14.8596C4.5304 14.7456 4.56662 14.6671 4.60645 14.6208C4.67888 14.5424 4.78753 14.5174 4.92876 14.5495L5.29091 14.6315C5.3742 14.6493 5.43214 14.66 5.46474 14.6636C5.49733 14.6636 5.52268 14.6636 5.54079 14.66L5.63856 14.3107L5.59149 14.2965C5.55889 14.3357 5.50819 14.3535 5.43576 14.3535C5.39231 14.3535 5.33074 14.3428 5.24745 14.325L4.95773 14.2537C4.83098 14.2252 4.7332 14.2216 4.66802 14.2501C4.59921 14.2786 4.53765 14.325 4.48333 14.3998C4.4616 14.2929 4.41452 14.2002 4.34933 14.1254C4.28415 14.0505 4.18637 13.9971 4.056 13.9614C3.80974 13.8937 3.61418 13.9436 3.46932 14.1147C3.39327 14.2038 3.33171 14.3285 3.28825 14.4854L3.02026 15.4406L5.16053 16.0251Z" fill="#0C3388"/>
<path id="Vector_7" d="M3.85681 12.9848L4.65715 11.6018L4.89616 11.7337L4.23706 12.8671L4.82011 13.1951L5.42489 12.1507L5.6458 12.2755L5.04102 13.3198L5.6965 13.6869L6.36285 12.5357L6.591 12.664L5.7798 14.0647L3.85681 12.9848Z" fill="#0C3388"/>
<path id="Vector_8" d="M6.37734 11.5198L5.8631 10.6287L6.83002 10.9994L6.37734 11.5198ZM6.65257 12.5784L6.85175 12.3467L6.50047 11.7408L7.06542 11.0921L7.7209 11.3451L7.93456 11.0992L5.72549 10.283L5.50458 10.536L6.65257 12.5784Z" fill="#0C3388"/>
<path id="Vector_9" d="M7.18494 8.84662L7.42033 8.65771L8.65524 10.1512L9.51714 9.45969L9.68373 9.65929L8.58643 10.5361L7.18494 8.84662Z" fill="#0C3388"/>
<path id="Vector_10" d="M9.76341 8.5258L9.52077 7.52779L10.3428 8.14798L9.76341 8.5258ZM9.73082 9.61648L9.98794 9.44896L9.82497 8.77174L10.5493 8.30125L11.1106 8.7254L11.3858 8.54719L9.49542 7.1571L9.21295 7.33888L9.73082 9.61648Z" fill="#0C3388"/>
<path id="Vector_11" d="M11.2265 7.20343L10.9005 6.60463L11.3786 6.35156C11.4945 6.29097 11.5886 6.25532 11.6647 6.24819C11.795 6.2375 11.8928 6.29453 11.9616 6.41928C12.0304 6.54403 12.0268 6.65809 11.9544 6.75789C11.9073 6.82205 11.8276 6.88264 11.7154 6.94324L11.2265 7.20343ZM11.7081 8.09451L11.3424 7.41729L11.8747 7.13927C11.987 7.07868 12.0847 7.0466 12.168 7.03591C12.3238 7.01809 12.4396 7.07868 12.5157 7.22125C12.5592 7.30323 12.5773 7.38521 12.5628 7.46719C12.541 7.59551 12.4505 7.706 12.2875 7.79154L11.7081 8.09451ZM11.5705 8.45094L12.4034 8.01253C12.6642 7.87709 12.8127 7.70243 12.8489 7.48858C12.8742 7.346 12.8525 7.21412 12.7873 7.08937C12.7076 6.94324 12.599 6.85056 12.4686 6.81136C12.3926 6.78997 12.2948 6.78641 12.1753 6.80066C12.226 6.72938 12.2586 6.66522 12.2694 6.60463C12.2984 6.49057 12.2767 6.37295 12.2115 6.24819C12.1536 6.14483 12.0775 6.06641 11.9761 6.01651C11.8059 5.93097 11.6031 5.95236 11.3749 6.07354L10.5275 6.51908L11.5705 8.45094Z" fill="#0C3388"/>
<path id="Vector_12" d="M14.1888 6.95753C13.9317 7.06802 13.7108 7.06802 13.5297 6.96465C13.3486 6.86129 13.2074 6.69733 13.1132 6.47634C12.9937 6.19833 12.9647 5.95952 13.0372 5.75992C13.1096 5.56031 13.2508 5.41774 13.4609 5.32507C13.6782 5.2324 13.881 5.2324 14.0729 5.32151C14.2612 5.41061 14.4061 5.57457 14.5111 5.80982C14.6089 6.03437 14.6415 6.25536 14.6052 6.47278C14.5727 6.69377 14.4314 6.85416 14.1888 6.95753ZM13.3414 5.09339C12.9973 5.23953 12.7909 5.47121 12.7257 5.79556C12.675 6.04506 12.7076 6.30526 12.8235 6.57971C12.9539 6.87911 13.1422 7.09297 13.3884 7.22129C13.6564 7.3496 13.9461 7.34604 14.2612 7.21416C14.598 7.07158 14.8044 6.84703 14.8841 6.53694C14.9529 6.27318 14.9203 5.9916 14.7899 5.69219C14.6704 5.41418 14.5038 5.21814 14.2902 5.09695C14.0186 4.94012 13.6999 4.94012 13.3414 5.09339Z" fill="#0C3388"/>
<path id="Vector_13" d="M15.4744 5.39635L15.2281 4.69062L15.8981 4.4625C15.9923 4.43042 16.0719 4.41973 16.1371 4.42686C16.2602 4.44468 16.3472 4.52666 16.4015 4.67636C16.4486 4.8118 16.4449 4.9223 16.387 5.00071C16.329 5.07913 16.2385 5.13972 16.1081 5.18249L15.4744 5.39635ZM15.5794 6.61178L15.8655 6.51555L15.5541 5.62803L16.1806 5.41417C16.2928 5.37496 16.3798 5.36071 16.4413 5.36784C16.55 5.38209 16.6296 5.45694 16.684 5.58882L16.8216 5.92743C16.8542 6.00585 16.8759 6.05931 16.894 6.08783C16.9085 6.11278 16.9266 6.13416 16.9411 6.14842L17.2887 6.0308L17.2706 5.98446C17.2199 5.9809 17.1765 5.94882 17.1366 5.88823C17.1113 5.85258 17.0859 5.79912 17.057 5.7207L16.9483 5.44625C16.9012 5.32863 16.8469 5.25021 16.7854 5.21101C16.7238 5.1718 16.6477 5.15041 16.5536 5.14328C16.6296 5.06487 16.6803 4.97576 16.7057 4.87953C16.731 4.78329 16.7202 4.67279 16.6767 4.54804C16.5934 4.3128 16.4413 4.18092 16.2168 4.15953C16.0973 4.14884 15.9597 4.17023 15.8039 4.22369L14.8515 4.54804L15.5794 6.61178Z" fill="#0C3388"/>
<path id="Vector_14" d="M17.8211 4.95083L17.9008 3.92787L18.4911 4.76548L17.8211 4.95083ZM17.4517 5.98091L17.7451 5.89893L17.7994 5.20389L18.6359 4.97578L19.0379 5.54607L19.3566 5.46052L17.9877 3.56787L17.6618 3.65698L17.4517 5.98091Z" fill="#0C3388"/>
<path id="Vector_15" d="M20.443 2.97974L20.5009 3.2328L19.773 3.39676L20.2112 5.27159L19.9179 5.33931L19.4797 3.46448L18.7518 3.62844L18.6938 3.37538L20.443 2.97974Z" fill="#0C3388"/>
<path id="Vector_16" d="M22.069 4.70128C21.7938 4.74762 21.5801 4.70128 21.428 4.56227C21.2759 4.4197 21.1782 4.23079 21.1347 3.99198C21.0804 3.69258 21.113 3.45733 21.2289 3.27912C21.3447 3.1009 21.5149 2.99397 21.7431 2.9512C21.9785 2.91199 22.174 2.95476 22.337 3.08664C22.5 3.21852 22.605 3.40743 22.6485 3.6605C22.6919 3.89931 22.6702 4.1203 22.5869 4.32703C22.5036 4.53019 22.3334 4.65494 22.069 4.70128ZM21.6779 2.69101C21.3085 2.75516 21.055 2.93694 20.9138 3.23635C20.8051 3.46803 20.7762 3.72822 20.8269 4.0205C20.8848 4.34128 21.0188 4.59435 21.2289 4.77257C21.4606 4.95791 21.7431 5.02207 22.0799 4.96147C22.4384 4.89732 22.6955 4.72623 22.844 4.44108C22.9708 4.19871 23.007 3.91713 22.949 3.59634C22.8947 3.3005 22.7788 3.06882 22.6014 2.90486C22.3696 2.69813 22.0654 2.62685 21.6779 2.69101Z" fill="#0C3388"/>
<path id="Vector_17" d="M23.6697 3.45376L23.5756 2.71238L24.2781 2.62684C24.3759 2.61615 24.4592 2.61971 24.5208 2.6411C24.6366 2.68387 24.7055 2.78367 24.7272 2.93693C24.7453 3.07951 24.7199 3.18287 24.6475 3.25059C24.5751 3.31475 24.4737 3.35752 24.3361 3.37178L23.6697 3.45376ZM23.514 4.66563L23.8146 4.62998L23.6951 3.6997L24.3506 3.62128C24.4701 3.60703 24.557 3.61059 24.6149 3.62841C24.7163 3.66406 24.7815 3.75316 24.8069 3.89574L24.8684 4.25573C24.8829 4.34127 24.8938 4.3983 24.9046 4.42682C24.9155 4.45533 24.9264 4.48028 24.9372 4.4981L25.303 4.45533L25.2957 4.40543C25.2487 4.39118 25.2088 4.35197 25.1835 4.28425C25.1654 4.24504 25.1509 4.18445 25.14 4.10247L25.0929 3.81019C25.0712 3.68544 25.035 3.59633 24.9843 3.54643C24.9336 3.49653 24.8612 3.45732 24.7706 3.43594C24.8612 3.37535 24.93 3.29693 24.9734 3.20782C25.0169 3.11871 25.0314 3.00822 25.0133 2.87991C24.9807 2.6304 24.8576 2.47357 24.6439 2.40585C24.5316 2.37021 24.394 2.36308 24.2274 2.38447L23.2279 2.50565L23.514 4.66563Z" fill="#0C3388"/>
<path id="Vector_18" d="M25.2704 2.25617L25.6217 2.22766L26.3423 3.22566L26.8964 2.13142L27.2477 2.10291L26.5162 3.46804L26.585 4.34486L26.2844 4.36981L26.212 3.49299L25.2704 2.25617Z" fill="#0C3388"/>
<path id="Vector_19" d="M28.7108 3.34333L29.0439 2.37028L29.4061 3.32908L28.7108 3.34333ZM28.0915 4.24867L28.3993 4.24154L28.6238 3.58214L29.493 3.56432L29.7392 4.21659L30.0688 4.20946L29.2178 2.04236L28.8773 2.04949L28.0915 4.24867Z" fill="#0C3388"/>
<path id="Vector_20" d="M31.9375 2.22052C32.0859 2.37022 32.1692 2.53774 32.1801 2.72309L31.8868 2.71596C31.8578 2.57339 31.7962 2.46289 31.6984 2.37735C31.6043 2.29181 31.4667 2.24904 31.2892 2.24547C31.0756 2.24191 30.8981 2.31319 30.7605 2.46289C30.6265 2.60903 30.5541 2.84071 30.5468 3.15081C30.5396 3.40744 30.5975 3.61417 30.7134 3.77456C30.8293 3.93496 31.0031 4.0205 31.2421 4.02406C31.4594 4.02763 31.626 3.94921 31.7455 3.78526C31.8071 3.69971 31.8542 3.58565 31.8868 3.44308L32.1801 3.45021C32.1511 3.67833 32.0606 3.8708 31.9121 4.02406C31.7347 4.20941 31.4956 4.29495 31.2023 4.29139C30.9488 4.28782 30.7351 4.20584 30.5649 4.04901C30.3404 3.84228 30.2354 3.52506 30.2462 3.10091C30.2535 2.78012 30.344 2.51636 30.5215 2.31319C30.7098 2.09221 30.9705 1.98528 31.2965 1.99597C31.5753 1.9924 31.789 2.07082 31.9375 2.22052Z" fill="#0C3388"/>
<path id="Vector_21" d="M34.237 2.35235C34.3819 2.50918 34.4543 2.6767 34.4579 2.86561L34.1646 2.84422C34.1429 2.70165 34.0849 2.58759 33.9908 2.49848C33.9002 2.40938 33.7663 2.35948 33.5888 2.34878C33.3715 2.33453 33.1941 2.39868 33.0528 2.54126C32.9116 2.68383 32.8283 2.90838 32.8066 3.22204C32.7885 3.47511 32.8319 3.6854 32.9406 3.85292C33.0492 4.02045 33.2194 4.10955 33.4548 4.12738C33.6721 4.14163 33.8423 4.07035 33.9691 3.90995C34.0342 3.82797 34.0886 3.71392 34.1284 3.57491L34.4181 3.59273C34.3783 3.82085 34.2805 4.00619 34.1248 4.15233C33.9365 4.32698 33.6974 4.40539 33.4041 4.38401C33.1506 4.36619 32.9406 4.27708 32.7812 4.11312C32.5676 3.8957 32.477 3.57491 32.506 3.15075C32.5277 2.82997 32.6327 2.57333 32.8174 2.3773C33.0166 2.167 33.281 2.07077 33.6069 2.09215C33.8858 2.10997 34.0958 2.19552 34.237 2.35235Z" fill="#0C3388"/>
<path id="Vector_22" d="M35.2076 3.28624L35.2945 2.54486L36.0007 2.62684C36.0985 2.63753 36.1745 2.66248 36.2325 2.69813C36.3375 2.76585 36.3773 2.87991 36.3592 3.03317C36.3411 3.17575 36.2904 3.27198 36.2071 3.31832C36.1202 3.36465 36.0116 3.37891 35.8739 3.36465L35.2076 3.28624ZM34.7694 4.42682L35.07 4.46246L35.1786 3.53218L35.8377 3.60703C35.9572 3.62129 36.0405 3.64267 36.0912 3.67831C36.1818 3.73891 36.2216 3.83871 36.2144 3.98128L36.189 4.34484C36.1818 4.43038 36.1818 4.48741 36.1818 4.51593C36.1854 4.54801 36.189 4.57296 36.1963 4.59078L36.562 4.63355L36.5693 4.58365C36.5258 4.5587 36.5005 4.51236 36.4896 4.44108C36.4823 4.39831 36.4823 4.33771 36.4896 4.25573L36.5149 3.96346C36.5258 3.83514 36.5113 3.74247 36.4751 3.68188C36.4389 3.62129 36.3773 3.56782 36.2977 3.52505C36.4027 3.48584 36.486 3.42881 36.5512 3.35396C36.6163 3.27911 36.6562 3.17575 36.6707 3.04387C36.6996 2.79436 36.62 2.61258 36.428 2.49853C36.3266 2.43793 36.1926 2.39873 36.0297 2.3809L35.0302 2.26685L34.7694 4.42682Z" fill="#0C3388"/>
<path id="Vector_23" d="M37.308 2.53772L38.9015 2.79791L38.858 3.06167L37.5543 2.84782L37.4456 3.50008L38.6516 3.69612L38.6117 3.94562L37.4058 3.74959L37.2827 4.48027L38.6117 4.69769L38.5683 4.95432L36.9531 4.69057L37.308 2.53772Z" fill="#0C3388"/>
<path id="Vector_24" d="M39.2817 4.84031L39.6439 3.20072L40.1545 3.31121C40.3863 3.36111 40.5384 3.47161 40.6108 3.63913C40.6832 3.80665 40.6905 4.02408 40.6325 4.2914C40.618 4.35912 40.5927 4.43397 40.5601 4.51239C40.5058 4.6407 40.4406 4.74407 40.3645 4.81892C40.2704 4.91159 40.1617 4.96506 40.0422 4.97931C39.9771 4.98644 39.8938 4.97931 39.796 4.95793L39.2817 4.84031ZM38.9341 5.02565L39.796 5.21099C40.1617 5.28941 40.4587 5.18248 40.6796 4.89377C40.8064 4.72981 40.8933 4.53377 40.944 4.30566C41.0092 4.01338 40.9911 3.75675 40.886 3.53577C40.7702 3.29339 40.5637 3.14013 40.2704 3.07597L39.4049 2.89062L38.9341 5.02565Z" fill="#0C3388"/>
<path id="Vector_25" d="M41.7008 3.41101L41.9942 3.48586L41.4365 5.5995L41.1431 5.52465L41.7008 3.41101Z" fill="#0C3388"/>
<path id="Vector_26" d="M44.0693 4.07754L43.9933 4.32705L43.2762 4.11675L42.7149 5.9595L42.4252 5.87396L42.9865 4.03121L42.2731 3.82091L42.3491 3.57141L44.0693 4.07754Z" fill="#0C3388"/>
<path id="Vector_27" d="M44.1815 5.48184L44.8443 4.69056L44.837 5.71352L44.1815 5.48184ZM43.2762 6.11629L43.5695 6.21609L44.0186 5.67788L44.837 5.96302L44.8334 6.65806L45.1448 6.76499L45.1304 4.44106L44.8117 4.33057L43.2762 6.11629Z" fill="#0C3388"/>
<path id="Vector_28" d="M47.4879 5.3749L47.3865 5.61371L46.6985 5.32856L45.9416 7.10359L45.6627 6.98953L46.4196 5.21451L45.7315 4.92936L45.8329 4.69055L47.4879 5.3749Z" fill="#0C3388"/>
<path id="Vector_29" d="M47.8754 5.56738L48.147 5.6957L47.1909 7.66676L46.9193 7.53845L47.8754 5.56738Z" fill="#0C3388"/>
<path id="Vector_30" d="M48.5635 8.14801C48.3172 8.01257 48.1832 7.84504 48.1579 7.63831C48.1325 7.43158 48.1796 7.22485 48.2991 7.01456C48.4512 6.7508 48.6286 6.58684 48.8314 6.51912C49.0379 6.45496 49.237 6.47635 49.4398 6.58684C49.6463 6.7009 49.7694 6.85773 49.8129 7.06089C49.8563 7.26406 49.8129 7.47792 49.6861 7.70247C49.5666 7.91277 49.4073 8.07316 49.2081 8.18009C49.0089 8.28702 48.7952 8.27633 48.5635 8.14801ZM49.5557 6.3516C49.2298 6.16982 48.9147 6.15199 48.6142 6.29457C48.3788 6.40506 48.1905 6.5904 48.042 6.84704C47.879 7.13218 47.8211 7.4102 47.8645 7.68109C47.9261 7.96979 48.1035 8.19435 48.4005 8.35831C48.7192 8.53296 49.027 8.55791 49.324 8.43316C49.5775 8.32623 49.7875 8.13019 49.9468 7.84504C50.0953 7.58128 50.1569 7.33178 50.1243 7.09297C50.0881 6.79001 49.8961 6.5405 49.5557 6.3516Z" fill="#0C3388"/>
<path id="Vector_31" d="M50.9356 7.22131L51.2216 7.42448L51.0768 9.49178L52.1198 8.05536L52.3515 8.21932L51.0623 9.99791L50.7871 9.80544L50.9174 7.72745L49.8745 9.16386L49.6427 8.99991L50.9356 7.22131Z" fill="#0C3388"/>
<path id="Vector_32" d="M52.6738 10.4576C52.5869 10.5467 52.5326 10.6358 52.5109 10.7249C52.471 10.8925 52.5326 11.0635 52.6992 11.2346C52.7752 11.313 52.8513 11.3701 52.9382 11.4128C53.1012 11.4913 53.2424 11.4806 53.3583 11.3701C53.4452 11.2881 53.4814 11.2025 53.4669 11.117C53.4524 11.0279 53.4054 10.9174 53.3221 10.7784L53.17 10.5253C53.0722 10.3614 53.0143 10.2295 52.9961 10.1368C52.9672 9.97642 53.0215 9.83385 53.1555 9.7091C53.3003 9.57365 53.4633 9.5095 53.6516 9.52019C53.8363 9.53088 54.0138 9.62356 54.184 9.79821C54.3397 9.9586 54.4302 10.1333 54.4592 10.3222C54.4882 10.5111 54.4121 10.6893 54.2311 10.8568L54.0355 10.6536C54.1116 10.5645 54.155 10.479 54.1695 10.4041C54.1912 10.2616 54.1333 10.119 53.9884 9.96929C53.8725 9.84811 53.7603 9.78751 53.6553 9.78395C53.5502 9.78039 53.4633 9.81246 53.3909 9.88019C53.3112 9.95504 53.2859 10.037 53.3076 10.1333C53.3221 10.1974 53.3836 10.315 53.4887 10.4932L53.6444 10.757C53.7204 10.8818 53.7639 10.9958 53.7748 11.0921C53.7929 11.2596 53.7313 11.4093 53.5901 11.5447C53.4126 11.7122 53.2243 11.7657 53.0287 11.7158C52.8332 11.6623 52.6557 11.5554 52.4964 11.3915C52.3117 11.199 52.2175 11.0029 52.2139 10.7962C52.2103 10.593 52.2972 10.4113 52.471 10.2509L52.6738 10.4576Z" fill="#0C3388"/>
<path id="Vector_33" d="M55.9403 12.4074C55.9005 12.6141 55.8063 12.7745 55.6579 12.8886L55.4985 12.6462C55.5999 12.5428 55.6615 12.4252 55.676 12.3004C55.6941 12.1757 55.6542 12.0403 55.5565 11.8941C55.4406 11.7159 55.2812 11.6161 55.0784 11.5876C54.8756 11.5591 54.6439 11.6339 54.3795 11.8014C54.1622 11.9405 54.0173 12.1044 53.9485 12.2898C53.8761 12.4751 53.9087 12.664 54.0355 12.86C54.155 13.0383 54.3143 13.1309 54.5207 13.1309C54.6257 13.1345 54.7489 13.106 54.8901 13.0525L55.0495 13.2949C54.8394 13.3983 54.6294 13.4339 54.4193 13.3983C54.1622 13.3591 53.9558 13.2165 53.7964 12.9705C53.6588 12.7602 53.6045 12.5428 53.6443 12.3147C53.6914 12.0153 53.8978 11.7515 54.26 11.5199C54.5352 11.3452 54.8068 11.2704 55.0748 11.2989C55.3681 11.3274 55.5999 11.4771 55.7774 11.748C55.9258 11.9832 55.9802 12.2006 55.9403 12.4074Z" fill="#0C3388"/>
<path id="Vector_34" d="M56.5777 13.2592L56.6791 13.5407L55.8136 13.8366L56.1866 14.8952L57.0522 14.5993L57.1499 14.8809L55.0531 15.5973L54.9553 15.3158L55.9368 14.9807L55.5637 13.9221L54.5823 14.2572L54.4846 13.9756L56.5777 13.2592Z" fill="#0C3388"/>
<path id="Vector_35" d="M57.3273 15.8077L57.4251 17.3939L57.1499 17.4081L57.0702 16.1071L56.4003 16.1463L56.4727 17.3475L56.2156 17.3618L56.1431 16.1606L55.3899 16.2034L55.4695 17.5257L55.2052 17.54L55.111 15.9289L57.3273 15.8077Z" fill="#0C3388"/>
<path id="Vector_36" d="M57.3672 18.2956L57.2622 18.709L55.2885 18.8694L56.9543 19.9209L56.8493 20.3308L54.6982 19.7997L54.767 19.5253L56.0381 19.8354C56.0816 19.8461 56.154 19.8674 56.2554 19.896C56.3568 19.9245 56.4654 19.953 56.5813 19.9815L54.9191 18.9265L54.9915 18.6413L56.9616 18.4774L56.8964 18.4631C56.8457 18.4489 56.7624 18.431 56.6538 18.4096C56.5451 18.3847 56.4654 18.3669 56.4147 18.3562L55.1436 18.0425L55.2124 17.7681L57.3672 18.2956Z" fill="#0C3388"/>
<path id="Vector_37" d="M56.4618 21.1612L55.6687 22.5442L55.4297 22.4123L56.078 21.2789L55.4913 20.9545L54.8901 22.0024L54.6656 21.8777L55.2668 20.8298L54.6113 20.4662L53.9522 21.621L53.7204 21.4927L54.528 20.0884L56.4618 21.1612Z" fill="#0C3388"/>
</g>
<path id="Vector_38" d="M18.4223 14.9701C18.4223 14.9701 15.4708 15.2838 14.6379 12.4858C14.6379 12.4858 13.7796 9.08188 17.6183 7.97338C17.6183 7.97338 26.4474 5.03995 37.9092 7.1821C37.9092 7.1821 45.1304 8.19793 49.7151 11.9226C49.7151 11.9226 54.9879 15.3087 51.4353 20.4984C51.4353 20.4984 52.3515 14.7456 45.9343 13.0525C45.9343 13.0525 39.0536 11.4735 30.9162 12.3753C30.9162 12.3753 24.6113 13.3911 23.351 13.8402C23.351 13.8402 20.5155 14.7777 18.4223 14.9701Z" fill="#D0121B"/>
<g id="Group_3">
<path id="Vector_39" d="M30.938 19.7606C30.938 17.7004 29.2395 16.0323 27.1463 16.0323C25.0531 16.0323 23.3547 17.7004 23.3547 19.7606C23.3547 21.1115 24.0826 22.2948 25.1763 22.9471L16.9013 23.4925L16.3762 24.8077L46.2313 23.1146L46.6586 21.7994L29.3699 22.776C30.3187 22.0988 30.938 21.001 30.938 19.7606ZM27.1463 21.2291C26.4293 21.2291 25.8462 20.5697 25.8462 19.7535C25.8462 18.9373 26.4293 18.2779 27.1463 18.2779C27.8634 18.2779 28.4464 18.9373 28.4464 19.7535C28.4464 20.5697 27.8634 21.2291 27.1463 21.2291Z" fill="white"/>
<path id="Vector_40" d="M20.0773 20.5626C20.1896 21.6212 20.8704 22.6228 20.8704 22.6228L23.782 22.5301C21.0116 18.8624 24.5932 16.2783 24.5932 16.2783L22.0618 16.4173C21.6092 16.5849 21.0406 17.4439 21.0406 17.4439L21.2506 16.51L19.0995 16.6027L17.0461 22.9008L19.5123 22.7262L20.0773 20.5626Z" fill="white"/>
<path id="Vector_41" d="M34.8202 21.9099L35.3742 20.2489L33.1941 20.4129L34.8709 15.708L32.5459 15.8328L30.3766 22.1523L34.8202 21.9099Z" fill="white"/>
<path id="Vector_42" d="M38.8834 17.7681V20.1384L37.5688 20.2168L36.9604 21.8101L41.2772 21.5427L40.5239 15.3943L37.7716 15.5333L35.4213 20.2382L37.5688 20.117L38.8834 17.7681Z" fill="white"/>
<path id="Vector_43" d="M45.5251 16.7844L48.2991 16.6311L48.8641 14.9773C48.817 14.8882 48.1108 14.9844 48.1108 14.9844L44.3699 15.1769C44.0476 15.1911 43.6999 15.3943 43.6999 15.3943C43.3015 15.5618 42.8742 16.2854 42.8742 16.2854C41.9363 17.8858 41.7914 18.506 41.7914 18.506C41.6067 19.2081 42.2731 19.3222 42.2731 19.3222L44.9421 19.3364C45.3803 19.2687 45.2861 19.7 45.2861 19.7C45.2861 20.1741 44.8479 20.0636 44.8479 20.0636L41.8566 20.142L41.3967 21.5962L46.0575 21.3075C46.7926 21.3075 46.9556 20.6731 46.9556 20.6731L47.7197 18.4988C47.9044 17.7289 47.2815 17.7289 47.2815 17.7289L45.4925 17.8145C44.522 17.9321 44.7248 17.3155 44.7248 17.3155C44.7356 16.7309 45.5251 16.7844 45.5251 16.7844Z" fill="white"/>
</g>
</g>
</g>
<defs>
<clipPath id="clip0_1_1433">
<rect width="60" height="34" fill="white"/>
</clipPath>
</defs>
</svg>
