<svg width="891" height="284" viewBox="0 0 891 284" fill="none" xmlns="http://www.w3.org/2000/svg">
<g clip-path="url(#clip0_5_4474)">
<path d="M445.5 283.335H0V0H445.5V283.335ZM0.576242 282.751H444.924V0.585157H0.576242V282.751Z" fill="#B3B3B3"/>
<path d="M445.212 268.614H0.288086V269.199H445.212V268.614Z" fill="#B3B3B3"/>
<path d="M445.212 254.476H0.288086V255.061H445.212V254.476Z" fill="#B3B3B3"/>
<path d="M445.212 240.339H0.288086V240.924H445.212V240.339Z" fill="#B3B3B3"/>
<path d="M445.212 226.201H0.288086V226.786H445.212V226.201Z" fill="#B3B3B3"/>
<path d="M445.212 212.064H0.288086V212.649H445.212V212.064Z" fill="#B3B3B3"/>
<path d="M445.212 197.926H0.288086V198.511H445.212V197.926Z" fill="#B3B3B3"/>
<path d="M445.212 183.788H0.288086V184.374H445.212V183.788Z" fill="#B3B3B3"/>
<path d="M445.212 169.651H0.288086V170.236H445.212V169.651Z" fill="#B3B3B3"/>
<path d="M445.212 155.513H0.288086V156.098H445.212V155.513Z" fill="#B3B3B3"/>
<path d="M445.212 141.376H0.288086V141.961H445.212V141.376Z" fill="#B3B3B3"/>
<path d="M445.212 127.238H0.288086V127.823H445.212V127.238Z" fill="#B3B3B3"/>
<path d="M445.212 113.101H0.288086V113.686H445.212V113.101Z" fill="#B3B3B3"/>
<path d="M445.212 98.963H0.288086V99.5481H445.212V98.963Z" fill="#B3B3B3"/>
<path d="M445.212 84.8254H0.288086V85.4106H445.212V84.8254Z" fill="#B3B3B3"/>
<path d="M445.212 70.6878H0.288086V71.273H445.212V70.6878Z" fill="#B3B3B3"/>
<path d="M445.212 56.5503H0.288086V57.1354H445.212V56.5503Z" fill="#B3B3B3"/>
<path d="M445.212 42.4127H0.288086V42.9979H445.212V42.4127Z" fill="#B3B3B3"/>
<path d="M445.212 28.2751H0.288086V28.8603H445.212V28.2751Z" fill="#B3B3B3"/>
<path d="M445.212 14.1376H0.288086V14.7227H445.212V14.1376Z" fill="#B3B3B3"/>
<path d="M432.018 0.29258H431.441V283.044H432.018V0.29258Z" fill="#B3B3B3"/>
<path d="M418.535 0.29258H417.959V283.044H418.535V0.29258Z" fill="#B3B3B3"/>
<path d="M405.053 0.29258H404.476V283.044H405.053V0.29258Z" fill="#B3B3B3"/>
<path d="M391.57 0.29258H390.994V283.044H391.57V0.29258Z" fill="#B3B3B3"/>
<path d="M378.087 0.29258H377.51V283.044H378.087V0.29258Z" fill="#B3B3B3"/>
<path d="M364.604 0.29258H364.028V283.044H364.604V0.29258Z" fill="#B3B3B3"/>
<path d="M351.122 0.29258H350.546V283.044H351.122V0.29258Z" fill="#B3B3B3"/>
<path d="M337.639 0.29258H337.063V283.044H337.639V0.29258Z" fill="#B3B3B3"/>
<path d="M324.157 0.29258H323.581V283.044H324.157V0.29258Z" fill="#B3B3B3"/>
<path d="M310.674 0.29258H310.098V283.044H310.674V0.29258Z" fill="#B3B3B3"/>
<path d="M297.192 0.29258H296.616V283.044H297.192V0.29258Z" fill="#B3B3B3"/>
<path d="M283.71 0.29258H283.133V283.044H283.71V0.29258Z" fill="#B3B3B3"/>
<path d="M270.227 0.29258H269.651V283.044H270.227V0.29258Z" fill="#B3B3B3"/>
<path d="M256.745 0.29258H256.169V283.044H256.745V0.29258Z" fill="#B3B3B3"/>
<path d="M243.262 0.29258H242.686V283.044H243.262V0.29258Z" fill="#B3B3B3"/>
<path d="M229.78 0.29258H229.204V283.044H229.78V0.29258Z" fill="#B3B3B3"/>
<path d="M216.296 0.29258H215.72V283.044H216.296V0.29258Z" fill="#B3B3B3"/>
<path d="M202.814 0.29258H202.238V283.044H202.814V0.29258Z" fill="#B3B3B3"/>
<path d="M189.331 0.29258H188.755V283.044H189.331V0.29258Z" fill="#B3B3B3"/>
<path d="M175.849 0.29258H175.273V283.044H175.849V0.29258Z" fill="#B3B3B3"/>
<path d="M162.367 0.29258H161.79V283.044H162.367V0.29258Z" fill="#B3B3B3"/>
<path d="M148.884 0.29258H148.308V283.044H148.884V0.29258Z" fill="#B3B3B3"/>
<path d="M135.402 0.29258H134.825V283.044H135.402V0.29258Z" fill="#B3B3B3"/>
<path d="M121.919 0.29258H121.343V283.044H121.919V0.29258Z" fill="#B3B3B3"/>
<path d="M108.437 0.29258H107.861V283.044H108.437V0.29258Z" fill="#B3B3B3"/>
<path d="M94.9545 0.29258H94.3783V283.044H94.9545V0.29258Z" fill="#B3B3B3"/>
<path d="M81.4721 0.29258H80.8959V283.044H81.4721V0.29258Z" fill="#B3B3B3"/>
<path d="M67.9897 0.29258H67.4135V283.044H67.9897V0.29258Z" fill="#B3B3B3"/>
<path d="M54.5073 0.29258H53.931V283.044H54.5073V0.29258Z" fill="#B3B3B3"/>
<path d="M41.0235 0.29258H40.4473V283.044H41.0235V0.29258Z" fill="#B3B3B3"/>
<path d="M27.5411 0.29258H26.9648V283.044H27.5411V0.29258Z" fill="#B3B3B3"/>
<path d="M14.0587 0.29258H13.4824V283.044H14.0587V0.29258Z" fill="#B3B3B3"/>
</g>
<g clip-path="url(#clip1_5_4474)">
<path d="M891 283.335H445.5V0H891V283.335ZM446.076 282.751H890.424V0.585157H446.076V282.751Z" fill="#B3B3B3"/>
<path d="M890.712 268.614H445.788V269.199H890.712V268.614Z" fill="#B3B3B3"/>
<path d="M890.712 254.476H445.788V255.061H890.712V254.476Z" fill="#B3B3B3"/>
<path d="M890.712 240.339H445.788V240.924H890.712V240.339Z" fill="#B3B3B3"/>
<path d="M890.712 226.201H445.788V226.786H890.712V226.201Z" fill="#B3B3B3"/>
<path d="M890.712 212.064H445.788V212.649H890.712V212.064Z" fill="#B3B3B3"/>
<path d="M890.712 197.926H445.788V198.511H890.712V197.926Z" fill="#B3B3B3"/>
<path d="M890.712 183.788H445.788V184.374H890.712V183.788Z" fill="#B3B3B3"/>
<path d="M890.712 169.651H445.788V170.236H890.712V169.651Z" fill="#B3B3B3"/>
<path d="M890.712 155.513H445.788V156.098H890.712V155.513Z" fill="#B3B3B3"/>
<path d="M890.712 141.376H445.788V141.961H890.712V141.376Z" fill="#B3B3B3"/>
<path d="M890.712 127.238H445.788V127.823H890.712V127.238Z" fill="#B3B3B3"/>
<path d="M890.712 113.101H445.788V113.686H890.712V113.101Z" fill="#B3B3B3"/>
<path d="M890.712 98.963H445.788V99.5481H890.712V98.963Z" fill="#B3B3B3"/>
<path d="M890.712 84.8254H445.788V85.4106H890.712V84.8254Z" fill="#B3B3B3"/>
<path d="M890.712 70.6878H445.788V71.273H890.712V70.6878Z" fill="#B3B3B3"/>
<path d="M890.712 56.5503H445.788V57.1354H890.712V56.5503Z" fill="#B3B3B3"/>
<path d="M890.712 42.4127H445.788V42.9979H890.712V42.4127Z" fill="#B3B3B3"/>
<path d="M890.712 28.2751H445.788V28.8603H890.712V28.2751Z" fill="#B3B3B3"/>
<path d="M890.712 14.1376H445.788V14.7227H890.712V14.1376Z" fill="#B3B3B3"/>
<path d="M877.518 0.29258H876.941V283.044H877.518V0.29258Z" fill="#B3B3B3"/>
<path d="M864.035 0.29258H863.459V283.044H864.035V0.29258Z" fill="#B3B3B3"/>
<path d="M850.553 0.29258H849.976V283.044H850.553V0.29258Z" fill="#B3B3B3"/>
<path d="M837.07 0.29258H836.494V283.044H837.07V0.29258Z" fill="#B3B3B3"/>
<path d="M823.587 0.29258H823.01V283.044H823.587V0.29258Z" fill="#B3B3B3"/>
<path d="M810.104 0.29258H809.528V283.044H810.104V0.29258Z" fill="#B3B3B3"/>
<path d="M796.622 0.29258H796.046V283.044H796.622V0.29258Z" fill="#B3B3B3"/>
<path d="M783.139 0.29258H782.563V283.044H783.139V0.29258Z" fill="#B3B3B3"/>
<path d="M769.657 0.29258H769.081V283.044H769.657V0.29258Z" fill="#B3B3B3"/>
<path d="M756.174 0.29258H755.598V283.044H756.174V0.29258Z" fill="#B3B3B3"/>
<path d="M742.692 0.29258H742.116V283.044H742.692V0.29258Z" fill="#B3B3B3"/>
<path d="M729.21 0.29258H728.633V283.044H729.21V0.29258Z" fill="#B3B3B3"/>
<path d="M715.727 0.29258H715.151V283.044H715.727V0.29258Z" fill="#B3B3B3"/>
<path d="M702.245 0.29258H701.669V283.044H702.245V0.29258Z" fill="#B3B3B3"/>
<path d="M688.762 0.29258H688.186V283.044H688.762V0.29258Z" fill="#B3B3B3"/>
<path d="M675.28 0.29258H674.704V283.044H675.28V0.29258Z" fill="#B3B3B3"/>
<path d="M661.796 0.29258H661.22V283.044H661.796V0.29258Z" fill="#B3B3B3"/>
<path d="M648.314 0.29258H647.738V283.044H648.314V0.29258Z" fill="#B3B3B3"/>
<path d="M634.831 0.29258H634.255V283.044H634.831V0.29258Z" fill="#B3B3B3"/>
<path d="M621.349 0.29258H620.773V283.044H621.349V0.29258Z" fill="#B3B3B3"/>
<path d="M607.867 0.29258H607.29V283.044H607.867V0.29258Z" fill="#B3B3B3"/>
<path d="M594.384 0.29258H593.808V283.044H594.384V0.29258Z" fill="#B3B3B3"/>
<path d="M580.902 0.29258H580.326V283.044H580.902V0.29258Z" fill="#B3B3B3"/>
<path d="M567.419 0.29258H566.843V283.044H567.419V0.29258Z" fill="#B3B3B3"/>
<path d="M553.937 0.29258H553.361V283.044H553.937V0.29258Z" fill="#B3B3B3"/>
<path d="M540.455 0.29258H539.878V283.044H540.455V0.29258Z" fill="#B3B3B3"/>
<path d="M526.972 0.29258H526.396V283.044H526.972V0.29258Z" fill="#B3B3B3"/>
<path d="M513.49 0.29258H512.913V283.044H513.49V0.29258Z" fill="#B3B3B3"/>
<path d="M500.007 0.29258H499.431V283.044H500.007V0.29258Z" fill="#B3B3B3"/>
<path d="M486.524 0.29258H485.947V283.044H486.524V0.29258Z" fill="#B3B3B3"/>
<path d="M473.041 0.29258H472.465V283.044H473.041V0.29258Z" fill="#B3B3B3"/>
<path d="M459.559 0.29258H458.982V283.044H459.559V0.29258Z" fill="#B3B3B3"/>
</g>
<path d="M315.253 109.83H291.47V106.372H315.253V109.83ZM308.431 112.75C309.895 113.384 311.032 114.289 311.858 115.447C312.683 116.605 313.088 117.953 313.088 119.492C313.088 121 312.683 122.332 311.858 123.475C311.048 124.617 309.895 125.505 308.431 126.14C306.967 126.774 305.285 127.092 303.385 127.092C301.484 127.092 299.787 126.774 298.307 126.14C296.827 125.505 295.69 124.617 294.881 123.475C294.071 122.332 293.666 121 293.666 119.492C293.666 117.969 294.071 116.621 294.881 115.447C295.69 114.273 296.827 113.384 298.307 112.75C299.787 112.115 301.469 111.798 303.385 111.798C305.3 111.798 306.967 112.115 308.431 112.75ZM301.703 139.387H297.513V129.694H301.703V139.387ZM324.52 141.481H297.528V137.912H324.52V141.481ZM300.41 115.669C299.553 116.002 298.883 116.51 298.432 117.176C297.98 117.842 297.746 118.62 297.746 119.492C297.746 120.365 297.98 121.126 298.432 121.761C298.883 122.396 299.553 122.888 300.41 123.221C301.266 123.554 302.263 123.728 303.369 123.728C304.49 123.728 305.472 123.554 306.344 123.221C307.216 122.888 307.886 122.396 308.369 121.761C308.852 121.126 309.085 120.365 309.085 119.492C309.085 118.62 308.852 117.842 308.369 117.176C307.886 116.51 307.216 116.002 306.344 115.669C305.472 115.336 304.475 115.161 303.369 115.161C302.263 115.161 301.266 115.336 300.41 115.669ZM305.487 108.117H301.266V101.596H305.487V108.117ZM322.823 132.073H318.602V101.628H322.823V132.073ZM328.632 118.287H321.514V114.717H328.632V118.287Z" fill="#535353"/>
<path d="M368.365 121.363H331.795V117.873H368.365V121.363ZM363.926 142.273H359.674V131.786H335.548V128.296H363.926V142.273ZM362.213 106.989H336.374V103.531H362.213V106.989ZM352.12 129.597H347.899V120.237H352.12V129.597ZM363.506 113.002C363.35 114.938 363.007 117.143 362.431 119.618L358.288 119.126C358.802 116.778 359.145 114.7 359.285 112.891C359.441 111.082 359.503 109.099 359.503 106.957V106.545V103.531H363.724V106.529C363.724 108.909 363.661 111.067 363.506 113.002Z" fill="#535353"/>
<path d="M377.881 111.098H388.332V104.561H392.568V124.821H373.722V104.546H377.896V111.098H377.881ZM388.347 121.363V114.43H377.896V121.363H388.347ZM382.46 138.703H378.27V128.581H382.46V138.703ZM405.262 141.48H378.27V137.91H405.262V141.48ZM403.564 131.548H399.343V101.626H403.564V131.548ZM409.389 117.254H402.272V113.668H409.389V117.254Z" fill="#535353"/>
<path d="M431.616 120.046H418.268V130.263H414.047V116.619H427.473V108.687H413.923V105.196H431.632V120.046H431.616ZM426.04 129.137C428.703 128.978 431.476 128.677 434.373 128.232L434.731 131.802C431.787 132.262 428.984 132.564 426.32 132.738C423.657 132.913 420.573 132.992 417.084 132.992H414.047V129.375H417.084C420.402 129.375 423.377 129.295 426.04 129.137ZM442.378 125.329H433.812V121.744H442.378V125.329ZM442.612 114.224H434.077V110.654H442.612V114.224ZM445.821 142.384H441.631V101.579H445.821V142.384Z" fill="#535353"/>
<path d="M489.399 124.853H452.922V121.394H489.399V124.853ZM478.544 128.359C480.615 128.93 482.204 129.771 483.294 130.882C484.384 131.992 484.929 133.325 484.929 134.896C484.929 136.45 484.384 137.783 483.294 138.894C482.204 140.004 480.615 140.845 478.559 141.416C476.503 141.987 474.011 142.289 471.13 142.305C468.248 142.289 465.756 141.987 463.685 141.416C461.613 140.845 460.009 140.004 458.919 138.894C457.813 137.783 457.268 136.45 457.268 134.896C457.268 133.325 457.813 131.976 458.919 130.882C460.025 129.771 461.613 128.93 463.685 128.359C465.756 127.788 468.248 127.502 471.13 127.502C473.996 127.487 476.456 127.772 478.544 128.359ZM484.929 106.862H461.676V115.794H457.501V103.467H484.929V106.862ZM485.163 117.095H457.501V113.636H485.163V117.095ZM465.928 131.31C464.495 131.627 463.42 132.072 462.672 132.69C461.925 133.293 461.551 134.023 461.551 134.896C461.551 135.768 461.925 136.498 462.672 137.101C463.42 137.704 464.495 138.164 465.928 138.465C467.361 138.767 469.089 138.925 471.114 138.925C473.139 138.925 474.883 138.767 476.301 138.465C477.718 138.164 478.808 137.704 479.54 137.085C480.288 136.466 480.662 135.736 480.662 134.896C480.662 134.039 480.288 133.293 479.54 132.69C478.793 132.087 477.702 131.627 476.27 131.31C474.837 130.993 473.108 130.85 471.114 130.85C469.089 130.85 467.361 131.009 465.928 131.31ZM473.217 122.838H469.089V115.001H473.217V122.838Z" fill="#535353"/>
<path d="M529.739 121.902H493.309V118.444H529.739V121.902ZM525.113 135.007H501.875V139.592H497.701V131.85H520.955V128.74H497.639V125.44H525.098V135.007H525.113ZM526.282 141.892H497.717V138.561H526.282V141.892ZM525.036 115.445H497.95V102.896H525.036V115.445ZM502.14 112.05H520.83V106.307H502.14V112.05ZM513.572 126.995H509.351V120.887H513.572V126.995Z" fill="#535353"/>
<path d="M550.346 105.672C551.966 106.529 553.258 107.735 554.177 109.274C555.112 110.813 555.564 112.558 555.564 114.509C555.564 116.445 555.096 118.19 554.177 119.729C553.243 121.268 551.966 122.473 550.346 123.346C548.726 124.219 546.904 124.647 544.91 124.647C542.916 124.647 541.11 124.219 539.49 123.346C537.87 122.473 536.593 121.268 535.674 119.729C534.739 118.19 534.272 116.445 534.272 114.509C534.272 112.558 534.739 110.813 535.674 109.274C536.608 107.735 537.87 106.545 539.49 105.672C541.11 104.8 542.916 104.371 544.926 104.371C546.904 104.371 548.726 104.8 550.346 105.672ZM541.639 108.94C540.642 109.464 539.864 110.226 539.287 111.193C538.711 112.177 538.431 113.272 538.431 114.493C538.431 115.731 538.711 116.841 539.287 117.793C539.864 118.761 540.642 119.507 541.639 120.046C542.636 120.586 543.726 120.855 544.91 120.855C546.156 120.855 547.278 120.586 548.259 120.046C549.24 119.507 550.019 118.761 550.579 117.793C551.14 116.825 551.421 115.731 551.421 114.493C551.421 113.24 551.14 112.129 550.579 111.162C550.019 110.194 549.24 109.448 548.259 108.925C547.278 108.401 546.156 108.131 544.91 108.131C543.726 108.147 542.636 108.401 541.639 108.94ZM543.96 139.386H539.77V128.375H543.96V139.386ZM566.762 141.48H539.77V137.91H566.762V141.48ZM565.08 131.485H560.859V101.595H565.08V131.485ZM570.89 117.333H563.772V113.748H570.89V117.333Z" fill="#535353"/>
<path d="M586.185 116.889C585.281 119.094 583.973 121.03 582.291 122.679C580.609 124.329 578.615 125.583 576.31 126.455L574.098 122.965C576.108 122.267 577.868 121.252 579.378 119.903C580.889 118.555 582.042 117.016 582.852 115.286C583.662 113.557 584.067 111.748 584.067 109.86V106.751H587.54V109.86C587.54 112.32 587.088 114.668 586.185 116.889ZM596.963 108.258H575.376V104.736H596.963V108.258ZM585.671 139.798H581.419V128.756H585.671V139.798ZM608.442 141.48H581.419V137.91H608.442V141.48ZM589.518 114.858C590.297 116.476 591.418 117.92 592.867 119.189C594.315 120.458 596.028 121.426 597.991 122.092L595.826 125.519C593.583 124.726 591.636 123.552 590.001 121.966C588.365 120.379 587.104 118.555 586.231 116.46C585.359 114.366 584.923 112.177 584.923 109.876V106.735H588.35V109.876C588.35 111.574 588.739 113.24 589.518 114.858ZM605.467 116.175H595.483V112.637H605.467V116.175ZM607.367 131.437H603.131V101.626H607.367V131.437Z" fill="#535353"/>
<path d="M631.322 105.656C632.941 106.513 634.219 107.703 635.153 109.242C636.072 110.781 636.539 112.51 636.539 114.461C636.539 116.429 636.072 118.174 635.153 119.713C634.234 121.252 632.957 122.442 631.322 123.298C629.686 124.155 627.879 124.599 625.886 124.599C623.892 124.599 622.085 124.171 620.481 123.298C618.877 122.426 617.6 121.236 616.65 119.713C615.715 118.19 615.248 116.429 615.248 114.461C615.248 112.526 615.715 110.781 616.65 109.242C617.584 107.703 618.861 106.513 620.481 105.656C622.101 104.799 623.892 104.371 625.886 104.371C627.879 104.371 629.702 104.799 631.322 105.656ZM622.568 108.94C621.571 109.464 620.793 110.209 620.232 111.161C619.671 112.113 619.391 113.208 619.391 114.461C619.391 115.699 619.671 116.809 620.232 117.777C620.793 118.745 621.571 119.491 622.568 120.03C623.565 120.554 624.671 120.823 625.886 120.823C627.101 120.823 628.207 120.554 629.188 120.03C630.169 119.506 630.948 118.745 631.508 117.777C632.069 116.809 632.35 115.699 632.35 114.461C632.35 113.224 632.069 112.129 631.508 111.161C630.948 110.209 630.169 109.464 629.188 108.94C628.207 108.417 627.101 108.147 625.886 108.147C624.671 108.147 623.565 108.401 622.568 108.94ZM625.699 139.211H621.462V128.216H625.699V139.211ZM648.766 141.48H621.447V137.91H648.766V141.48ZM647.567 131.215H643.346V101.626H647.567V131.215Z" fill="#535353"/>
<path d="M691.238 124.266H654.808V120.744H691.238V124.266ZM671.91 112.256C670.539 113.954 668.67 115.366 666.271 116.46C663.873 117.555 661.178 118.285 658.172 118.634L656.724 115.207C659.231 114.937 661.521 114.382 663.577 113.541C665.633 112.7 667.253 111.669 668.421 110.463C669.589 109.258 670.181 107.957 670.181 106.576V105.402H673.95V106.576C673.966 108.655 673.28 110.559 671.91 112.256ZM687.983 107.116H658.126V103.626H687.983V107.116ZM680.398 128.28C682.485 128.867 684.058 129.708 685.164 130.818C686.254 131.929 686.8 133.262 686.8 134.832C686.8 136.403 686.254 137.752 685.164 138.846C684.074 139.957 682.501 140.798 680.429 141.369C678.358 141.94 675.881 142.225 673 142.225C670.118 142.225 667.642 141.94 665.555 141.369C663.468 140.798 661.879 139.957 660.789 138.846C659.683 137.736 659.138 136.403 659.138 134.832C659.138 133.278 659.699 131.929 660.804 130.818C661.926 129.708 663.515 128.851 665.602 128.28C667.689 127.693 670.15 127.407 673 127.407C675.85 127.392 678.327 127.693 680.398 128.28ZM667.798 131.231C666.365 131.548 665.275 132.008 664.543 132.611C663.811 133.23 663.437 133.96 663.437 134.832C663.437 135.657 663.81 136.387 664.558 136.99C665.306 137.593 666.38 138.053 667.813 138.37C669.246 138.688 670.975 138.83 673 138.83C675.04 138.83 676.769 138.672 678.186 138.37C679.604 138.053 680.694 137.609 681.426 136.99C682.158 136.371 682.548 135.673 682.548 134.832C682.548 133.976 682.174 133.23 681.426 132.611C680.678 131.992 679.604 131.532 678.186 131.231C676.769 130.914 675.04 130.771 673 130.771C670.96 130.755 669.231 130.914 667.798 131.231ZM677.579 110.463C678.747 111.669 680.367 112.7 682.423 113.541C684.494 114.382 686.8 114.937 689.354 115.207L687.812 118.634C684.837 118.285 682.158 117.571 679.76 116.46C677.361 115.366 675.476 113.97 674.09 112.256C672.704 110.559 672.019 108.655 672.019 106.561V105.387H675.803V106.561C675.835 107.957 676.411 109.242 677.579 110.463Z" fill="#535353"/>
<path d="M705.475 116.778C704.774 118.904 703.731 120.808 702.36 122.505C700.99 124.203 699.354 125.504 697.454 126.44L695.118 123.124C696.815 122.299 698.264 121.204 699.463 119.792C700.663 118.396 701.581 116.857 702.22 115.207C702.859 113.557 703.17 111.907 703.17 110.273V104.435H706.534V110.273C706.534 112.478 706.176 114.652 705.475 116.778ZM706.955 139.941H702.734V128.407H706.955V139.941ZM730.396 141.48H702.75V137.91H730.396V141.48ZM708.154 114.937C708.746 116.445 709.618 117.841 710.755 119.078C711.908 120.332 713.294 121.331 714.945 122.061L712.609 125.424C710.74 124.536 709.151 123.314 707.874 121.759C706.581 120.205 705.615 118.444 704.961 116.476C704.307 114.509 703.98 112.431 703.98 110.257V104.419H707.251V110.257C707.266 111.86 707.562 113.414 708.154 114.937ZM718.683 115.128H711.441V111.59H718.683V115.128ZM721.315 130.945H717.25V102.356H721.315V130.945ZM729.259 132.104H725.225V101.579H729.259V132.104Z" fill="#535353"/>
<path d="M756.078 108.75H741.656V130.343H737.404V105.212H756.094V108.75H756.078ZM750.3 128.962C752.948 128.804 755.611 128.486 758.305 128.026L758.757 131.548C755.969 131.993 753.197 132.294 750.44 132.468C747.683 132.643 744.381 132.722 740.503 132.722H737.404V129.184H740.503C744.381 129.2 747.652 129.137 750.3 128.962ZM754.396 120.094H740.596V116.635H754.396V120.094ZM765.299 120.125H756.717V116.603H765.299V120.125ZM768.897 142.384H764.676V101.579H768.897V142.384Z" fill="#535353"/>
<path d="M298.277 154.537H300.27V165.532H300.488L310.238 154.537H312.886L304.226 164.104L312.839 175.273H310.394L302.965 165.5L300.286 168.562V175.273H298.292V154.537H298.277Z" fill="#535353"/>
<path d="M316.967 174.574C315.924 173.892 315.129 172.956 314.553 171.735C313.977 170.513 313.696 169.133 313.696 167.562C313.696 165.991 313.977 164.595 314.553 163.374C315.129 162.152 315.924 161.216 316.967 160.534C318.011 159.852 319.179 159.518 320.487 159.518C321.795 159.518 322.964 159.852 323.991 160.534C325.019 161.216 325.814 162.152 326.375 163.374C326.935 164.595 327.231 165.991 327.231 167.562C327.231 169.133 326.951 170.513 326.375 171.735C325.814 172.956 325.004 173.892 323.991 174.574C322.979 175.257 321.795 175.59 320.487 175.59C319.179 175.59 318.011 175.241 316.967 174.574ZM323.104 172.988C323.836 172.433 324.381 171.671 324.77 170.703C325.144 169.751 325.331 168.689 325.331 167.53C325.331 166.372 325.144 165.325 324.77 164.357C324.396 163.405 323.836 162.644 323.104 162.073C322.372 161.502 321.499 161.216 320.487 161.216C319.475 161.216 318.602 161.502 317.87 162.073C317.138 162.644 316.578 163.405 316.204 164.357C315.815 165.309 315.628 166.372 315.628 167.53C315.628 168.689 315.815 169.736 316.204 170.703C316.578 171.655 317.138 172.417 317.87 172.988C318.602 173.559 319.475 173.829 320.487 173.829C321.499 173.829 322.387 173.559 323.104 172.988Z" fill="#535353"/>
<path d="M330.766 159.725H332.62V162.136H332.76C333.072 161.327 333.601 160.677 334.349 160.201C335.096 159.725 335.937 159.487 336.872 159.487C337.23 159.487 337.573 159.503 337.869 159.534V161.502C337.791 161.486 337.635 161.454 337.401 161.438C337.183 161.407 336.95 161.391 336.732 161.391C335.969 161.391 335.283 161.565 334.66 161.898C334.037 162.232 333.554 162.707 333.196 163.295C332.838 163.882 332.667 164.564 332.667 165.309V175.289H330.751V159.725H330.766Z" fill="#535353"/>
<path d="M342.557 174.59C341.498 173.924 340.688 172.988 340.112 171.766C339.535 170.561 339.255 169.164 339.255 167.594C339.255 166.039 339.535 164.643 340.112 163.405C340.688 162.168 341.482 161.216 342.51 160.534C343.538 159.852 344.706 159.503 346.015 159.503C347.183 159.503 348.257 159.788 349.239 160.343C350.22 160.899 351.014 161.755 351.606 162.914C352.198 164.072 352.494 165.484 352.494 167.165V168.086H340.563V166.388H350.563C350.563 165.42 350.376 164.532 349.986 163.754C349.597 162.977 349.067 162.358 348.366 161.914C347.666 161.47 346.887 161.248 345.999 161.248C345.065 161.248 344.223 161.502 343.491 161.993C342.759 162.501 342.199 163.167 341.778 164.024C341.358 164.881 341.171 165.801 341.171 166.801V167.832C341.171 169.037 341.373 170.1 341.794 171.005C342.214 171.909 342.806 172.607 343.569 173.099C344.333 173.591 345.22 173.829 346.248 173.829C346.918 173.829 347.51 173.734 348.024 173.527C348.538 173.321 348.974 173.067 349.332 172.766C349.69 172.464 349.955 172.115 350.142 171.75H352.198C351.964 172.48 351.575 173.131 351.03 173.702C350.485 174.273 349.799 174.733 348.99 175.082C348.18 175.415 347.261 175.59 346.248 175.59C344.846 175.59 343.616 175.257 342.557 174.59Z" fill="#535353"/>
<path d="M362.726 167.848L361.122 167.959C359.798 168.054 358.786 168.355 358.132 168.863C357.462 169.371 357.135 170.085 357.135 170.989C357.135 171.576 357.275 172.1 357.571 172.528C357.867 172.956 358.272 173.29 358.801 173.512C359.331 173.734 359.923 173.861 360.577 173.861C361.48 173.861 362.259 173.654 362.944 173.258C363.63 172.845 364.144 172.306 364.533 171.624C364.907 170.942 365.094 170.18 365.094 169.339V164.58C365.094 163.882 364.954 163.279 364.673 162.771C364.393 162.263 363.972 161.883 363.412 161.613C362.851 161.343 362.181 161.216 361.387 161.216C360.406 161.216 359.596 161.422 358.926 161.835C358.272 162.247 357.836 162.819 357.649 163.532H355.655C355.764 162.723 356.091 162.009 356.605 161.407C357.119 160.804 357.805 160.328 358.646 159.995C359.487 159.661 360.421 159.487 361.465 159.487C362.384 159.487 363.256 159.646 364.066 159.947C364.876 160.248 365.577 160.804 366.137 161.581C366.698 162.358 366.994 163.421 366.994 164.754V175.273H365.094V172.861H364.985C364.767 173.337 364.44 173.781 364.019 174.194C363.599 174.606 363.069 174.955 362.43 175.225C361.792 175.495 361.075 175.622 360.265 175.622C359.331 175.622 358.474 175.431 357.711 175.066C356.948 174.702 356.341 174.146 355.889 173.432C355.437 172.718 355.219 171.878 355.219 170.91C355.219 169.387 355.718 168.276 356.73 167.562C357.742 166.848 359.113 166.436 360.842 166.309C361.262 166.277 362.197 166.198 363.645 166.103L365.281 166.039L365.296 167.642C365.156 167.657 364.299 167.737 362.726 167.848Z" fill="#535353"/>
<path d="M378.738 154.537H385.388C386.821 154.537 388.021 154.823 389.017 155.378C390.014 155.933 390.762 156.695 391.26 157.662C391.759 158.63 392.008 159.741 392.008 160.978C392.008 162.216 391.759 163.31 391.26 164.294C390.762 165.262 390.014 166.039 389.017 166.595C388.021 167.166 386.821 167.435 385.404 167.435H380.264V165.595H385.326C386.37 165.595 387.242 165.405 387.943 165.008C388.659 164.611 389.173 164.056 389.516 163.358C389.859 162.66 390.03 161.867 390.03 160.978C390.03 160.058 389.859 159.265 389.516 158.567C389.173 157.869 388.644 157.329 387.927 156.948C387.211 156.552 386.339 156.361 385.295 156.361H380.731V175.289H378.738V154.537Z" fill="#535353"/>
<path d="M398.005 174.59C396.946 173.924 396.136 172.988 395.559 171.766C394.983 170.561 394.703 169.164 394.703 167.594C394.703 166.039 394.983 164.643 395.559 163.405C396.136 162.168 396.93 161.216 397.958 160.534C398.986 159.852 400.154 159.503 401.462 159.503C402.631 159.503 403.705 159.788 404.686 160.343C405.668 160.899 406.462 161.755 407.054 162.914C407.646 164.072 407.942 165.484 407.942 167.165V168.086H396.011V166.388H406.01C406.01 165.42 405.823 164.532 405.434 163.754C405.045 162.977 404.515 162.358 403.814 161.914C403.113 161.47 402.335 161.248 401.447 161.248C400.512 161.248 399.671 161.502 398.939 161.993C398.207 162.501 397.646 163.167 397.226 164.024C396.805 164.881 396.619 165.801 396.619 166.801V167.832C396.619 169.037 396.821 170.1 397.242 171.005C397.662 171.909 398.254 172.607 399.017 173.099C399.78 173.591 400.668 173.829 401.696 173.829C402.366 173.829 402.958 173.734 403.472 173.527C403.986 173.321 404.422 173.067 404.78 172.766C405.138 172.464 405.403 172.115 405.59 171.75H407.646C407.412 172.48 407.023 173.131 406.478 173.702C405.932 174.273 405.247 174.733 404.437 175.082C403.627 175.415 402.708 175.59 401.696 175.59C400.294 175.59 399.064 175.257 398.005 174.59Z" fill="#535353"/>
<path d="M417.567 161.375H410.153V159.709H417.567V161.375ZM414.359 155.996V171.132C414.359 171.75 414.452 172.242 414.654 172.607C414.857 172.972 415.122 173.226 415.449 173.384C415.776 173.543 416.165 173.622 416.601 173.622C417.006 173.622 417.442 173.607 417.863 173.575V175.399C417.474 175.463 416.991 175.495 416.414 175.495C415.729 175.495 415.075 175.336 414.468 175.034C413.86 174.733 413.362 174.273 412.988 173.686C412.614 173.099 412.412 172.385 412.412 171.576V155.98H414.359V155.996Z" fill="#535353"/>
<path d="M438.951 157.773C438.546 157.218 437.986 156.79 437.285 156.504C436.584 156.219 435.789 156.06 434.917 156.06C433.983 156.06 433.173 156.219 432.456 156.536C431.74 156.853 431.179 157.297 430.79 157.868C430.385 158.44 430.182 159.09 430.182 159.82C430.182 160.804 430.556 161.581 431.304 162.152C432.051 162.723 433.017 163.183 434.216 163.516L436.319 164.119C437.954 164.564 439.294 165.214 440.337 166.071C441.381 166.928 441.91 168.133 441.91 169.72C441.91 170.83 441.63 171.846 441.054 172.734C440.478 173.623 439.668 174.337 438.577 174.844C437.487 175.352 436.226 175.606 434.761 175.606C433.391 175.606 432.176 175.368 431.148 174.908C430.12 174.448 429.295 173.781 428.703 172.94C428.111 172.1 427.784 171.116 427.706 170.005H429.746C429.824 170.799 430.089 171.465 430.541 172.02C430.992 172.575 431.584 173.004 432.316 173.289C433.048 173.591 433.874 173.734 434.777 173.734C435.774 173.734 436.677 173.559 437.456 173.226C438.25 172.893 438.858 172.401 439.294 171.782C439.73 171.163 439.948 170.45 439.948 169.64C439.948 168.974 439.777 168.419 439.434 167.943C439.091 167.467 438.624 167.086 438.017 166.769C437.409 166.452 436.646 166.166 435.727 165.88L433.282 165.182C431.646 164.691 430.385 164.008 429.513 163.12C428.64 162.231 428.22 161.153 428.22 159.852C428.22 158.741 428.516 157.757 429.108 156.901C429.699 156.044 430.509 155.378 431.522 154.886C432.534 154.41 433.687 154.156 434.948 154.156C436.21 154.156 437.331 154.394 438.313 154.87C439.294 155.346 440.088 155.996 440.664 156.837C441.241 157.662 441.552 158.614 441.599 159.661H439.652C439.605 158.979 439.372 158.329 438.951 157.773Z" fill="#535353"/>
<path d="M452.378 167.848L450.774 167.959C449.45 168.054 448.437 168.355 447.783 168.863C447.113 169.371 446.786 170.085 446.786 170.989C446.786 171.576 446.927 172.1 447.222 172.528C447.518 172.956 447.923 173.29 448.453 173.512C448.982 173.734 449.574 173.861 450.228 173.861C451.132 173.861 451.911 173.654 452.596 173.258C453.281 172.845 453.795 172.306 454.185 171.624C454.558 170.942 454.745 170.18 454.745 169.339V164.58C454.745 163.882 454.605 163.279 454.325 162.771C454.044 162.263 453.624 161.883 453.063 161.613C452.502 161.343 451.833 161.216 451.038 161.216C450.057 161.216 449.247 161.422 448.577 161.835C447.923 162.247 447.487 162.819 447.3 163.532H445.307C445.416 162.723 445.743 162.009 446.257 161.407C446.771 160.804 447.456 160.328 448.297 159.995C449.138 159.661 450.073 159.487 451.116 159.487C452.035 159.487 452.907 159.646 453.717 159.947C454.527 160.248 455.228 160.804 455.789 161.581C456.35 162.358 456.645 163.421 456.645 164.754V175.273H454.745V172.861H454.636C454.418 173.337 454.091 173.781 453.671 174.194C453.25 174.606 452.721 174.955 452.082 175.225C451.443 175.495 450.727 175.622 449.917 175.622C448.982 175.622 448.126 175.431 447.363 175.066C446.599 174.702 445.992 174.146 445.54 173.432C445.089 172.718 444.871 171.878 444.871 170.91C444.871 169.387 445.369 168.276 446.381 167.562C447.394 166.848 448.764 166.436 450.493 166.309C450.914 166.277 451.848 166.198 453.297 166.103L454.932 166.039L454.948 167.642C454.808 167.657 453.951 167.737 452.378 167.848Z" fill="#535353"/>
<path d="M467.315 161.375H459.683V159.709H467.315V161.375ZM462.518 155.378C462.845 154.791 463.312 154.346 463.904 154.045C464.511 153.728 465.212 153.585 466.038 153.585C466.287 153.585 466.552 153.601 466.832 153.617C467.112 153.648 467.377 153.68 467.626 153.728V155.489C467.221 155.425 466.816 155.394 466.411 155.394C465.586 155.394 464.978 155.6 464.573 156.012C464.169 156.425 463.966 157.044 463.966 157.884L463.95 175.288H462.019V157.488C462.035 156.663 462.19 155.965 462.518 155.378Z" fill="#535353"/>
<path d="M472.376 174.59C471.317 173.924 470.507 172.988 469.931 171.766C469.354 170.561 469.074 169.164 469.074 167.594C469.074 166.039 469.354 164.643 469.931 163.405C470.507 162.168 471.301 161.216 472.329 160.534C473.357 159.852 474.525 159.503 475.834 159.503C477.002 159.503 478.061 159.788 479.058 160.343C480.039 160.899 480.833 161.755 481.425 162.914C482.017 164.072 482.313 165.484 482.313 167.165V168.086H470.382V166.388H480.382C480.382 165.42 480.195 164.532 479.805 163.754C479.416 162.977 478.886 162.358 478.186 161.914C477.485 161.47 476.706 161.248 475.818 161.248C474.884 161.248 474.043 161.502 473.31 161.993C472.578 162.485 472.018 163.167 471.597 164.024C471.177 164.881 470.99 165.801 470.99 166.801V167.832C470.99 169.037 471.192 170.1 471.613 171.005C472.033 171.909 472.625 172.607 473.388 173.099C474.152 173.591 475.039 173.829 476.067 173.829C476.737 173.829 477.329 173.734 477.843 173.527C478.357 173.321 478.793 173.067 479.151 172.766C479.509 172.464 479.774 172.115 479.961 171.75H482.017C481.783 172.48 481.394 173.131 480.849 173.702C480.304 174.273 479.618 174.733 478.809 175.082C477.999 175.415 477.08 175.59 476.067 175.59C474.666 175.59 473.435 175.257 472.376 174.59Z" fill="#535353"/>
<path d="M491.939 161.375H484.525V159.709H491.939V161.375ZM488.73 155.996V171.132C488.73 171.75 488.824 172.242 489.026 172.607C489.229 172.972 489.493 173.226 489.82 173.384C490.148 173.543 490.537 173.622 490.973 173.622C491.378 173.622 491.814 173.607 492.235 173.575V175.399C491.845 175.463 491.362 175.495 490.786 175.495C490.101 175.495 489.447 175.336 488.839 175.034C488.232 174.733 487.733 174.273 487.36 173.686C486.986 173.099 486.783 172.385 486.783 171.576V155.98H488.73V155.996Z" fill="#535353"/>
<path d="M495.693 181.079V179.318L496.035 179.334C496.16 179.35 496.347 179.366 496.612 179.366C497.017 179.366 497.39 179.318 497.686 179.207C497.998 179.112 498.294 178.874 498.59 178.525C498.886 178.176 499.15 177.637 499.4 176.939L499.945 175.431L494.322 159.725H496.409L500.864 172.75H500.988L505.443 159.725H507.53L501.082 177.684C500.661 178.827 500.1 179.683 499.384 180.254C498.668 180.826 497.795 181.111 496.752 181.111C496.362 181.111 496.004 181.095 495.693 181.079Z" fill="#535353"/>
<path d="M530.939 158.519C530.362 157.774 529.646 157.203 528.789 156.79C527.933 156.378 526.998 156.171 525.986 156.171C524.693 156.171 523.525 156.504 522.481 157.187C521.438 157.869 520.612 158.868 519.989 160.185C519.382 161.502 519.07 163.073 519.07 164.913C519.07 166.753 519.382 168.34 519.989 169.641C520.597 170.958 521.422 171.957 522.481 172.623C523.525 173.306 524.709 173.639 526.001 173.639C527.014 173.639 527.948 173.433 528.805 173.02C529.662 172.608 530.378 172.021 530.954 171.291C531.531 170.545 531.92 169.72 532.107 168.784H534.101C533.882 170.069 533.4 171.227 532.668 172.259C531.936 173.29 531.001 174.099 529.848 174.686C528.696 175.273 527.419 175.558 526.017 175.558C524.304 175.558 522.777 175.114 521.438 174.242C520.098 173.369 519.055 172.116 518.307 170.513C517.56 168.911 517.186 167.039 517.186 164.913C517.186 162.771 517.56 160.899 518.307 159.297C519.055 157.694 520.098 156.441 521.438 155.568C522.777 154.696 524.304 154.252 526.017 154.252C527.419 154.252 528.696 154.537 529.848 155.124C531.001 155.711 531.936 156.504 532.668 157.536C533.4 158.567 533.882 159.741 534.101 161.058H532.107C531.889 160.106 531.515 159.265 530.939 158.519Z" fill="#535353"/>
<path d="M540.206 174.59C539.147 173.924 538.337 172.988 537.76 171.766C537.184 170.561 536.904 169.164 536.904 167.594C536.904 166.039 537.184 164.643 537.76 163.405C538.337 162.168 539.131 161.216 540.159 160.534C541.187 159.852 542.355 159.503 543.663 159.503C544.832 159.503 545.906 159.788 546.888 160.343C547.869 160.899 548.663 161.755 549.255 162.914C549.847 164.072 550.143 165.484 550.143 167.165V168.086H538.212V166.388H548.211C548.211 165.42 548.024 164.532 547.635 163.754C547.246 162.977 546.716 162.358 546.015 161.914C545.314 161.47 544.536 161.248 543.648 161.248C542.713 161.248 541.872 161.502 541.14 161.993C540.408 162.501 539.848 163.167 539.427 164.024C539.006 164.881 538.82 165.801 538.82 166.801V167.832C538.82 169.037 539.022 170.1 539.443 171.005C539.863 171.909 540.455 172.607 541.218 173.099C541.981 173.591 542.869 173.829 543.897 173.829C544.567 173.829 545.159 173.734 545.673 173.527C546.187 173.321 546.623 173.067 546.981 172.766C547.339 172.464 547.604 172.115 547.791 171.75H549.847C549.613 172.48 549.224 173.131 548.679 173.702C548.134 174.273 547.448 174.733 546.638 175.082C545.828 175.415 544.909 175.59 543.897 175.59C542.495 175.59 541.265 175.257 540.206 174.59Z" fill="#535353"/>
<path d="M553.632 159.725H555.486V162.136H555.641C555.953 161.327 556.482 160.677 557.23 160.201C557.978 159.725 558.819 159.487 559.753 159.487C560.112 159.487 560.454 159.503 560.75 159.534V161.502C560.672 161.486 560.516 161.454 560.283 161.438C560.049 161.422 559.831 161.391 559.613 161.391C558.85 161.391 558.165 161.565 557.542 161.898C556.919 162.232 556.436 162.707 556.078 163.295C555.719 163.882 555.548 164.564 555.548 165.309V175.289H553.632V159.725Z" fill="#535353"/>
<path d="M570.469 161.375H563.055V159.709H570.469V161.375ZM567.276 155.996V171.132C567.276 171.75 567.37 172.242 567.572 172.607C567.775 172.972 568.039 173.226 568.366 173.384C568.694 173.543 569.083 173.622 569.519 173.622C569.924 173.622 570.36 173.607 570.781 173.575V175.399C570.391 175.463 569.908 175.495 569.332 175.495C568.647 175.495 567.993 175.336 567.385 175.034C566.778 174.733 566.279 174.273 565.906 173.686C565.532 173.099 565.329 172.385 565.329 171.576V155.98H567.276V155.996Z" fill="#535353"/>
<path d="M574.362 156.885C574.144 156.758 573.973 156.599 573.848 156.377C573.724 156.155 573.661 155.933 573.661 155.695C573.661 155.441 573.724 155.219 573.848 155.013C573.973 154.807 574.144 154.648 574.362 154.521C574.58 154.394 574.814 154.347 575.047 154.347C575.312 154.347 575.561 154.41 575.78 154.521C575.998 154.648 576.169 154.807 576.294 155.013C576.418 155.219 576.48 155.441 576.48 155.695C576.48 155.933 576.418 156.155 576.294 156.377C576.169 156.599 575.998 156.758 575.78 156.885C575.561 157.012 575.328 157.06 575.047 157.06C574.798 157.075 574.58 157.012 574.362 156.885ZM574.113 159.725H576.029V175.273H574.113V159.725Z" fill="#535353"/>
<path d="M586.683 161.375H579.051V159.709H586.683V161.375ZM581.886 155.378C582.213 154.791 582.665 154.346 583.272 154.045C583.88 153.728 584.581 153.585 585.406 153.585C585.655 153.585 585.92 153.601 586.2 153.617C586.481 153.648 586.746 153.68 586.995 153.728V155.489C586.59 155.425 586.185 155.394 585.78 155.394C584.954 155.394 584.347 155.6 583.942 156.012C583.537 156.425 583.335 157.044 583.335 157.884L583.319 175.288H581.388V157.488C581.388 156.663 581.559 155.965 581.886 155.378Z" fill="#535353"/>
<path d="M590.125 156.885C589.907 156.758 589.735 156.599 589.611 156.377C589.486 156.155 589.424 155.933 589.424 155.695C589.424 155.441 589.486 155.219 589.611 155.013C589.735 154.807 589.907 154.648 590.125 154.521C590.343 154.394 590.576 154.347 590.81 154.347C591.075 154.347 591.324 154.41 591.542 154.521C591.76 154.648 591.931 154.807 592.056 155.013C592.181 155.219 592.243 155.441 592.243 155.695C592.243 155.933 592.181 156.155 592.056 156.377C591.931 156.599 591.76 156.758 591.542 156.885C591.324 157.012 591.09 157.06 590.81 157.06C590.576 157.075 590.343 157.012 590.125 156.885ZM589.875 159.725H591.791V175.273H589.875V159.725Z" fill="#535353"/>
<path d="M598.52 174.543C597.492 173.845 596.698 172.893 596.137 171.671C595.576 170.45 595.296 169.069 595.296 167.546C595.296 165.992 595.576 164.611 596.153 163.39C596.729 162.168 597.523 161.216 598.551 160.518C599.579 159.836 600.747 159.487 602.087 159.487C603.115 159.487 604.065 159.693 604.906 160.09C605.747 160.486 606.448 161.058 606.977 161.803C607.507 162.549 607.85 163.39 607.99 164.357H606.043C605.934 163.77 605.7 163.247 605.342 162.771C604.984 162.295 604.532 161.93 603.987 161.645C603.442 161.375 602.819 161.232 602.118 161.232C601.168 161.232 600.311 161.502 599.579 162.025C598.847 162.549 598.271 163.279 597.85 164.231C597.43 165.182 597.227 166.261 597.227 167.483C597.227 168.705 597.43 169.815 597.835 170.767C598.24 171.719 598.816 172.48 599.548 173.004C600.28 173.543 601.137 173.813 602.118 173.813C602.772 173.813 603.379 173.686 603.925 173.448C604.485 173.194 604.937 172.829 605.311 172.354C605.685 171.878 605.934 171.322 606.043 170.688H607.974C607.85 171.64 607.522 172.48 606.993 173.21C606.463 173.94 605.794 174.527 604.953 174.94C604.111 175.352 603.161 175.574 602.118 175.574C600.732 175.59 599.548 175.241 598.52 174.543Z" fill="#535353"/>
<path d="M618.099 167.848L616.495 167.959C615.155 168.054 614.158 168.355 613.504 168.863C612.834 169.371 612.507 170.085 612.507 170.989C612.507 171.576 612.648 172.1 612.943 172.528C613.239 172.956 613.644 173.29 614.174 173.512C614.703 173.734 615.295 173.861 615.949 173.861C616.853 173.861 617.632 173.654 618.317 173.258C619.002 172.861 619.516 172.306 619.906 171.624C620.279 170.942 620.466 170.18 620.466 169.339V164.58C620.466 163.882 620.326 163.279 620.046 162.771C619.765 162.263 619.345 161.883 618.784 161.613C618.223 161.343 617.554 161.216 616.759 161.216C615.778 161.216 614.968 161.422 614.299 161.835C613.644 162.247 613.208 162.819 613.021 163.532H611.028C611.137 162.723 611.464 162.009 611.978 161.407C612.492 160.804 613.177 160.328 614.018 159.995C614.859 159.661 615.794 159.487 616.837 159.487C617.756 159.487 618.628 159.646 619.438 159.947C620.248 160.248 620.949 160.804 621.51 161.581C622.071 162.358 622.366 163.421 622.366 164.754V175.273H620.466V172.861H620.357C620.139 173.337 619.812 173.781 619.392 174.194C618.971 174.606 618.442 174.955 617.803 175.225C617.164 175.495 616.448 175.622 615.638 175.622C614.703 175.622 613.847 175.431 613.084 175.066C612.32 174.702 611.713 174.146 611.261 173.432C610.81 172.718 610.592 171.878 610.592 170.91C610.592 169.387 611.09 168.276 612.102 167.562C613.115 166.848 614.485 166.436 616.214 166.309C616.635 166.277 617.569 166.198 619.018 166.103L620.653 166.039L620.669 167.642C620.513 167.657 619.656 167.737 618.099 167.848Z" fill="#535353"/>
<path d="M632.769 161.375H625.355V159.709H632.769V161.375ZM629.56 155.996V171.132C629.56 171.75 629.654 172.242 629.856 172.607C630.059 172.972 630.324 173.226 630.651 173.384C630.978 173.543 631.367 173.622 631.803 173.622C632.208 173.622 632.644 173.607 633.065 173.575V175.399C632.675 175.463 632.193 175.495 631.616 175.495C630.931 175.495 630.292 175.336 629.669 175.034C629.062 174.733 628.564 174.273 628.19 173.686C627.816 173.099 627.613 172.385 627.613 171.576V155.98H629.56V155.996Z" fill="#535353"/>
<path d="M636.664 156.885C636.446 156.758 636.275 156.599 636.15 156.377C636.026 156.155 635.963 155.933 635.963 155.695C635.963 155.441 636.026 155.219 636.15 155.013C636.275 154.807 636.446 154.648 636.664 154.521C636.882 154.394 637.116 154.347 637.349 154.347C637.614 154.347 637.863 154.41 638.081 154.521C638.3 154.648 638.471 154.807 638.58 155.013C638.689 155.219 638.767 155.441 638.767 155.695C638.767 155.933 638.704 156.155 638.58 156.377C638.455 156.599 638.284 156.758 638.081 156.885C637.863 157.012 637.63 157.06 637.349 157.06C637.1 157.075 636.867 157.012 636.664 156.885ZM636.399 159.725H638.315V175.273H636.399V159.725Z" fill="#535353"/>
<path d="M645.073 174.574C644.03 173.892 643.236 172.956 642.659 171.735C642.083 170.513 641.803 169.133 641.803 167.562C641.803 165.991 642.083 164.595 642.659 163.374C643.236 162.152 644.03 161.216 645.073 160.534C646.117 159.852 647.285 159.518 648.593 159.518C649.902 159.518 651.07 159.852 652.098 160.534C653.126 161.216 653.92 162.152 654.496 163.374C655.057 164.595 655.353 165.991 655.353 167.562C655.353 169.133 655.073 170.513 654.496 171.735C653.936 172.956 653.126 173.892 652.098 174.574C651.07 175.257 649.902 175.59 648.593 175.59C647.285 175.59 646.117 175.241 645.073 174.574ZM651.21 172.988C651.942 172.433 652.487 171.671 652.877 170.703C653.25 169.751 653.437 168.689 653.437 167.53C653.437 166.372 653.25 165.325 652.877 164.357C652.503 163.405 651.942 162.644 651.21 162.073C650.478 161.502 649.606 161.216 648.593 161.216C647.581 161.216 646.709 161.502 645.977 162.073C645.245 162.644 644.684 163.405 644.31 164.357C643.936 165.309 643.734 166.372 643.734 167.53C643.734 168.689 643.921 169.736 644.31 170.703C644.684 171.655 645.245 172.417 645.977 172.988C646.709 173.559 647.581 173.829 648.593 173.829C649.606 173.845 650.478 173.559 651.21 172.988Z" fill="#535353"/>
<path d="M660.775 175.273H658.859V159.725H660.712V162.168H660.868C661.257 161.327 661.834 160.677 662.597 160.217C663.36 159.756 664.279 159.518 665.385 159.518C666.428 159.518 667.332 159.741 668.111 160.169C668.889 160.597 669.481 161.248 669.917 162.104C670.338 162.961 670.556 164.008 670.556 165.23V175.273H668.64V165.341C668.64 164.516 668.484 163.786 668.188 163.183C667.877 162.565 667.441 162.104 666.88 161.771C666.319 161.438 665.634 161.279 664.855 161.279C664.077 161.279 663.36 161.454 662.753 161.803C662.13 162.152 661.647 162.66 661.304 163.31C660.962 163.961 660.79 164.738 660.79 165.627V175.273H660.775Z" fill="#535353"/>
<path d="M695.195 158.519C694.618 157.774 693.902 157.203 693.045 156.79C692.189 156.378 691.254 156.171 690.242 156.171C688.949 156.171 687.781 156.504 686.737 157.187C685.694 157.869 684.868 158.868 684.245 160.185C683.638 161.502 683.326 163.073 683.326 164.913C683.326 166.753 683.638 168.34 684.245 169.641C684.853 170.958 685.678 171.957 686.737 172.623C687.781 173.306 688.965 173.639 690.257 173.639C691.27 173.639 692.204 173.433 693.061 173.02C693.918 172.608 694.634 172.021 695.21 171.291C695.787 170.545 696.176 169.72 696.363 168.784H698.356C698.138 170.069 697.656 171.227 696.924 172.259C696.191 173.29 695.257 174.099 694.12 174.686C692.983 175.273 691.69 175.558 690.289 175.558C688.575 175.558 687.049 175.114 685.709 174.242C684.37 173.369 683.326 172.116 682.579 170.513C681.831 168.911 681.457 167.039 681.457 164.913C681.457 162.771 681.831 160.899 682.579 159.297C683.326 157.694 684.37 156.441 685.709 155.568C687.049 154.696 688.575 154.252 690.289 154.252C691.69 154.252 692.967 154.537 694.12 155.124C695.273 155.711 696.207 156.504 696.939 157.536C697.671 158.567 698.154 159.741 698.372 161.058H696.378C696.145 160.106 695.771 159.265 695.195 158.519Z" fill="#535353"/>
<path d="M704.464 174.59C703.404 173.924 702.595 172.988 702.018 171.766C701.442 170.561 701.162 169.164 701.162 167.594C701.162 166.039 701.442 164.643 702.018 163.405C702.595 162.168 703.389 161.216 704.417 160.534C705.445 159.852 706.613 159.503 707.921 159.503C709.089 159.503 710.164 159.788 711.145 160.343C712.127 160.899 712.921 161.755 713.513 162.914C714.105 164.072 714.401 165.484 714.401 167.165V168.086H702.47V166.388H712.469C712.469 165.42 712.282 164.532 711.893 163.754C711.504 162.977 710.974 162.358 710.273 161.914C709.572 161.47 708.793 161.248 707.906 161.248C706.971 161.248 706.13 161.502 705.398 161.993C704.666 162.485 704.105 163.167 703.685 164.024C703.264 164.881 703.077 165.801 703.077 166.801V167.832C703.077 169.037 703.28 170.1 703.7 171.005C704.121 171.909 704.713 172.607 705.476 173.099C706.239 173.591 707.127 173.829 708.155 173.829C708.825 173.829 709.416 173.734 709.93 173.527C710.444 173.321 710.881 173.067 711.239 172.766C711.597 172.464 711.862 172.115 712.049 171.75H714.105C713.871 172.48 713.482 173.131 712.936 173.702C712.391 174.273 711.706 174.733 710.896 175.082C710.086 175.415 709.167 175.59 708.155 175.59C706.753 175.59 705.523 175.257 704.464 174.59Z" fill="#535353"/>
<path d="M719.805 175.273H717.889V159.725H719.742V162.168H719.898C720.288 161.327 720.864 160.677 721.627 160.217C722.39 159.756 723.309 159.518 724.415 159.518C725.459 159.518 726.362 159.741 727.141 160.169C727.919 160.597 728.511 161.248 728.947 162.104C729.368 162.961 729.586 164.008 729.586 165.23V175.273H727.67V165.341C727.67 164.516 727.515 163.786 727.219 163.183C726.907 162.565 726.471 162.104 725.91 161.771C725.35 161.438 724.664 161.279 723.885 161.279C723.107 161.279 722.39 161.454 721.783 161.803C721.16 162.152 720.677 162.66 720.334 163.31C719.992 163.961 719.82 164.738 719.82 165.627V175.273H719.805Z" fill="#535353"/>
<path d="M739.99 161.375H732.577V159.709H739.99V161.375ZM736.782 155.996V171.132C736.782 171.75 736.875 172.242 737.078 172.607C737.28 172.972 737.545 173.226 737.872 173.384C738.199 173.543 738.589 173.622 739.025 173.622C739.43 173.622 739.866 173.607 740.286 173.575V175.399C739.897 175.463 739.414 175.495 738.838 175.495C738.152 175.495 737.514 175.336 736.891 175.034C736.283 174.733 735.785 174.273 735.411 173.686C735.037 173.099 734.835 172.385 734.835 171.576V155.98H736.782V155.996Z" fill="#535353"/>
<path d="M745.955 174.59C744.896 173.924 744.086 172.988 743.51 171.766C742.934 170.561 742.653 169.164 742.653 167.594C742.653 166.039 742.934 164.643 743.51 163.405C744.086 162.168 744.881 161.216 745.909 160.534C746.937 159.852 748.105 159.503 749.413 159.503C750.581 159.503 751.656 159.788 752.637 160.343C753.618 160.899 754.413 161.755 755.004 162.914C755.596 164.072 755.892 165.484 755.892 167.165V168.086H743.962V166.388H753.961C753.961 165.42 753.774 164.532 753.385 163.754C752.995 162.977 752.466 162.358 751.765 161.914C751.064 161.47 750.285 161.248 749.397 161.248C748.463 161.248 747.622 161.502 746.89 161.993C746.158 162.485 745.597 163.167 745.176 164.024C744.756 164.881 744.569 165.801 744.569 166.801V167.832C744.569 169.037 744.772 170.1 745.192 171.005C745.613 171.909 746.204 172.607 746.968 173.099C747.731 173.591 748.619 173.829 749.647 173.829C750.316 173.829 750.908 173.734 751.422 173.527C751.936 173.321 752.372 173.067 752.73 172.766C753.089 172.464 753.353 172.115 753.54 171.75H755.596C755.363 172.48 754.973 173.131 754.428 173.702C753.883 174.273 753.198 174.733 752.388 175.082C751.578 175.415 750.659 175.59 749.647 175.59C748.245 175.59 747.014 175.257 745.955 174.59Z" fill="#535353"/>
<path d="M759.397 159.725H761.25V162.136H761.39C761.702 161.327 762.231 160.677 762.979 160.201C763.727 159.725 764.568 159.487 765.502 159.487C765.876 159.487 766.203 159.503 766.499 159.534V161.502C766.421 161.486 766.265 161.454 766.032 161.438C765.798 161.422 765.58 161.391 765.362 161.391C764.599 161.391 763.914 161.565 763.291 161.898C762.668 162.232 762.185 162.707 761.827 163.295C761.468 163.897 761.297 164.564 761.297 165.309V175.289H759.381V159.725H759.397Z" fill="#535353"/>
<path d="M186.019 219.532C143.946 219.532 109.716 184.774 109.716 142.07C109.716 99.3658 143.946 64.5909 186.019 64.5909C228.091 64.5909 262.321 99.3487 262.321 142.07C262.321 184.791 228.074 219.532 186.019 219.532ZM186.019 66.744C145.124 66.744 111.853 100.528 111.853 142.053C111.853 183.578 145.124 217.361 186.019 217.361C226.913 217.361 260.184 183.578 260.184 142.053C260.184 100.528 226.913 66.744 186.019 66.744Z" fill="#535353"/>
<path d="M123.718 131.15L123.6 132.141L119.814 134.329L120.403 135.183L123.196 135.525L123.095 136.362L115.943 135.491L116.044 134.653L119.612 135.098C119.41 134.875 119.225 134.653 119.039 134.431C118.854 134.209 118.669 133.987 118.467 133.765L116.431 131.355L116.549 130.364L119.309 133.628L123.718 131.15Z" fill="#535353"/>
<path d="M122.372 124.64C122.809 124.742 123.18 124.896 123.499 125.084C123.819 125.272 124.055 125.511 124.24 125.768C124.425 126.041 124.543 126.332 124.593 126.673C124.644 127.015 124.627 127.357 124.543 127.75C124.459 128.109 124.324 128.416 124.139 128.69C123.954 128.963 123.718 129.168 123.432 129.339C123.146 129.493 122.826 129.595 122.456 129.647C122.086 129.681 121.699 129.664 121.261 129.561C120.689 129.425 120.218 129.219 119.864 128.929C119.511 128.638 119.259 128.28 119.124 127.869C118.989 127.459 118.989 126.981 119.107 126.468C119.225 125.973 119.427 125.58 119.713 125.255C120.016 124.947 120.386 124.725 120.84 124.623C121.295 124.503 121.8 124.52 122.372 124.64ZM121.463 128.707C121.884 128.809 122.271 128.826 122.608 128.792C122.944 128.758 123.23 128.638 123.449 128.433C123.668 128.228 123.819 127.955 123.903 127.579C123.988 127.203 123.971 126.878 123.853 126.605C123.735 126.332 123.533 126.092 123.247 125.904C122.961 125.716 122.608 125.58 122.187 125.477C121.766 125.375 121.396 125.358 121.059 125.392C120.723 125.426 120.453 125.563 120.235 125.751C120.016 125.956 119.864 126.229 119.78 126.622C119.662 127.186 119.747 127.63 120.05 127.972C120.352 128.314 120.824 128.57 121.463 128.707Z" fill="#535353"/>
<path d="M121.109 119.325C121.143 119.223 121.176 119.12 121.227 119.001C121.277 118.898 121.328 118.795 121.361 118.71L122.051 119.052C122.001 119.137 121.95 119.223 121.917 119.325C121.866 119.428 121.832 119.53 121.799 119.616C121.732 119.821 121.715 120.043 121.732 120.248C121.748 120.453 121.816 120.658 121.933 120.846C122.051 121.034 122.203 121.205 122.388 121.359C122.573 121.513 122.809 121.632 123.078 121.718L125.838 122.623L125.585 123.409L120.453 121.718L120.654 121.068L121.631 121.29L121.647 121.256C121.496 121.085 121.361 120.897 121.243 120.692C121.143 120.487 121.058 120.265 121.042 120.043C121.008 119.804 121.025 119.564 121.109 119.325Z" fill="#535353"/>
<path d="M122.809 114.848C122.994 114.42 123.23 114.096 123.549 113.857C123.869 113.634 124.223 113.515 124.626 113.498C125.03 113.481 125.451 113.566 125.905 113.754L126.377 113.959L124.929 117.445C125.518 117.684 126.023 117.736 126.444 117.582C126.865 117.428 127.184 117.086 127.403 116.574C127.538 116.249 127.622 115.958 127.672 115.685C127.723 115.412 127.74 115.121 127.74 114.814L128.396 115.104C128.396 115.412 128.379 115.702 128.329 115.976C128.278 116.249 128.177 116.557 128.043 116.898C127.841 117.377 127.572 117.77 127.218 118.043C126.865 118.317 126.478 118.47 126.006 118.522C125.552 118.556 125.047 118.453 124.492 118.231C123.953 118.009 123.533 117.719 123.213 117.36C122.893 117.001 122.708 116.625 122.624 116.198C122.573 115.736 122.624 115.292 122.809 114.848ZM123.432 115.121C123.263 115.531 123.263 115.907 123.415 116.266C123.583 116.625 123.886 116.915 124.34 117.172L125.451 114.506C125.148 114.386 124.879 114.318 124.61 114.318C124.34 114.318 124.122 114.369 123.92 114.506C123.701 114.626 123.549 114.831 123.432 115.121Z" fill="#535353"/>
<path d="M125.687 108.833C125.99 108.252 126.343 107.91 126.747 107.756C127.151 107.62 127.622 107.705 128.194 108.013L131.426 109.79L131.14 110.32L130.365 110.08L130.349 110.115C130.45 110.337 130.517 110.559 130.55 110.781C130.584 110.986 130.584 111.208 130.55 111.43C130.5 111.653 130.416 111.909 130.264 112.182C130.113 112.473 129.911 112.712 129.692 112.883C129.473 113.054 129.221 113.156 128.952 113.173C128.682 113.19 128.38 113.105 128.06 112.934C127.589 112.678 127.319 112.285 127.269 111.755C127.218 111.242 127.387 110.576 127.791 109.79L128.194 108.935L127.908 108.782C127.504 108.56 127.168 108.491 126.899 108.577C126.629 108.662 126.427 108.867 126.242 109.192C126.108 109.448 126.023 109.704 125.973 109.978C125.923 110.251 125.889 110.508 125.889 110.764L125.216 110.696C125.216 110.422 125.266 110.115 125.334 109.79C125.401 109.448 125.519 109.141 125.687 108.833ZM128.699 109.209L128.346 109.961C128.043 110.576 127.925 111.054 127.959 111.396C127.992 111.738 128.178 111.994 128.481 112.165C128.75 112.319 129.002 112.336 129.221 112.251C129.44 112.148 129.625 111.977 129.776 111.687C130.012 111.259 130.079 110.849 129.995 110.439C129.911 110.046 129.625 109.704 129.154 109.448L128.699 109.209Z" fill="#535353"/>
<path d="M129.81 99.1093C130.365 98.3574 130.921 97.9131 131.476 97.7935C132.031 97.6738 132.57 97.8106 133.108 98.2207C133.344 98.4087 133.546 98.6308 133.714 98.87C133.866 99.1264 133.967 99.3998 134 99.7074C134.034 100.015 133.983 100.357 133.866 100.716C133.748 101.074 133.529 101.485 133.209 101.912L132.688 102.629L134.943 104.373L134.438 105.056L128.699 100.647L129.81 99.1093ZM130.332 99.6219L129.742 100.408L132.082 102.202L132.553 101.57C132.822 101.194 133.024 100.852 133.125 100.545C133.226 100.237 133.243 99.9466 133.159 99.6903C133.075 99.434 132.89 99.1947 132.587 98.9555C132.2 98.665 131.829 98.5624 131.459 98.665C131.106 98.7846 130.719 99.0922 130.332 99.6219Z" fill="#535353"/>
<path d="M135.751 94.6152C136.071 94.2735 136.407 94.0513 136.778 93.9488C137.148 93.8463 137.535 93.8463 137.922 93.983C138.309 94.1026 138.679 94.3418 139.033 94.6665L139.403 95.0083L136.862 97.7766C137.333 98.2038 137.787 98.426 138.242 98.426C138.696 98.426 139.1 98.2209 139.487 97.8108C139.723 97.5545 139.908 97.3152 140.043 97.076C140.177 96.8367 140.295 96.5633 140.396 96.2728L140.918 96.7684C140.817 97.0589 140.699 97.3152 140.564 97.5545C140.43 97.7937 140.228 98.05 139.975 98.3234C139.622 98.7165 139.235 98.9728 138.814 99.1095C138.393 99.2462 137.973 99.2633 137.518 99.1266C137.064 99.007 136.626 98.7336 136.189 98.3234C135.768 97.9304 135.465 97.5032 135.28 97.0589C135.095 96.6146 135.044 96.1874 135.128 95.7602C135.213 95.3671 135.415 94.9741 135.751 94.6152ZM136.239 95.0766C135.936 95.4013 135.818 95.7602 135.835 96.1532C135.869 96.5462 136.054 96.9393 136.391 97.3323L138.326 95.2133C138.09 94.9912 137.838 94.8374 137.602 94.7349C137.35 94.6323 137.114 94.6152 136.879 94.6665C136.66 94.7178 136.441 94.8545 136.239 95.0766Z" fill="#535353"/>
<path d="M143.577 93.8122C143.678 93.7268 143.762 93.6243 143.863 93.5046C143.947 93.385 144.014 93.2825 144.065 93.1971L144.502 93.6755C144.469 93.7781 144.384 93.8977 144.283 94.0344C144.182 94.1711 144.065 94.2907 143.947 94.4103C143.728 94.5983 143.509 94.7521 143.274 94.8375C143.038 94.923 142.786 94.923 142.516 94.8375C142.247 94.7521 141.978 94.547 141.692 94.2394L139.521 91.8471L138.949 92.3768L138.679 92.0863L139.033 91.3173L138.477 90.2237L138.848 89.8819L139.689 90.8218L140.85 89.7452L141.288 90.2237L140.127 91.3002L142.264 93.6414C142.5 93.8977 142.718 94.0344 142.954 94.0515C143.173 94.0686 143.375 94.0002 143.577 93.8122Z" fill="#535353"/>
<path d="M150.662 86.5496C150.914 86.9085 151.032 87.2673 151.032 87.6433C151.032 88.0192 150.914 88.3781 150.695 88.7369C150.476 89.0958 150.157 89.4205 149.736 89.711C149.517 89.8648 149.298 90.0015 149.08 90.1211C148.861 90.2407 148.659 90.3432 148.474 90.4116C148.272 90.497 148.104 90.5483 147.935 90.5654L147.481 89.8989C147.733 89.8477 148.036 89.7451 148.39 89.6084C148.726 89.4717 149.063 89.3008 149.383 89.0616C149.685 88.8565 149.904 88.6344 150.056 88.4122C150.207 88.1901 150.275 87.9679 150.275 87.7287C150.275 87.5066 150.207 87.2844 150.056 87.0623C149.921 86.8572 149.753 86.7205 149.568 86.635C149.383 86.5667 149.147 86.5325 148.861 86.5667C148.575 86.6009 148.221 86.6692 147.767 86.8059C147.447 86.8914 147.161 86.9426 146.909 86.9768C146.639 87.011 146.404 86.9939 146.168 86.9426C145.949 86.8914 145.731 86.8059 145.546 86.6692C145.36 86.5325 145.175 86.3445 145.024 86.1224C144.805 85.7977 144.687 85.473 144.704 85.1313C144.704 84.7895 144.805 84.4648 145.007 84.1401C145.209 83.8155 145.495 83.525 145.865 83.2686C146.185 83.0465 146.488 82.8756 146.808 82.7389C147.111 82.6022 147.414 82.5167 147.716 82.4655L147.918 83.2174C147.649 83.2857 147.363 83.3712 147.094 83.4737C146.808 83.5762 146.555 83.73 146.303 83.9009C146.05 84.0889 145.865 84.2768 145.747 84.4648C145.63 84.6699 145.562 84.8578 145.562 85.0629C145.562 85.268 145.63 85.4559 145.764 85.6439C145.916 85.849 146.067 86.0028 146.252 86.0711C146.437 86.1566 146.656 86.1737 146.926 86.1395C147.195 86.1053 147.531 86.0369 147.918 85.9344C148.356 85.8148 148.743 85.7464 149.08 85.7123C149.416 85.6781 149.719 85.7294 149.988 85.849C150.207 86.0199 150.443 86.242 150.662 86.5496Z" fill="#535353"/>
<path d="M152.361 81.3205C152.916 80.9958 153.404 80.8933 153.825 80.9958C154.246 81.0983 154.599 81.423 154.919 81.9869L156.72 85.2337L156.198 85.5242L155.676 84.892L155.643 84.909C155.609 85.1654 155.558 85.3875 155.474 85.5755C155.39 85.7806 155.289 85.9514 155.121 86.1223C154.969 86.2932 154.751 86.447 154.481 86.6008C154.195 86.7717 153.909 86.8571 153.64 86.8913C153.354 86.9255 153.101 86.8571 152.866 86.7375C152.63 86.6008 152.411 86.3787 152.243 86.0711C151.974 85.5926 151.957 85.1312 152.193 84.6527C152.428 84.1913 152.916 83.7129 153.657 83.2686L154.448 82.773L154.279 82.4825C154.044 82.0724 153.808 81.8331 153.539 81.7648C153.27 81.6964 152.984 81.7648 152.664 81.9357C152.411 82.0724 152.209 82.2433 152.024 82.4483C151.839 82.6534 151.671 82.8584 151.536 83.0635L151.015 82.6363C151.166 82.3971 151.351 82.1749 151.587 81.9357C151.789 81.6964 152.058 81.4914 152.361 81.3205ZM154.7 83.2856L153.993 83.7299C153.421 84.0888 153.068 84.4306 152.916 84.7382C152.765 85.0458 152.782 85.3533 152.967 85.678C153.118 85.9514 153.32 86.1052 153.556 86.1394C153.791 86.1736 154.044 86.1223 154.313 85.9685C154.734 85.7293 155.003 85.4217 155.138 85.0287C155.272 84.6356 155.205 84.2084 154.953 83.747L154.7 83.2856Z" fill="#535353"/>
<path d="M158.89 78.8257L157.679 79.4067L159.681 83.7813L158.941 84.1231L156.938 79.7484L156.063 80.1586L155.895 79.7997L156.652 79.1332L156.501 78.8086C156.316 78.3984 156.215 78.0225 156.215 77.6978C156.215 77.3731 156.299 77.0997 156.484 76.8605C156.652 76.6213 156.921 76.4333 157.241 76.2795C157.426 76.194 157.611 76.1257 157.78 76.0915C157.948 76.0573 158.099 76.0232 158.251 76.0061L158.335 76.6896C158.217 76.7067 158.083 76.7238 157.948 76.758C157.813 76.7921 157.679 76.8434 157.544 76.8947C157.258 77.0314 157.09 77.2193 157.039 77.4757C156.989 77.732 157.056 78.0567 157.241 78.4497L157.41 78.8086L158.621 78.2276L158.89 78.8257Z" fill="#535353"/>
<path d="M162.341 76.6383C162.778 76.4845 163.182 76.4332 163.552 76.5186C163.922 76.6041 164.259 76.775 164.562 77.0655C164.848 77.356 165.084 77.7319 165.252 78.1933L165.42 78.6718L161.92 79.9876C162.155 80.5857 162.458 80.9958 162.862 81.2009C163.266 81.4059 163.721 81.423 164.242 81.2179C164.562 81.0983 164.831 80.9616 165.067 80.8078C165.286 80.654 165.521 80.4661 165.74 80.261L165.992 80.9445C165.774 81.1496 165.555 81.3376 165.319 81.4914C165.084 81.6452 164.798 81.7819 164.461 81.9015C163.973 82.0895 163.519 82.1407 163.081 82.0724C162.643 82.004 162.256 81.816 161.92 81.4914C161.583 81.1838 161.297 80.7395 161.095 80.1756C160.893 79.6287 160.809 79.1161 160.843 78.6376C160.876 78.1591 161.028 77.749 161.28 77.4072C161.533 77.0655 161.886 76.8091 162.341 76.6383ZM162.559 77.2705C162.155 77.4243 161.869 77.6806 161.735 78.0395C161.583 78.3984 161.583 78.8427 161.718 79.3382L164.394 78.33C164.276 78.0224 164.141 77.7661 163.956 77.5781C163.788 77.3731 163.569 77.2534 163.35 77.1851C163.098 77.1509 162.845 77.168 162.559 77.2705Z" fill="#535353"/>
<path d="M169.661 79.5261C169.796 79.4919 169.914 79.4407 170.048 79.3723C170.183 79.304 170.284 79.2527 170.351 79.2014L170.52 79.8166C170.435 79.885 170.318 79.9533 170.166 80.0388C170.015 80.1071 169.863 80.1755 169.695 80.2097C169.426 80.2951 169.156 80.3122 168.904 80.278C168.651 80.2438 168.433 80.1242 168.231 79.9362C168.029 79.7312 167.877 79.4407 167.76 79.0135L166.901 75.8863L166.161 76.0914L166.077 75.6983L166.733 75.1686V73.9382L167.204 73.8015L167.541 75.0319L169.055 74.6047L169.224 75.2369L167.709 75.6641L168.567 78.7742C168.651 79.0989 168.803 79.3382 168.988 79.4578C169.19 79.5603 169.409 79.5945 169.661 79.5261Z" fill="#535353"/>
<path d="M170.267 74.2803L171.126 74.1094L172.893 76.9973C172.994 77.1682 173.095 77.322 173.179 77.4929C173.263 77.6467 173.347 77.8005 173.431 77.9372C173.499 78.0739 173.566 78.2277 173.616 78.3644H173.65C173.667 78.1935 173.684 77.9714 173.717 77.6809C173.751 77.3904 173.785 77.0999 173.835 76.8094L174.34 73.4771L175.198 73.3062L174.088 79.9365C174.037 80.2954 173.936 80.603 173.835 80.8935C173.717 81.1669 173.566 81.4061 173.347 81.577C173.145 81.7479 172.876 81.8846 172.539 81.9359C172.388 81.9701 172.253 81.9871 172.135 81.9871C172.018 81.9871 171.917 81.9871 171.816 81.9871L171.681 81.3378C171.748 81.3378 171.849 81.3378 171.95 81.3378C172.051 81.3378 172.169 81.3207 172.27 81.2865C172.472 81.2523 172.64 81.1669 172.775 81.0644C172.909 80.9618 173.01 80.8251 173.095 80.6542C173.179 80.4834 173.229 80.2954 173.263 80.0732L173.414 79.253L170.267 74.2803Z" fill="#535353"/>
<path d="M183.73 71.3237C183.343 71.3408 182.99 71.4262 182.67 71.58C182.367 71.7338 182.098 71.9389 181.896 72.2123C181.694 72.4857 181.526 72.8104 181.425 73.1863C181.324 73.5623 181.29 73.9724 181.307 74.4509C181.341 75.0661 181.459 75.5958 181.66 76.0401C181.862 76.4844 182.165 76.8262 182.552 77.0483C182.939 77.2705 183.411 77.373 183.983 77.3559C184.303 77.3388 184.606 77.3047 184.892 77.2363C185.178 77.1679 185.447 77.0825 185.716 76.9971L185.75 77.7319C185.497 77.8515 185.211 77.9369 184.925 77.9882C184.639 78.0565 184.303 78.0907 183.899 78.1078C183.175 78.142 182.552 78.0224 182.048 77.7319C181.543 77.4414 181.156 77.0312 180.886 76.4673C180.617 75.9205 180.466 75.254 180.432 74.4851C180.415 73.9382 180.466 73.4256 180.6 72.9642C180.735 72.5028 180.937 72.0927 181.223 71.7509C181.509 71.4091 181.846 71.1357 182.266 70.9307C182.687 70.7256 183.175 70.6231 183.73 70.5889C184.101 70.5718 184.454 70.5889 184.791 70.6573C185.127 70.7085 185.447 70.8111 185.716 70.9307L185.413 71.6655C185.178 71.5629 184.925 71.4946 184.639 71.4262C184.353 71.3408 184.05 71.3066 183.73 71.3237Z" fill="#535353"/>
<path d="M190.007 72.4856C190.462 72.5198 190.849 72.6394 191.169 72.8615C191.488 73.0837 191.724 73.3913 191.875 73.7672C192.027 74.1432 192.094 74.5875 192.06 75.083L192.027 75.5957L188.308 75.3906C188.274 76.04 188.409 76.5355 188.695 76.8773C188.981 77.2362 189.401 77.4241 189.957 77.4583C190.293 77.4754 190.596 77.4583 190.866 77.4071C191.135 77.3558 191.404 77.2874 191.69 77.1678L191.657 77.9197C191.37 78.0222 191.101 78.1077 190.832 78.1419C190.563 78.176 190.243 78.1931 189.873 78.176C189.351 78.1419 188.913 78.0222 188.543 77.783C188.173 77.5438 187.887 77.2191 187.702 76.7919C187.517 76.3647 187.432 75.852 187.466 75.2539C187.5 74.6729 187.618 74.1603 187.836 73.733C188.055 73.3058 188.341 72.9982 188.711 72.7761C189.099 72.5539 189.519 72.4685 190.007 72.4856ZM189.957 73.1691C189.519 73.152 189.166 73.2717 188.897 73.5451C188.627 73.8185 188.442 74.2115 188.375 74.7242L191.219 74.878C191.236 74.5533 191.202 74.2628 191.118 74.0065C191.034 73.7501 190.899 73.5451 190.714 73.4084C190.512 73.2717 190.26 73.1862 189.957 73.1691Z" fill="#535353"/>
<path d="M196.975 73.255C197.076 73.272 197.194 73.2891 197.311 73.3233C197.429 73.3575 197.53 73.3746 197.614 73.4087L197.396 74.1606C197.311 74.1094 197.227 74.0923 197.109 74.0581C197.009 74.0239 196.908 74.0068 196.807 73.9898C196.588 73.9556 196.386 73.9727 196.184 74.041C195.982 74.1094 195.797 74.1948 195.629 74.3486C195.46 74.4853 195.326 74.6733 195.208 74.8954C195.09 75.1176 195.023 75.3568 194.972 75.6473L194.568 78.5524L193.76 78.4327L194.518 72.9986L195.191 73.1012L195.14 74.1094H195.174C195.309 73.9214 195.477 73.7676 195.645 73.6138C195.83 73.4771 196.032 73.3575 196.251 73.2891C196.47 73.2208 196.722 73.2037 196.975 73.255Z" fill="#535353"/>
<path d="M200.24 78.9967C200.375 79.0309 200.509 79.048 200.644 79.048C200.779 79.048 200.913 79.048 200.997 79.0309L200.863 79.6631C200.762 79.6802 200.627 79.6973 200.459 79.6802C200.291 79.6802 200.122 79.646 199.971 79.6119C199.685 79.5435 199.449 79.441 199.247 79.3043C199.045 79.1505 198.894 78.9454 198.81 78.672C198.725 78.3986 198.725 78.0568 198.81 77.6467L199.483 74.4683L198.725 74.2974L198.81 73.9043L199.634 73.7505L200.19 72.6569L200.678 72.7594L200.408 74.0069L201.957 74.3486L201.822 74.9809L200.274 74.6391L199.601 77.8005C199.533 78.1423 199.55 78.3986 199.668 78.6037C199.803 78.8087 199.988 78.9283 200.24 78.9967Z" fill="#535353"/>
<path d="M204.75 75.1175L203.302 80.3979L202.511 80.1757L203.959 74.8954L204.75 75.1175ZM204.918 73.0328C205.036 73.0669 205.137 73.1353 205.204 73.2549C205.271 73.3745 205.288 73.5112 205.238 73.6992C205.187 73.8701 205.103 73.9897 204.985 74.0581C204.867 74.1264 204.75 74.1264 204.615 74.0922C204.48 74.0581 204.379 73.9726 204.312 73.8701C204.245 73.7505 204.245 73.6138 204.278 73.4429C204.329 73.2549 204.413 73.1353 204.514 73.084C204.649 72.9986 204.783 72.9815 204.918 73.0328Z" fill="#535353"/>
<path d="M209.378 77.3219L208.116 76.8605L206.5 81.406L205.726 81.1155L207.342 76.57L206.45 76.2453L206.584 75.8694L207.577 75.9377L207.695 75.596C207.847 75.1687 208.032 74.827 208.267 74.6048C208.503 74.3827 208.738 74.246 209.025 74.2118C209.311 74.1776 209.63 74.2118 209.967 74.3485C210.169 74.4169 210.337 74.5023 210.489 74.6048C210.64 74.6903 210.775 74.7928 210.876 74.8782L210.455 75.4251C210.354 75.3567 210.253 75.2713 210.135 75.2029C210.017 75.1175 209.883 75.0662 209.748 75.0149C209.462 74.9124 209.21 74.9295 208.991 75.0662C208.789 75.2029 208.604 75.4763 208.452 75.8865L208.335 76.2453L209.597 76.7067L209.378 77.3219ZM211.296 77.3219L209.462 82.4826L208.688 82.1921L210.522 77.0314L211.296 77.3219ZM211.599 75.2713C211.734 75.3225 211.818 75.3909 211.885 75.5105C211.953 75.6301 211.953 75.7668 211.885 75.9548C211.818 76.1257 211.734 76.2453 211.616 76.2966C211.498 76.3478 211.364 76.3478 211.246 76.2966C211.111 76.2453 211.01 76.1599 210.96 76.0402C210.909 75.9206 210.909 75.7839 210.96 75.613C211.027 75.4422 211.111 75.3225 211.229 75.2713C211.347 75.22 211.482 75.22 211.599 75.2713Z" fill="#535353"/>
<path d="M213.4 84.3963C212.962 84.1912 212.609 83.9007 212.373 83.5589C212.121 83.2172 211.986 82.8071 211.986 82.3457C211.969 81.8843 212.104 81.3545 212.373 80.7906C212.659 80.1925 212.979 79.7482 213.349 79.4577C213.719 79.1672 214.123 79.0134 214.561 78.9963C214.998 78.9793 215.436 79.0818 215.874 79.2868C216.109 79.4065 216.345 79.5432 216.547 79.697C216.749 79.8508 216.9 80.0046 217.018 80.1584L216.496 80.6881C216.378 80.5514 216.227 80.4147 216.059 80.278C215.89 80.1413 215.722 80.0216 215.554 79.9362C215.217 79.7824 214.897 79.7141 214.611 79.7482C214.325 79.7824 214.056 79.9191 213.804 80.1584C213.551 80.3976 213.332 80.7223 213.147 81.1324C212.962 81.5254 212.861 81.9014 212.827 82.2431C212.811 82.5849 212.861 82.8754 213.013 83.1317C213.164 83.3881 213.4 83.5931 213.719 83.7469C213.972 83.8665 214.224 83.952 214.46 84.0032C214.695 84.0545 214.914 84.0716 215.116 84.0716L214.813 84.738C214.611 84.738 214.393 84.721 214.174 84.6697C213.921 84.6184 213.686 84.533 213.4 84.3963Z" fill="#535353"/>
<path d="M220.771 81.97C221.327 82.2947 221.663 82.6706 221.781 83.0807C221.899 83.4909 221.798 83.9864 221.478 84.5332L219.627 87.7459L219.105 87.4383L219.374 86.6522L219.341 86.6351C219.105 86.7377 218.886 86.7889 218.684 86.8231C218.482 86.8573 218.264 86.8402 218.045 86.7889C217.826 86.7377 217.574 86.6351 217.304 86.4642C217.018 86.2934 216.8 86.0883 216.631 85.8661C216.463 85.6269 216.379 85.3877 216.379 85.0972C216.379 84.8237 216.463 84.5162 216.631 84.2086C216.9 83.7301 217.304 83.4909 217.809 83.4567C218.331 83.4225 218.97 83.6276 219.728 84.0377L220.552 84.482L220.721 84.1915C220.956 83.7814 221.04 83.4396 220.956 83.1833C220.872 82.9098 220.687 82.6877 220.367 82.4997C220.132 82.363 219.879 82.2605 219.61 82.1921C219.341 82.1409 219.088 82.0896 218.836 82.0725L218.937 81.4061C219.206 81.4232 219.509 81.4744 219.829 81.5599C220.165 81.6624 220.468 81.7991 220.771 81.97ZM220.283 85.0117L219.559 84.6187C218.97 84.294 218.499 84.1402 218.163 84.1744C217.826 84.2086 217.574 84.3795 217.389 84.687C217.237 84.9605 217.203 85.1997 217.288 85.4389C217.372 85.6611 217.557 85.8491 217.809 86.0199C218.23 86.2592 218.634 86.3446 219.021 86.2763C219.425 86.2079 219.745 85.9345 220.014 85.456L220.283 85.0117Z" fill="#535353"/>
<path d="M223.244 89.5571C223.362 89.6426 223.48 89.7109 223.598 89.7622C223.732 89.8305 223.833 89.8647 223.934 89.8989L223.564 90.4286C223.463 90.4115 223.328 90.3603 223.177 90.2919C223.025 90.2236 222.874 90.1381 222.739 90.0356C222.504 89.8647 222.319 89.6767 222.184 89.4546C222.049 89.2324 221.999 88.9932 222.016 88.7027C222.033 88.4293 222.167 88.1046 222.42 87.7458L224.271 85.0971L223.648 84.6528L223.884 84.3281L224.708 84.516L225.651 83.73L226.055 84.0205L225.331 85.0629L226.627 85.9857L226.257 86.5154L224.961 85.5926L223.143 88.2242C222.941 88.4976 222.874 88.754 222.891 88.9932C222.908 89.2154 223.025 89.4033 223.244 89.5571Z" fill="#535353"/>
<path d="M228.883 87.7627L225.534 92.0519L224.894 91.5393L228.243 87.2501L228.883 87.7627ZM229.825 85.9172C229.926 86.0026 229.993 86.1051 230.01 86.2419C230.027 86.3786 229.993 86.5153 229.876 86.652C229.758 86.7887 229.64 86.8741 229.505 86.8741C229.371 86.8912 229.253 86.84 229.152 86.7545C229.034 86.6691 228.984 86.5494 228.967 86.4298C228.95 86.2931 229 86.1564 229.101 86.0197C229.219 85.8659 229.337 85.7976 229.472 85.7805C229.606 85.7805 229.724 85.8146 229.825 85.9172Z" fill="#535353"/>
<path d="M232.568 94.718C232.266 95.0427 231.963 95.2991 231.643 95.487C231.323 95.675 231.003 95.7775 230.684 95.7946C230.364 95.8288 230.044 95.7775 229.741 95.6579C229.438 95.5383 229.135 95.3503 228.849 95.0769C228.58 94.8206 228.378 94.5472 228.243 94.2567C228.092 93.9491 228.025 93.6415 228.025 93.2997C228.025 92.975 228.109 92.6333 228.243 92.2915C228.395 91.9497 228.614 91.608 228.917 91.2833C229.32 90.839 229.741 90.5314 230.162 90.3605C230.583 90.1896 231.02 90.1554 231.441 90.2409C231.862 90.3434 232.266 90.5656 232.636 90.9244C232.989 91.2662 233.242 91.6421 233.359 92.0693C233.477 92.4966 233.477 92.9238 233.343 93.3681C233.225 93.8294 232.956 94.2737 232.568 94.718ZM229.539 91.8814C229.253 92.206 229.034 92.5307 228.9 92.8383C228.765 93.163 228.731 93.4535 228.782 93.7611C228.832 94.0516 229.001 94.3421 229.287 94.5984C229.556 94.8548 229.842 95.0085 230.145 95.0427C230.448 95.0769 230.734 95.0256 231.037 94.8548C231.34 94.701 231.643 94.4617 231.929 94.137C232.215 93.8124 232.434 93.5048 232.568 93.1801C232.703 92.8725 232.737 92.5649 232.669 92.2744C232.602 91.9839 232.434 91.7105 232.165 91.4371C231.761 91.044 231.323 90.9073 230.886 90.9928C230.431 91.0953 229.994 91.3858 229.539 91.8814Z" fill="#535353"/>
<path d="M237.819 96.3583C238.24 96.8539 238.442 97.3153 238.425 97.7767C238.408 98.238 238.139 98.6994 237.617 99.1608L234.975 101.519L234.436 100.904L237.045 98.5798C237.381 98.2722 237.566 97.9817 237.6 97.6741C237.634 97.3665 237.516 97.0589 237.23 96.7343C236.843 96.2729 236.439 96.0678 236.018 96.1191C235.597 96.1533 235.16 96.3925 234.672 96.8197L232.551 98.7165L232.013 98.0842L236.069 94.4615L236.506 94.9571L236.001 95.5722L236.035 95.6064C236.254 95.5722 236.473 95.5722 236.691 95.6235C236.91 95.6748 237.112 95.7602 237.314 95.8798C237.482 96.0165 237.651 96.1703 237.819 96.3583Z" fill="#535353"/>
<path d="M245.459 105.073C245.24 104.732 245.004 104.458 244.718 104.27C244.432 104.065 244.129 103.946 243.793 103.894C243.456 103.843 243.103 103.86 242.732 103.963C242.362 104.065 241.975 104.236 241.605 104.475C241.1 104.8 240.696 105.176 240.427 105.569C240.158 105.979 240.006 106.406 240.006 106.851C240.006 107.312 240.158 107.773 240.444 108.252C240.612 108.525 240.797 108.782 240.999 108.987C241.201 109.209 241.403 109.397 241.622 109.585L240.982 110.012C240.763 109.841 240.545 109.636 240.36 109.414C240.158 109.192 239.956 108.918 239.754 108.576C239.367 107.944 239.165 107.346 239.165 106.748C239.165 106.167 239.333 105.62 239.67 105.108C240.006 104.595 240.494 104.133 241.134 103.723C241.588 103.433 242.059 103.228 242.514 103.108C242.985 102.989 243.422 102.971 243.86 103.057C244.298 103.125 244.701 103.296 245.088 103.57C245.476 103.843 245.812 104.219 246.098 104.697C246.3 105.005 246.452 105.33 246.569 105.654C246.687 105.979 246.771 106.304 246.788 106.611L246.014 106.714C245.98 106.458 245.93 106.201 245.846 105.911C245.745 105.637 245.627 105.347 245.459 105.073Z" fill="#535353"/>
<path d="M247.563 111.191C247.765 111.601 247.849 112.011 247.815 112.404C247.782 112.797 247.63 113.156 247.378 113.481C247.125 113.806 246.789 114.079 246.351 114.301L245.897 114.523L244.231 111.14C243.675 111.43 243.305 111.789 243.137 112.216C242.968 112.644 243.019 113.105 243.271 113.618C243.423 113.925 243.591 114.182 243.759 114.404C243.928 114.609 244.13 114.814 244.365 115.019L243.726 115.344C243.49 115.156 243.288 114.951 243.12 114.728C242.952 114.506 242.783 114.233 242.615 113.908C242.379 113.43 242.278 112.985 242.295 112.524C242.312 112.08 242.464 111.67 242.733 111.277C243.002 110.901 243.406 110.576 243.945 110.303C244.466 110.046 244.954 109.909 245.425 109.892C245.897 109.875 246.317 109.978 246.671 110.2C247.058 110.422 247.344 110.747 247.563 111.191ZM246.957 111.482C246.755 111.089 246.486 110.832 246.115 110.73C245.745 110.627 245.324 110.661 244.836 110.849L246.115 113.447C246.402 113.293 246.637 113.122 246.805 112.934C246.974 112.729 247.092 112.524 247.125 112.268C247.142 112.028 247.092 111.755 246.957 111.482Z" fill="#535353"/>
<path d="M250.39 117.839C250.609 118.454 250.643 118.966 250.458 119.394C250.272 119.821 249.869 120.146 249.212 120.402L245.914 121.666L245.628 120.897L248.876 119.667C249.296 119.513 249.582 119.291 249.717 119.018C249.852 118.744 249.852 118.403 249.7 118.01C249.481 117.446 249.179 117.104 248.775 116.984C248.371 116.882 247.866 116.933 247.26 117.172L244.618 118.18L244.332 117.411L249.38 115.48L249.616 116.113L248.926 116.506L248.943 116.54C249.162 116.574 249.364 116.66 249.549 116.779C249.734 116.899 249.902 117.053 250.037 117.241C250.188 117.394 250.289 117.599 250.39 117.839Z" fill="#535353"/>
<path d="M247.58 125.34C247.614 125.477 247.664 125.597 247.732 125.733C247.799 125.87 247.849 125.973 247.9 126.041L247.294 126.212C247.227 126.126 247.159 126.007 247.075 125.853C247.008 125.699 246.941 125.545 246.907 125.374C246.823 125.101 246.806 124.828 246.84 124.571C246.873 124.315 246.991 124.093 247.176 123.888C247.361 123.683 247.664 123.529 248.085 123.409L251.165 122.538L250.963 121.786L251.35 121.683L251.871 122.35H253.083L253.218 122.828L252.006 123.17L252.427 124.708L251.804 124.879L251.383 123.341L248.321 124.212C248.001 124.298 247.765 124.452 247.647 124.657C247.53 124.862 247.513 125.084 247.58 125.34Z" fill="#535353"/>
<path d="M253.402 128.843C253.487 129.305 253.47 129.715 253.335 130.074C253.2 130.433 252.965 130.74 252.645 130.996C252.325 131.236 251.921 131.407 251.433 131.509L250.929 131.612L250.222 127.903C249.599 128.04 249.161 128.279 248.892 128.655C248.623 129.031 248.539 129.493 248.657 130.04C248.724 130.381 248.808 130.672 248.926 130.928C249.044 131.184 249.178 131.424 249.347 131.697L248.64 131.834C248.472 131.577 248.337 131.338 248.219 131.082C248.118 130.826 248.034 130.518 247.95 130.159C247.849 129.646 247.866 129.168 248 128.741C248.135 128.314 248.387 127.955 248.741 127.664C249.111 127.374 249.582 127.169 250.154 127.049C250.727 126.929 251.231 126.929 251.686 127.049C252.14 127.169 252.51 127.374 252.813 127.681C253.116 127.955 253.318 128.348 253.402 128.843ZM252.746 128.963C252.662 128.536 252.46 128.211 252.123 128.006C251.787 127.801 251.366 127.733 250.861 127.784L251.4 130.638C251.72 130.569 251.989 130.467 252.208 130.33C252.426 130.193 252.595 130.005 252.679 129.783C252.797 129.527 252.813 129.271 252.746 128.963Z" fill="#535353"/>
<path d="M254.395 135.884C254.412 135.986 254.412 136.106 254.412 136.226C254.412 136.345 254.412 136.448 254.395 136.55L253.638 136.533C253.655 136.448 253.655 136.345 253.655 136.226C253.655 136.123 253.655 136.003 253.638 135.918C253.621 135.696 253.554 135.491 253.436 135.32C253.335 135.132 253.184 134.978 253.015 134.859C252.83 134.722 252.628 134.636 252.393 134.585C252.157 134.534 251.904 134.517 251.618 134.534L248.741 134.841L248.656 134.004L254.025 133.423L254.092 134.107L253.116 134.295V134.329C253.335 134.414 253.52 134.534 253.705 134.671C253.89 134.807 254.042 134.978 254.16 135.183C254.294 135.405 254.362 135.628 254.395 135.884Z" fill="#535353"/>
<path d="M120.806 161.431L121.21 162.627L119.746 163.14L121.547 168.454L120.588 168.796L118.383 162.285L120.806 161.431ZM121.867 162.73C121.345 161.175 121.833 159.961 123.213 159.483C123.802 159.278 124.391 159.312 124.896 159.603L124.61 158.782L125.569 158.44L126.259 160.491L127.252 160.149L127.673 161.397L126.68 161.739L127.37 163.789L126.41 164.131L126.124 163.311C125.906 163.84 125.451 164.233 124.879 164.439C123.516 164.917 122.388 164.268 121.867 162.73ZM128.615 164.456L129.019 165.652L126.293 166.609L126.697 167.805L125.737 168.147L125.333 166.951L122.422 167.959L122.018 166.763L128.615 164.456ZM122.775 162.405C123.028 163.14 123.752 163.499 124.492 163.242C125.249 162.986 125.586 162.251 125.333 161.516C125.081 160.782 124.374 160.423 123.617 160.679C122.876 160.935 122.523 161.67 122.775 162.405Z" fill="#535353"/>
<path d="M130.097 178.126L128.919 178.878L130.517 181.476L127.993 183.065L127.337 181.988L129.02 180.929L125.839 175.751L126.68 175.221L128.279 177.819L129.457 177.067L127.505 173.905L128.363 173.359L131.796 178.964C132.554 178.622 133.294 178.229 134.018 177.785L130.837 172.59L131.695 172.043L135.532 178.297L134.708 178.81C134.119 179.186 133.143 179.681 132.419 179.972L132.907 180.758L132.049 181.305L130.097 178.126Z" fill="#535353"/>
<path d="M135.7 188.26L136.576 189.148L135.414 190.327L139.319 194.326L138.595 195.044L133.816 190.157L135.7 188.26ZM139.453 183.39L140.328 184.278L139.134 185.474L140.631 187.012L141.826 185.816L142.701 186.705L138.965 190.464L135.717 187.132L139.453 183.39ZM138.814 188.858L139.924 187.747L138.427 186.209L137.316 187.32L138.814 188.858ZM143.661 191.438L142.937 192.156L142.062 191.267L139.874 193.472L138.999 192.583L143.947 187.593L144.822 188.482L142.769 190.55L143.661 191.438Z" fill="#535353"/>
<path d="M148.003 195.83L150.763 197.607L151.941 195.727L149.181 193.95L149.686 193.13L153.489 195.574L151.284 199.094L148.524 197.317L147.094 199.624L150.46 201.794L149.955 202.614L145.546 199.777L148.003 195.83ZM156.249 196.753L151.234 204.784L150.19 204.101L151.873 201.401L150.779 200.7L151.318 199.829L152.412 200.529L153.506 198.769L152.412 198.069L152.95 197.197L154.044 197.898L155.189 196.069L156.249 196.753Z" fill="#535353"/>
<path d="M160.877 205.929C161.6 205.878 162.543 206.049 163.67 206.442C164.798 206.852 165.639 207.313 166.178 207.826C166.716 208.339 166.885 208.868 166.7 209.398C166.582 209.757 166.329 210.013 165.959 210.167C165.202 210.457 164.007 210.338 162.509 209.808C161.769 209.535 161.129 209.244 160.641 208.92C159.648 208.27 159.244 207.535 159.497 206.835C159.682 206.271 160.153 205.98 160.877 205.929ZM168.214 206.493L167.878 207.467L159.766 204.562L160.103 203.588L163.569 204.835L163.839 204.049L160.995 203.041L162.055 199.965L168.904 202.409L168.568 203.383L162.896 201.349L162.492 202.511L168.164 204.545L167.844 205.485L165 204.477L164.731 205.246L168.214 206.493ZM161.129 207.98C161.516 208.253 162.088 208.544 162.863 208.817C163.637 209.09 164.259 209.244 164.731 209.261C165.202 209.278 165.471 209.193 165.555 208.954C165.639 208.732 165.488 208.475 165.118 208.185C164.731 207.911 164.158 207.638 163.384 207.364C162.61 207.091 161.987 206.937 161.516 206.92C161.045 206.903 160.776 206.989 160.692 207.228C160.591 207.45 160.759 207.706 161.129 207.98Z" fill="#535353"/>
<path d="M174.374 207.228L182.923 208.202L182.822 209.159L179.17 208.749L179.086 209.483L182.081 209.842L181.812 212.218L175.821 211.534L175.754 212.115L181.829 212.816L181.728 213.738L174.407 212.901L174.676 210.475L180.668 211.158L180.735 210.611L174.744 209.928L174.845 209.005L177.84 209.347L177.924 208.612L174.273 208.202L174.374 207.228ZM182.317 207.638L175.097 206.818L175.434 203.81L182.653 204.63L182.317 207.638ZM181.189 206.544L181.307 205.468L176.561 204.921L176.444 205.997L181.189 206.544Z" fill="#535353"/>
<path d="M191.287 204.425C192.885 204.237 193.962 205.126 194.147 206.784C194.333 208.458 193.474 209.552 191.876 209.723C190.277 209.911 189.2 209.022 189.015 207.365C188.829 205.707 189.671 204.613 191.287 204.425ZM191.741 208.663C192.582 208.561 193.003 207.929 192.902 206.92C192.801 205.912 192.229 205.382 191.404 205.485C190.563 205.587 190.142 206.22 190.243 207.228C190.344 208.236 190.899 208.766 191.741 208.663ZM190.428 210.697L191.657 210.56L191.842 212.32L197.345 211.705L197.463 212.73L190.714 213.482L190.428 210.697ZM197.85 206.442L197.968 207.467L196.739 207.604L197.076 210.714L195.847 210.851L195.073 203.81L196.302 203.674L196.621 206.579L197.85 206.442Z" fill="#535353"/>
<path d="M203.707 207.365C205.036 205.895 205.541 204.801 205.053 203.434L204.851 202.87L202.966 203.537L202.63 202.563L207.645 200.768L207.981 201.742L206.096 202.409L206.248 202.853C206.366 203.195 206.433 203.537 206.467 203.879C207.695 204.306 208.924 204.921 209.58 205.519L208.806 206.51C208.166 205.998 207.342 205.502 206.349 205.041C206.13 205.963 205.558 206.954 204.615 207.997L203.707 207.365ZM205.608 207.911L206.786 207.501L207.358 209.159L212.592 207.296L212.929 208.27L206.534 210.543L205.608 207.911ZM209.327 202.272L208.587 200.136L209.765 199.726L212.071 206.408L210.893 206.818L209.664 203.246L208.082 203.81L207.746 202.836L209.327 202.272Z" fill="#535353"/>
<path d="M217.59 195.83C218.953 194.959 220.3 195.266 221.175 196.684C222.05 198.103 221.764 199.47 220.401 200.341C219.037 201.213 217.691 200.905 216.816 199.487C215.924 198.069 216.227 196.702 217.59 195.83ZM219.828 199.436C220.535 198.974 220.653 198.205 220.115 197.351C219.576 196.496 218.852 196.274 218.146 196.719C217.439 197.18 217.321 197.949 217.859 198.803C218.381 199.658 219.122 199.897 219.828 199.436ZM219.593 201.794L220.636 201.127L221.562 202.614L226.24 199.607L226.779 200.478L221.04 204.152L219.593 201.794ZM225.567 198.855L224.524 199.521L220.805 193.54L221.848 192.874L225.567 198.855Z" fill="#535353"/>
<path d="M228.529 191.062C229.32 190.208 229.858 189.473 230.144 188.858C230.43 188.26 230.447 187.833 230.195 187.576L230.043 187.423L228.091 189.422L227.367 188.704L232.332 183.646L233.056 184.364L230.969 186.5L231.087 186.619C231.255 186.79 231.356 186.978 231.406 187.183C232.416 186.414 233.712 185.56 234.52 185.116L234.705 186.158C233.813 186.619 232.5 187.457 231.39 188.243C231.154 189.217 230.38 190.43 229.286 191.643L228.529 191.062ZM229.488 192.156L235.546 185.97L236.27 186.688L230.212 192.874L229.488 192.156ZM231.979 192.532C232.248 191.831 232.786 191.062 233.645 190.191C234.486 189.319 235.26 188.755 235.95 188.482C236.623 188.209 237.179 188.277 237.566 188.67C237.835 188.943 237.953 189.268 237.919 189.678C237.869 190.498 237.246 191.541 236.119 192.686C235.563 193.25 235.025 193.711 234.52 194.019C233.51 194.651 232.685 194.702 232.164 194.172C231.777 193.779 231.709 193.233 231.979 192.532ZM233.914 193.198C234.318 192.976 234.823 192.566 235.395 191.968C235.967 191.387 236.371 190.874 236.59 190.464C236.809 190.037 236.842 189.747 236.674 189.576C236.506 189.405 236.219 189.422 235.799 189.661C235.395 189.9 234.89 190.311 234.318 190.892C233.746 191.473 233.342 191.985 233.123 192.395C232.904 192.822 232.871 193.113 233.039 193.284C233.224 193.455 233.51 193.421 233.914 193.198Z" fill="#535353"/>
<path d="M239.99 181.851C239.923 181.305 239.839 180.843 239.687 180.433C239.401 179.63 238.863 178.981 237.887 178.365L236.843 177.699L237.5 176.622L238.425 177.203C238.795 177.443 239.115 177.665 239.384 177.921C240.529 177.682 241.825 177.562 242.683 177.699L242.7 178.964C241.993 178.878 241.185 178.878 240.293 178.981C240.748 179.664 241.017 180.484 241.151 181.476L239.99 181.851ZM239.469 176.793L240.159 175.665L238.509 174.623L239.166 173.547L245.005 177.255L244.349 178.331L241.017 176.212L240.327 177.34L239.469 176.793ZM240.159 171.786L246.082 175.546L245.426 176.622L239.502 172.863L240.159 171.786ZM241.673 181.082L242.33 180.006L243.878 180.997L246.907 176.059L247.765 176.605L244.063 182.62L241.673 181.082Z" fill="#535353"/>
<path d="M243.305 166.25L244.769 161.927L245.678 162.251L244.618 165.396L246.688 166.13L247.563 163.55L248.472 163.875L247.597 166.455L250.138 167.344L251.434 163.516L252.342 163.84L250.643 168.864L243.305 166.25ZM245.274 158.936L254.126 162.046L253.722 163.242L249.229 161.653L248.589 163.533L247.63 163.191L248.27 161.311L244.87 160.115L245.274 158.936Z" fill="#535353"/>
<path d="M121.093 147.777C121.093 148.41 120.588 148.922 119.966 148.922C119.343 148.922 118.838 148.41 118.838 147.777C118.838 147.145 119.343 146.632 119.966 146.632C120.588 146.632 121.093 147.145 121.093 147.777Z" fill="#535353"/>
<path d="M253.2 147.777C253.2 148.41 252.695 148.922 252.073 148.922C251.45 148.922 250.945 148.41 250.945 147.777C250.945 147.145 251.45 146.632 252.073 146.632C252.695 146.632 253.2 147.145 253.2 147.777Z" fill="#535353"/>
<path d="M223.498 156.919C223.413 156.868 223.295 156.834 223.127 156.834H222.924V157.551L223.144 157.517C223.312 157.517 223.43 157.483 223.498 157.432C223.565 157.38 223.599 157.295 223.599 157.175C223.599 157.056 223.565 156.971 223.498 156.919Z" fill="#535353"/>
<path d="M214.476 164.387C213.585 165.293 213.383 166.66 213.887 167.771L217.809 163.789C216.715 163.276 215.368 163.481 214.476 164.387Z" fill="#535353"/>
<path d="M166.429 163.516C165.167 163.516 164.073 164.336 163.652 165.481H169.206C168.785 164.336 167.691 163.516 166.429 163.516Z" fill="#535353"/>
<path d="M186.019 83.6273C154.229 83.6273 128.464 109.79 128.464 142.07C128.464 174.35 154.229 200.512 186.019 200.512C217.809 200.512 243.574 174.35 243.574 142.07C243.574 109.79 217.792 83.6273 186.019 83.6273ZM154.852 119.359H164.158C164.158 114.164 168.214 109.926 173.313 109.755L178.682 109.585V101.28C178.682 100.135 180.045 99.5537 180.852 100.357C186.019 105.483 190.832 110.131 194.097 116.693C194.484 117.462 194.433 118.368 193.979 119.086L184.723 133.816C184.42 134.312 183.73 134.346 183.36 133.884L176.948 125.682C176.595 125.221 175.938 125.169 175.501 125.545L172 128.587C171.596 128.946 171.529 129.561 171.866 129.988L183.915 145.402C184.269 145.863 184.959 145.829 185.278 145.334L199.146 123.255C199.516 122.743 199.852 122.196 200.155 121.632L202.007 118.676C202.596 117.736 203.386 116.95 204.346 116.42C204.699 116.215 205.069 116.061 205.473 115.924C206.365 115.634 207.291 116.317 207.291 117.274V120.367C207.291 120.367 214.662 121.991 214.679 128.707C214.679 128.775 214.662 128.826 214.679 128.895C214.679 129.322 215.15 130.262 216.16 131.065C216.665 131.458 216.85 132.141 216.597 132.722C215.672 134.978 212.828 139.865 205.625 139.865L202.562 145.385C202.141 146.137 201.35 146.615 200.492 146.615H186.036H176.948C175.922 146.615 175.03 145.949 174.71 145.009C174.255 143.744 173.818 142.463 173.296 141.232L170.688 135.217H166.952C160.254 135.217 154.162 131.167 151.587 124.896C151.519 124.742 151.469 124.588 151.402 124.434C150.476 122.025 152.26 119.359 154.852 119.359ZM155.71 167.258H153.186V172.214H149.971V167.258V157.176V155.723H155.71C158.84 155.723 161.398 158.304 161.398 161.499C161.398 164.678 158.84 167.258 155.71 167.258ZM171.95 167.566H170.721H169.207H163.653C164.074 168.711 165.151 169.531 166.43 169.531C167.305 169.531 168.079 169.138 168.618 168.54H171.681C170.873 170.693 168.837 172.231 166.43 172.231C163.333 172.231 160.809 169.667 160.809 166.523C160.809 163.379 163.333 160.816 166.43 160.816C169.527 160.816 172.051 163.379 172.051 166.523C172.051 166.882 172.017 167.224 171.95 167.566ZM179.102 164.233H176.612V168.198C176.612 168.625 176.948 168.967 177.369 168.967H179.102V172.231H177.369C175.181 172.231 173.397 170.419 173.397 168.198V164.233H172.051V160.969H173.397V157.808H176.612V160.969H179.102V164.233ZM187.264 172.231H182.283V168.967H187.264C188.156 168.967 188.863 168.215 188.863 167.292C188.863 166.421 188.224 165.703 187.399 165.618L187.365 165.635H186.255C183.596 165.635 181.441 163.413 181.441 160.696C181.441 157.979 183.596 155.758 186.255 155.758H191.236V159.021H186.255C185.363 159.021 184.656 159.773 184.656 160.696C184.656 161.619 185.379 162.371 186.255 162.371L187.247 162.354C189.906 162.354 192.061 164.575 192.061 167.292C192.077 170.009 189.923 172.231 187.264 172.231ZM203.757 172.231H200.542V166.472C200.542 165.139 199.465 164.045 198.153 164.045C196.84 164.045 195.763 165.139 195.763 166.472C195.763 167.805 196.84 168.899 198.153 168.899H199.802V172.162H198.153C195.056 172.162 192.549 169.616 192.549 166.472C192.549 163.328 195.056 160.782 198.153 160.782C201.249 160.782 203.757 163.328 203.757 166.472V172.231ZM210.96 158.816H209.226C208.805 158.816 208.469 159.158 208.469 159.585V160.969H210.96V164.233H208.469V172.231H205.255V164.233H203.908V160.969H205.255V159.585C205.255 157.364 207.038 155.552 209.226 155.552H210.96V158.816ZM220.552 170.556C218.364 172.778 214.797 172.778 212.609 170.556C210.421 168.335 210.421 164.712 212.609 162.49C214.797 160.269 218.364 160.269 220.552 162.49C220.805 162.747 221.023 163.02 221.208 163.294L220.333 164.182L215.335 169.257C216.429 169.77 217.775 169.565 218.667 168.659C219.29 168.027 219.559 167.207 219.526 166.387L221.68 164.199C222.622 166.284 222.252 168.83 220.552 170.556ZM223.245 159.756C222.1 159.756 221.175 158.816 221.175 157.654C221.175 156.492 222.1 155.552 223.245 155.552C224.389 155.552 225.315 156.492 225.315 157.654C225.315 158.816 224.389 159.756 223.245 159.756Z" fill="#535353"/>
<path d="M155.71 158.987H153.185V163.994H155.71C157.073 163.994 158.184 162.866 158.184 161.482C158.184 160.115 157.073 158.987 155.71 158.987Z" fill="#535353"/>
<path d="M223.244 155.894C222.285 155.894 221.511 156.68 221.511 157.654C221.511 158.629 222.285 159.415 223.244 159.415C224.203 159.415 224.978 158.629 224.978 157.654C224.978 156.68 224.203 155.894 223.244 155.894ZM224.237 158.868H223.816L223.227 157.911L222.891 157.928L222.924 158.834L222.504 158.868L222.47 156.475L223.16 156.441C223.362 156.441 223.53 156.475 223.665 156.527C223.799 156.578 223.9 156.663 223.968 156.766C224.035 156.868 224.069 157.005 224.069 157.176C224.069 157.296 224.052 157.398 224.001 157.484C223.951 157.569 223.9 157.637 223.816 157.706C223.749 157.757 223.665 157.808 223.598 157.842L223.699 158.013L224.271 158.834C224.271 158.851 224.271 158.868 224.271 158.868C224.271 158.868 224.254 158.868 224.237 158.868Z" fill="#535353"/>
<defs>
<clipPath id="clip0_5_4474">
<rect width="445.5" height="283.335" fill="white"/>
</clipPath>
<clipPath id="clip1_5_4474">
<rect width="445.5" height="283.335" fill="white" transform="translate(445.5)"/>
</clipPath>
</defs>
</svg>
