<svg width="605" height="142" viewBox="0 0 605 142" fill="none" xmlns="http://www.w3.org/2000/svg">
<path d="M188.643 41.4609H166.815V38.2911H188.643V41.4609ZM182.382 44.1362C183.726 44.7178 184.769 45.5466 185.527 46.6081C186.285 47.6695 186.656 48.9054 186.656 50.3158C186.656 51.6971 186.285 52.9185 185.527 53.9653C184.784 55.0122 183.726 55.8265 182.382 56.4081C181.038 56.9897 179.494 57.2805 177.75 57.2805C176.006 57.2805 174.448 56.9897 173.09 56.4081C171.732 55.8265 170.689 55.0122 169.945 53.9653C169.202 52.9185 168.83 51.6971 168.83 50.3158C168.83 48.9199 169.202 47.684 169.945 46.6081C170.689 45.5321 171.732 44.7178 173.09 44.1362C174.448 43.5546 175.992 43.2638 177.75 43.2638C179.509 43.2638 181.038 43.5546 182.382 44.1362ZM176.207 68.549H172.361V59.6651H176.207V68.549ZM197.149 70.4683H172.375V67.1968H197.149V70.4683ZM175.02 46.8116C174.234 47.117 173.619 47.5822 173.205 48.1929C172.79 48.8036 172.576 49.5161 172.576 50.3158C172.576 51.1155 172.79 51.8134 173.205 52.395C173.619 52.9766 174.234 53.4274 175.02 53.7327C175.806 54.038 176.721 54.198 177.736 54.198C178.765 54.198 179.666 54.038 180.466 53.7327C181.267 53.4274 181.882 52.9766 182.325 52.395C182.768 51.8134 182.982 51.1155 182.982 50.3158C182.982 49.5161 182.768 48.8036 182.325 48.1929C181.882 47.5822 181.267 47.117 180.466 46.8116C179.666 46.5063 178.751 46.3463 177.736 46.3463C176.721 46.3463 175.806 46.5063 175.02 46.8116ZM179.68 39.8905H175.806V33.9146H179.68V39.8905ZM195.591 61.8461H191.717V33.9436H195.591V61.8461ZM200.923 49.2107H194.39V45.9392H200.923V49.2107Z" fill="#535353"/>
<path d="M237.39 52.0307H203.825V48.8319H237.39V52.0307ZM233.316 71.1945H229.414V61.5835H207.271V58.3847H233.316V71.1945ZM231.744 38.8574H208.028V35.6876H231.744V38.8574ZM222.48 59.577H218.606V50.9983H222.48V59.577ZM232.93 44.3681C232.787 46.142 232.473 48.163 231.944 50.4313L228.141 49.9805C228.613 47.8286 228.927 45.9239 229.056 44.2663C229.199 42.6087 229.256 40.7912 229.256 38.8283V38.4502V35.6876H233.13V38.4357C233.13 40.6167 233.073 42.5942 232.93 44.3681Z" fill="#535353"/>
<path d="M246.122 42.6226H255.714V36.6321H259.603V55.1998H242.306V36.6175H246.137V42.6226H246.122ZM255.729 52.03V45.676H246.137V52.03H255.729ZM250.325 67.9224H246.48V58.6458H250.325V67.9224ZM271.253 70.4669H246.48V67.1954H271.253V70.4669ZM269.695 61.3648H265.821V33.9421H269.695V61.3648ZM275.041 48.2641H268.508V44.9781H275.041V48.2641Z" fill="#535353"/>
<path d="M295.442 50.824H283.191V60.1878H279.317V47.6833H291.639V40.4133H279.203V37.2144H295.456V50.824H295.442ZM290.324 59.1554C292.769 59.01 295.313 58.7338 297.972 58.3266L298.301 61.5982C295.599 62.0198 293.026 62.2961 290.581 62.456C288.137 62.616 285.307 62.6887 282.105 62.6887H279.317V59.3735H282.105C285.149 59.3735 287.88 59.3008 290.324 59.1554ZM305.32 55.6658H297.457V52.3798H305.32V55.6658ZM305.534 45.4877H297.7V42.2162H305.534V45.4877ZM308.479 71.2964H304.634V33.8993H308.479V71.2964Z" fill="#535353"/>
<path d="M348.476 55.2286H314.997V52.0589H348.476V55.2286ZM338.513 58.442C340.414 58.9654 341.872 59.736 342.873 60.7538C343.873 61.7716 344.374 62.993 344.374 64.4325C344.374 65.8574 343.873 67.0788 342.873 68.0966C341.872 69.1144 340.414 69.885 338.527 70.4085C336.64 70.9319 334.353 71.2082 331.708 71.2227C329.064 71.2082 326.776 70.9319 324.875 70.4085C322.974 69.885 321.502 69.1144 320.501 68.0966C319.486 67.0788 318.986 65.8574 318.986 64.4325C318.986 62.993 319.486 61.7571 320.501 60.7538C321.516 59.736 322.974 58.9654 324.875 58.442C326.776 57.9185 329.064 57.6568 331.708 57.6568C334.339 57.6423 336.597 57.904 338.513 58.442ZM344.374 38.7401H323.031V46.9262H319.2V35.6285H344.374V38.7401ZM344.588 48.1185H319.2V44.9487H344.588V48.1185ZM326.934 61.1464C325.619 61.4372 324.632 61.8443 323.946 62.4114C323.26 62.9639 322.917 63.6328 322.917 64.4325C322.917 65.2322 323.26 65.901 323.946 66.4536C324.632 67.0061 325.619 67.4277 326.934 67.704C328.249 67.9803 329.836 68.1257 331.694 68.1257C333.552 68.1257 335.153 67.9803 336.454 67.704C337.755 67.4277 338.756 67.0061 339.428 66.439C340.114 65.872 340.457 65.2031 340.457 64.4325C340.457 63.6473 340.114 62.9639 339.428 62.4114C338.741 61.8589 337.741 61.4372 336.426 61.1464C335.11 60.8556 333.524 60.7248 331.694 60.7248C329.836 60.7248 328.249 60.8702 326.934 61.1464ZM333.624 53.382H329.836V46.1992H333.624V53.382Z" fill="#535353"/>
<path d="M385.499 52.5246H352.063V49.3549H385.499V52.5246ZM381.253 64.5347H359.925V68.7368H356.094V61.6413H377.437V58.7914H356.037V55.7671H381.239V64.5347H381.253ZM382.326 70.8451H356.108V67.7917H382.326V70.8451ZM381.182 46.6068H356.323V35.1056H381.182V46.6068ZM360.168 43.4952H377.322V38.2317H360.168V43.4952ZM370.661 57.192H366.787V51.5941H370.661V57.192Z" fill="#535353"/>
<path d="M404.412 37.6499C405.899 38.4351 407.085 39.5401 407.929 40.9505C408.786 42.3609 409.201 43.9603 409.201 45.7487C409.201 47.5226 408.772 49.122 407.929 50.5324C407.071 51.9428 405.899 53.0478 404.412 53.8476C402.925 54.6473 401.253 55.0398 399.423 55.0398C397.593 55.0398 395.935 54.6473 394.449 53.8476C392.962 53.0478 391.79 51.9428 390.946 50.5324C390.089 49.122 389.66 47.5226 389.66 45.7487C389.66 43.9603 390.089 42.3609 390.946 40.9505C391.804 39.5401 392.962 38.4496 394.449 37.6499C395.935 36.8502 397.593 36.4576 399.437 36.4576C401.253 36.4576 402.925 36.8502 404.412 37.6499ZM396.421 40.6451C395.506 41.125 394.792 41.8229 394.263 42.7098C393.734 43.6113 393.476 44.6146 393.476 45.7342C393.476 46.8683 393.734 47.8861 394.263 48.7585C394.792 49.6455 395.506 50.3288 396.421 50.8232C397.336 51.3176 398.337 51.5648 399.423 51.5648C400.567 51.5648 401.596 51.3176 402.497 50.8232C403.397 50.3288 404.112 49.6455 404.627 48.7585C405.141 47.8716 405.399 46.8683 405.399 45.7342C405.399 44.5855 405.141 43.5677 404.627 42.6808C404.112 41.7938 403.397 41.1104 402.497 40.6306C401.596 40.1508 400.567 39.9036 399.423 39.9036C398.337 39.9181 397.336 40.1508 396.421 40.6451ZM398.551 68.5476H394.706V58.4568H398.551V68.5476ZM419.479 70.4669H394.706V67.1954H419.479V70.4669ZM417.935 61.3066H414.061V33.9131H417.935V61.3066ZM423.267 48.3369H416.734V45.0508H423.267V48.3369Z" fill="#535353"/>
<path d="M437.306 47.9297C436.477 49.9508 435.276 51.7247 433.732 53.2369C432.188 54.749 430.358 55.8977 428.243 56.6974L426.213 53.4986C428.057 52.8588 429.672 51.9282 431.059 50.6923C432.445 49.4564 433.503 48.046 434.247 46.4612C434.99 44.8763 435.362 43.2187 435.362 41.4885V38.6386H438.55V41.4885C438.55 43.7422 438.135 45.8941 437.306 47.9297ZM447.198 40.0199H427.385V36.792H447.198V40.0199ZM436.834 68.9256H432.932V58.8057H436.834V68.9256ZM457.733 70.4669H432.932V67.1954H457.733V70.4669ZM440.365 46.0686C441.08 47.5517 442.109 48.8748 443.438 50.038C444.768 51.2012 446.34 52.0882 448.141 52.6989L446.154 55.8395C444.096 55.1125 442.309 54.0366 440.808 52.5825C439.307 51.1285 438.149 49.4564 437.349 47.5371C436.548 45.6178 436.148 43.6113 436.148 41.503V38.6241H439.293V41.503C439.293 43.0588 439.65 44.5855 440.365 46.0686ZM455.003 47.2754H445.84V44.033H455.003V47.2754ZM456.747 61.263H452.859V33.9421H456.747V61.263Z" fill="#535353"/>
<path d="M478.733 37.6353C480.22 38.4205 481.392 39.511 482.25 40.9214C483.093 42.3318 483.522 43.9166 483.522 45.7051C483.522 47.5081 483.093 49.1075 482.25 50.5179C481.406 51.9282 480.234 53.0188 478.733 53.8039C477.232 54.5891 475.574 54.9962 473.744 54.9962C471.914 54.9962 470.256 54.6036 468.784 53.8039C467.311 53.0042 466.139 51.9137 465.267 50.5179C464.41 49.122 463.981 47.5081 463.981 45.7051C463.981 43.9312 464.41 42.3318 465.267 40.9214C466.125 39.511 467.297 38.4205 468.784 37.6353C470.271 36.8502 471.914 36.4576 473.744 36.4576C475.574 36.4576 477.247 36.8502 478.733 37.6353ZM470.699 40.6451C469.785 41.125 469.07 41.8083 468.555 42.6807C468.041 43.5531 467.783 44.5564 467.783 45.7051C467.783 46.8392 468.041 47.857 468.555 48.744C469.07 49.6309 469.785 50.3143 470.699 50.8087C471.614 51.2885 472.629 51.5357 473.744 51.5357C474.859 51.5357 475.874 51.2885 476.775 50.8087C477.675 50.3288 478.39 49.6309 478.905 48.744C479.419 47.857 479.677 46.8392 479.677 45.7051C479.677 44.571 479.419 43.5677 478.905 42.6807C478.39 41.8083 477.675 41.125 476.775 40.6451C475.874 40.1653 474.859 39.9181 473.744 39.9181C472.629 39.9181 471.614 40.1508 470.699 40.6451ZM473.573 68.3876H469.684V58.3114H473.573V68.3876ZM494.744 70.4669H469.67V67.1954H494.744V70.4669ZM493.643 61.0594H489.769V33.9421H493.643V61.0594Z" fill="#535353"/>
<path d="M533.724 54.6913H500.288V51.4634H533.724V54.6913ZM515.984 43.6845C514.726 45.2403 513.011 46.5343 510.809 47.5376C508.608 48.5409 506.135 49.2097 503.376 49.5296L502.046 46.3889C504.348 46.1418 506.449 45.6328 508.336 44.8622C510.223 44.0916 511.71 43.1465 512.782 42.0414C513.854 40.9364 514.397 39.7441 514.397 38.4791V37.4032H517.857V38.4791C517.871 40.3839 517.242 42.1287 515.984 43.6845ZM530.736 38.9735H503.333V35.7747H530.736V38.9735ZM523.775 58.37C525.69 58.908 527.134 59.6786 528.149 60.6964C529.15 61.7142 529.65 62.9356 529.65 64.375C529.65 65.8145 529.15 67.0504 528.149 68.0537C527.148 69.0715 525.705 69.8421 523.803 70.3656C521.902 70.889 519.629 71.1507 516.985 71.1507C514.34 71.1507 512.067 70.889 510.152 70.3656C508.236 69.8421 506.778 69.0715 505.777 68.0537C504.762 67.0359 504.262 65.8145 504.262 64.375C504.262 62.9501 504.777 61.7142 505.792 60.6964C506.821 59.6786 508.279 58.8934 510.195 58.37C512.11 57.832 514.369 57.5703 516.985 57.5703C519.601 57.5557 521.874 57.832 523.775 58.37ZM512.21 61.0744C510.895 61.3652 509.894 61.7869 509.222 62.3394C508.551 62.9065 508.208 63.5753 508.208 64.375C508.208 65.1311 508.551 65.8 509.237 66.3525C509.923 66.905 510.909 67.3267 512.224 67.6175C513.54 67.9083 515.126 68.0391 516.985 68.0391C518.857 68.0391 520.444 67.8937 521.745 67.6175C523.046 67.3267 524.046 66.9196 524.718 66.3525C525.39 65.7854 525.748 65.1457 525.748 64.375C525.748 63.5899 525.404 62.9065 524.718 62.3394C524.032 61.7724 523.046 61.3507 521.745 61.0744C520.444 60.7836 518.857 60.6528 516.985 60.6528C515.112 60.6382 513.525 60.7836 512.21 61.0744ZM521.187 42.0414C522.26 43.1465 523.746 44.0916 525.633 44.8622C527.534 45.6328 529.65 46.1418 531.994 46.3889L530.579 49.5296C527.849 49.2097 525.39 48.5554 523.189 47.5376C520.987 46.5343 519.258 45.2548 517.985 43.6845C516.713 42.1287 516.084 40.3839 516.084 38.4646V37.3886H519.558V38.4646C519.586 39.7441 520.115 40.9219 521.187 42.0414Z" fill="#535353"/>
<path d="M546.791 47.8287C546.148 49.7771 545.19 51.5219 543.932 53.0777C542.674 54.6335 541.173 55.8258 539.429 56.6836L537.285 53.6447C538.843 52.8887 540.173 51.8854 541.273 50.5913C542.374 49.3118 543.218 47.9014 543.804 46.3892C544.39 44.8771 544.676 43.3649 544.676 41.8673V36.5165H547.763V41.8673C547.763 43.8883 547.435 45.8803 546.791 47.8287ZM548.149 69.0572H544.275V58.4866H548.149V69.0572ZM569.663 70.4676H544.29V67.1961H569.663V70.4676ZM549.25 46.1421C549.793 47.5234 550.594 48.8029 551.637 49.937C552.695 51.0857 553.967 52.0017 555.483 52.6706L553.338 55.7531C551.623 54.9388 550.165 53.8192 548.993 52.3943C547.806 50.9694 546.92 49.3554 546.32 47.5524C545.719 45.7495 545.419 43.8447 545.419 41.8527V36.502H548.421V41.8527C548.435 43.3213 548.707 44.7462 549.25 46.1421ZM558.914 46.3165H552.266V43.0741H558.914V46.3165ZM561.329 60.813H557.598V34.6118H561.329V60.813ZM568.62 61.8744H564.917V33.8993H568.62V61.8744Z" fill="#535353"/>
<path d="M593.235 40.4714H579.998V60.2605H576.095V37.229H593.249V40.4714H593.235ZM587.932 58.9955C590.362 58.8501 592.806 58.5593 595.279 58.1376L595.694 61.3655C593.135 61.7727 590.591 62.0489 588.06 62.2089C585.53 62.3688 582.5 62.4415 578.94 62.4415H576.095V59.1991H578.94C582.5 59.2136 585.502 59.1554 587.932 58.9955ZM591.691 50.8676H579.026V47.6978H591.691V50.8676ZM601.698 50.8967H593.821V47.6688H601.698V50.8967ZM605 71.2964H601.126V33.8993H605V71.2964Z" fill="#535353"/>
<path d="M173.063 82.434H174.893V92.5103H175.093L184.041 82.434H186.471L178.523 91.2016L186.429 101.438H184.184L177.366 92.4812L174.907 95.2874V101.438H173.077V82.434H173.063Z" fill="#535353"/>
<path d="M190.216 100.798C189.258 100.172 188.529 99.3146 188 98.195C187.471 97.0754 187.214 95.8104 187.214 94.371C187.214 92.9315 187.471 91.652 188 90.5324C188.529 89.4128 189.258 88.5549 190.216 87.9297C191.174 87.3045 192.246 86.9991 193.447 86.9991C194.648 86.9991 195.72 87.3045 196.663 87.9297C197.607 88.5549 198.336 89.4128 198.85 90.5324C199.365 91.652 199.636 92.9315 199.636 94.371C199.636 95.8104 199.379 97.0754 198.85 98.195C198.336 99.3146 197.592 100.172 196.663 100.798C195.734 101.423 194.648 101.728 193.447 101.728C192.246 101.728 191.174 101.408 190.216 100.798ZM195.848 99.3437C196.52 98.8348 197.02 98.1369 197.378 97.2499C197.721 96.3775 197.892 95.4033 197.892 94.3419C197.892 93.2805 197.721 92.3208 197.378 91.4339C197.035 90.5615 196.52 89.8635 195.848 89.3401C195.176 88.8167 194.376 88.5549 193.447 88.5549C192.518 88.5549 191.717 88.8167 191.045 89.3401C190.373 89.8635 189.859 90.5615 189.516 91.4339C189.158 92.3063 188.987 93.2805 188.987 94.3419C188.987 95.4033 189.158 96.363 189.516 97.2499C189.859 98.1223 190.373 98.8202 191.045 99.3437C191.717 99.8671 192.518 100.114 193.447 100.114C194.376 100.114 195.191 99.8671 195.848 99.3437Z" fill="#535353"/>
<path d="M202.881 87.1879H204.582V89.398H204.711C204.997 88.6565 205.483 88.0604 206.169 87.6242C206.855 87.188 207.627 86.9698 208.485 86.9698C208.814 86.9698 209.128 86.9844 209.4 87.0135V88.8164C209.328 88.8019 209.185 88.7728 208.971 88.7583C208.771 88.7292 208.556 88.7147 208.356 88.7147C207.656 88.7147 207.027 88.8746 206.455 89.1799C205.883 89.4853 205.44 89.9215 205.111 90.4595C204.782 90.9975 204.625 91.6227 204.625 92.3061V101.452H202.867V87.1879H202.881Z" fill="#535353"/>
<path d="M213.703 100.812C212.731 100.201 211.987 99.3436 211.459 98.224C210.93 97.1189 210.672 95.8394 210.672 94.3999C210.672 92.975 210.93 91.6955 211.459 90.5614C211.987 89.4272 212.717 88.5548 213.66 87.9296C214.603 87.3044 215.676 86.9845 216.876 86.9845C217.949 86.9845 218.935 87.2462 219.835 87.7551C220.736 88.264 221.465 89.0492 222.008 90.1106C222.552 91.172 222.823 92.4661 222.823 94.0074V94.8507H211.873V93.2949H221.051C221.051 92.408 220.879 91.5937 220.522 90.8812C220.164 90.1688 219.678 89.6017 219.035 89.1946C218.392 88.7875 217.677 88.5839 216.862 88.5839C216.004 88.5839 215.232 88.8165 214.561 89.2673C213.889 89.7326 213.374 90.3433 212.988 91.1284C212.602 91.9136 212.431 92.7569 212.431 93.6729V94.618C212.431 95.7231 212.616 96.6973 213.002 97.5261C213.388 98.3549 213.932 98.9946 214.632 99.4454C215.333 99.8961 216.147 100.114 217.091 100.114C217.706 100.114 218.249 100.027 218.72 99.8379C219.192 99.6489 219.592 99.4163 219.921 99.14C220.25 98.8638 220.493 98.5439 220.665 98.2095H222.552C222.337 98.8783 221.98 99.4744 221.479 99.9979C220.979 100.521 220.35 100.943 219.607 101.263C218.863 101.568 218.02 101.728 217.091 101.728C215.804 101.728 214.675 101.423 213.703 100.812Z" fill="#535353"/>
<path d="M232.214 94.6325L230.742 94.7343C229.527 94.8215 228.598 95.0978 227.997 95.563C227.383 96.0283 227.083 96.6826 227.083 97.5114C227.083 98.0494 227.211 98.5292 227.483 98.9218C227.754 99.3144 228.126 99.6197 228.612 99.8233C229.098 100.027 229.641 100.143 230.242 100.143C231.071 100.143 231.786 99.9541 232.415 99.5906C233.044 99.2126 233.515 98.7182 233.873 98.093C234.216 97.4678 234.387 96.7699 234.387 95.9992V91.6372C234.387 90.9975 234.259 90.4449 234.001 89.9796C233.744 89.5144 233.358 89.1654 232.843 88.9182C232.329 88.671 231.714 88.5547 230.985 88.5547C230.084 88.5547 229.341 88.7437 228.726 89.1218C228.126 89.4998 227.726 90.0233 227.554 90.6776H225.724C225.825 89.936 226.125 89.2817 226.596 88.7292C227.068 88.1767 227.697 87.7405 228.469 87.4351C229.241 87.1298 230.099 86.9698 231.057 86.9698C231.9 86.9698 232.7 87.1153 233.444 87.3915C234.187 87.6678 234.83 88.1767 235.345 88.8891C235.86 89.6016 236.131 90.5758 236.131 91.7972V101.437H234.387V99.2271H234.287C234.087 99.6633 233.787 100.07 233.401 100.449C233.015 100.827 232.529 101.146 231.943 101.394C231.357 101.641 230.699 101.757 229.956 101.757C229.098 101.757 228.312 101.583 227.611 101.248C226.911 100.914 226.353 100.405 225.939 99.7506C225.524 99.0963 225.324 98.3257 225.324 97.4387C225.324 96.0429 225.782 95.0251 226.711 94.3708C227.64 93.7165 228.898 93.3384 230.485 93.2221C230.871 93.193 231.728 93.1203 233.058 93.0331L234.559 92.9749L234.573 94.4435C234.444 94.458 233.658 94.5307 232.214 94.6325Z" fill="#535353"/>
<path d="M246.911 82.434H253.015C254.33 82.434 255.43 82.6957 256.345 83.2046C257.26 83.7135 257.946 84.4114 258.404 85.2984C258.861 86.1853 259.09 87.2031 259.09 88.3372C259.09 89.4714 258.861 90.4746 258.404 91.3761C257.946 92.2631 257.26 92.9755 256.345 93.4844C255.43 94.0079 254.33 94.2551 253.029 94.2551H248.312V92.5684H252.957C253.915 92.5684 254.716 92.3939 255.359 92.0304C256.017 91.6669 256.488 91.158 256.803 90.5182C257.117 89.8785 257.275 89.1515 257.275 88.3372C257.275 87.4939 257.117 86.7669 256.803 86.1271C256.488 85.4874 256.002 84.993 255.345 84.644C254.687 84.2805 253.887 84.1061 252.929 84.1061H248.74V101.452H246.911V82.434Z" fill="#535353"/>
<path d="M264.594 100.812C263.622 100.201 262.879 99.3436 262.35 98.224C261.821 97.1189 261.563 95.8394 261.563 94.3999C261.563 92.975 261.821 91.6955 262.35 90.5614C262.879 89.4272 263.608 88.5548 264.551 87.9296C265.495 87.3044 266.567 86.9845 267.768 86.9845C268.84 86.9845 269.826 87.2462 270.727 87.7551C271.627 88.264 272.356 89.0492 272.899 90.1106C273.443 91.172 273.714 92.4661 273.714 94.0074V94.8507H262.764V93.2949H271.942C271.942 92.408 271.77 91.5937 271.413 90.8812C271.055 90.1688 270.569 89.6017 269.926 89.1946C269.283 88.7875 268.568 88.5839 267.753 88.5839C266.896 88.5839 266.124 88.8165 265.452 89.2673C264.78 89.7326 264.265 90.3433 263.879 91.1284C263.493 91.9136 263.322 92.7569 263.322 93.6729V94.618C263.322 95.7231 263.508 96.6973 263.894 97.5261C264.28 98.3549 264.823 98.9946 265.523 99.4454C266.224 99.8961 267.038 100.114 267.982 100.114C268.597 100.114 269.14 100.027 269.612 99.8379C270.083 99.6489 270.484 99.4163 270.812 99.14C271.141 98.8638 271.384 98.5439 271.556 98.2095H273.443C273.228 98.8783 272.871 99.4744 272.371 99.9979C271.87 100.521 271.241 100.943 270.498 101.263C269.755 101.568 268.911 101.728 267.982 101.728C266.695 101.728 265.566 101.423 264.594 100.812Z" fill="#535353"/>
<path d="M282.548 88.7002H275.743V87.1735H282.548V88.7002ZM279.603 83.7711V97.6424C279.603 98.2094 279.689 98.6602 279.875 98.9946C280.061 99.329 280.304 99.5617 280.604 99.7071C280.904 99.8525 281.261 99.9252 281.662 99.9252C282.033 99.9252 282.433 99.9106 282.819 99.8816V101.554C282.462 101.612 282.019 101.641 281.49 101.641C280.861 101.641 280.261 101.496 279.703 101.219C279.146 100.943 278.688 100.521 278.345 99.9833C278.002 99.4454 277.816 98.7911 277.816 98.0495V83.7566H279.603V83.7711Z" fill="#535353"/>
<path d="M302.174 85.3992C301.802 84.8903 301.288 84.4978 300.644 84.236C300.001 83.9743 299.272 83.8289 298.472 83.8289C297.614 83.8289 296.871 83.9743 296.213 84.2651C295.555 84.5559 295.041 84.963 294.683 85.4865C294.312 86.0099 294.126 86.6061 294.126 87.2749C294.126 88.1764 294.469 88.8889 295.155 89.4123C295.841 89.9358 296.728 90.3574 297.828 90.6628L299.758 91.2153C301.259 91.6224 302.489 92.2185 303.446 93.0037C304.404 93.7889 304.89 94.8939 304.89 96.3479C304.89 97.3657 304.633 98.2963 304.104 99.1106C303.575 99.9248 302.832 100.579 301.831 101.044C300.83 101.51 299.672 101.742 298.329 101.742C297.071 101.742 295.956 101.524 295.012 101.103C294.069 100.681 293.311 100.07 292.768 99.2996C292.225 98.529 291.925 97.6275 291.853 96.6097H293.726C293.797 97.3367 294.04 97.9473 294.455 98.4562C294.869 98.9652 295.412 99.3577 296.084 99.6195C296.756 99.8957 297.514 100.027 298.343 100.027C299.258 100.027 300.087 99.8666 300.802 99.5613C301.531 99.256 302.088 98.8052 302.489 98.2381C302.889 97.6711 303.089 97.0168 303.089 96.2752C303.089 95.6645 302.932 95.1556 302.617 94.7194C302.303 94.2832 301.874 93.9343 301.316 93.6435C300.759 93.3527 300.058 93.091 299.215 92.8292L296.971 92.1895C295.47 91.7387 294.312 91.1135 293.511 90.2993C292.711 89.485 292.325 88.4963 292.325 87.304C292.325 86.2862 292.596 85.3847 293.14 84.5995C293.683 83.8144 294.426 83.2037 295.355 82.7529C296.284 82.3167 297.342 82.0841 298.5 82.0841C299.658 82.0841 300.687 82.3022 301.588 82.7384C302.489 83.1746 303.218 83.7708 303.746 84.5414C304.275 85.2975 304.561 86.1699 304.604 87.1295H302.817C302.774 86.5043 302.56 85.9081 302.174 85.3992Z" fill="#535353"/>
<path d="M314.497 94.6325L313.025 94.7343C311.81 94.8215 310.881 95.0978 310.28 95.563C309.666 96.0283 309.365 96.6826 309.365 97.5114C309.365 98.0494 309.494 98.5292 309.766 98.9218C310.037 99.3144 310.409 99.6197 310.895 99.8233C311.381 100.027 311.924 100.143 312.525 100.143C313.354 100.143 314.069 99.9541 314.697 99.5906C315.326 99.2126 315.798 98.7182 316.156 98.093C316.499 97.4678 316.67 96.7699 316.67 95.9992V91.6372C316.67 90.9975 316.542 90.4449 316.284 89.9796C316.027 89.5144 315.641 89.1654 315.126 88.9182C314.612 88.671 313.997 88.5547 313.268 88.5547C312.367 88.5547 311.624 88.7437 311.009 89.1218C310.409 89.4998 310.009 90.0233 309.837 90.6776H308.007C308.108 89.936 308.408 89.2817 308.879 88.7292C309.351 88.1767 309.98 87.7405 310.752 87.4351C311.524 87.1298 312.382 86.9698 313.339 86.9698C314.183 86.9698 314.983 87.1153 315.727 87.3915C316.47 87.6678 317.113 88.1767 317.628 88.8891C318.143 89.6016 318.414 90.5758 318.414 91.7972V101.437H316.67V99.2271H316.57C316.37 99.6633 316.07 100.07 315.684 100.449C315.298 100.827 314.812 101.146 314.226 101.394C313.64 101.641 312.982 101.757 312.239 101.757C311.381 101.757 310.595 101.583 309.894 101.248C309.194 100.914 308.636 100.405 308.222 99.7506C307.807 99.0963 307.607 98.3257 307.607 97.4387C307.607 96.0429 308.065 95.0251 308.994 94.3708C309.923 93.7165 311.181 93.3384 312.768 93.2221C313.154 93.193 314.011 93.1203 315.341 93.0331L316.842 92.9749L316.856 94.4435C316.727 94.458 315.941 94.5307 314.497 94.6325Z" fill="#535353"/>
<path d="M328.206 88.7001H321.201V87.1734H328.206V88.7001ZM323.803 83.2039C324.103 82.666 324.532 82.2588 325.075 81.9826C325.633 81.6918 326.276 81.5609 327.034 81.5609C327.262 81.5609 327.505 81.5755 327.763 81.59C328.02 81.6191 328.263 81.6482 328.492 81.6918V83.3057C328.12 83.2476 327.748 83.2185 327.377 83.2185C326.619 83.2185 326.061 83.4075 325.69 83.7856C325.318 84.1636 325.132 84.7307 325.132 85.5013L325.118 101.452H323.345V85.1378C323.36 84.3817 323.503 83.7419 323.803 83.2039Z" fill="#535353"/>
<path d="M332.852 100.812C331.88 100.201 331.137 99.3436 330.608 98.224C330.079 97.1189 329.822 95.8394 329.822 94.3999C329.822 92.975 330.079 91.6955 330.608 90.5614C331.137 89.4272 331.866 88.5548 332.809 87.9296C333.753 87.3044 334.825 86.9845 336.026 86.9845C337.098 86.9845 338.07 87.2462 338.985 87.7551C339.885 88.264 340.614 89.0492 341.158 90.1106C341.701 91.172 341.972 92.4661 341.972 94.0074V94.8507H331.022V93.2949H340.2C340.2 92.408 340.028 91.5937 339.671 90.8812C339.313 90.1688 338.827 89.6017 338.184 89.1946C337.541 88.7875 336.826 88.5839 336.011 88.5839C335.154 88.5839 334.382 88.8165 333.71 89.2673C333.038 89.718 332.523 90.3433 332.137 91.1284C331.751 91.9136 331.58 92.7569 331.58 93.6729V94.618C331.58 95.7231 331.766 96.6973 332.152 97.5261C332.538 98.3549 333.081 98.9946 333.781 99.4454C334.482 99.8961 335.297 100.114 336.24 100.114C336.855 100.114 337.398 100.027 337.87 99.8379C338.341 99.6489 338.742 99.4163 339.07 99.14C339.399 98.8638 339.642 98.5439 339.814 98.2095H341.701C341.486 98.8783 341.129 99.4744 340.629 99.9979C340.128 100.521 339.499 100.943 338.756 101.263C338.013 101.568 337.169 101.728 336.24 101.728C334.953 101.728 333.824 101.423 332.852 100.812Z" fill="#535353"/>
<path d="M350.806 88.7002H344.002V87.1735H350.806V88.7002ZM347.862 83.7711V97.6424C347.862 98.2094 347.947 98.6602 348.133 98.9946C348.319 99.329 348.562 99.5617 348.862 99.7071C349.162 99.8525 349.52 99.9252 349.92 99.9252C350.292 99.9252 350.692 99.9106 351.078 99.8816V101.554C350.721 101.612 350.277 101.641 349.749 101.641C349.12 101.641 348.519 101.496 347.962 101.219C347.404 100.943 346.947 100.521 346.604 99.9833C346.261 99.4454 346.075 98.7911 346.075 98.0495V83.7566H347.862V83.7711Z" fill="#535353"/>
<path d="M354.251 106.759V105.145L354.566 105.16C354.68 105.174 354.852 105.189 355.095 105.189C355.466 105.189 355.81 105.145 356.081 105.044C356.367 104.956 356.639 104.738 356.91 104.418C357.182 104.098 357.425 103.604 357.654 102.964L358.154 101.583L352.993 87.1884H354.909L358.997 99.1258H359.112L363.2 87.1884H365.116L359.197 103.648C358.811 104.695 358.297 105.48 357.639 106.003C356.982 106.527 356.181 106.788 355.223 106.788C354.866 106.788 354.537 106.774 354.251 106.759Z" fill="#535353"/>
<path d="M386.602 86.0839C386.073 85.4005 385.415 84.8771 384.629 84.499C383.843 84.121 382.985 83.932 382.056 83.932C380.869 83.932 379.797 84.2373 378.84 84.8625C377.882 85.4877 377.124 86.4038 376.552 87.6106C375.995 88.8174 375.709 90.2569 375.709 91.9435C375.709 93.6302 375.995 95.0842 376.552 96.2765C377.11 97.4833 377.868 98.3994 378.84 99.01C379.797 99.6353 380.884 99.9406 382.07 99.9406C382.999 99.9406 383.857 99.7516 384.643 99.3735C385.43 98.9955 386.087 98.4575 386.616 97.7887C387.145 97.1053 387.502 96.3492 387.674 95.4913H389.504C389.304 96.6691 388.86 97.7305 388.189 98.6756C387.517 99.6207 386.659 100.362 385.601 100.9C384.543 101.438 383.371 101.7 382.085 101.7C380.512 101.7 379.111 101.293 377.882 100.493C376.652 99.6934 375.695 98.5448 375.008 97.0762C374.322 95.6077 373.979 93.8919 373.979 91.9435C373.979 89.9806 374.322 88.2649 375.008 86.7964C375.695 85.3278 376.652 84.1791 377.882 83.3794C379.111 82.5797 380.512 82.1726 382.085 82.1726C383.371 82.1726 384.543 82.4343 385.601 82.9723C386.659 83.5103 387.517 84.2373 388.189 85.1824C388.86 86.1275 389.304 87.2035 389.504 88.4103H387.674C387.474 87.5379 387.131 86.7673 386.602 86.0839Z" fill="#535353"/>
<path d="M395.106 100.812C394.134 100.201 393.391 99.3436 392.862 98.224C392.333 97.1189 392.075 95.8394 392.075 94.3999C392.075 92.975 392.333 91.6955 392.862 90.5614C393.391 89.4272 394.12 88.5548 395.063 87.9296C396.007 87.3044 397.079 86.9845 398.279 86.9845C399.352 86.9845 400.338 87.2462 401.239 87.7551C402.139 88.264 402.868 89.0492 403.411 90.1106C403.955 91.172 404.226 92.4661 404.226 94.0074V94.8507H393.276V93.2949H402.454C402.454 92.408 402.282 91.5937 401.925 90.8812C401.567 90.1688 401.081 89.6017 400.438 89.1946C399.795 88.7875 399.08 88.5839 398.265 88.5839C397.407 88.5839 396.636 88.8165 395.964 89.2673C395.292 89.7326 394.777 90.3433 394.391 91.1284C394.005 91.9136 393.834 92.7569 393.834 93.6729V94.618C393.834 95.7231 394.02 96.6973 394.406 97.5261C394.792 98.3549 395.335 98.9946 396.035 99.4454C396.736 99.8961 397.55 100.114 398.494 100.114C399.109 100.114 399.652 100.027 400.124 99.8379C400.595 99.6489 400.996 99.4163 401.324 99.14C401.653 98.8638 401.896 98.5439 402.068 98.2095H403.955C403.74 98.8783 403.383 99.4744 402.882 99.9979C402.382 100.521 401.753 100.943 401.01 101.263C400.266 101.568 399.423 101.728 398.494 101.728C397.207 101.728 396.078 101.423 395.106 100.812Z" fill="#535353"/>
<path d="M407.43 87.1879H409.131V89.398H409.274C409.56 88.6565 410.046 88.0604 410.732 87.6242C411.418 87.188 412.19 86.9698 413.048 86.9698C413.376 86.9698 413.691 86.9844 413.963 87.0135V88.8164C413.891 88.8019 413.748 88.7728 413.534 88.7583C413.319 88.7437 413.119 88.7147 412.919 88.7147C412.219 88.7147 411.59 88.8746 411.018 89.1799C410.446 89.4853 410.003 89.9215 409.674 90.4595C409.345 90.9975 409.188 91.6227 409.188 92.3061V101.452H407.43V87.1879Z" fill="#535353"/>
<path d="M422.883 88.7002H416.078V87.1735H422.883V88.7002ZM419.952 83.7711V97.6424C419.952 98.2094 420.038 98.6602 420.224 98.9946C420.41 99.329 420.653 99.5617 420.953 99.7071C421.253 99.8525 421.61 99.9252 422.011 99.9252C422.382 99.9252 422.782 99.9106 423.168 99.8816V101.554C422.811 101.612 422.368 101.641 421.839 101.641C421.21 101.641 420.61 101.496 420.052 101.219C419.495 100.943 419.037 100.521 418.694 99.9833C418.351 99.4454 418.165 98.7911 418.165 98.0495V83.7566H419.952V83.7711Z" fill="#535353"/>
<path d="M426.455 84.5861C426.255 84.4697 426.097 84.3243 425.983 84.1208C425.869 83.9172 425.812 83.7137 425.812 83.4956C425.812 83.2629 425.869 83.0594 425.983 82.8703C426.097 82.6813 426.255 82.5359 426.455 82.4196C426.655 82.3033 426.869 82.2596 427.084 82.2596C427.327 82.2596 427.555 82.3178 427.756 82.4196C427.956 82.5359 428.113 82.6813 428.227 82.8703C428.342 83.0594 428.399 83.2629 428.399 83.4956C428.399 83.7137 428.342 83.9172 428.227 84.1208C428.113 84.3243 427.956 84.4697 427.756 84.5861C427.555 84.7024 427.341 84.746 427.084 84.746C426.855 84.7605 426.655 84.7024 426.455 84.5861ZM426.226 87.1887H427.984V101.438H426.226V87.1887Z" fill="#535353"/>
<path d="M437.764 88.7001H430.76V87.1734H437.764V88.7001ZM433.361 83.2039C433.662 82.666 434.076 82.2588 434.634 81.9826C435.191 81.6918 435.834 81.5609 436.592 81.5609C436.821 81.5609 437.064 81.5755 437.321 81.59C437.578 81.6191 437.822 81.6482 438.05 81.6918V83.3057C437.679 83.2476 437.307 83.2185 436.935 83.2185C436.178 83.2185 435.62 83.4075 435.248 83.7856C434.877 84.1636 434.691 84.7307 434.691 85.5013L434.677 101.452H432.904V85.1378C432.904 84.3817 433.061 83.7419 433.361 83.2039Z" fill="#535353"/>
<path d="M440.922 84.5861C440.722 84.4697 440.565 84.3243 440.45 84.1208C440.336 83.9172 440.279 83.7137 440.279 83.4956C440.279 83.2629 440.336 83.0594 440.45 82.8703C440.565 82.6813 440.722 82.5359 440.922 82.4196C441.122 82.3033 441.337 82.2596 441.551 82.2596C441.794 82.2596 442.023 82.3178 442.223 82.4196C442.423 82.5359 442.58 82.6813 442.695 82.8703C442.809 83.0594 442.866 83.2629 442.866 83.4956C442.866 83.7137 442.809 83.9172 442.695 84.1208C442.58 84.3243 442.423 84.4697 442.223 84.5861C442.023 84.7024 441.808 84.746 441.551 84.746C441.337 84.7605 441.122 84.7024 440.922 84.5861ZM440.693 87.1887H442.452V101.438H440.693V87.1887Z" fill="#535353"/>
<path d="M448.628 100.768C447.684 100.129 446.955 99.2562 446.44 98.1366C445.926 97.0171 445.668 95.7521 445.668 94.3562C445.668 92.9313 445.926 91.6663 446.455 90.5467C446.984 89.4271 447.713 88.5547 448.656 87.915C449.6 87.2897 450.672 86.9698 451.901 86.9698C452.845 86.9698 453.717 87.1589 454.489 87.5224C455.26 87.8859 455.904 88.4093 456.39 89.0927C456.876 89.7761 457.19 90.5467 457.319 91.4337H455.532C455.432 90.8957 455.218 90.4159 454.889 89.9796C454.56 89.5434 454.145 89.209 453.645 88.9473C453.145 88.7001 452.573 88.5693 451.93 88.5693C451.058 88.5693 450.271 88.8164 449.6 89.2963C448.928 89.7761 448.399 90.4449 448.013 91.3173C447.627 92.1897 447.441 93.1785 447.441 94.2981C447.441 95.4176 447.627 96.4355 447.999 97.3079C448.37 98.1803 448.899 98.8782 449.571 99.358C450.243 99.8524 451.029 100.1 451.93 100.1C452.53 100.1 453.088 99.9832 453.588 99.7651C454.103 99.5325 454.517 99.1981 454.86 98.7619C455.203 98.3257 455.432 97.8168 455.532 97.2352H457.305C457.19 98.1076 456.89 98.8782 456.404 99.547C455.918 100.216 455.303 100.754 454.531 101.132C453.759 101.51 452.887 101.714 451.93 101.714C450.657 101.728 449.571 101.408 448.628 100.768Z" fill="#535353"/>
<path d="M466.597 94.6325L465.124 94.7343C463.895 94.8215 462.98 95.0978 462.379 95.563C461.765 96.0283 461.465 96.6826 461.465 97.5114C461.465 98.0494 461.593 98.5292 461.865 98.9218C462.136 99.3144 462.508 99.6197 462.994 99.8233C463.48 100.027 464.023 100.143 464.624 100.143C465.453 100.143 466.168 99.9541 466.797 99.5906C467.426 99.2271 467.897 98.7182 468.255 98.093C468.598 97.4678 468.769 96.7699 468.769 95.9992V91.6372C468.769 90.9975 468.641 90.4449 468.383 89.9796C468.126 89.5144 467.74 89.1654 467.225 88.9182C466.711 88.671 466.096 88.5547 465.367 88.5547C464.467 88.5547 463.723 88.7437 463.109 89.1218C462.508 89.4998 462.108 90.0233 461.936 90.6776H460.107C460.207 89.936 460.507 89.2817 460.979 88.7292C461.45 88.1767 462.079 87.7405 462.851 87.4351C463.623 87.1298 464.481 86.9698 465.439 86.9698C466.282 86.9698 467.083 87.1153 467.826 87.3915C468.569 87.6678 469.213 88.1767 469.727 88.8891C470.242 89.6016 470.513 90.5758 470.513 91.7972V101.437H468.769V99.2271H468.669C468.469 99.6633 468.169 100.07 467.783 100.449C467.397 100.827 466.911 101.146 466.325 101.394C465.739 101.641 465.081 101.757 464.338 101.757C463.48 101.757 462.694 101.583 461.994 101.248C461.293 100.914 460.736 100.405 460.321 99.7506C459.906 99.0963 459.706 98.3257 459.706 97.4387C459.706 96.0429 460.164 95.0251 461.093 94.3708C462.022 93.7165 463.28 93.3384 464.867 93.2221C465.253 93.193 466.11 93.1203 467.44 93.0331L468.941 92.9749L468.955 94.4435C468.812 94.458 468.026 94.5307 466.597 94.6325Z" fill="#535353"/>
<path d="M480.061 88.7002H473.256V87.1735H480.061V88.7002ZM477.116 83.7711V97.6424C477.116 98.2094 477.202 98.6602 477.387 98.9946C477.573 99.329 477.816 99.5617 478.116 99.7071C478.417 99.8525 478.774 99.9252 479.174 99.9252C479.546 99.9252 479.946 99.9106 480.332 99.8816V101.554C479.975 101.612 479.532 101.641 479.003 101.641C478.374 101.641 477.788 101.496 477.216 101.219C476.658 100.943 476.201 100.521 475.858 99.9833C475.515 99.4454 475.329 98.7911 475.329 98.0495V83.7566H477.116V83.7711Z" fill="#535353"/>
<path d="M483.636 84.5861C483.436 84.4697 483.279 84.3243 483.164 84.1208C483.05 83.9172 482.993 83.7137 482.993 83.4956C482.993 83.2629 483.05 83.0594 483.164 82.8703C483.279 82.6813 483.436 82.5359 483.636 82.4196C483.836 82.3033 484.051 82.2596 484.265 82.2596C484.508 82.2596 484.737 82.3178 484.937 82.4196C485.137 82.5359 485.294 82.6813 485.394 82.8703C485.495 83.0594 485.566 83.2629 485.566 83.4956C485.566 83.7137 485.509 83.9172 485.394 84.1208C485.28 84.3243 485.123 84.4697 484.937 84.5861C484.737 84.7024 484.522 84.746 484.265 84.746C484.036 84.7605 483.822 84.7024 483.636 84.5861ZM483.393 87.1887H485.151V101.438H483.393V87.1887Z" fill="#535353"/>
<path d="M491.354 100.798C490.396 100.172 489.667 99.3146 489.138 98.195C488.609 97.0754 488.352 95.8104 488.352 94.371C488.352 92.9315 488.609 91.652 489.138 90.5324C489.667 89.4128 490.396 88.5549 491.354 87.9297C492.312 87.3045 493.384 86.9991 494.585 86.9991C495.785 86.9991 496.858 87.3045 497.801 87.9297C498.745 88.5549 499.474 89.4128 500.002 90.5324C500.517 91.652 500.789 92.9315 500.789 94.371C500.789 95.8104 500.531 97.0754 500.002 98.195C499.488 99.3146 498.745 100.172 497.801 100.798C496.858 101.423 495.785 101.728 494.585 101.728C493.384 101.728 492.312 101.408 491.354 100.798ZM496.986 99.3437C497.658 98.8348 498.158 98.1369 498.516 97.2499C498.859 96.3775 499.03 95.4033 499.03 94.3419C499.03 93.2805 498.859 92.3208 498.516 91.4339C498.173 90.5615 497.658 89.8635 496.986 89.3401C496.314 88.8167 495.514 88.5549 494.585 88.5549C493.655 88.5549 492.855 88.8167 492.183 89.3401C491.511 89.8635 490.997 90.5615 490.654 91.4339C490.31 92.3063 490.125 93.2805 490.125 94.3419C490.125 95.4033 490.296 96.363 490.654 97.2499C490.997 98.1223 491.511 98.8202 492.183 99.3437C492.855 99.8671 493.655 100.114 494.585 100.114C495.514 100.129 496.314 99.8671 496.986 99.3437Z" fill="#535353"/>
<path d="M505.765 101.437H504.007V87.1882H505.708V89.4273H505.851C506.208 88.6567 506.737 88.0606 507.438 87.6389C508.138 87.2172 508.982 86.9991 509.996 86.9991C510.954 86.9991 511.783 87.2027 512.498 87.5953C513.213 87.9879 513.756 88.584 514.156 89.3692C514.542 90.1543 514.742 91.114 514.742 92.2336V101.437H512.984V92.3354C512.984 91.5793 512.841 90.9104 512.57 90.3579C512.284 89.7908 511.883 89.3692 511.369 89.0638C510.854 88.7585 510.225 88.6131 509.51 88.6131C508.796 88.6131 508.138 88.773 507.581 89.0929C507.009 89.4128 506.566 89.8781 506.251 90.4742C505.937 91.0704 505.779 91.7828 505.779 92.5971V101.437H505.765Z" fill="#535353"/>
<path d="M537.356 86.0839C536.827 85.4005 536.169 84.8771 535.383 84.499C534.597 84.121 533.739 83.932 532.81 83.932C531.623 83.932 530.551 84.2373 529.594 84.8625C528.636 85.4877 527.878 86.4038 527.306 87.6106C526.749 88.8174 526.463 90.2569 526.463 91.9435C526.463 93.6302 526.749 95.0842 527.306 96.2765C527.864 97.4833 528.622 98.3994 529.594 99.01C530.551 99.6353 531.638 99.9406 532.824 99.9406C533.753 99.9406 534.611 99.7516 535.397 99.3735C536.184 98.9955 536.841 98.4575 537.37 97.7887C537.899 97.1053 538.256 96.3492 538.428 95.4913H540.258C540.058 96.6691 539.614 97.7305 538.943 98.6756C538.271 99.6207 537.413 100.362 536.369 100.9C535.326 101.438 534.139 101.7 532.853 101.7C531.28 101.7 529.879 101.293 528.65 100.493C527.421 99.6934 526.463 98.5448 525.777 97.0762C525.091 95.6077 524.748 93.8919 524.748 91.9435C524.748 89.9806 525.091 88.2649 525.777 86.7964C526.463 85.3278 527.421 84.1791 528.65 83.3794C529.879 82.5797 531.28 82.1726 532.853 82.1726C534.139 82.1726 535.312 82.4343 536.369 82.9723C537.427 83.5103 538.285 84.2373 538.957 85.1824C539.629 86.1275 540.072 87.2035 540.272 88.4103H538.442C538.228 87.5379 537.885 86.7673 537.356 86.0839Z" fill="#535353"/>
<path d="M545.864 100.812C544.892 100.201 544.148 99.3436 543.62 98.224C543.091 97.1189 542.833 95.8394 542.833 94.3999C542.833 92.975 543.091 91.6955 543.62 90.5614C544.148 89.4272 544.877 88.5548 545.821 87.9296C546.764 87.3044 547.837 86.9845 549.037 86.9845C550.109 86.9845 551.096 87.2462 551.996 87.7551C552.897 88.264 553.626 89.0492 554.169 90.1106C554.712 91.172 554.984 92.4661 554.984 94.0074V94.8507H544.034V93.2949H553.211C553.211 92.408 553.04 91.5937 552.683 90.8812C552.325 90.1688 551.839 89.6017 551.196 89.1946C550.553 88.7875 549.838 88.5839 549.023 88.5839C548.165 88.5839 547.393 88.8165 546.722 89.2673C546.05 89.718 545.535 90.3433 545.149 91.1284C544.763 91.9136 544.592 92.7569 544.592 93.6729V94.618C544.592 95.7231 544.777 96.6973 545.163 97.5261C545.549 98.3549 546.093 98.9946 546.793 99.4454C547.493 99.8961 548.308 100.114 549.252 100.114C549.866 100.114 550.41 100.027 550.881 99.8379C551.353 99.6489 551.753 99.4163 552.082 99.14C552.411 98.8638 552.654 98.5439 552.826 98.2095H554.712C554.498 98.8783 554.141 99.4744 553.64 99.9979C553.14 100.521 552.511 100.943 551.768 101.263C551.024 101.568 550.181 101.728 549.252 101.728C547.965 101.728 546.836 101.423 545.864 100.812Z" fill="#535353"/>
<path d="M559.944 101.437H558.185V87.1882H559.886V89.4273H560.029C560.387 88.6567 560.916 88.0606 561.616 87.6389C562.317 87.2172 563.16 86.9991 564.175 86.9991C565.133 86.9991 565.962 87.2027 566.677 87.5953C567.391 87.9879 567.934 88.584 568.335 89.3692C568.721 90.1543 568.921 91.114 568.921 92.2336V101.437H567.163V92.3354C567.163 91.5793 567.02 90.9104 566.748 90.3579C566.462 89.7908 566.062 89.3692 565.547 89.0638C565.033 88.7585 564.404 88.6131 563.689 88.6131C562.974 88.6131 562.317 88.773 561.759 89.0929C561.187 89.4128 560.744 89.8781 560.43 90.4742C560.115 91.0704 559.958 91.7828 559.958 92.5971V101.437H559.944Z" fill="#535353"/>
<path d="M578.47 88.7002H571.666V87.1735H578.47V88.7002ZM575.525 83.7711V97.6424C575.525 98.2094 575.611 98.6602 575.797 98.9946C575.983 99.329 576.226 99.5617 576.526 99.7071C576.826 99.8525 577.183 99.9252 577.584 99.9252C577.955 99.9252 578.356 99.9106 578.742 99.8816V101.554C578.384 101.612 577.941 101.641 577.412 101.641C576.783 101.641 576.197 101.496 575.625 101.219C575.068 100.943 574.61 100.521 574.267 99.9833C573.924 99.4454 573.738 98.7911 573.738 98.0495V83.7566H575.525V83.7711Z" fill="#535353"/>
<path d="M583.945 100.812C582.973 100.201 582.23 99.3436 581.701 98.224C581.172 97.1189 580.915 95.8394 580.915 94.3999C580.915 92.975 581.172 91.6955 581.701 90.5614C582.23 89.4272 582.959 88.5548 583.902 87.9296C584.846 87.3044 585.918 86.9845 587.119 86.9845C588.191 86.9845 589.177 87.2462 590.078 87.7551C590.979 88.264 591.708 89.0492 592.251 90.1106C592.794 91.172 593.066 92.4661 593.066 94.0074V94.8507H582.116V93.2949H591.293C591.293 92.408 591.121 91.5937 590.764 90.8812C590.407 90.1688 589.921 89.6017 589.277 89.1946C588.634 88.7875 587.919 88.5839 587.105 88.5839C586.247 88.5839 585.475 88.8165 584.803 89.2673C584.131 89.718 583.617 90.3433 583.231 91.1284C582.845 91.9136 582.673 92.7569 582.673 93.6729V94.618C582.673 95.7231 582.859 96.6973 583.245 97.5261C583.631 98.3549 584.174 98.9946 584.875 99.4454C585.575 99.8961 586.39 100.114 587.333 100.114C587.948 100.114 588.491 100.027 588.963 99.8379C589.435 99.6489 589.835 99.4163 590.164 99.14C590.492 98.8638 590.735 98.5439 590.907 98.2095H592.794C592.58 98.8783 592.222 99.4744 591.722 99.9979C591.222 100.521 590.593 100.943 589.849 101.263C589.106 101.568 588.262 101.728 587.333 101.728C586.047 101.728 584.917 101.423 583.945 100.812Z" fill="#535353"/>
<path d="M596.282 87.1879H597.983V89.398H598.111C598.397 88.6565 598.883 88.0604 599.569 87.6242C600.256 87.188 601.028 86.9698 601.885 86.9698C602.228 86.9698 602.529 86.9844 602.8 87.0135V88.8164C602.729 88.8019 602.586 88.7728 602.371 88.7583C602.157 88.7437 601.957 88.7147 601.757 88.7147C601.056 88.7147 600.427 88.8746 599.855 89.1799C599.284 89.4853 598.84 89.9215 598.512 90.4595C598.183 91.012 598.026 91.6227 598.026 92.3061V101.452H596.267V87.1879H596.282Z" fill="#535353"/>
<path d="M70.0311 142C31.4167 142 0 110.145 0 71.0078C0 31.8705 31.4167 0 70.0311 0C108.645 0 140.062 31.8549 140.062 71.0078C140.062 110.161 108.63 142 70.0311 142ZM70.0311 1.97331C32.4979 1.97331 1.96161 32.9355 1.96161 70.9922C1.96161 109.049 32.4979 140.011 70.0311 140.011C107.564 140.011 138.101 109.049 138.101 70.9922C138.101 32.9355 107.564 1.97331 70.0311 1.97331Z" fill="#535353"/>
<path d="M12.8505 61.0006L12.7424 61.9089L9.26713 63.9135L9.80773 64.6966L12.3717 65.0098L12.2791 65.7772L5.7146 64.9785L5.80727 64.2111L9.08178 64.6183C8.89643 64.4147 8.72652 64.2111 8.55662 64.0075C8.38672 63.8039 8.21681 63.6003 8.03146 63.3967L6.16253 61.1885L6.27065 60.2802L8.80375 63.2714L12.8505 61.0006Z" fill="#535353"/>
<path d="M11.6155 55.0338C12.0171 55.1278 12.3569 55.2687 12.6504 55.441C12.9439 55.6133 13.1601 55.8325 13.33 56.0675C13.4999 56.318 13.608 56.5843 13.6544 56.8975C13.7007 57.2107 13.6853 57.524 13.608 57.8842C13.5308 58.213 13.4072 58.4949 13.2373 58.7455C13.0674 58.9961 12.8512 59.184 12.5886 59.3407C12.326 59.4816 12.0326 59.5756 11.6928 59.6226C11.353 59.6539 10.9977 59.6382 10.5961 59.5443C10.071 59.419 9.63847 59.231 9.31411 58.9648C8.98975 58.6985 8.75806 58.3697 8.6345 57.9938C8.51093 57.6179 8.51093 57.1794 8.61905 56.7096C8.72717 56.2554 8.91252 55.8952 9.1751 55.5976C9.45312 55.3157 9.79293 55.1121 10.21 55.0182C10.627 54.9085 11.0904 54.9242 11.6155 55.0338ZM10.7815 58.7612C11.1676 58.8552 11.5229 58.8708 11.8318 58.8395C12.1407 58.8082 12.4033 58.6985 12.6041 58.5106C12.8049 58.3227 12.9439 58.0721 13.0211 57.7276C13.0983 57.383 13.0829 57.0854 12.9748 56.8349C12.8666 56.5843 12.6813 56.365 12.4187 56.1928C12.1561 56.0205 11.8318 55.8952 11.4456 55.8012C11.0595 55.7073 10.7197 55.6916 10.4108 55.7229C10.1018 55.7542 9.85471 55.8795 9.65392 56.0518C9.45312 56.2397 9.31411 56.4903 9.23688 56.8505C9.12876 57.3673 9.20599 57.7745 9.48401 58.0878C9.76204 58.401 10.1945 58.6359 10.7815 58.7612Z" fill="#535353"/>
<path d="M10.4561 50.1626C10.487 50.0686 10.5179 49.9746 10.5643 49.865C10.6106 49.771 10.6569 49.6771 10.6878 49.5988L11.3211 49.912C11.2748 49.9903 11.2284 50.0686 11.1975 50.1626C11.1512 50.2565 11.1203 50.3505 11.0894 50.4288C11.0276 50.6167 11.0122 50.8203 11.0276 51.0083C11.0431 51.1962 11.1049 51.3841 11.213 51.5564C11.3211 51.7287 11.4601 51.8853 11.63 52.0262C11.7999 52.1672 12.0162 52.2768 12.2633 52.3551L14.7964 53.1852L14.5647 53.9056L9.85376 52.3551L10.0391 51.76L10.935 51.9636L10.9504 51.9323C10.8114 51.7757 10.6878 51.6034 10.5797 51.4155C10.487 51.2275 10.4098 51.0239 10.3944 50.8203C10.3635 50.6011 10.3789 50.3818 10.4561 50.1626Z" fill="#535353"/>
<path d="M12.0162 46.0595C12.1861 45.668 12.4023 45.3704 12.6958 45.1512C12.9893 44.9476 13.3136 44.8379 13.6843 44.8223C14.055 44.8066 14.4412 44.8849 14.8582 45.0572L15.2907 45.2451L13.9623 48.44C14.5029 48.6593 14.9663 48.7062 15.3525 48.5653C15.7386 48.4243 16.0321 48.1111 16.2329 47.6413C16.3564 47.3437 16.4337 47.0775 16.48 46.8269C16.5263 46.5763 16.5418 46.3101 16.5418 46.0282L17.1442 46.2944C17.1442 46.5763 17.1287 46.8426 17.0824 47.0931C17.036 47.3437 16.9434 47.6256 16.8198 47.9388C16.6345 48.3774 16.3873 48.7376 16.063 48.9881C15.7386 49.2387 15.3833 49.3797 14.9509 49.4267C14.5338 49.458 14.0705 49.364 13.5607 49.1604C13.0665 48.9568 12.6803 48.6906 12.3869 48.3617C12.0934 48.0328 11.9235 47.6883 11.8463 47.2967C11.7999 46.8739 11.8463 46.4667 12.0162 46.0595ZM12.5877 46.3101C12.4332 46.686 12.4332 47.0305 12.5722 47.3594C12.7267 47.6883 13.0047 47.9545 13.4217 48.1894L14.4412 45.7463C14.1631 45.6366 13.916 45.574 13.6689 45.574C13.4217 45.574 13.2209 45.621 13.0356 45.7463C12.8348 45.8559 12.6958 46.0438 12.5877 46.3101Z" fill="#535353"/>
<path d="M14.6588 40.5469C14.9368 40.0144 15.2612 39.7012 15.6319 39.5603C16.0026 39.435 16.4351 39.5133 16.9602 39.7952L19.9258 41.424L19.6632 41.9094L18.9527 41.6902L18.9373 41.7215C19.03 41.9251 19.0917 42.1287 19.1226 42.3323C19.1535 42.5202 19.1535 42.7238 19.1226 42.9274C19.0763 43.131 18.9991 43.3659 18.86 43.6165C18.721 43.8828 18.5357 44.102 18.3349 44.2586C18.1341 44.4152 17.9024 44.5092 17.6553 44.5249C17.4081 44.5405 17.1301 44.4622 16.8367 44.3056C16.4042 44.0707 16.157 43.7105 16.1107 43.225C16.0644 42.7552 16.2188 42.1444 16.5895 41.424L16.9602 40.6409L16.6976 40.4999C16.3269 40.2963 16.018 40.2337 15.7709 40.312C15.5238 40.3903 15.3384 40.5782 15.1685 40.8758C15.0449 41.1107 14.9677 41.3456 14.9214 41.5962C14.875 41.8468 14.8441 42.0817 14.8441 42.3166L14.2263 42.254C14.2263 42.0034 14.2727 41.7215 14.3344 41.424C14.3962 41.1107 14.5043 40.8288 14.6588 40.5469ZM17.4236 40.8915L17.0992 41.5806C16.8212 42.1444 16.7131 42.5829 16.744 42.8961C16.7749 43.2093 16.9448 43.4442 17.2228 43.6009C17.4699 43.7418 17.7016 43.7575 17.9024 43.6792C18.1032 43.5852 18.2731 43.4286 18.4121 43.1623C18.6284 42.7708 18.6901 42.3949 18.6129 42.0191C18.5357 41.6589 18.2731 41.3456 17.8406 41.1107L17.4236 40.8915Z" fill="#535353"/>
<path d="M18.4423 31.6351C18.952 30.946 19.4617 30.5388 19.9714 30.4292C20.4811 30.3195 20.9754 30.4448 21.4696 30.8207C21.6859 30.993 21.8712 31.1966 22.0257 31.4158C22.1647 31.6507 22.2574 31.9013 22.2883 32.1832C22.3192 32.4651 22.2728 32.7783 22.1647 33.1072C22.0566 33.4361 21.8558 33.812 21.5623 34.2035L21.0835 34.8613L23.1532 36.4587L22.6899 37.0852L17.4229 33.0446L18.4423 31.6351ZM18.9211 32.1049L18.3805 32.8253L20.5275 34.4698L20.9599 33.8903C21.2071 33.5457 21.3924 33.2325 21.4851 32.9506C21.5778 32.6687 21.5932 32.4025 21.516 32.1676C21.4388 31.9326 21.2688 31.7134 20.9908 31.4941C20.6356 31.2279 20.2958 31.1339 19.956 31.2279C19.6316 31.3375 19.2763 31.6194 18.9211 32.1049Z" fill="#535353"/>
<path d="M23.8955 27.5164C24.189 27.2032 24.4979 26.9996 24.8377 26.9056C25.1775 26.8116 25.5328 26.8116 25.888 26.9369C26.2433 27.0466 26.5831 27.2658 26.9075 27.5634L27.2473 27.8766L24.915 30.4137C25.3474 30.8052 25.7645 31.0088 26.1815 31.0088C26.5985 31.0088 26.9692 30.8209 27.3245 30.445C27.5407 30.2101 27.7106 29.9909 27.8342 29.7716C27.9578 29.5523 28.0659 29.3018 28.1586 29.0355L28.6374 29.4897C28.5447 29.7559 28.4366 29.9909 28.313 30.2101C28.1895 30.4294 28.0041 30.6643 27.7724 30.9149C27.4481 31.2751 27.0928 31.51 26.7067 31.6353C26.3205 31.7606 25.9344 31.7762 25.5173 31.6509C25.1003 31.5413 24.6987 31.2907 24.2971 30.9149C23.911 30.5547 23.633 30.1631 23.4631 29.7559C23.2932 29.3487 23.2468 28.9572 23.324 28.5657C23.4013 28.2055 23.5866 27.8453 23.8955 27.5164ZM24.3435 27.9392C24.0654 28.2368 23.9573 28.5657 23.9728 28.9259C24.0037 29.2861 24.1736 29.6463 24.4825 30.0065L26.2587 28.0645C26.0425 27.8609 25.8108 27.72 25.5946 27.626C25.3629 27.532 25.1466 27.5164 24.9304 27.5634C24.7296 27.6104 24.5288 27.7356 24.3435 27.9392Z" fill="#535353"/>
<path d="M31.0778 26.7808C31.1704 26.7025 31.2477 26.6086 31.3404 26.4989C31.4176 26.3893 31.4794 26.2953 31.5257 26.217L31.9273 26.6555C31.8964 26.7495 31.8192 26.8591 31.7265 26.9844C31.6338 27.1097 31.5257 27.2193 31.4176 27.329C31.2168 27.5012 31.016 27.6422 30.7997 27.7205C30.5835 27.7988 30.3518 27.7988 30.1047 27.7205C29.8576 27.6422 29.6104 27.4543 29.3478 27.1724L27.3553 24.9798L26.8302 25.4653L26.5831 25.199L26.9074 24.4943L26.3977 23.492L26.7375 23.1788L27.5098 24.0401L28.5756 23.0535L28.9771 23.492L27.9114 24.4786L29.873 26.6242C30.0892 26.8591 30.29 26.9844 30.5063 27.0001C30.7071 27.0157 30.8924 26.9531 31.0778 26.7808Z" fill="#535353"/>
<path d="M37.5801 20.1246C37.8118 20.4535 37.9199 20.7824 37.9199 21.1269C37.9199 21.4715 37.8118 21.8004 37.611 22.1292C37.4102 22.4581 37.1167 22.7557 36.7306 23.0219C36.5298 23.1629 36.329 23.2882 36.1282 23.3978C35.9274 23.5074 35.7421 23.6014 35.5721 23.664C35.3868 23.7423 35.2323 23.7893 35.0779 23.805L34.6608 23.1942C34.8925 23.1472 35.1706 23.0533 35.4949 22.928C35.8038 22.8027 36.1127 22.6461 36.4062 22.4268C36.6842 22.2389 36.885 22.0353 37.024 21.8317C37.1631 21.6281 37.2248 21.4245 37.2248 21.2052C37.2248 21.0016 37.1631 20.798 37.024 20.5945C36.9005 20.4065 36.746 20.2812 36.5761 20.2029C36.4062 20.1403 36.19 20.109 35.9274 20.1403C35.6648 20.1716 35.3405 20.2342 34.9234 20.3595C34.63 20.4378 34.3674 20.4848 34.1357 20.5161C33.8886 20.5475 33.6723 20.5318 33.4561 20.4848C33.2553 20.4378 33.0545 20.3595 32.8846 20.2342C32.7147 20.109 32.5448 19.9367 32.4058 19.7331C32.205 19.4355 32.0968 19.138 32.1123 18.8247C32.1123 18.5115 32.205 18.2139 32.3903 17.9164C32.5757 17.6188 32.8382 17.3526 33.1781 17.1177C33.4715 16.9141 33.7495 16.7575 34.043 16.6322C34.321 16.5069 34.5991 16.4286 34.8771 16.3816L35.0624 17.0707C34.8153 17.1333 34.5527 17.2116 34.3056 17.3056C34.043 17.3996 33.8113 17.5405 33.5796 17.6971C33.348 17.8694 33.1781 18.0417 33.0699 18.214C32.9618 18.4019 32.9 18.5742 32.9 18.7621C32.9 18.95 32.9618 19.1223 33.0854 19.2946C33.2244 19.4825 33.3634 19.6235 33.5333 19.6861C33.7032 19.7644 33.904 19.7801 34.1511 19.7487C34.3983 19.7174 34.7072 19.6548 35.0624 19.5608C35.464 19.4512 35.8193 19.3885 36.1282 19.3572C36.4371 19.3259 36.7151 19.3729 36.9623 19.4825C37.1631 19.6391 37.3793 19.8427 37.5801 20.1246Z" fill="#535353"/>
<path d="M39.1404 15.3319C39.6502 15.0344 40.0981 14.9404 40.4842 15.0344C40.8704 15.1284 41.1947 15.4259 41.4882 15.9427L43.1409 18.9184L42.6621 19.1846L42.1833 18.6051L42.1524 18.6208C42.1215 18.8557 42.0751 19.0593 41.9979 19.2316C41.9207 19.4195 41.828 19.5761 41.6735 19.7327C41.5345 19.8894 41.3337 20.0303 41.0866 20.1713C40.824 20.3279 40.5615 20.4062 40.3143 20.4375C40.0517 20.4688 39.8201 20.4062 39.6038 20.2965C39.3876 20.1713 39.1868 19.9677 39.0323 19.6858C38.7852 19.2472 38.7697 18.8244 38.986 18.3859C39.2022 17.963 39.6502 17.5245 40.3298 17.1173L41.0557 16.6632L40.9013 16.3969C40.685 16.021 40.4688 15.8018 40.2216 15.7391C39.9745 15.6765 39.7119 15.7391 39.4185 15.8958C39.1868 16.021 39.0014 16.1777 38.8315 16.3656C38.6616 16.5535 38.5072 16.7415 38.3836 16.9294L37.9048 16.5379C38.0438 16.3186 38.2137 16.115 38.4299 15.8958C38.6153 15.6765 38.8624 15.4886 39.1404 15.3319ZM41.2874 17.133L40.6387 17.5402C40.1135 17.8691 39.7892 18.1823 39.6502 18.4642C39.5111 18.7461 39.5266 19.028 39.6965 19.3256C39.8355 19.5761 40.0209 19.7171 40.2371 19.7484C40.4533 19.7797 40.685 19.7327 40.9322 19.5918C41.3183 19.3725 41.5654 19.0906 41.689 18.7304C41.8126 18.3702 41.7508 17.9787 41.5191 17.5558L41.2874 17.133Z" fill="#535353"/>
<path d="M45.1322 13.0461L44.0201 13.5786L45.8581 17.5879L45.1785 17.9011L43.3404 13.8918L42.5373 14.2677L42.3828 13.9388L43.0779 13.328L42.9389 13.0305C42.769 12.6546 42.6763 12.3101 42.6763 12.0125C42.6763 11.7149 42.7535 11.4644 42.9234 11.2451C43.0779 11.0258 43.325 10.8536 43.6185 10.7126C43.7884 10.6343 43.9583 10.5717 44.1127 10.5403C44.2672 10.509 44.4062 10.4777 44.5452 10.462L44.6224 11.0885C44.5143 11.1041 44.3908 11.1198 44.2672 11.1511C44.1436 11.1825 44.0201 11.2294 43.8965 11.2764C43.6339 11.4017 43.4795 11.574 43.4331 11.8089C43.3868 12.0438 43.4486 12.3414 43.6185 12.7016L43.7729 13.0305L44.885 12.498L45.1322 13.0461Z" fill="#535353"/>
<path d="M48.3002 11.0408C48.7018 10.8998 49.0725 10.8528 49.4123 10.9312C49.7521 11.0095 50.0611 11.1661 50.3391 11.4323C50.6017 11.6986 50.8179 12.0431 50.9724 12.466L51.1268 12.9045L47.9141 14.1104C48.1303 14.6585 48.4084 15.0344 48.7791 15.2223C49.1498 15.4103 49.5668 15.4259 50.0456 15.238C50.3391 15.1284 50.5862 15.0031 50.8025 14.8621C51.0032 14.7212 51.2195 14.5489 51.4203 14.361L51.652 14.9874C51.4512 15.1753 51.2504 15.3476 51.0341 15.4886C50.8179 15.6295 50.5553 15.7548 50.2464 15.8644C49.7985 16.0367 49.3814 16.0837 48.9799 16.021C48.5783 15.9584 48.223 15.7861 47.9141 15.4886C47.6052 15.2067 47.3426 14.7995 47.1573 14.2826C46.9719 13.7815 46.8947 13.3117 46.9256 12.8731C46.9565 12.4346 47.0955 12.0588 47.3272 11.7455C47.5588 11.4323 47.8832 11.1974 48.3002 11.0408ZM48.501 11.6202C48.1303 11.7612 47.8678 11.9961 47.7442 12.325C47.6052 12.6539 47.6052 13.0611 47.7287 13.5153L50.1846 12.5912C50.0765 12.3093 49.9529 12.0744 49.783 11.9021C49.6286 11.7142 49.4278 11.6046 49.227 11.5419C48.9953 11.5106 48.7636 11.5263 48.501 11.6202Z" fill="#535353"/>
<path d="M55.0185 13.6878C55.142 13.6565 55.2501 13.6095 55.3737 13.5468C55.4973 13.4842 55.59 13.4372 55.6517 13.3902L55.8062 13.954C55.729 14.0167 55.6208 14.0793 55.4818 14.1576C55.3428 14.2203 55.2038 14.2829 55.0494 14.3142C54.8022 14.3925 54.5551 14.4082 54.3234 14.3769C54.0917 14.3456 53.8909 14.2359 53.7056 14.0636C53.5202 13.8757 53.3812 13.6095 53.2731 13.2179L52.4854 10.3519L51.8057 10.5399L51.7285 10.1797L52.3309 9.69418V8.56657L52.7634 8.44128L53.0723 9.56889L54.4624 9.17736L54.6169 9.75682L53.2268 10.1484L54.0145 12.9987C54.0917 13.2963 54.2307 13.5155 54.4006 13.6251C54.586 13.7191 54.7868 13.7504 55.0185 13.6878Z" fill="#535353"/>
<path d="M55.5742 8.88024L56.362 8.72363L57.9838 11.3704C58.0764 11.527 58.1691 11.6679 58.2463 11.8245C58.3236 11.9655 58.4008 12.1064 58.478 12.2317C58.5398 12.357 58.6016 12.498 58.6479 12.6233H58.6788C58.6943 12.4666 58.7097 12.2631 58.7406 11.9968C58.7715 11.7306 58.8024 11.4643 58.8487 11.1981L59.3121 8.14416L60.0998 7.98755L59.0804 14.0641C59.0341 14.393 58.9414 14.6749 58.8487 14.9411C58.7406 15.1917 58.6016 15.411 58.4008 15.5676C58.2154 15.7242 57.9683 15.8495 57.6594 15.8964C57.5204 15.9278 57.3968 15.9434 57.2887 15.9434C57.1806 15.9434 57.0879 15.9434 56.9952 15.9434L56.8717 15.3483C56.9334 15.3483 57.0261 15.3483 57.1188 15.3483C57.2115 15.3483 57.3196 15.3326 57.4123 15.3013C57.5976 15.27 57.7521 15.1917 57.8756 15.0977C57.9992 15.0038 58.0919 14.8785 58.1691 14.7219C58.2463 14.5652 58.2927 14.393 58.3236 14.1894L58.4626 13.4376L55.5742 8.88024Z" fill="#535353"/>
<path d="M67.9309 6.17053C67.5756 6.1862 67.2513 6.2645 66.9578 6.40545C66.6798 6.5464 66.4326 6.73434 66.2473 6.98492C66.0619 7.2355 65.9075 7.53306 65.8148 7.8776C65.7221 8.22215 65.6912 8.59802 65.7067 9.03653C65.7376 9.60033 65.8457 10.0858 66.031 10.493C66.2164 10.9002 66.4944 11.2134 66.8497 11.417C67.2049 11.6206 67.6374 11.7146 68.1626 11.6989C68.456 11.6833 68.734 11.652 68.9966 11.5893C69.2592 11.5267 69.5063 11.4484 69.7535 11.37L69.7844 12.0435C69.5527 12.1531 69.2901 12.2314 69.0275 12.2784C68.7649 12.341 68.456 12.3724 68.0853 12.388C67.4212 12.4193 66.8497 12.3097 66.3863 12.0435C65.9229 11.7772 65.5677 11.4014 65.3205 10.8846C65.0734 10.3834 64.9344 9.77261 64.9035 9.06785C64.8881 8.5667 64.9344 8.09686 65.058 7.67401C65.1815 7.25116 65.3669 6.87529 65.6295 6.56206C65.892 6.24884 66.2009 5.99826 66.5871 5.81033C66.9732 5.62239 67.4212 5.52843 67.9309 5.4971C68.2707 5.48144 68.595 5.4971 68.904 5.55975C69.2129 5.60673 69.5063 5.7007 69.7535 5.81033L69.4754 6.48376C69.2592 6.38979 69.0275 6.32715 68.7649 6.2645C68.5024 6.1862 68.2243 6.15487 67.9309 6.17053Z" fill="#535353"/>
<path d="M73.6922 7.23509C74.1093 7.26642 74.4645 7.37605 74.758 7.57964C75.0515 7.78324 75.2677 8.06514 75.4067 8.40968C75.5457 8.75423 75.6075 9.16142 75.5766 9.6156L75.5457 10.0854L72.1322 9.8975C72.1013 10.4926 72.2249 10.9468 72.4875 11.26C72.7501 11.5889 73.1362 11.7612 73.6459 11.7925C73.9548 11.8082 74.2328 11.7925 74.48 11.7455C74.7271 11.6985 74.9742 11.6359 75.2368 11.5263L75.2059 12.2154C74.9434 12.3093 74.6962 12.3876 74.4491 12.4189C74.202 12.4503 73.9085 12.4659 73.5687 12.4503C73.0899 12.4189 72.6883 12.3093 72.3485 12.0901C72.0087 11.8708 71.7461 11.5732 71.5762 11.1817C71.4063 10.7902 71.329 10.3203 71.3599 9.77221C71.3908 9.23973 71.4989 8.76989 71.6997 8.37836C71.9005 7.98683 72.1631 7.70493 72.5029 7.50133C72.8582 7.29774 73.2443 7.21943 73.6922 7.23509ZM73.6459 7.86154C73.2443 7.84588 72.92 7.95551 72.6728 8.20609C72.4257 8.45667 72.2558 8.81687 72.194 9.28671L74.8043 9.42766C74.8198 9.1301 74.7889 8.86386 74.7117 8.62894C74.6344 8.39402 74.5109 8.20609 74.341 8.0808C74.1556 7.95551 73.9239 7.8772 73.6459 7.86154Z" fill="#535353"/>
<path d="M80.0866 7.94085C80.1793 7.95651 80.2874 7.97217 80.3955 8.0035C80.5037 8.03482 80.5963 8.05048 80.6736 8.0818L80.4728 8.77089C80.3955 8.72391 80.3183 8.70825 80.2102 8.67693C80.1175 8.6456 80.0248 8.62994 79.9322 8.61428C79.7314 8.58296 79.546 8.59862 79.3607 8.66127C79.1753 8.72391 79.0054 8.80222 78.851 8.94317C78.6965 9.06846 78.5729 9.24073 78.4648 9.44432C78.3567 9.64792 78.2949 9.86718 78.2486 10.1334L77.8779 12.7958L77.1365 12.6862L77.8315 7.70593L78.4494 7.7999L78.403 8.72391H78.4339C78.5575 8.55164 78.7119 8.41069 78.8664 8.26974C79.0363 8.14445 79.2217 8.03482 79.4224 7.97217C79.6232 7.90953 79.8549 7.89387 80.0866 7.94085Z" fill="#535353"/>
<path d="M83.0837 13.2023C83.2073 13.2336 83.3309 13.2493 83.4544 13.2493C83.578 13.2493 83.7016 13.2493 83.7788 13.2336L83.6552 13.8131C83.5625 13.8287 83.439 13.8444 83.2845 13.8287C83.1301 13.8287 82.9756 13.7974 82.8366 13.7661C82.574 13.7034 82.3578 13.6095 82.1724 13.4842C81.9871 13.3432 81.8481 13.1553 81.7708 12.9047C81.6936 12.6541 81.6936 12.3409 81.7708 11.965L82.3887 9.05205L81.6936 8.89544L81.7708 8.53523L82.5277 8.39428L83.0374 7.39197L83.4853 7.48594L83.2382 8.6292L84.6592 8.94243L84.5356 9.52189L83.1146 9.20867L82.4968 12.106C82.435 12.4192 82.4504 12.6541 82.5586 12.8421C82.6821 13.03 82.852 13.1396 83.0837 13.2023Z" fill="#535353"/>
<path d="M87.2218 9.64754L85.8934 14.4868L85.1675 14.2833L86.4958 9.44395L87.2218 9.64754ZM87.3762 7.73688C87.4843 7.7682 87.577 7.83084 87.6388 7.94047C87.7006 8.0501 87.716 8.17539 87.6697 8.34766C87.6234 8.50428 87.5461 8.6139 87.438 8.67655C87.3299 8.73919 87.2218 8.73919 87.0982 8.70787C86.9746 8.67655 86.882 8.59824 86.8202 8.50428C86.7584 8.39465 86.7584 8.26936 86.7893 8.11275C86.8356 7.94047 86.9129 7.83084 87.0055 7.78386C87.1291 7.70555 87.2527 7.68989 87.3762 7.73688Z" fill="#535353"/>
<path d="M91.4709 11.6677L90.3124 11.2448L88.8296 15.4107L88.1191 15.1444L89.6019 10.9786L88.7833 10.681L88.9069 10.3365L89.8182 10.3991L89.9263 10.0859C90.0653 9.69435 90.2352 9.38113 90.4515 9.17753C90.6677 8.97394 90.8839 8.84865 91.1465 8.81733C91.4091 8.78601 91.7026 8.81733 92.0115 8.94262C92.1968 9.00526 92.3513 9.08357 92.4903 9.17753C92.6293 9.25584 92.7529 9.34981 92.8455 9.42811L92.4594 9.92927C92.3667 9.86663 92.274 9.78832 92.1659 9.72568C92.0578 9.64737 91.9342 9.60039 91.8107 9.5534C91.5481 9.45944 91.3164 9.4751 91.1156 9.60039C90.9303 9.72568 90.7604 9.97626 90.6214 10.3521L90.5132 10.681L91.6717 11.1039L91.4709 11.6677ZM93.2317 11.6677L91.5481 16.3973L90.8376 16.1311L92.5212 11.4014L93.2317 11.6677ZM93.5097 9.78832C93.6333 9.8353 93.7105 9.89795 93.7723 10.0076C93.8341 10.1172 93.8341 10.2425 93.7723 10.4148C93.7105 10.5714 93.6333 10.681 93.5252 10.728C93.417 10.775 93.2935 10.775 93.1854 10.728C93.0618 10.681 92.9691 10.6027 92.9228 10.4931C92.8764 10.3834 92.8764 10.2582 92.9228 10.1015C92.9846 9.94493 93.0618 9.8353 93.1699 9.78832C93.278 9.74134 93.4016 9.74134 93.5097 9.78832Z" fill="#535353"/>
<path d="M95.1615 18.1515C94.7599 17.9636 94.4356 17.6974 94.2193 17.3841C93.9876 17.0709 93.8641 16.6951 93.8641 16.2722C93.8486 15.8494 93.9722 15.3639 94.2193 14.847C94.4819 14.2989 94.7754 13.8917 95.1152 13.6255C95.455 13.3592 95.8257 13.2183 96.2273 13.2026C96.6289 13.187 97.0305 13.2809 97.4321 13.4689C97.6483 13.5785 97.8645 13.7038 98.0499 13.8447C98.2352 13.9857 98.3742 14.1266 98.4824 14.2676L98.0035 14.7531C97.8954 14.6278 97.7564 14.5025 97.602 14.3772C97.4475 14.2519 97.293 14.1423 97.1386 14.064C96.8297 13.923 96.5362 13.8604 96.2736 13.8917C96.011 13.923 95.7639 14.0483 95.5322 14.2676C95.3005 14.4868 95.0997 14.7844 94.9298 15.1603C94.7599 15.5205 94.6673 15.865 94.6364 16.1782C94.6209 16.4915 94.6673 16.7577 94.8063 16.9926C94.9453 17.2275 95.1615 17.4155 95.455 17.5564C95.6867 17.666 95.9184 17.7444 96.1346 17.7913C96.3509 17.8383 96.5516 17.854 96.737 17.854L96.459 18.4648C96.2736 18.4648 96.0728 18.4491 95.872 18.4021C95.6403 18.3551 95.4241 18.2768 95.1615 18.1515Z" fill="#535353"/>
<path d="M101.928 15.9275C102.438 16.225 102.746 16.5696 102.855 16.9454C102.963 17.3213 102.87 17.7755 102.577 18.2766L100.878 21.2209L100.399 20.939L100.646 20.2186L100.615 20.203C100.399 20.2969 100.198 20.3439 100.013 20.3752C99.8272 20.4066 99.6264 20.3909 99.4256 20.3439C99.2248 20.2969 98.9931 20.203 98.746 20.0464C98.4834 19.8897 98.2826 19.7018 98.1282 19.4982C97.9737 19.279 97.8965 19.0597 97.8965 18.7935C97.8965 18.5429 97.9737 18.261 98.1282 17.9791C98.3753 17.5406 98.746 17.3213 99.2094 17.29C99.6882 17.2587 100.275 17.4466 100.97 17.8225L101.727 18.2297L101.881 17.9634C102.098 17.5875 102.175 17.2743 102.098 17.0394C102.021 16.7888 101.851 16.5852 101.557 16.413C101.341 16.2877 101.109 16.1937 100.862 16.1311C100.615 16.0841 100.383 16.0371 100.152 16.0214L100.244 15.4106C100.491 15.4263 100.769 15.4733 101.063 15.5516C101.372 15.6456 101.65 15.7709 101.928 15.9275ZM101.48 18.7152L100.816 18.3549C100.275 18.0574 99.8427 17.9164 99.5337 17.9478C99.2248 17.9791 98.9931 18.1357 98.8232 18.4176C98.6842 18.6682 98.6533 18.8874 98.7306 19.1067C98.8078 19.3103 98.9777 19.4826 99.2094 19.6392C99.5955 19.8584 99.9662 19.9367 100.321 19.8741C100.692 19.8114 100.986 19.5609 101.233 19.1223L101.48 18.7152Z" fill="#535353"/>
<path d="M104.196 22.881C104.304 22.9593 104.412 23.0219 104.52 23.0689C104.644 23.1316 104.737 23.1629 104.829 23.1942L104.49 23.6797C104.397 23.6641 104.273 23.6171 104.134 23.5544C103.995 23.4918 103.856 23.4135 103.733 23.3195C103.516 23.1629 103.347 22.9906 103.223 22.787C103.099 22.5834 103.053 22.3642 103.069 22.0979C103.084 21.8474 103.208 21.5498 103.439 21.2209L105.138 18.7934L104.567 18.3862L104.783 18.0887L105.54 18.2609L106.405 17.5405L106.776 17.8068L106.111 18.7621L107.301 19.6078L106.961 20.0933L105.772 19.2476L104.103 21.6594C103.918 21.91 103.856 22.1449 103.872 22.3642C103.887 22.5678 103.995 22.74 104.196 22.881Z" fill="#535353"/>
<path d="M109.372 21.2363L106.299 25.1672L105.712 24.6974L108.785 20.7664L109.372 21.2363ZM110.237 19.5448C110.33 19.6232 110.392 19.7171 110.407 19.8424C110.423 19.9677 110.392 20.093 110.284 20.2183C110.175 20.3436 110.067 20.4219 109.944 20.4219C109.82 20.4375 109.712 20.3906 109.619 20.3122C109.511 20.2339 109.465 20.1243 109.45 20.0147C109.434 19.8894 109.48 19.7641 109.573 19.6388C109.681 19.4979 109.789 19.4352 109.913 19.4196C110.036 19.4196 110.145 19.4509 110.237 19.5448Z" fill="#535353"/>
<path d="M112.755 27.611C112.477 27.9086 112.199 28.1435 111.905 28.3158C111.612 28.4881 111.318 28.582 111.025 28.5977C110.731 28.629 110.438 28.582 110.16 28.4724C109.882 28.3628 109.604 28.1905 109.341 27.9399C109.094 27.705 108.909 27.4544 108.785 27.1882C108.646 26.9063 108.584 26.6244 108.584 26.3112C108.584 26.0136 108.662 25.7004 108.785 25.3872C108.924 25.0739 109.125 24.7607 109.403 24.4631C109.774 24.056 110.16 23.7741 110.546 23.6174C110.932 23.4608 111.334 23.4295 111.72 23.5078C112.106 23.6018 112.477 23.8054 112.817 24.1343C113.141 24.4475 113.373 24.792 113.481 25.1836C113.589 25.5751 113.589 25.9666 113.465 26.3738C113.357 26.7967 113.11 27.2039 112.755 27.611ZM109.975 25.0113C109.712 25.3089 109.511 25.6064 109.388 25.8883C109.264 26.1859 109.233 26.4521 109.28 26.734C109.326 27.0003 109.48 27.2665 109.743 27.5014C109.99 27.7363 110.253 27.8773 110.531 27.9086C110.809 27.9399 111.071 27.8929 111.349 27.7363C111.627 27.5954 111.905 27.3761 112.168 27.0786C112.43 26.781 112.631 26.4991 112.755 26.2015C112.878 25.9196 112.909 25.6377 112.847 25.3715C112.786 25.1053 112.631 24.8547 112.384 24.6041C112.013 24.2439 111.612 24.1186 111.21 24.1969C110.793 24.2909 110.392 24.5571 109.975 25.0113Z" fill="#535353"/>
<path d="M117.574 29.1139C117.96 29.5681 118.145 29.9909 118.13 30.4138C118.114 30.8366 117.867 31.2595 117.388 31.6823L114.963 33.8436L114.469 33.2798L116.863 31.1498C117.172 30.8679 117.342 30.6017 117.373 30.3198C117.404 30.0379 117.296 29.756 117.033 29.4584C116.678 29.0356 116.307 28.8476 115.921 28.8946C115.535 28.9259 115.133 29.1452 114.685 29.5367L112.739 31.2751L112.245 30.6957L115.967 27.3755L116.369 27.8297L115.906 28.3935L115.936 28.4248C116.137 28.3935 116.338 28.3935 116.539 28.4404C116.74 28.4874 116.925 28.5657 117.11 28.6754C117.265 28.8007 117.419 28.9416 117.574 29.1139Z" fill="#535353"/>
<path d="M124.586 37.1014C124.385 36.7882 124.169 36.5376 123.906 36.3654C123.644 36.1774 123.366 36.0678 123.057 36.0208C122.748 35.9738 122.424 35.9895 122.084 36.0835C121.744 36.1774 121.389 36.334 121.049 36.5533C120.586 36.8508 120.215 37.1954 119.968 37.5556C119.721 37.9315 119.582 38.323 119.582 38.7302C119.582 39.153 119.721 39.5759 119.983 40.0144C120.138 40.265 120.308 40.4999 120.493 40.6878C120.678 40.8914 120.864 41.0637 121.064 41.236L120.477 41.6275C120.277 41.4709 120.076 41.283 119.906 41.0794C119.721 40.8758 119.535 40.6252 119.35 40.312C118.995 39.7325 118.809 39.1844 118.809 38.6362C118.809 38.1037 118.964 37.6026 119.273 37.1327C119.582 36.6629 120.03 36.2401 120.616 35.8642C121.034 35.598 121.466 35.41 121.883 35.3004C122.316 35.1908 122.717 35.1751 123.119 35.2534C123.52 35.3161 123.891 35.4727 124.246 35.7232C124.601 35.9738 124.91 36.3184 125.173 36.7569C125.358 37.0388 125.497 37.3363 125.605 37.6339C125.714 37.9315 125.791 38.229 125.806 38.5109L125.096 38.6049C125.065 38.37 125.019 38.1351 124.941 37.8688C124.849 37.6182 124.741 37.352 124.586 37.1014Z" fill="#535353"/>
<path d="M126.517 42.708C126.702 43.0839 126.779 43.4598 126.749 43.82C126.718 44.1802 126.579 44.5091 126.347 44.8066C126.115 45.1042 125.806 45.3548 125.405 45.5584L124.988 45.762L123.459 42.6611C122.949 42.9273 122.609 43.2562 122.455 43.6477C122.3 44.0392 122.346 44.4621 122.578 44.9319C122.717 45.2138 122.872 45.4487 123.026 45.6523C123.181 45.8403 123.366 46.0282 123.582 46.2161L122.995 46.5137C122.779 46.3414 122.594 46.1535 122.439 45.9499C122.285 45.7463 122.13 45.4957 121.976 45.1982C121.76 44.7597 121.667 44.3525 121.682 43.9296C121.698 43.5224 121.837 43.1466 122.084 42.7863C122.331 42.4418 122.702 42.1442 123.196 41.8937C123.675 41.6587 124.123 41.5335 124.555 41.5178C124.988 41.5021 125.374 41.5961 125.698 41.7997C126.053 42.0033 126.316 42.3009 126.517 42.708ZM125.961 42.9743C125.775 42.6141 125.528 42.3792 125.189 42.2852C124.849 42.1912 124.463 42.2225 124.015 42.3948L125.189 44.7753C125.451 44.6344 125.667 44.4778 125.822 44.3055C125.976 44.1175 126.084 43.9296 126.115 43.6947C126.131 43.4754 126.084 43.2249 125.961 42.9743Z" fill="#535353"/>
<path d="M129.111 48.8008C129.312 49.3646 129.343 49.8344 129.173 50.2259C129.003 50.6175 128.633 50.915 128.03 51.1499L125.003 52.3089L124.74 51.6041L127.721 50.4765C128.108 50.3356 128.37 50.132 128.494 49.8814C128.617 49.6308 128.617 49.3176 128.478 48.9574C128.277 48.4406 127.999 48.1273 127.629 48.0177C127.258 47.9237 126.795 47.9707 126.239 48.19L123.814 49.114L123.551 48.4092L128.185 46.6395L128.401 47.219L127.768 47.5792L127.783 47.6105C127.984 47.6418 128.169 47.7201 128.339 47.8298C128.509 47.9394 128.664 48.0804 128.787 48.2526C128.926 48.3936 129.019 48.5815 129.111 48.8008Z" fill="#535353"/>
<path d="M126.532 55.676C126.563 55.8012 126.61 55.9109 126.671 56.0362C126.733 56.1615 126.78 56.2554 126.826 56.3181L126.27 56.4747C126.208 56.3964 126.146 56.2867 126.069 56.1458C126.007 56.0048 125.945 55.8639 125.915 55.7073C125.837 55.4567 125.822 55.2061 125.853 54.9712C125.884 54.7363 125.992 54.5327 126.162 54.3448C126.332 54.1568 126.61 54.0159 126.996 53.9062L129.822 53.1075L129.637 52.4184L129.992 52.3245L130.471 52.9352H131.583L131.707 53.3738L130.595 53.687L130.981 55.0965L130.409 55.2531L130.023 53.8436L127.212 54.6423C126.919 54.7206 126.702 54.8616 126.594 55.0495C126.486 55.2374 126.471 55.441 126.532 55.676Z" fill="#535353"/>
<path d="M131.877 58.8864C131.954 59.3093 131.939 59.6852 131.815 60.014C131.692 60.3429 131.476 60.6248 131.182 60.8597C130.889 61.079 130.518 61.2356 130.07 61.3296L129.607 61.4236L128.958 58.0251C128.386 58.1504 127.985 58.3696 127.738 58.7142C127.491 59.0587 127.413 59.4816 127.522 59.9827C127.583 60.2959 127.661 60.5622 127.769 60.7971C127.877 61.032 128 61.2513 128.155 61.5019L127.506 61.6271C127.352 61.3922 127.228 61.173 127.12 60.9381C127.027 60.7031 126.95 60.4212 126.873 60.0923C126.78 59.6225 126.796 59.184 126.919 58.7925C127.043 58.4009 127.274 58.0721 127.599 57.8058C127.939 57.5396 128.371 57.3516 128.896 57.242C129.421 57.1324 129.885 57.1324 130.302 57.242C130.719 57.3516 131.059 57.5396 131.337 57.8215C131.615 58.0721 131.8 58.4323 131.877 58.8864ZM131.275 58.9961C131.198 58.6045 131.012 58.307 130.703 58.119C130.394 57.9311 130.008 57.8685 129.545 57.9154L130.039 60.5309C130.333 60.4682 130.58 60.3743 130.781 60.249C130.981 60.1237 131.136 59.9514 131.213 59.7478C131.321 59.5129 131.337 59.278 131.275 58.9961Z" fill="#535353"/>
<path d="M132.788 65.3382C132.803 65.4322 132.803 65.5418 132.803 65.6514C132.803 65.7611 132.803 65.855 132.788 65.949L132.093 65.9333C132.108 65.855 132.108 65.7611 132.108 65.6514C132.108 65.5575 132.108 65.4479 132.093 65.3695C132.077 65.166 132.015 64.978 131.907 64.8214C131.815 64.6491 131.676 64.5082 131.521 64.3985C131.351 64.2733 131.166 64.195 130.95 64.148C130.733 64.101 130.502 64.0853 130.239 64.101L127.598 64.3829L127.521 63.6155L132.448 63.083L132.51 63.7095L131.614 63.8817V63.9131C131.815 63.9914 131.985 64.101 132.154 64.2263C132.324 64.3516 132.463 64.5082 132.572 64.6961C132.695 64.8997 132.757 65.1033 132.788 65.3382Z" fill="#535353"/>
<path d="M10.1788 88.7519L10.5495 89.8482L9.2057 90.3181L10.8584 95.1887L9.97799 95.5019L7.95459 89.535L10.1788 88.7519ZM11.1519 89.9422C10.673 88.517 11.121 87.4051 12.3875 86.9666C12.9281 86.7786 13.4687 86.81 13.9321 87.0762L13.6695 86.3245L14.5499 86.0112L15.1832 87.8906L16.0945 87.5773L16.4807 88.7206L15.5694 89.0338L16.2026 90.9132L15.3222 91.2264L15.0596 90.4747C14.8588 90.9602 14.4418 91.3204 13.9167 91.5083C12.6655 91.9468 11.6307 91.3517 11.1519 89.9422ZM17.3456 91.524L17.7163 92.6203L15.2141 93.4973L15.5848 94.5936L14.7044 94.9068L14.3337 93.8105L11.6616 94.7345L11.2909 93.6382L17.3456 91.524ZM11.9859 89.6446C12.2176 90.3181 12.8818 90.6469 13.5614 90.412C14.2565 90.1771 14.5654 89.5037 14.3337 88.8302C14.102 88.1568 13.4533 87.8279 12.7582 88.0628C12.0786 88.2978 11.7542 88.9712 11.9859 89.6446Z" fill="#535353"/>
<path d="M18.7054 104.053L17.6242 104.742L19.0915 107.122L16.7747 108.579L16.1723 107.592L17.7169 106.621L14.7976 101.876L15.5699 101.39L17.0372 103.771L18.1184 103.082L16.3267 100.184L17.1145 99.6833L20.2654 104.82C20.9605 104.507 21.6401 104.147 22.3043 103.74L19.385 98.9786L20.1727 98.4774L23.6944 104.209L22.9375 104.679C22.3969 105.024 21.5011 105.478 20.8369 105.744L21.2848 106.465L20.4971 106.966L18.7054 104.053Z" fill="#535353"/>
<path d="M23.8486 113.34L24.6518 114.154L23.586 115.235L27.1694 118.9L26.5052 119.557L22.1187 115.078L23.8486 113.34ZM27.293 108.876L28.0962 109.691L26.9995 110.787L28.3742 112.197L29.4708 111.1L30.274 111.915L26.8451 115.36L23.864 112.306L27.293 108.876ZM26.706 113.888L27.7255 112.87L26.3508 111.461L25.3314 112.479L26.706 113.888ZM31.1544 116.253L30.4903 116.911L29.6871 116.096L27.6791 118.117L26.8759 117.302L31.417 112.729L32.2202 113.544L30.3358 115.439L31.1544 116.253Z" fill="#535353"/>
<path d="M35.1406 120.278L37.6737 121.907L38.7549 120.184L36.2218 118.555L36.6852 117.803L40.1759 120.043L38.1525 123.269L35.6194 121.64L34.3065 123.755L37.3957 125.744L36.9323 126.495L32.8855 123.896L35.1406 120.278ZM42.709 121.124L38.1062 128.484L37.1485 127.858L38.6931 125.383L37.6891 124.741L38.1834 123.943L39.1874 124.585L40.1913 122.972L39.1874 122.329L39.6816 121.531L40.6856 122.173L41.7359 120.497L42.709 121.124Z" fill="#535353"/>
<path d="M46.9557 129.533C47.6198 129.486 48.4848 129.643 49.5197 130.003C50.5545 130.379 51.3268 130.802 51.8211 131.271C52.3153 131.741 52.4698 132.227 52.2999 132.712C52.1918 133.041 51.9601 133.276 51.6203 133.417C50.9252 133.683 49.8286 133.574 48.4539 133.088C47.7743 132.838 47.1873 132.571 46.7394 132.274C45.8281 131.679 45.4574 131.005 45.6891 130.363C45.859 129.846 46.2915 129.58 46.9557 129.533ZM53.69 130.05L53.3811 130.943L45.9362 128.28L46.2452 127.387L49.427 128.531L49.6741 127.81L47.0638 126.886L48.0369 124.067L54.3233 126.307L54.0144 127.199L48.8092 125.336L48.4385 126.401L53.6437 128.264L53.3502 129.126L50.7399 128.202L50.4927 128.907L53.69 130.05ZM47.1873 131.412C47.5426 131.663 48.0678 131.929 48.7783 132.18C49.4888 132.43 50.0603 132.571 50.4927 132.587C50.9252 132.603 51.1724 132.524 51.2496 132.305C51.3268 132.101 51.1878 131.867 50.848 131.6C50.4927 131.35 49.9676 131.099 49.2571 130.849C48.5466 130.598 47.9751 130.457 47.5426 130.441C47.1101 130.426 46.863 130.504 46.7858 130.723C46.6931 130.927 46.8475 131.162 47.1873 131.412Z" fill="#535353"/>
<path d="M59.3422 130.724L67.1886 131.617L67.096 132.494L63.7442 132.118L63.667 132.791L66.4163 133.12L66.1692 135.297L60.6705 134.671L60.6087 135.203L66.1847 135.845L66.092 136.691L59.3731 135.923L59.6202 133.7L65.1189 134.326L65.1807 133.825L59.682 133.198L59.7747 132.353L62.524 132.666L62.6012 131.992L59.2495 131.617L59.3422 130.724ZM66.6326 131.1L60.0064 130.348L60.3153 127.592L66.9415 128.343L66.6326 131.1ZM65.5977 130.097L65.7058 129.111L61.3501 128.61L61.242 129.596L65.5977 130.097Z" fill="#535353"/>
<path d="M74.8654 128.156C76.3328 127.984 77.3213 128.798 77.4912 130.317C77.6611 131.852 76.8734 132.854 75.406 133.011C73.9387 133.183 72.9501 132.369 72.7802 130.85C72.6103 129.33 73.3826 128.328 74.8654 128.156ZM75.2825 132.04C76.0547 131.946 76.4409 131.366 76.3482 130.442C76.2555 129.518 75.7304 129.033 74.9735 129.127C74.2012 129.221 73.8151 129.8 73.9078 130.724C74.0004 131.648 74.5102 132.134 75.2825 132.04ZM74.0777 133.904L75.2052 133.778L75.3751 135.391L80.4259 134.828L80.534 135.767L74.3403 136.456L74.0777 133.904ZM80.8893 130.004L80.9974 130.944L79.8698 131.069L80.1788 133.919L79.0512 134.044L78.3407 127.592L79.4683 127.467L79.7617 130.129L80.8893 130.004Z" fill="#535353"/>
<path d="M86.2659 130.849C87.4861 129.502 87.9495 128.5 87.5015 127.247L87.3162 126.73L85.5863 127.341L85.2773 126.449L89.8802 124.804L90.1891 125.697L88.4592 126.308L88.5982 126.715C88.7063 127.028 88.7681 127.341 88.799 127.654C89.9265 128.046 91.0541 128.61 91.6564 129.158L90.9459 130.066C90.359 129.596 89.6022 129.142 88.6909 128.719C88.4901 129.565 87.9649 130.473 87.0999 131.429L86.2659 130.849ZM88.0112 131.35L89.0925 130.975L89.6176 132.494L94.4212 130.787L94.7302 131.679L88.8608 133.762L88.0112 131.35ZM91.4248 126.182L90.7451 124.225L91.8264 123.849L93.9424 129.972L92.8612 130.348L91.7337 127.075L90.2818 127.592L89.9729 126.699L91.4248 126.182Z" fill="#535353"/>
<path d="M99.008 120.278C100.259 119.48 101.495 119.762 102.298 121.061C103.101 122.361 102.839 123.614 101.587 124.413C100.336 125.212 99.1007 124.93 98.2975 123.63C97.4788 122.33 97.7569 121.077 99.008 120.278ZM101.062 123.583C101.711 123.16 101.819 122.455 101.325 121.672C100.831 120.889 100.166 120.686 99.5177 121.093C98.869 121.516 98.7608 122.22 99.2551 123.003C99.7339 123.786 100.414 124.006 101.062 123.583ZM100.846 125.744L101.804 125.133L102.653 126.496L106.947 123.739L107.441 124.538L102.174 127.905L100.846 125.744ZM106.329 123.05L105.372 123.661L101.958 118.18L102.916 117.569L106.329 123.05Z" fill="#535353"/>
<path d="M109.048 115.909C109.774 115.126 110.268 114.452 110.531 113.889C110.793 113.34 110.809 112.949 110.577 112.714L110.438 112.573L108.646 114.405L107.982 113.748L112.539 109.112L113.203 109.77L111.288 111.727L111.396 111.837C111.55 111.994 111.643 112.166 111.689 112.354C112.616 111.649 113.805 110.866 114.547 110.459L114.717 111.414C113.898 111.837 112.693 112.604 111.674 113.325C111.457 114.217 110.747 115.329 109.743 116.441L109.048 115.909ZM109.928 116.911L115.489 111.242L116.153 111.9L110.593 117.569L109.928 116.911ZM112.214 117.256C112.461 116.614 112.956 115.909 113.743 115.11C114.516 114.311 115.226 113.795 115.86 113.544C116.477 113.293 116.987 113.356 117.342 113.716C117.589 113.967 117.698 114.264 117.667 114.64C117.62 115.392 117.049 116.347 116.014 117.397C115.504 117.914 115.01 118.336 114.547 118.618C113.62 119.198 112.863 119.245 112.384 118.759C112.029 118.399 111.967 117.898 112.214 117.256ZM113.991 117.867C114.361 117.663 114.825 117.287 115.35 116.739C115.875 116.206 116.246 115.737 116.446 115.361C116.647 114.969 116.678 114.703 116.524 114.546C116.369 114.39 116.107 114.405 115.72 114.625C115.35 114.844 114.886 115.22 114.361 115.752C113.836 116.285 113.465 116.755 113.265 117.13C113.064 117.522 113.033 117.788 113.187 117.945C113.357 118.101 113.62 118.07 113.991 117.867Z" fill="#535353"/>
<path d="M119.566 107.467C119.505 106.966 119.427 106.543 119.288 106.167C119.026 105.431 118.531 104.836 117.636 104.272L116.678 103.662L117.28 102.675L118.13 103.207C118.47 103.427 118.763 103.63 119.01 103.865C120.061 103.646 121.25 103.536 122.038 103.662L122.053 104.82C121.404 104.742 120.663 104.742 119.844 104.836C120.261 105.463 120.509 106.214 120.632 107.123L119.566 107.467ZM119.088 102.832L119.721 101.798L118.207 100.843L118.809 99.8559L124.169 103.254L123.567 104.241L120.509 102.299L119.875 103.333L119.088 102.832ZM119.721 98.2428L125.158 101.688L124.555 102.675L119.118 99.2295L119.721 98.2428ZM121.111 106.762L121.713 105.776L123.134 106.684L125.915 102.158L126.702 102.659L123.304 108.172L121.111 106.762Z" fill="#535353"/>
<path d="M122.609 93.1683L123.953 89.206L124.787 89.5036L123.814 92.3853L125.714 93.0587L126.517 90.6939L127.351 90.9914L126.548 93.3563L128.88 94.1706L130.07 90.6625L130.904 90.9601L129.344 95.5645L122.609 93.1683ZM124.417 86.4653L132.541 89.3157L132.17 90.412L128.046 88.9555L127.459 90.6782L126.579 90.365L127.166 88.6422L124.046 87.546L124.417 86.4653Z" fill="#535353"/>
<path d="M10.4416 76.2389C10.4416 76.8183 9.97819 77.2882 9.40669 77.2882C8.8352 77.2882 8.37183 76.8183 8.37183 76.2389C8.37183 75.6594 8.8352 75.1896 9.40669 75.1896C9.97819 75.1896 10.4416 75.6594 10.4416 76.2389Z" fill="#535353"/>
<path d="M131.691 76.2389C131.691 76.8183 131.228 77.2882 130.656 77.2882C130.085 77.2882 129.621 76.8183 129.621 76.2389C129.621 75.6594 130.085 75.1896 130.656 75.1896C131.228 75.1896 131.691 75.6594 131.691 76.2389Z" fill="#535353"/>
<path d="M104.431 84.617C104.353 84.5701 104.245 84.5388 104.09 84.5388H103.904V85.1959L104.106 85.1646C104.26 85.1646 104.369 85.1334 104.431 85.0864C104.492 85.0395 104.523 84.9612 104.523 84.8517C104.523 84.7422 104.492 84.664 104.431 84.617Z" fill="#535353"/>
<path d="M96.1492 91.4611C95.3305 92.2911 95.1452 93.544 95.6086 94.562L99.2074 90.9129C98.2035 90.4431 96.9678 90.631 96.1492 91.4611Z" fill="#535353"/>
<path d="M52.0508 90.6622C50.8923 90.6622 49.8883 91.414 49.5022 92.4633H54.5993C54.2132 91.414 53.2092 90.6622 52.0508 90.6622Z" fill="#535353"/>
<path d="M70.0315 17.446C40.8545 17.446 17.207 41.4233 17.207 71.0073C17.207 100.591 40.8545 124.569 70.0315 124.569C99.2086 124.569 122.856 100.591 122.856 71.0073C122.856 41.4233 99.1931 17.446 70.0315 17.446ZM41.426 50.1936H49.9675C49.9675 45.4326 53.6899 41.5486 58.37 41.392L63.2972 41.2354V33.6241C63.2972 32.5748 64.5483 32.0423 65.2897 32.7784C70.0315 37.4767 74.449 41.7366 77.4455 47.7505C77.8008 48.4552 77.7544 49.2853 77.3374 49.943L68.8422 63.443C68.5642 63.8971 67.9309 63.9285 67.5911 63.5056L61.7063 55.9882C61.3819 55.5654 60.7795 55.5184 60.3779 55.8629L57.1652 58.6506C56.7945 58.9795 56.7327 59.5433 57.0417 59.9349L68.1008 74.0613C68.4252 74.4841 69.0585 74.4528 69.3519 73.9986L82.0792 53.7644C82.419 53.2945 82.728 52.7934 83.006 52.2765L84.705 49.5671C85.2456 48.7058 85.9716 47.9854 86.852 47.4999C87.1763 47.3119 87.5162 47.171 87.8869 47.0457C88.7055 46.7795 89.555 47.4059 89.555 48.2829V51.1176C89.555 51.1176 96.3202 52.6054 96.3357 58.7603C96.3357 58.8229 96.3202 58.8699 96.3357 58.9325C96.3357 59.3241 96.7682 60.1854 97.6949 60.9215C98.1583 61.2817 98.3282 61.9082 98.0965 62.4407C97.247 64.5079 94.6367 68.987 88.0259 68.987L85.2147 74.0456C84.8286 74.7347 84.1026 75.1732 83.3149 75.1732H70.047H61.7063C60.7641 75.1732 59.9455 74.5624 59.652 73.7011C59.235 72.5421 58.8334 71.3675 58.3545 70.2399L55.9605 64.7272H52.5315C46.3841 64.7272 40.7927 61.0155 38.4295 55.2678C38.3677 55.1269 38.3214 54.9859 38.2596 54.845C37.4101 52.6367 39.0473 50.1936 41.426 50.1936ZM42.2137 94.0919H39.8969V98.6337H36.9467V94.0919V84.8518V83.5206H42.2137C45.0866 83.5206 47.4344 85.8855 47.4344 88.8141C47.4344 91.7271 45.0866 94.0919 42.2137 94.0919ZM57.1189 94.3738H55.9913H54.6012H49.5041C49.8903 95.4231 50.8788 96.1749 52.0527 96.1749C52.8559 96.1749 53.5664 95.8147 54.0606 95.2665H56.8718C56.1304 97.2398 54.2614 98.6493 52.0527 98.6493C49.2107 98.6493 46.8938 96.3002 46.8938 93.4185C46.8938 90.5368 49.2107 88.1877 52.0527 88.1877C54.8947 88.1877 57.2116 90.5368 57.2116 93.4185C57.2116 93.7474 57.1807 94.0606 57.1189 94.3738ZM63.6833 91.3199H61.3974V94.9533C61.3974 95.3448 61.7063 95.658 62.0924 95.658H63.6833V98.6493H62.0924C60.0845 98.6493 58.4472 96.9892 58.4472 94.9533V91.3199H57.2116V88.3286H58.4472V85.4313H61.3974V88.3286H63.6833V91.3199ZM71.1745 98.6493H66.6026V95.658H71.1745C71.9932 95.658 72.6419 94.9689 72.6419 94.1232C72.6419 93.3245 72.0549 92.6668 71.2981 92.5884L71.2672 92.6041H70.2478C67.8074 92.6041 65.8303 90.5682 65.8303 88.078C65.8303 85.5879 67.8074 83.5519 70.2478 83.5519H74.8197V86.5432H70.2478C69.4292 86.5432 68.7804 87.2323 68.7804 88.078C68.7804 88.9237 69.4446 89.6128 70.2478 89.6128L71.1591 89.5972C73.5995 89.5972 75.5766 91.6331 75.5766 94.1232C75.592 96.6134 73.615 98.6493 71.1745 98.6493ZM86.3114 98.6493H83.3612V93.3715C83.3612 92.1499 82.3727 91.1476 81.1679 91.1476C79.9632 91.1476 78.9746 92.1499 78.9746 93.3715C78.9746 94.5931 79.9632 95.5954 81.1679 95.5954H82.6816V98.5867H81.1679C78.3259 98.5867 76.0245 96.2532 76.0245 93.3715C76.0245 90.4898 78.3259 88.1563 81.1679 88.1563C84.01 88.1563 86.3114 90.4898 86.3114 93.3715V98.6493ZM92.9222 86.3553H91.3313C90.9451 86.3553 90.6362 86.6685 90.6362 87.06V88.3286H92.9222V91.3199H90.6362V98.6493H87.6861V91.3199H86.4504V88.3286H87.6861V87.06C87.6861 85.0241 89.3233 83.364 91.3313 83.364H92.9222V86.3553ZM101.726 97.1145C99.7183 99.1505 96.4438 99.1505 94.4359 97.1145C92.4279 95.0786 92.4279 91.7584 94.4359 89.7225C96.4438 87.6865 99.7183 87.6865 101.726 89.7225C101.958 89.9574 102.159 90.2079 102.329 90.4585L101.525 91.2729L96.9381 95.9243C97.942 96.3941 99.1777 96.2062 99.9963 95.3761C100.568 94.7967 100.815 94.0449 100.784 93.2932L102.761 91.2886C103.626 93.1992 103.286 95.5328 101.726 97.1145ZM104.198 87.2167C103.147 87.2167 102.298 86.3553 102.298 85.2903C102.298 84.2254 103.147 83.364 104.198 83.364C105.248 83.364 106.097 84.2254 106.097 85.2903C106.097 86.3553 105.248 87.2167 104.198 87.2167Z" fill="#535353"/>
<path d="M42.2126 86.5123H39.8958V91.1011H42.2126C43.4637 91.1011 44.4831 90.0674 44.4831 88.7989C44.4831 87.546 43.4637 86.5123 42.2126 86.5123Z" fill="#535353"/>
<path d="M104.197 83.6774C103.316 83.6774 102.606 84.3978 102.606 85.2905C102.606 86.1832 103.316 86.9036 104.197 86.9036C105.077 86.9036 105.788 86.1832 105.788 85.2905C105.788 84.3978 105.077 83.6774 104.197 83.6774ZM105.108 86.4024H104.722L104.181 85.5254L103.873 85.541L103.903 86.3711L103.517 86.4024L103.486 84.2098L104.12 84.1785C104.305 84.1785 104.459 84.2098 104.583 84.2568C104.707 84.3038 104.799 84.3821 104.861 84.4761C104.923 84.5701 104.954 84.6953 104.954 84.852C104.954 84.9616 104.938 85.0556 104.892 85.1339C104.846 85.2122 104.799 85.2748 104.722 85.3375C104.66 85.3844 104.583 85.4314 104.521 85.4627L104.614 85.6194L105.139 86.3711C105.139 86.3868 105.139 86.4024 105.139 86.4024C105.139 86.4024 105.124 86.4024 105.108 86.4024Z" fill="#535353"/>
</svg>
