<svg width="20" height="27" viewBox="0 0 20 27" fill="none" xmlns="http://www.w3.org/2000/svg">
<g id="Group 153">
<path id="Line 62" d="M9.89282 1L9.89282 4.5974" stroke="#191919" stroke-width="2" stroke-linecap="round"/>
<path id="Line 63" d="M18.0828 4.12012L15.325 6.87784" stroke="#191919" stroke-width="2" stroke-linecap="round"/>
<path id="Line 64" d="M4.04297 6.87762L1.28525 4.1199" stroke="#191919" stroke-width="2" stroke-linecap="round"/>
<path id="Rectangle 184" d="M2.79858 15.3895C2.79858 11.4715 5.97474 8.29535 9.89273 8.29535C13.8107 8.29535 16.9869 11.4715 16.9869 15.3895V24.2823H2.79858V15.3895Z" fill="#FF0000" stroke="#191919" stroke-width="2"/>
<rect id="Rectangle 185" y="23.4838" width="19.7857" height="2.69805" rx="1.34902" fill="#191919"/>
<path id="!" d="M8.85415 18.3329L8.44253 13.273L8.34754 10.8928H11.1814L11.0864 13.273L10.6748 18.3329H8.85415ZM9.75654 22.5844C8.79082 22.5844 8.09424 21.8508 8.09424 20.9227C8.09424 19.9946 8.79082 19.276 9.75654 19.276C10.7381 19.276 11.4347 19.9946 11.4347 20.9227C11.4347 21.8508 10.7381 22.5844 9.75654 22.5844Z" fill="white"/>
</g>
</svg>
