<svg width="176" height="30" viewBox="0 0 176 30" fill="none" xmlns="http://www.w3.org/2000/svg">
<g id="ysa_logo" clip-path="url(#clip0_1_1558)">
<g id="Group">
<g id="Group_2">
<g id="Group_3">
<path id="Vector" d="M39.4483 21.4612L38.2688 23.2657V25.06C38.2688 25.2588 38.1805 25.3914 37.9726 25.3914C37.77 25.3914 37.6557 25.2588 37.6557 25.0651V23.2708L36.5022 21.4663C36.4034 21.3133 36.3723 21.2471 36.3723 21.1808C36.3723 21.033 36.4814 20.9055 36.658 20.9055C36.7775 20.9055 36.8711 20.9463 36.9334 21.0635L37.9674 22.6999L39.0118 21.0635C39.0794 20.9463 39.1729 20.9055 39.2872 20.9055C39.4639 20.9055 39.5678 21.033 39.5678 21.1808C39.5626 21.2369 39.5418 21.3082 39.4483 21.4612Z" fill="#4B5156"/>
<path id="Vector_2" d="M41.4124 25.3914C40.9915 25.3914 40.3576 25.2895 40.1654 24.9581C40.0458 24.7644 40.1861 24.5605 40.368 24.5605C40.607 24.5605 40.7681 24.8154 41.3968 24.8154C41.8852 24.8154 42.3061 24.5605 42.3061 24.1578C42.3061 23.2606 40.0822 23.4034 40.0822 22.078C40.0822 21.3694 40.6642 20.8903 41.4696 20.8903C41.9632 20.8903 42.701 21.0738 42.701 21.4153C42.701 21.5988 42.5815 21.7263 42.4152 21.7263C42.2282 21.7263 42.0359 21.451 41.4696 21.451C40.9915 21.451 40.7213 21.6906 40.7213 22.0627C40.7213 22.8732 42.9141 22.7662 42.9141 24.1017C42.9192 24.9122 42.2126 25.3914 41.4124 25.3914Z" fill="#4B5156"/>
<path id="Vector_3" d="M46.0213 25.3862C45.829 25.3862 45.7095 25.2537 45.7095 25.0549V21.247C45.7095 21.0278 45.829 20.8953 46.0213 20.8953C46.2032 20.8953 46.3227 21.0227 46.3227 21.247V25.0549C46.3227 25.2537 46.2032 25.3862 46.0213 25.3862Z" fill="#4B5156"/>
<path id="Vector_4" d="M50.599 25.3862C50.4847 25.3862 50.3756 25.325 50.3028 25.2027L48.001 22.0065H47.9802V25.0549C47.9802 25.2588 47.8659 25.3862 47.6788 25.3862C47.4918 25.3862 47.3774 25.2537 47.3774 25.0549V21.2419C47.3774 21.0227 47.5073 20.9004 47.6788 20.9004C47.7983 20.9004 47.9178 20.9921 47.9802 21.0788L50.2716 24.2647H50.282V21.247C50.282 21.0278 50.3859 20.8953 50.5782 20.8953C50.7601 20.8953 50.8848 21.0227 50.8848 21.247V25.0549C50.89 25.2894 50.7653 25.3862 50.599 25.3862Z" fill="#4B5156"/>
<path id="Vector_5" d="M53.119 25.3914C52.7086 25.3914 52.0643 25.2895 51.872 24.9581C51.7577 24.7644 51.898 24.5605 52.0798 24.5605C52.3241 24.5605 52.4955 24.8154 53.1087 24.8154C53.6075 24.8154 54.018 24.5605 54.018 24.1578C54.018 23.2606 51.7993 23.4034 51.7993 22.078C51.7993 21.3694 52.3916 20.8903 53.1762 20.8903C53.6802 20.8903 54.4077 21.0738 54.4077 21.4153C54.4077 21.5988 54.2933 21.7263 54.1427 21.7263C53.9504 21.7263 53.753 21.451 53.1762 21.451C52.7034 21.451 52.4488 21.6906 52.4488 22.0627C52.4488 22.8732 54.6259 22.7662 54.6259 24.1017C54.6259 24.9122 53.94 25.3914 53.119 25.3914Z" fill="#4B5156"/>
<path id="Vector_6" d="M57.6708 21.4918H56.8654V25.0499C56.8654 25.2538 56.7459 25.3812 56.5537 25.3812C56.3666 25.3812 56.2523 25.2487 56.2523 25.0499V21.4918H55.4417C55.2443 21.4918 55.1248 21.3643 55.1248 21.2216C55.1248 21.0738 55.2547 20.931 55.4365 20.931H57.6708C57.8527 20.931 57.9722 21.0636 57.9722 21.2216C57.9774 21.3694 57.8683 21.4918 57.6708 21.4918Z" fill="#4B5156"/>
<path id="Vector_7" d="M58.9594 25.3862C58.7724 25.3862 58.6425 25.2537 58.6425 25.0549V21.247C58.6425 21.0278 58.7724 20.8953 58.9594 20.8953C59.1413 20.8953 59.266 21.0227 59.266 21.247V25.0549C59.266 25.2537 59.1413 25.3862 58.9594 25.3862Z" fill="#4B5156"/>
<path id="Vector_8" d="M62.4615 21.4918H61.6613V25.0499C61.6613 25.2538 61.547 25.3812 61.3547 25.3812C61.1729 25.3812 61.043 25.2487 61.043 25.0499V21.4918H60.2428C60.0402 21.4918 59.931 21.3643 59.931 21.2216C59.931 21.0738 60.0505 20.931 60.2428 20.931H62.4615C62.6486 20.931 62.7785 21.0636 62.7785 21.2216C62.7785 21.3694 62.6589 21.4918 62.4615 21.4918Z" fill="#4B5156"/>
<path id="Vector_9" d="M65.1946 25.3913C64.2697 25.3913 63.4332 24.8051 63.4332 23.7754V21.247C63.4332 21.0278 63.5579 20.8953 63.7501 20.8953C63.932 20.8953 64.0411 21.0227 64.0411 21.247V23.7193C64.0411 24.4381 64.5763 24.8612 65.1894 24.8612C65.8026 24.8612 66.3481 24.433 66.3481 23.7193V21.247C66.3481 21.0278 66.4625 20.8953 66.6495 20.8953C66.8314 20.8953 66.9457 21.0227 66.9457 21.247V23.7754C66.9457 24.7847 66.1143 25.3913 65.1946 25.3913Z" fill="#4B5156"/>
<path id="Vector_10" d="M70.162 21.4918H69.3411V25.0499C69.3411 25.2538 69.2216 25.3812 69.0293 25.3812C68.863 25.3812 68.7279 25.2487 68.7279 25.0499V21.4918H67.9121C67.7147 21.4918 67.6108 21.3643 67.6108 21.2216C67.6108 21.0738 67.7199 20.931 67.9121 20.931H70.162C70.3283 20.931 70.4582 21.0636 70.4582 21.2216C70.4634 21.3694 70.3647 21.4918 70.162 21.4918Z" fill="#4B5156"/>
<path id="Vector_11" d="M73.0459 25.3455H71.4819C71.2429 25.3455 71.1337 25.2385 71.1337 25.0499V21.2624C71.1337 21.0636 71.2273 20.931 71.4819 20.931H72.9783C73.1758 20.931 73.3005 21.0636 73.3005 21.2216C73.3005 21.3694 73.1758 21.4918 72.9783 21.4918H71.7417V22.863H72.9264C73.129 22.863 73.2329 22.9904 73.2329 23.1485C73.2329 23.281 73.1238 23.4033 72.9264 23.4033H71.7365V24.8052H73.0407C73.2329 24.8052 73.3628 24.9071 73.3628 25.0601C73.368 25.2028 73.2381 25.3455 73.0459 25.3455Z" fill="#4B5156"/>
<path id="Vector_12" d="M78.0028 25.3914C76.7402 25.3914 76.0128 24.3056 76.0128 23.1484C76.0128 21.9709 76.7402 20.8851 77.9976 20.8851C79.2655 20.8851 79.9877 21.9709 79.9877 23.1484C79.9877 24.3056 79.2811 25.3914 78.0028 25.3914ZM78.0028 21.4357C77.0416 21.4357 76.6571 22.3379 76.6571 23.1484C76.6571 23.9437 77.0364 24.8561 77.9976 24.8561C78.9537 24.8561 79.3486 23.9437 79.3486 23.1484C79.3486 22.3481 78.9537 21.4357 78.0028 21.4357Z" fill="#4B5156"/>
<path id="Vector_13" d="M82.8092 21.4917H81.4998V22.8629H82.6273C82.83 22.8629 82.9599 22.9904 82.9599 23.1382C82.9599 23.2809 82.8352 23.4033 82.6429 23.4033H81.505V25.0498C81.505 25.2537 81.3751 25.3811 81.188 25.3811C81.0061 25.3811 80.897 25.2486 80.897 25.0498V21.247C80.897 21.0737 81.0269 20.936 81.188 20.936H82.8144C82.9806 20.936 83.1157 21.0686 83.1157 21.2266C83.1105 21.3693 82.9858 21.4917 82.8092 21.4917Z" fill="#4B5156"/>
<path id="Vector_14" d="M87.6519 25.3455H86.0879C85.8645 25.3455 85.7294 25.2385 85.7294 25.0499V21.2624C85.7294 21.0636 85.8333 20.931 86.0879 20.931H87.5896C87.787 20.931 87.9013 21.0636 87.9013 21.2216C87.9013 21.3694 87.787 21.4918 87.5896 21.4918H86.3477V22.863H87.522C87.735 22.863 87.8442 22.9904 87.8442 23.1485C87.8442 23.281 87.735 23.4033 87.522 23.4033H86.3425V24.8052H87.6467C87.8441 24.8052 87.9533 24.9071 87.9533 25.0601C87.9585 25.2028 87.8493 25.3455 87.6519 25.3455Z" fill="#4B5156"/>
<path id="Vector_15" d="M92.1101 25.3862C92.0062 25.3862 91.9075 25.325 91.8087 25.2027L89.4965 22.0065H89.4913V25.0549C89.4913 25.2588 89.3926 25.3862 89.2003 25.3862C88.9977 25.3862 88.8834 25.2537 88.8834 25.0549V21.2419C88.8834 21.0227 89.0133 20.9004 89.2003 20.9004C89.2938 20.9004 89.4445 20.9921 89.4913 21.0788L91.762 24.2647H91.8087V21.247C91.8087 21.0278 91.9075 20.8953 92.1049 20.8953C92.2764 20.8953 92.3959 21.0227 92.3959 21.247V25.0549C92.4011 25.2894 92.2816 25.3862 92.1101 25.3862Z" fill="#4B5156"/>
<path id="Vector_16" d="M96.5683 21.4611L95.2225 25.0804C95.1654 25.2282 95.0718 25.3862 94.8796 25.3862C94.6925 25.3862 94.6094 25.2333 94.547 25.0804L93.2013 21.4611C93.1545 21.3133 93.1077 21.247 93.1077 21.1807C93.1077 21.0227 93.2584 20.8953 93.4299 20.8953C93.5754 20.8953 93.6793 20.987 93.7209 21.1196L94.8588 24.3565H94.8744L96.0331 21.1196C96.0903 20.987 96.163 20.8953 96.3189 20.8953C96.4903 20.8953 96.6306 21.0227 96.6306 21.1807C96.6358 21.247 96.6202 21.3133 96.5683 21.4611Z" fill="#4B5156"/>
<path id="Vector_17" d="M97.675 25.3862C97.4776 25.3862 97.3788 25.2537 97.3788 25.0549V21.247C97.3788 21.0278 97.4776 20.8953 97.675 20.8953C97.8517 20.8953 97.9816 21.0227 97.9816 21.247V25.0549C97.9816 25.2537 97.8517 25.3862 97.675 25.3862Z" fill="#4B5156"/>
<path id="Vector_18" d="M101.608 25.3863C101.473 25.3863 101.395 25.32 101.338 25.2385L100.148 23.4594H99.6391V25.0499C99.6391 25.2538 99.5352 25.3812 99.343 25.3812C99.1507 25.3812 99.0312 25.2487 99.0312 25.0499V21.2522C99.0312 21.0585 99.1455 20.931 99.3897 20.931H100.419C101.338 20.931 101.847 21.4612 101.847 22.1952C101.847 22.7763 101.484 23.332 100.834 23.439L101.816 24.9071C101.894 24.9989 101.894 25.0601 101.894 25.1212C101.894 25.2996 101.749 25.3863 101.608 25.3863ZM100.398 21.4918H99.6443V22.965H100.398C100.907 22.965 101.229 22.7203 101.229 22.2564C101.229 21.7517 100.943 21.4918 100.398 21.4918Z" fill="#4B5156"/>
<path id="Vector_19" d="M104.664 25.3914C103.36 25.3914 102.642 24.3056 102.642 23.1484C102.642 21.9709 103.36 20.8851 104.659 20.8851C105.911 20.8851 106.617 21.9709 106.617 23.1484C106.617 24.3056 105.911 25.3914 104.664 25.3914ZM104.664 21.4357C103.676 21.4357 103.302 22.3379 103.302 23.1484C103.302 23.9437 103.65 24.8561 104.653 24.8561C105.609 24.8561 105.963 23.9437 105.963 23.1484C105.968 22.3481 105.615 21.4357 104.664 21.4357Z" fill="#4B5156"/>
<path id="Vector_20" d="M110.728 25.3862C110.608 25.3862 110.514 25.325 110.431 25.2027L108.114 22.0065V25.0549C108.114 25.2588 107.994 25.3862 107.818 25.3862C107.636 25.3862 107.516 25.2537 107.516 25.0549V21.2419C107.516 21.0227 107.646 20.9004 107.818 20.9004C107.927 20.9004 108.046 20.9921 108.114 21.0788L110.4 24.2647H110.426V21.247C110.426 21.0278 110.525 20.8953 110.728 20.8953C110.889 20.8953 111.034 21.0227 111.034 21.247V25.0549C111.034 25.2894 110.894 25.3862 110.728 25.3862Z" fill="#4B5156"/>
<path id="Vector_21" d="M116.563 25.3862C116.355 25.3862 116.287 25.2537 116.251 25.0651L115.731 21.7313H115.716L114.718 25.0651C114.666 25.2588 114.604 25.3862 114.38 25.3862C114.172 25.3862 114.105 25.2537 114.063 25.1109L113.029 21.7364H113.009L112.525 25.0651C112.484 25.2588 112.416 25.3862 112.193 25.3862C112.042 25.3862 111.907 25.3097 111.907 25.1109C111.907 25.0651 111.938 24.8765 111.943 24.8102L112.489 21.298C112.536 21.0227 112.77 20.8953 113.014 20.8953C113.248 20.8953 113.393 21.0431 113.445 21.2419L114.37 24.3463H114.38L115.326 21.2419C115.388 21.0431 115.523 20.8953 115.757 20.8953C116.007 20.8953 116.209 21.0227 116.256 21.298L116.822 24.8102C116.828 24.8765 116.864 25.06 116.864 25.1058C116.859 25.3097 116.703 25.3862 116.563 25.3862Z" fill="#4B5156"/>
<path id="Vector_22" d="M119.67 25.3455H118.09C117.851 25.3455 117.747 25.2385 117.747 25.0499V21.2624C117.747 21.0636 117.851 20.931 118.09 20.931H119.607C119.81 20.931 119.919 21.0636 119.919 21.2216C119.919 21.3694 119.81 21.4918 119.607 21.4918H118.366V22.863H119.535C119.732 22.863 119.867 22.9904 119.867 23.1485C119.867 23.281 119.732 23.4033 119.535 23.4033H118.366V24.8052H119.67C119.867 24.8052 119.966 24.9071 119.966 25.0601C119.966 25.2028 119.867 25.3455 119.67 25.3455Z" fill="#4B5156"/>
<path id="Vector_23" d="M124.123 25.3862C123.988 25.3862 123.884 25.325 123.827 25.2027L121.509 22.0065H121.504V25.0549C121.504 25.2588 121.369 25.3862 121.208 25.3862C121.021 25.3862 120.896 25.2537 120.896 25.0549V21.2419C120.896 21.0227 121.026 20.9004 121.208 20.9004C121.317 20.9004 121.442 20.9921 121.504 21.0788L123.775 24.2647H123.78V21.247C123.78 21.0278 123.92 20.8953 124.097 20.8953C124.279 20.8953 124.414 21.0227 124.414 21.247V25.0549C124.414 25.2894 124.284 25.3862 124.123 25.3862Z" fill="#4B5156"/>
<path id="Vector_24" d="M127.604 21.4918H126.799V25.0499C126.799 25.2538 126.69 25.3812 126.497 25.3812C126.305 25.3812 126.191 25.2487 126.191 25.0499V21.4918H125.385C125.188 21.4918 125.079 21.3643 125.079 21.2216C125.079 21.0738 125.188 20.931 125.385 20.931H127.604C127.796 20.931 127.926 21.0636 127.926 21.2216C127.921 21.3694 127.796 21.4918 127.604 21.4918Z" fill="#4B5156"/>
<path id="Vector_25" d="M131.278 25.3863C131.075 25.3863 131.013 25.2793 130.971 25.1416L130.644 24.2394H128.763L128.446 25.1314C128.389 25.2793 128.316 25.3863 128.129 25.3863C127.973 25.3863 127.854 25.2742 127.854 25.1314C127.854 25.0906 127.869 25.004 127.9 24.9479L129.246 21.2624C129.303 21.0789 129.449 20.8903 129.703 20.8903C129.953 20.8903 130.103 21.0738 130.155 21.2624L131.506 24.9275C131.548 25.004 131.564 25.0906 131.564 25.1314C131.558 25.2742 131.454 25.3863 131.278 25.3863ZM129.709 21.5937L128.955 23.6735H130.452L129.709 21.5937Z" fill="#4B5156"/>
<path id="Vector_26" d="M134.12 25.3454H132.66C132.468 25.3454 132.327 25.1976 132.327 25.0345V21.247C132.327 21.0278 132.468 20.8953 132.644 20.8953C132.821 20.8953 132.956 21.0227 132.956 21.247V24.8102H134.12C134.323 24.8102 134.427 24.9223 134.427 25.0651C134.421 25.2027 134.302 25.3454 134.12 25.3454Z" fill="#4B5156"/>
<path id="Vector_27" d="M139.139 21.4918H138.313V25.0499C138.313 25.2538 138.199 25.3812 138.022 25.3812C137.84 25.3812 137.695 25.2487 137.695 25.0499V21.4918H136.905C136.687 21.4918 136.583 21.3643 136.583 21.2216C136.583 21.0738 136.713 20.931 136.884 20.931H139.139C139.321 20.931 139.43 21.0636 139.43 21.2216C139.43 21.3694 139.337 21.4918 139.139 21.4918Z" fill="#4B5156"/>
<path id="Vector_28" d="M142.028 25.3455H140.449C140.231 25.3455 140.095 25.2385 140.095 25.0499V21.2624C140.095 21.0636 140.194 20.931 140.449 20.931H141.956C142.153 20.931 142.267 21.0636 142.267 21.2216C142.267 21.3694 142.153 21.4918 141.956 21.4918H140.719V22.863H141.893C142.096 22.863 142.21 22.9904 142.21 23.1485C142.21 23.281 142.096 23.4033 141.893 23.4033H140.714V24.8052H142.023C142.21 24.8052 142.335 24.9071 142.335 25.0601C142.34 25.2028 142.221 25.3455 142.028 25.3455Z" fill="#4B5156"/>
<path id="Vector_29" d="M146.164 21.8791C146.086 21.8791 146.009 21.8485 145.91 21.7517C145.754 21.5835 145.432 21.4356 145.073 21.4356C144.107 21.4356 143.764 22.3379 143.764 23.1484C143.764 23.9436 144.112 24.8561 145.073 24.8561C145.416 24.8561 145.759 24.7032 145.91 24.535C146.009 24.4279 146.066 24.3973 146.154 24.3973C146.315 24.3973 146.45 24.5299 146.45 24.6777C146.45 24.7745 146.409 24.8612 146.299 24.953C146.029 25.1976 145.598 25.3862 145.073 25.3862C143.8 25.3862 143.104 24.3005 143.104 23.1433C143.104 21.9658 143.795 20.88 145.073 20.88C145.603 20.88 146.035 21.0635 146.299 21.3031C146.419 21.4254 146.45 21.4968 146.45 21.5886C146.45 21.7517 146.325 21.8791 146.164 21.8791Z" fill="#4B5156"/>
<path id="Vector_30" d="M150.602 25.3862C150.41 25.3862 150.295 25.2537 150.295 25.0549V23.388H147.978V25.0498C147.978 25.2537 147.869 25.3811 147.671 25.3811C147.479 25.3811 147.365 25.2486 147.365 25.0498V21.247C147.365 21.0278 147.484 20.8953 147.671 20.8953C147.864 20.8953 147.978 21.0227 147.978 21.247V22.8221H150.295V21.247C150.295 21.0278 150.399 20.8953 150.597 20.8953C150.789 20.8953 150.914 21.0227 150.914 21.247V25.0549C150.908 25.2537 150.784 25.3862 150.602 25.3862Z" fill="#4B5156"/>
<path id="Vector_31" d="M155.174 25.3862C155.065 25.3862 154.956 25.325 154.883 25.2027L152.582 22.0065H152.566V25.0549C152.566 25.2588 152.446 25.3862 152.27 25.3862C152.078 25.3862 151.953 25.2537 151.953 25.0549V21.2419C151.953 21.0227 152.088 20.9004 152.27 20.9004C152.389 20.9004 152.509 20.9921 152.566 21.0788L154.852 24.2647H154.863V21.247C154.863 21.0278 154.982 20.8953 155.159 20.8953C155.346 20.8953 155.465 21.0227 155.465 21.247V25.0549C155.471 25.2894 155.351 25.3862 155.174 25.3862Z" fill="#4B5156"/>
<path id="Vector_32" d="M158.365 25.3914C157.081 25.3914 156.364 24.3056 156.364 23.1484C156.364 21.9709 157.081 20.8851 158.359 20.8851C159.622 20.8851 160.344 21.9709 160.344 23.1484C160.344 24.3056 159.627 25.3914 158.365 25.3914ZM158.365 21.4357C157.388 21.4357 157.014 22.3379 157.014 23.1484C157.014 23.9437 157.383 24.8561 158.354 24.8561C159.326 24.8561 159.7 23.9437 159.7 23.1484C159.705 22.3481 159.331 21.4357 158.365 21.4357Z" fill="#4B5156"/>
<path id="Vector_33" d="M163.031 25.3454H161.55C161.368 25.3454 161.238 25.1976 161.238 25.0345V21.247C161.238 21.0278 161.363 20.8953 161.55 20.8953C161.737 20.8953 161.851 21.0227 161.851 21.247V24.8102H163.026C163.228 24.8102 163.332 24.9223 163.332 25.0651C163.332 25.2027 163.202 25.3454 163.031 25.3454Z" fill="#4B5156"/>
<path id="Vector_34" d="M165.842 25.3914C164.553 25.3914 163.831 24.3056 163.831 23.1484C163.831 21.9709 164.548 20.8851 165.826 20.8851C167.099 20.8851 167.816 21.9709 167.816 23.1484C167.816 24.3056 167.104 25.3914 165.842 25.3914ZM165.842 21.4357C164.865 21.4357 164.491 22.3379 164.491 23.1484C164.491 23.9437 164.86 24.8561 165.831 24.8561C166.808 24.8561 167.172 23.9437 167.172 23.1484C167.172 22.3481 166.803 21.4357 165.842 21.4357Z" fill="#4B5156"/>
<path id="Vector_35" d="M172.077 24.8204C171.817 25.1314 171.24 25.3914 170.627 25.3914C169.256 25.3914 168.549 24.3872 168.549 23.1841C168.549 21.9811 169.256 20.8851 170.575 20.8851C171.225 20.8851 171.958 21.242 171.958 21.5478C171.958 21.7313 171.822 21.818 171.677 21.818C171.438 21.818 171.266 21.4306 170.57 21.4306C169.682 21.4306 169.209 22.3328 169.209 23.179C169.209 24.0405 169.63 24.851 170.633 24.851C171.053 24.851 171.36 24.6726 171.537 24.5299C171.563 24.5095 171.578 24.4738 171.594 24.433V23.541H170.97C170.783 23.541 170.659 23.4237 170.659 23.2606C170.659 23.1077 170.788 22.9751 170.97 22.9751H171.89C172.067 22.9751 172.202 23.1026 172.202 23.281V24.5605C172.191 24.6675 172.155 24.7542 172.077 24.8204Z" fill="#4B5156"/>
<path id="Vector_36" d="M175.886 21.4612L174.717 23.2657V25.06C174.717 25.2588 174.623 25.3914 174.41 25.3914C174.202 25.3914 174.103 25.2588 174.103 25.0651V23.2708L172.94 21.4663C172.851 21.3133 172.82 21.2471 172.82 21.1808C172.82 21.033 172.924 20.9055 173.09 20.9055C173.21 20.9055 173.308 20.9463 173.376 21.0635L174.41 22.6999L175.454 21.0635C175.522 20.9463 175.6 20.9055 175.73 20.9055C175.901 20.9055 176.005 21.033 176.005 21.1808C176 21.2369 175.984 21.3082 175.886 21.4612Z" fill="#4B5156"/>
</g>
<g id="Group_4">
<path id="Vector_37" d="M40.8616 13.0859H42.3945C43.2206 13.0859 43.9273 13.0604 44.9197 12.8209V4.94513C44.9197 4.70554 45.1587 4.53223 45.4237 4.53223H45.9589C46.2343 4.53223 46.4733 4.71064 46.4733 4.94513V8.77339H47.7412C48.0218 8.77339 48.24 8.962 48.24 9.20159V9.71134C48.24 9.95093 48.0218 10.1242 47.7412 10.1242H46.4733V16.3382C46.4733 16.5879 46.2343 16.7562 45.9589 16.7562H45.4237C45.1535 16.7562 44.9197 16.5879 44.9197 16.3382V13.978C43.8909 14.238 42.992 14.3042 42.2749 14.3042H36.8711C36.6009 14.3042 36.3723 14.1156 36.3723 13.876V13.4988C36.3723 13.2592 36.6061 13.0859 36.8711 13.0859H39.3236V11.3018C37.7336 10.8583 36.6996 9.45647 36.6996 7.93739C36.6996 5.99013 38.3364 4.53223 40.0822 4.53223C42.1191 4.53223 43.5116 6.16344 43.5116 7.93739C43.5116 9.56352 42.3529 10.945 40.8616 11.3018V13.0859ZM40.0822 5.78623C38.9027 5.78623 38.3156 6.97905 38.3156 7.96288C38.3156 8.98239 38.9495 10.1752 40.0822 10.1752C41.2929 10.1752 41.9164 8.962 41.9164 7.96288C41.9112 6.85671 41.2357 5.78623 40.0822 5.78623Z" fill="#4B5156"/>
<path id="Vector_38" d="M52.9632 14.1054C50.5003 14.1054 49.5338 11.1794 49.5338 9.33413C49.5338 7.3002 50.6094 4.61379 52.9632 4.61379C55.4365 4.61379 56.4237 7.41235 56.4237 9.33413C56.4237 11.4037 55.3222 14.1054 52.9632 14.1054ZM52.9632 5.94935C51.42 5.94935 51.103 8.3503 51.103 9.33413C51.103 10.5219 51.4511 12.7342 52.9684 12.7342C54.574 12.7342 54.8234 10.4199 54.8234 9.31883C54.8234 8.11581 54.5168 5.94935 52.9632 5.94935ZM59.4063 4.53223C59.6765 4.53223 59.9155 4.71064 59.9155 4.94513V16.3331C59.9155 16.5829 59.6765 16.7511 59.4063 16.7511H58.8451C58.5697 16.7511 58.3515 16.5829 58.3515 16.3331V4.94513C58.3515 4.70554 58.5697 4.53223 58.8451 4.53223H59.4063Z" fill="#4B5156"/>
<path id="Vector_39" d="M67.7303 9.8999C67.6316 11.5566 67.1276 14.0748 65.0544 14.0748C62.7525 14.0748 62.3472 10.8684 62.3472 9.278C62.3472 7.49386 62.8045 4.4812 65.0544 4.4812C67.1224 4.4812 67.6991 7.02998 67.7303 8.60003H68.9566V4.94508C68.9566 4.70549 69.1956 4.53218 69.4658 4.53218H69.923C70.2088 4.53218 70.4375 4.71059 70.4375 4.94508V16.0425C70.4375 16.2769 70.214 16.4656 69.923 16.4656H69.4658C69.1956 16.4656 68.9566 16.2769 68.9566 16.0425V9.8999H67.7303ZM63.7917 9.2831C63.7917 10.2211 63.8021 12.7392 65.0544 12.7392C66.291 12.7392 66.3326 10.374 66.3326 9.2831C66.3326 8.35025 66.3482 5.78618 65.0544 5.78618C63.7605 5.78618 63.7917 8.51847 63.7917 9.2831ZM72.0222 16.751C71.7469 16.751 71.5234 16.5828 71.5234 16.333V4.94508C71.5234 4.70549 71.7469 4.53218 72.0222 4.53218H72.5055C72.7757 4.53218 72.9939 4.71059 72.9939 4.94508V16.333C72.9939 16.5828 72.7809 16.751 72.5055 16.751H72.0222Z" fill="#4B5156"/>
<path id="Vector_40" d="M75.1918 14.6763C75.1918 14.4266 75.4412 14.2481 75.701 14.2481H85.8333C86.1191 14.2481 86.3477 14.4266 86.3477 14.6763V15.0688C86.3477 15.3186 86.1191 15.5021 85.8333 15.5021H75.701C75.4412 15.5021 75.1918 15.3186 75.1918 15.0688V14.6763ZM79.967 5.08783C79.967 4.85844 80.2008 4.67493 80.4606 4.67493H81.0685C81.3335 4.67493 81.5674 4.85844 81.5674 5.08783V5.9901C81.5778 8.20753 83.5003 9.92031 85.5319 10.7206C85.9009 10.8583 85.9632 11.1386 85.719 11.4241L85.4748 11.6841C85.3812 11.8064 85.0747 11.8472 84.924 11.7758C83.1106 11.052 81.5726 9.77248 80.8243 8.37066C79.9618 9.92031 78.4186 11.1335 76.6571 11.8013C76.4752 11.8421 76.1999 11.8013 76.0804 11.6535L75.8413 11.4241C75.6023 11.1743 75.6439 10.8532 76.0232 10.7257C78.2055 9.87443 79.9254 8.19734 79.967 5.985V5.08783Z" fill="#4B5156"/>
<path id="Vector_41" d="M92.4582 11.3221H93.6949C94.6665 11.3221 95.4875 11.3018 96.4851 10.9806V4.9502C96.4851 4.72081 96.7034 4.5373 96.9839 4.5373H97.5815C97.8413 4.5373 98.0751 4.72081 98.0751 4.9502V7.64171H99.291C99.5664 7.64171 99.8002 7.82522 99.8002 8.05461V8.54398C99.8002 8.76827 99.5664 8.95688 99.291 8.95688H98.0751V13.1777C98.0751 13.4172 97.8413 13.5957 97.5815 13.5957H96.9839C96.7034 13.5957 96.4851 13.4172 96.4851 13.1777V12.1378C95.3212 12.515 94.4275 12.5659 93.6273 12.5659H88.3066C88.0468 12.5659 87.7974 12.3875 87.7974 12.1378V11.7503C87.7974 11.5108 88.0468 11.3272 88.3066 11.3272H90.8578V10.5677C89.6056 10.3281 88.4417 9.48702 88.4417 8.17185C88.4417 7.36644 89.1275 6.65788 89.7719 6.34183H88.4417C88.1767 6.34183 87.948 6.16851 87.948 5.92383V5.67405C87.948 5.43447 88.1767 5.25095 88.4417 5.25095H91.0345V4.5373C91.0345 4.29771 91.2579 4.104 91.5333 4.104H92.1153C92.3907 4.104 92.6141 4.29771 92.6141 4.5373V5.24076H94.9783C95.2589 5.24076 95.4771 5.42937 95.4771 5.66386V5.91873C95.4771 6.16342 95.2589 6.33673 94.9783 6.33673H93.7001C94.4119 6.68337 95.0718 7.35115 95.0718 8.16676C95.0718 9.63485 93.7001 10.4199 92.4686 10.6034V11.3221H92.4582ZM90.7591 13.3255C91.0293 13.3255 91.2579 13.4988 91.2579 13.7384V15.5123H97.7893C98.0751 15.5123 98.2882 15.6958 98.2882 15.9405V16.3381C98.2882 16.5879 98.0699 16.7561 97.7893 16.7561H90.1616C89.9018 16.7561 89.6679 16.5879 89.6679 16.3381V13.7384C89.6679 13.4988 89.8966 13.3255 90.1616 13.3255H90.7591ZM90.0576 8.05461C90.0576 9.04354 90.8526 9.68073 91.7515 9.68073C92.718 9.68073 93.4351 8.96198 93.4351 8.05461C93.4351 7.07078 92.6557 6.42849 91.7515 6.42849C90.8059 6.42849 90.0576 7.12176 90.0576 8.05461Z" fill="#4B5156"/>
<path id="Vector_42" d="M102.014 5.94935C101.744 5.94935 101.53 5.75564 101.53 5.51096V5.12354C101.53 4.88396 101.744 4.71064 102.014 4.71064H107.069C107.36 4.71064 107.589 4.90945 107.568 5.13884C107.459 8.5542 105.157 10.7971 102.06 11.6586C101.889 11.6994 101.634 11.6382 101.499 11.5108L101.343 11.3375C101.068 11.0877 101.141 10.7614 101.541 10.6442C103.713 9.95093 105.651 8.20247 105.807 5.94935H102.014ZM107.334 11.6331C109.085 11.6331 111.595 12.3009 111.595 14.4011C111.595 16.5268 108.987 17.1691 107.334 17.1691C105.568 17.1691 103.11 16.4248 103.11 14.4011C103.11 12.3213 105.703 11.6331 107.334 11.6331ZM107.334 12.8209C106.326 12.8209 104.757 13.2185 104.757 14.4011C104.757 15.6194 106.425 15.9711 107.334 15.9711C108.316 15.9711 110 15.5888 110 14.4011C109.995 13.2032 108.239 12.8209 107.334 12.8209ZM109.865 10.0274H108.046C107.771 10.0274 107.537 9.83878 107.537 9.5941V9.21688C107.537 8.98239 107.771 8.80398 108.046 8.80398H109.865V7.31549H108.192C107.916 7.31549 107.688 7.12179 107.688 6.89749V6.52537C107.688 6.28069 107.916 6.10737 108.192 6.10737H109.865V4.94513C109.865 4.70554 110.088 4.53223 110.374 4.53223H110.956C111.231 4.53223 111.444 4.71064 111.444 4.94513V11.1794C111.444 11.4241 111.237 11.6076 110.956 11.6076H110.374C110.094 11.6076 109.865 11.4241 109.865 11.1794V10.0274Z" fill="#4B5156"/>
<path id="Vector_43" d="M114.801 6.01562C114.531 6.01562 114.292 5.8423 114.292 5.60781V5.20001C114.292 4.96552 114.531 4.7922 114.801 4.7922H119.919C120.169 4.7922 120.376 4.95023 120.418 5.16432V5.60781C120.418 9.70625 118.412 12.5048 114.848 13.8251C114.666 13.876 114.401 13.8455 114.292 13.7231L114.058 13.4428C113.829 13.1624 113.881 12.8871 114.214 12.7393C116.952 11.6331 118.631 9.33922 118.631 6.44891C118.631 6.36225 118.657 6.33676 118.615 6.01562H114.801ZM123.78 4.53223C124.055 4.53223 124.289 4.71064 124.289 4.94513V16.3331C124.289 16.5829 124.06 16.7511 123.78 16.7511H123.234C122.969 16.7511 122.73 16.5829 122.73 16.3331V4.94513C122.73 4.70554 122.975 4.53223 123.234 4.53223H123.78Z" fill="#4B5156"/>
<path id="Vector_44" d="M133.231 11.6994H136.146C136.427 11.6994 136.64 11.8931 136.64 12.1327V14.3043C136.64 14.5439 136.427 14.7274 136.146 14.7274H129.61V15.594H136.437C136.702 15.594 136.941 15.7775 136.941 16.0221V16.3433C136.941 16.5931 136.702 16.7613 136.437 16.7613H128.508C128.248 16.7613 128.004 16.5931 128.004 16.3433V14.0851C128.004 13.8506 128.248 13.662 128.508 13.662H135.086V12.826H128.446C128.181 12.826 127.947 12.6476 127.947 12.3978V12.1327C127.947 11.8982 128.186 11.6994 128.446 11.6994H131.636V10.6187H127.012C126.747 10.6187 126.518 10.4454 126.518 10.2109V9.88979C126.518 9.6502 126.747 9.46159 127.012 9.46159H137.539C137.835 9.46159 138.043 9.6502 138.043 9.88979V10.2109C138.043 10.4454 137.835 10.6187 137.539 10.6187H133.226V11.6994H133.231ZM131.964 4.53735H132.572C132.811 4.53735 133.044 4.72087 133.07 4.90947C133.273 6.58657 135.533 7.41747 136.889 7.68764C137.29 7.78959 137.393 8.11074 137.149 8.37581L136.967 8.58991C136.869 8.72245 136.588 8.80401 136.422 8.76323C134.801 8.37072 133.268 7.67235 132.265 6.46423C131.408 7.60099 129.745 8.43189 128.134 8.77342C127.994 8.80401 127.744 8.75303 127.656 8.64598L127.459 8.43189C127.199 8.12603 127.272 7.80489 127.692 7.72333C129.303 7.3614 131.262 6.40306 131.465 4.90438C131.501 4.70557 131.725 4.53735 131.964 4.53735Z" fill="#4B5156"/>
<path id="Vector_45" d="M145.359 10.3791C144.704 11.0826 143.8 11.4037 142.974 11.4037C141.041 11.4037 139.56 9.71644 139.56 7.94249C139.56 5.99523 141.197 4.53732 142.974 4.53732C143.868 4.53732 145.016 5.03179 145.468 5.66898H148.487V4.94513C148.487 4.70554 148.716 4.53223 148.986 4.53223H149.578C149.854 4.53223 150.077 4.71064 150.077 4.94513V13.1369C150.077 13.3714 149.854 13.5549 149.578 13.5549H148.986C148.716 13.5549 148.487 13.3765 148.487 13.1369V10.3791H145.359ZM142.974 5.75054C141.779 5.75054 141.166 6.97905 141.166 7.96288C141.166 9.00788 141.784 10.216 142.943 10.216C144.169 10.216 144.761 9.00788 144.761 7.96288C144.761 6.8873 144.148 5.75054 142.974 5.75054ZM142.927 12.6424C143.197 12.6424 143.431 12.8209 143.431 13.0604V15.5124H149.796C150.067 15.5124 150.295 15.6959 150.295 15.9406V16.3382C150.295 16.5879 150.072 16.7562 149.796 16.7562H142.351C142.086 16.7562 141.852 16.5879 141.852 16.3382V13.0655C141.852 12.826 142.086 12.6475 142.351 12.6475H142.927V12.6424ZM148.492 9.16081V6.8822H146.164C146.424 7.61115 146.388 8.44205 146.118 9.16081H148.492Z" fill="#4B5156"/>
<path id="Vector_46" d="M160.428 10.6136C160.594 9.72154 160.698 8.78359 160.698 8.20756V5.90347H153.886C153.605 5.90347 153.382 5.71996 153.382 5.49057V5.10825C153.382 4.86357 153.605 4.68005 153.886 4.68005H161.784C162.054 4.68005 162.283 4.86357 162.283 5.10825V8.1209C162.283 8.77339 162.168 9.64507 161.908 10.6136H163.213C163.483 10.6136 163.711 10.7971 163.711 11.0418V11.4241C163.711 11.6535 163.483 11.8421 163.213 11.8421H158.822V16.3331C158.822 16.5625 158.588 16.746 158.318 16.746H157.731C157.455 16.746 157.227 16.5625 157.227 16.3331V11.8421H152.81C152.54 11.8421 152.311 11.6535 152.311 11.4241V11.0418C152.311 10.7971 152.54 10.6136 152.81 10.6136H160.428Z" fill="#4B5156"/>
<path id="Vector_47" d="M168.19 11.0826H165.743C165.468 11.0826 165.244 10.8991 165.244 10.6646V10.2822C165.244 10.0376 165.468 9.85405 165.743 9.85405H171.012C171.568 9.85405 172.342 9.81837 172.955 9.76739C173.257 9.72152 173.496 9.92542 173.496 10.1803V10.5269C173.496 10.7257 173.314 10.9245 173.069 10.95C172.436 11.0469 171.667 11.0877 170.981 11.0877H169.796V12.3213C169.796 12.566 169.567 12.7393 169.297 12.7393H168.694C168.424 12.7393 168.19 12.5609 168.19 12.3213V11.0826ZM169.219 4.35889C170.736 4.35889 172.628 5.14901 172.628 6.80062C172.628 8.5134 170.539 9.18118 169.219 9.18118C167.733 9.18118 165.753 8.45732 165.753 6.80062C165.753 5.05725 167.853 4.35889 169.219 4.35889ZM168.19 13.2796C168.466 13.2796 168.694 13.4631 168.694 13.6976V15.5123H175.506C175.782 15.5123 176.005 15.6959 176.005 15.9405V16.3381C176.005 16.5879 175.782 16.7561 175.506 16.7561H167.593C167.323 16.7561 167.094 16.5879 167.094 16.3381V13.6976C167.094 13.4631 167.323 13.2796 167.593 13.2796H168.19ZM169.219 5.50584C168.118 5.50584 167.317 6.10735 167.317 6.80571C167.317 7.48369 168.107 8.0852 169.219 8.0852C170.269 8.0852 171.064 7.48369 171.064 6.80571C171.064 6.10225 170.253 5.50584 169.219 5.50584ZM174.228 4.94511C174.228 4.70552 174.462 4.5322 174.732 4.5322H175.288C175.569 4.5322 175.792 4.71062 175.792 4.94511V13.1573C175.792 13.402 175.569 13.5906 175.288 13.5906H174.732C174.462 13.5906 174.228 13.3969 174.228 13.1573V12.775H171.968C171.703 12.775 171.474 12.5863 171.474 12.3621V12.0715C171.474 11.8472 171.703 11.6535 171.968 11.6535H174.228V4.94511Z" fill="#4B5156"/>
</g>
</g>
<g id="Group_5">
<path id="Vector_48" d="M15.8635 25.2588H15.8583C15.7804 25.1925 15.6972 25.1212 15.6141 25.0651C13.4526 23.2198 14.6476 21.8689 14.8815 21.6344C14.8919 21.6293 14.9023 21.6242 14.9126 21.614C14.9178 21.6089 14.9178 21.6089 14.9178 21.6089C15.0997 21.4203 15.214 21.1655 15.214 20.88C15.214 20.304 14.736 19.8401 14.1488 19.8401C13.5617 19.8401 13.0836 20.2989 13.0836 20.88C13.0836 21.14 13.1824 21.3796 13.3331 21.5631C14.684 23.0465 13.5045 24.382 12.829 24.9631C12.6887 25.0549 12.5536 25.1517 12.4341 25.269C11.9509 25.7125 11.6495 26.3497 11.6495 27.0531C11.6495 28.404 12.7719 29.5102 14.1488 29.5102C15.531 29.5102 16.6481 28.4091 16.6481 27.0531C16.6429 26.3395 16.3467 25.7074 15.8635 25.2588Z" fill="#2A54A4"/>
<path id="Vector_49" d="M18.3784 22.9292C18.3784 23.8315 17.6405 24.5604 16.7157 24.5604C15.7908 24.5604 15.0477 23.8315 15.0477 22.9292C15.0477 22.0218 15.796 21.298 16.7157 21.298C17.6405 21.298 18.3784 22.0269 18.3784 22.9292Z" fill="#2A54A4"/>
<path id="Vector_50" d="M13.1616 22.8579C13.1616 23.7653 12.4134 24.4942 11.4937 24.4942C10.574 24.4942 9.82574 23.7653 9.82574 22.8579C9.82574 21.9454 10.5688 21.2267 11.4937 21.2267C12.4134 21.2267 13.1616 21.9454 13.1616 22.8579Z" fill="#2A54A4"/>
<path id="Vector_51" d="M21.8493 22.4552H21.8441C21.735 22.445 21.6259 22.4399 21.522 22.4348C18.6746 22.1799 18.8252 20.3958 18.8824 20.0797C18.8824 20.0644 18.8876 20.044 18.8876 20.0338V20.0287C18.9292 19.7739 18.872 19.4986 18.6953 19.2692C18.3524 18.8053 17.6873 18.6932 17.2041 19.0347C16.7312 19.3813 16.6169 20.0287 16.9651 20.4977C17.1157 20.7118 17.334 20.8494 17.573 20.9055C19.5631 21.3388 19.3968 23.0924 19.1994 23.964C19.137 24.1119 19.085 24.2648 19.0539 24.4279C18.9292 25.0651 19.0591 25.7584 19.4799 26.3293C20.2905 27.4202 21.8545 27.67 22.9717 26.8748C24.0888 26.0846 24.3434 24.5503 23.538 23.4543C23.1172 22.8834 22.504 22.5418 21.8493 22.4552Z" fill="#2A54A4"/>
<path id="Vector_52" d="M22.3429 18.9633C22.8833 19.7025 22.717 20.722 21.9688 21.247C21.2206 21.7772 20.1762 21.6192 19.641 20.88C19.1058 20.1562 19.2669 19.1315 20.0203 18.6014C20.7633 18.0611 21.8077 18.2344 22.3429 18.9633Z" fill="#2A54A4"/>
<path id="Vector_53" d="M24.8007 16.6644C24.7071 16.7205 24.6084 16.7816 24.5253 16.8428C22.0832 18.3058 21.1323 16.7766 20.9764 16.486C20.966 16.4656 20.9608 16.4605 20.9556 16.4503V16.4452H20.9504C20.8257 16.2056 20.6127 16.0272 20.3425 15.9456C19.7813 15.7672 19.1786 16.0731 19.0019 16.6287C18.82 17.1691 19.1318 17.7604 19.693 17.9286C19.9424 18.0153 20.197 17.9898 20.4256 17.9082C22.2806 17.0926 23.2211 18.6066 23.5796 19.412C23.6264 19.5751 23.6835 19.7229 23.7511 19.8861C24.0421 20.4672 24.5669 20.9311 25.2475 21.1554C26.5621 21.553 27.9703 20.8495 28.3963 19.5547C28.812 18.2599 28.0846 16.8887 26.77 16.4656C26.0893 16.2719 25.3826 16.3535 24.8007 16.6644Z" fill="#2A54A4"/>
<path id="Vector_54" d="M23.1535 13.6008C24.0213 13.876 24.5201 14.8038 24.2343 15.6551C23.9589 16.5217 23.0236 16.9906 22.1403 16.7154C21.2674 16.4503 20.7789 15.5174 21.0595 14.6712C21.3349 13.8047 22.2702 13.3357 23.1535 13.6008Z" fill="#2A54A4"/>
<path id="Vector_55" d="M3.71014 16.598C3.71533 16.598 3.71533 16.6031 3.71533 16.6031C3.80886 16.6592 3.89719 16.7153 3.98553 16.7815C6.42247 18.2445 7.38373 16.7153 7.52922 16.4196C7.53442 16.4094 7.54481 16.4043 7.5552 16.3941C7.5552 16.389 7.5552 16.3839 7.5552 16.3839C7.6851 16.1545 7.89294 15.9608 8.16833 15.8946C8.7347 15.706 9.32705 16.0169 9.50891 16.5624C9.68557 17.1129 9.37901 17.7093 8.81784 17.8775C8.56843 17.954 8.30863 17.9387 8.0852 17.8571C6.22502 17.0364 5.28453 18.5504 4.92601 19.3507C4.88444 19.5189 4.82728 19.6668 4.75454 19.8197C4.46356 20.411 3.93876 20.8749 3.25808 21.089C1.94349 21.5019 0.540558 20.7984 0.114483 19.4985C-0.306395 18.1987 0.421049 16.8274 1.74084 16.4094C2.42672 16.2055 3.13338 16.282 3.71014 16.598Z" fill="#2A54A4"/>
<path id="Vector_56" d="M5.21165 13.5345C4.32832 13.8098 3.84509 14.7375 4.12568 15.5837C4.40627 16.4554 5.34155 16.9244 6.21968 16.6542C7.10301 16.384 7.58104 15.4512 7.30565 14.5999C7.02507 13.7282 6.08978 13.2643 5.21165 13.5345Z" fill="#2A54A4"/>
<path id="Vector_57" d="M6.55743 22.3022C6.56263 22.3022 6.56263 22.3022 6.56263 22.3022C6.67174 22.2869 6.77566 22.2767 6.88478 22.2767C9.73221 22.0218 9.57113 20.2377 9.52436 19.9216C9.52436 19.9013 9.51917 19.9013 9.51397 19.8911C9.51397 19.8758 9.51397 19.8758 9.51397 19.8758C9.4724 19.6158 9.53476 19.3405 9.70623 19.1213C10.0492 18.6473 10.7091 18.5453 11.1975 18.8868C11.6755 19.2182 11.7846 19.8758 11.4365 20.3498C11.2806 20.5537 11.0676 20.6863 10.8338 20.7424C8.83849 21.1807 9.00476 22.9547 9.20741 23.8009C9.26976 23.964 9.32172 24.1169 9.3477 24.2852C9.4724 24.9275 9.33731 25.6054 8.92162 26.1713C8.11104 27.2774 6.54704 27.5221 5.42989 26.7269C4.31274 25.9317 4.05814 24.4024 4.86352 23.2962C5.2844 22.7253 5.90273 22.3889 6.55743 22.3022Z" fill="#2A54A4"/>
<path id="Vector_58" d="M5.90791 18.9633C5.36752 19.7025 5.53899 20.722 6.28202 21.247C7.03544 21.7772 8.07985 21.6192 8.61504 20.88C9.15023 20.1562 8.98396 19.1315 8.23573 18.6014C7.4875 18.0611 6.44829 18.2344 5.90791 18.9633Z" fill="#2A54A4"/>
<path id="Vector_59" d="M15.8635 4.74117H15.8583C15.7804 4.81253 15.6972 4.8788 15.6141 4.93997C13.4526 6.78019 14.6476 8.14124 14.8815 8.37572C14.8919 8.37572 14.9023 8.38592 14.9126 8.39612C14.9178 8.40121 14.9178 8.40121 14.9178 8.40121C15.0997 8.58982 15.214 8.8396 15.214 9.13016C15.214 9.70619 14.736 10.1701 14.1488 10.1701C13.5617 10.1701 13.0836 9.70619 13.0836 9.13016C13.0836 8.87019 13.1824 8.62551 13.3331 8.44709C14.684 6.9637 13.5045 5.62814 12.829 5.04702C12.6887 4.95017 12.5536 4.85841 12.4341 4.74117C11.9509 4.29768 11.6495 3.66049 11.6495 2.95702C11.6495 1.60617 12.7719 0.5 14.1488 0.5C15.531 0.5 16.6481 1.60107 16.6481 2.95702C16.6429 3.66049 16.3467 4.29258 15.8635 4.74117Z" fill="#2A54A4"/>
<path id="Vector_60" d="M18.3784 7.07079C18.3784 6.16343 17.6405 5.43958 16.7157 5.43958C15.7908 5.43958 15.0477 6.16343 15.0477 7.07079C15.0477 7.97306 15.796 8.70201 16.7157 8.70201C17.6405 8.70201 18.3784 7.97306 18.3784 7.07079Z" fill="#2A54A4"/>
<path id="Vector_61" d="M13.1616 7.14218C13.1616 6.23481 12.4134 5.50586 11.4937 5.50586C10.574 5.50586 9.82574 6.23481 9.82574 7.14218C9.82574 8.05464 10.5688 8.77339 11.4937 8.77339C12.4134 8.77339 13.1616 8.04954 13.1616 7.14218Z" fill="#2A54A4"/>
<path id="Vector_62" d="M21.8493 7.54482H21.8441C21.735 7.55502 21.6259 7.56521 21.522 7.56521C18.6746 7.82009 18.8252 9.60933 18.8824 9.92538C18.8824 9.94068 18.8876 9.96107 18.8876 9.97126V9.97636C18.9292 10.2312 18.872 10.5065 18.6953 10.741C18.3524 11.2049 17.6873 11.3119 17.2041 10.9806C16.7312 10.6339 16.6169 9.98146 16.9651 9.51758C17.1157 9.30348 17.334 9.16075 17.573 9.10468C19.5631 8.67648 19.3968 6.91783 19.1994 6.05124C19.137 5.89831 19.085 5.74539 19.0539 5.58227C18.9292 4.94507 19.0591 4.2518 19.4799 3.68088C20.2905 2.5849 21.8545 2.33512 22.9717 3.13544C24.0888 3.92556 24.3434 5.45483 23.538 6.561C23.1172 7.11663 22.504 7.45817 21.8493 7.54482Z" fill="#2A54A4"/>
<path id="Vector_63" d="M22.3429 11.0366C22.8833 10.2975 22.717 9.27796 21.9688 8.75291C21.2206 8.22277 20.1762 8.38589 19.641 9.11994C19.1058 9.83869 19.2669 10.8684 20.0203 11.3985C20.7633 11.9389 21.8077 11.7605 22.3429 11.0366Z" fill="#2A54A4"/>
<path id="Vector_64" d="M24.8007 13.4682C24.7071 13.4121 24.6084 13.351 24.5253 13.2949C22.0832 11.837 21.1323 13.3612 20.9764 13.6568C20.966 13.6619 20.9608 13.6721 20.9556 13.6925C20.9556 13.6976 20.9556 13.6976 20.9556 13.6976H20.9504C20.8257 13.9219 20.6127 14.1054 20.3425 14.187C19.7813 14.3603 19.1786 14.0595 19.0019 13.509C18.82 12.9585 19.1318 12.3773 19.693 12.1938C19.9424 12.1225 20.197 12.1276 20.4256 12.2244C22.2806 13.0298 23.2211 11.5311 23.5796 10.7206C23.6264 10.5524 23.6835 10.4046 23.7511 10.2568C24.0421 9.66034 24.5669 9.19646 25.2475 8.97726C26.5621 8.55926 27.9703 9.27802 28.3963 10.5779C28.812 11.8727 28.0846 13.2439 26.77 13.6568C26.0893 13.876 25.3826 13.7894 24.8007 13.4682Z" fill="#2A54A4"/>
<path id="Vector_65" d="M3.71014 13.4682C3.71533 13.4682 3.71533 13.4682 3.71533 13.4682C3.80886 13.4121 3.89719 13.3561 3.98553 13.2949C6.42247 11.837 7.38373 13.3612 7.52922 13.6568C7.53442 13.6619 7.54481 13.6721 7.5552 13.6925C7.5552 13.6976 7.5552 13.6976 7.5552 13.6976C7.6851 13.9219 7.89294 14.1054 8.16833 14.187C8.7347 14.3603 9.32705 14.0595 9.50891 13.509C9.68557 12.9585 9.37901 12.3773 8.81784 12.1938C8.56843 12.1225 8.30863 12.1276 8.0852 12.2244C6.22502 13.0298 5.28453 11.5311 4.92601 10.7206C4.88444 10.5524 4.82728 10.4046 4.75454 10.2568C4.46356 9.66034 3.93876 9.19646 3.25808 8.97726C1.94349 8.55926 0.540558 9.27802 0.114483 10.5779C-0.306395 11.8727 0.421049 13.2439 1.74084 13.6568C2.42672 13.876 3.13338 13.7894 3.71014 13.4682Z" fill="#2A54A4"/>
<path id="Vector_66" d="M6.55744 7.69774C6.56263 7.69774 6.56263 7.69774 6.56263 7.69774C6.67175 7.71303 6.77567 7.71813 6.88479 7.71813C9.73221 7.973 9.57114 9.75715 9.52437 10.0732C9.52437 10.0885 9.51918 10.0885 9.51398 10.1038C9.51398 10.1191 9.51398 10.1191 9.51398 10.1191V10.1242C9.47241 10.3791 9.53476 10.6543 9.70623 10.8735C10.0492 11.3476 10.7091 11.4495 11.1975 11.108C11.6755 10.7818 11.7846 10.1242 11.4365 9.645C11.2806 9.4411 11.0676 9.31366 10.8338 9.25759C8.8385 8.8141 9.00477 7.04525 9.20741 6.19905C9.26977 6.03593 9.32173 5.88301 9.34771 5.71479C9.47241 5.07249 9.33732 4.39452 8.92163 3.82359C8.11105 2.71742 6.54705 2.47784 5.4299 3.26796C4.31275 4.06828 4.05815 5.59754 4.86873 6.70371C5.28441 7.26954 5.90274 7.61108 6.55744 7.69774Z" fill="#2A54A4"/>
<path id="Vector_67" d="M5.90791 11.0366C5.36752 10.2975 5.53899 9.27796 6.28202 8.75291C7.03544 8.22277 8.07985 8.38589 8.61504 9.11994C9.15023 9.83869 8.98396 10.8684 8.23573 11.3985C7.4875 11.9389 6.44829 11.7605 5.90791 11.0366Z" fill="#2A54A4"/>
</g>
</g>
</g>
<defs>
<clipPath id="clip0_1_1558">
<rect width="176" height="29" fill="white" transform="translate(0 0.5)"/>
</clipPath>
</defs>
</svg>
