<svg width="106" height="34" viewBox="0 0 106 34" fill="none" xmlns="http://www.w3.org/2000/svg">
<g id="ysu_logo" clip-path="url(#clip0_1_1481)">
<path id="Vector" fill-rule="evenodd" clip-rule="evenodd" d="M42.2772 23.568H41.9292H41.3597C41.328 23.568 41.2015 23.568 41.2015 23.6657C41.2015 23.7309 41.2964 23.7634 41.3597 23.7634C41.423 23.796 41.4546 23.8285 41.4546 23.8937C41.4546 23.9588 41.423 24.0565 41.3597 24.1867C41.3597 24.1867 40.5687 25.6782 40.5117 25.8084C40.4801 25.7433 40.4484 25.6782 40.4484 25.6782C40.1953 25.2223 39.5942 24.1867 39.5309 24.0239L39.4676 23.8285C39.4676 23.8285 39.4676 23.796 39.4992 23.7634C39.6258 23.7634 39.6574 23.7309 39.6574 23.6657C39.6891 23.6332 39.6574 23.568 39.5309 23.568H39.0879H38.8981H38.1387C37.9805 23.568 37.9805 23.6332 37.9805 23.6657C37.9805 23.6983 37.9805 23.7634 38.1071 23.7634C38.1704 23.7634 38.2653 23.796 38.3286 23.8285C38.4551 23.9262 38.6133 24.0565 38.7399 24.2844C38.9614 24.6101 39.746 25.9712 39.7777 26.0689C39.8726 26.2317 39.9359 26.362 39.9359 26.6876V27.2021L39.9042 27.8208C39.9042 27.9185 39.8726 28.0814 39.746 28.1139L39.5562 28.1465C39.4296 28.1465 39.398 28.2116 39.398 28.2442C39.398 28.3419 39.5246 28.3419 39.5878 28.3419L40.3472 28.3093H40.632L41.2648 28.3419C41.423 28.3419 41.4546 28.2767 41.4546 28.2442C41.4546 28.2116 41.423 28.1465 41.2964 28.1465L41.0116 28.1139C40.8534 28.0814 40.8218 28.0162 40.7902 27.8208V27.2021V26.6811C40.7902 26.4857 40.7902 26.2904 40.8534 26.095C40.98 25.8345 41.7963 24.3756 42.0178 24.1151C42.1443 23.9523 42.2076 23.8872 42.3025 23.822C42.3975 23.7895 42.524 23.7569 42.5557 23.7569C42.7139 23.7569 42.7139 23.6918 42.7139 23.6592C42.7139 23.5941 42.6822 23.5615 42.5557 23.5615H42.2772V23.568Z" fill="black"/>
<path id="Vector_2" fill-rule="evenodd" clip-rule="evenodd" d="M45.0552 23.4769C43.3213 23.4769 42.5303 24.773 42.5303 25.9453C42.5303 27.1436 43.2897 28.4461 44.9919 28.4461C46.4727 28.4461 47.5168 27.3781 47.5168 25.8476C47.5105 24.3822 46.5676 23.4769 45.0552 23.4769ZM45.245 28.0163C44.1756 28.0163 43.4479 27.0785 43.4479 25.7434C43.4479 24.1217 44.3338 23.8612 44.8654 23.8612C45.8715 23.8612 46.5992 24.773 46.5992 26.069C46.5992 27.8209 45.6564 28.0163 45.245 28.0163Z" fill="black"/>
<path id="Vector_3" fill-rule="evenodd" clip-rule="evenodd" d="M48.6179 23.6984L48.5546 27.3651C48.5546 27.9187 48.523 28.0815 48.428 28.114L48.1433 28.1466C48.0484 28.1466 48.0167 28.1792 48.0167 28.2443C48.0167 28.342 48.1433 28.342 48.2066 28.342L48.7444 28.3094H48.8394H48.9976L49.5987 28.342C49.6304 28.342 49.7886 28.342 49.7886 28.2443C49.7886 28.1792 49.7253 28.1466 49.6304 28.1466L49.3456 28.0815C49.2507 28.0489 49.1558 27.9512 49.1558 27.4302C49.1558 27.4302 49.0925 25.1247 49.0925 24.9619C49.1241 24.9944 49.1558 25.027 49.1558 25.027L50.4467 26.4533L51.2693 27.2674L52.2438 28.2703C52.3071 28.3355 52.3704 28.4006 52.4653 28.4006C52.5919 28.4006 52.5919 28.2378 52.5919 28.1727L52.6551 24.278C52.6551 23.8873 52.7184 23.8221 52.845 23.7896L53.0032 23.757C53.1614 23.757 53.1614 23.6919 53.1614 23.6593C53.1614 23.5616 53.0348 23.5616 52.9715 23.5616H52.4969H52.402H52.1805H51.6743C51.5794 23.5616 51.4528 23.5616 51.4528 23.6593C51.4528 23.7245 51.5161 23.757 51.611 23.757L51.8958 23.7896C52.0223 23.8547 52.0856 23.9198 52.0856 24.3106C52.0856 24.3106 52.1173 26.5835 52.1489 27.0069C52.054 26.9417 50.858 25.6457 50.858 25.6457L48.9976 23.6658L48.9343 23.6007C48.871 23.503 48.8077 23.4705 48.7444 23.4705C48.6179 23.477 48.6179 23.6333 48.6179 23.6984Z" fill="black"/>
<path id="Vector_4" fill-rule="evenodd" clip-rule="evenodd" d="M54.1043 24.7079C54.1043 25.2289 54.3574 25.6783 55.0155 26.1993L55.2686 26.4272C55.7432 26.7854 55.8381 27.0785 55.8381 27.3651C55.8381 27.6907 55.585 28.0489 55.0788 28.0489C54.8573 28.0489 54.4143 27.9512 54.2561 27.4302L54.2245 27.1371C54.2245 27.0394 54.1929 26.9743 54.0979 26.9743C54.003 26.9743 54.003 27.1371 54.003 27.2023L53.9714 28.0163C53.9714 28.1466 54.003 28.2117 54.0979 28.2443C54.3511 28.3745 54.6358 28.4397 55.0092 28.4397C55.3888 28.4397 55.7052 28.342 55.9837 28.1792C56.4899 27.821 56.5532 27.2999 56.5532 27.0459C56.5532 26.4598 56.3001 26.043 55.5787 25.4243L55.3888 25.294C54.8826 24.9033 54.7877 24.7079 54.7877 24.4474C54.7877 24.0892 55.0408 23.8612 55.4521 23.8612C55.8002 23.8612 55.9584 24.024 56.0533 24.1543C56.1798 24.2845 56.2115 24.4799 56.2115 24.5125C56.2115 24.6427 56.2748 24.6753 56.3064 24.6753C56.433 24.6753 56.433 24.5451 56.433 24.4474L56.4646 23.7961V23.6984C56.4646 23.6007 56.3697 23.6007 56.338 23.5681C56.1482 23.5356 55.8951 23.4705 55.5154 23.4705C54.6675 23.477 54.1043 23.9915 54.1043 24.7079Z" fill="black"/>
<path id="Vector_5" fill-rule="evenodd" clip-rule="evenodd" d="M60.1221 23.542H60.0905L59.8374 23.5746H58.3566H58.0402H57.4707C57.4074 23.5746 57.3125 23.5746 57.3125 23.6723C57.3125 23.77 57.4074 23.77 57.4391 23.77L57.6605 23.8026C57.8504 23.8351 57.882 23.9002 57.9137 24.0956V25.4242V26.4923C57.9137 27.0785 57.9137 27.5604 57.882 27.8209C57.8504 27.9837 57.8187 28.0814 57.7555 28.114L57.534 28.1465C57.4074 28.1465 57.3758 28.1791 57.3758 28.2442C57.3758 28.2768 57.4074 28.3419 57.5656 28.3419L58.325 28.3094L58.7679 28.3419H59.9956C60.217 28.3419 60.312 28.3419 60.3436 28.1465C60.3752 28.0489 60.4385 27.593 60.4385 27.4627C60.4385 27.3976 60.4385 27.2999 60.3436 27.2999C60.2487 27.2999 60.2487 27.365 60.217 27.4301C60.1854 27.6907 60.1221 27.7883 59.9956 27.8535C59.8374 27.9186 59.5842 27.9186 59.426 27.9186C58.8249 27.9186 58.7616 27.8535 58.7616 27.4627V26.7463V26.4858V25.9973C58.7932 25.9973 59.5842 25.9973 59.5842 25.9973C59.8374 26.0299 59.869 26.1276 59.9006 26.2253V26.3555L59.9323 26.4207C59.9323 26.4858 59.9639 26.5184 60.0272 26.5184C60.1221 26.5184 60.1221 26.4207 60.1221 26.3555L60.1538 25.9322L60.1854 25.5415V25.4763C60.1854 25.4438 60.1538 25.3786 60.0905 25.3786L59.9956 25.4763C59.9323 25.5415 59.8374 25.5415 59.7108 25.574C59.7108 25.574 58.7932 25.574 58.7616 25.574V23.9849L59.6096 24.0175C59.8943 24.05 59.926 24.1152 59.9576 24.1803C59.9576 24.2129 59.9892 24.4082 59.9892 24.4082C59.9892 24.5059 60.0525 24.5385 60.0842 24.5385C60.1474 24.5385 60.1791 24.5059 60.2107 24.4408V24.1477L60.2424 24.0175L60.274 23.6918V23.5941C60.274 23.529 60.2107 23.4965 60.2107 23.4965L60.1221 23.542Z" fill="black"/>
<path id="Vector_6" fill-rule="evenodd" clip-rule="evenodd" d="M62.5205 23.5681H62.2357H61.4447C61.3814 23.5681 61.2549 23.5681 61.2549 23.6658C61.2549 23.7309 61.2865 23.7635 61.3814 23.7635L61.6029 23.7961C61.6662 23.7961 61.7611 23.8612 61.7611 24.0891L61.7928 25.4177V26.4858C61.7928 27.1045 61.7928 27.5865 61.7611 27.847C61.7295 28.0098 61.6978 28.0749 61.6029 28.1075L61.4131 28.1401C61.2865 28.1401 61.2549 28.1726 61.2549 28.2377C61.2549 28.2703 61.2865 28.3354 61.4447 28.3354L62.2041 28.3029H62.4572L63.1216 28.3354C63.2798 28.3354 63.2798 28.2377 63.2798 28.2377C63.2798 28.2052 63.2798 28.1401 63.1533 28.1401L62.8369 28.1075C62.7103 28.0749 62.6787 28.0098 62.647 27.847L62.6154 26.4858V25.4177L62.647 24.0891C62.647 23.8938 62.6787 23.7961 62.8052 23.7961L62.9951 23.7635C63.09 23.7635 63.1216 23.7309 63.1216 23.6658C63.1216 23.5681 62.9951 23.5681 62.9634 23.5681H62.5205Z" fill="black"/>
<path id="Vector_7" fill-rule="evenodd" clip-rule="evenodd" d="M69.6774 23.5681H69.4875H68.7915C68.7598 23.5681 68.6333 23.5681 68.6333 23.6658C68.6333 23.7635 68.7282 23.7635 68.7598 23.7635L68.9813 23.7961C69.1395 23.8286 69.2028 23.8938 69.2028 24.0891V25.4177V26.1667C69.2028 26.8505 69.2028 27.365 68.8864 27.6907C68.6016 27.9837 68.222 28.0163 68.0701 28.0163C67.8802 28.0163 67.6271 27.9837 67.374 27.7558C67.1209 27.5604 66.8994 27.2348 66.8994 26.2644V25.4177L66.931 24.0891C66.931 23.8938 66.9627 23.7961 67.0892 23.7961L67.2791 23.7635C67.374 23.7635 67.4056 23.7309 67.4056 23.6658C67.4056 23.5681 67.2791 23.5681 67.2474 23.5681H66.4881H66.1717H65.6022C65.5389 23.5681 65.444 23.5681 65.444 23.6658C65.444 23.7635 65.5389 23.7635 65.5705 23.7635L65.792 23.7961C65.9818 23.8286 66.0135 23.8938 66.0451 24.0891V25.4177V26.297C66.0451 27.111 66.2033 27.6255 66.583 27.9837C67.0576 28.4396 67.6841 28.4396 67.9688 28.4396C68.3169 28.4396 68.7851 28.3745 69.2281 27.9837C69.766 27.4953 69.8293 26.7854 69.8293 26.069V25.4177V24.0891C69.8609 23.8938 69.8925 23.7961 70.0191 23.7961L70.1773 23.7635C70.2406 23.7635 70.3355 23.7635 70.3355 23.6658C70.3355 23.5681 70.2089 23.5681 70.1773 23.5681H69.6774Z" fill="black"/>
<path id="Vector_8" fill-rule="evenodd" clip-rule="evenodd" d="M71.1898 23.6984L71.1265 27.3651C71.1265 27.9187 71.0949 28.0815 70.9683 28.114L70.7152 28.1466C70.6203 28.1466 70.5886 28.1792 70.5886 28.2443C70.5886 28.342 70.7152 28.342 70.7785 28.342L71.3163 28.3094H71.4113H71.5695L72.1706 28.342C72.2023 28.342 72.3605 28.342 72.3605 28.2443C72.3605 28.1792 72.2972 28.1466 72.2023 28.1466L71.8859 28.0815C71.8226 28.0489 71.7277 27.9512 71.7277 27.4302C71.7277 27.4302 71.6644 25.1247 71.6644 24.9619C71.696 24.9944 71.7277 25.027 71.7277 25.027L73.0186 26.4533L73.8096 27.2674L74.7841 28.2703C74.879 28.3355 74.9423 28.4006 75.0372 28.4006C75.1638 28.4006 75.1638 28.2378 75.1638 28.1727L75.227 24.278C75.227 23.8873 75.2903 23.8221 75.4169 23.7896L75.5751 23.757C75.7333 23.757 75.7333 23.6919 75.7333 23.6593C75.7333 23.5616 75.6067 23.5616 75.5434 23.5616H75.0688H74.9739H74.7524H74.2462C74.1513 23.5616 74.0247 23.5616 74.0247 23.6593C74.0247 23.7245 74.088 23.757 74.1829 23.757L74.4677 23.7896C74.5942 23.8547 74.6575 23.9198 74.6575 24.3106C74.6575 24.3106 74.6892 26.5835 74.7208 27.0069C74.6259 26.9417 73.4299 25.6457 73.4299 25.6457L71.5695 23.6658L71.5062 23.6007C71.4429 23.503 71.3796 23.4705 71.3163 23.4705C71.1898 23.477 71.1898 23.6333 71.1898 23.6984Z" fill="black"/>
<path id="Vector_9" fill-rule="evenodd" clip-rule="evenodd" d="M77.4988 23.5681H77.214H76.423C76.3597 23.5681 76.2332 23.5681 76.2332 23.6658C76.2332 23.7309 76.2964 23.7635 76.3914 23.7635L76.5812 23.7961C76.6761 23.7961 76.7394 23.8612 76.771 24.0891V25.4177V26.4858C76.771 27.1045 76.771 27.5865 76.7394 27.847C76.7394 28.0098 76.7078 28.0749 76.6128 28.1075L76.3914 28.1401C76.2648 28.1401 76.2648 28.1726 76.2648 28.2377C76.2648 28.2703 76.2964 28.3354 76.423 28.3354L77.1824 28.3029H77.4671L78.1315 28.3354C78.2581 28.3354 78.2897 28.2377 78.2897 28.2377C78.2897 28.2052 78.2581 28.1401 78.1315 28.1401L77.8468 28.1075C77.6886 28.0749 77.6569 28.0098 77.6253 27.847V26.4858V25.4177V24.0891C77.6253 23.8938 77.6886 23.7961 77.8151 23.7961L77.9733 23.7635C78.0683 23.7635 78.1315 23.7309 78.1315 23.6658C78.1315 23.5681 78.005 23.5681 77.9417 23.5681H77.4988Z" fill="black"/>
<path id="Vector_10" fill-rule="evenodd" clip-rule="evenodd" d="M82.7637 23.5681H82.5738H82.4156H81.941C81.8461 23.5681 81.7196 23.5681 81.7196 23.6658C81.7196 23.7635 81.8145 23.7635 81.8461 23.7635L82.0992 23.796C82.1309 23.796 82.1309 23.8612 82.1309 23.8612L82.0676 24.0891L81.3715 25.9713C81.3715 25.9713 80.9918 26.9417 80.9286 27.0719C80.8653 26.9417 79.9224 24.3431 79.9224 24.3431C79.7958 24.05 79.7958 23.9198 79.7958 23.8872C79.7958 23.8546 79.7958 23.8221 79.8275 23.7895C79.8591 23.7569 79.954 23.7569 80.049 23.7569C80.1439 23.7569 80.1755 23.6918 80.1755 23.6593C80.1755 23.5941 80.1122 23.5616 79.9857 23.5616H79.4794H79.258H78.3784C78.3151 23.5616 78.1885 23.5616 78.1885 23.6593C78.1885 23.6918 78.1885 23.7569 78.2835 23.7569L78.5049 23.7895C78.7264 23.8546 78.8213 23.8872 78.9479 24.2128L80.4603 28.0098C80.5868 28.3028 80.6185 28.4331 80.745 28.4331C80.84 28.4331 80.8716 28.3354 81.0298 28.0098L81.0614 27.9446L81.8524 26.0299L82.2005 25.2809L82.5802 24.3691C82.7384 23.9784 82.8333 23.8807 82.8966 23.8156C82.9915 23.7504 83.118 23.7504 83.1497 23.7504C83.2446 23.7504 83.3079 23.7179 83.3079 23.6527C83.3079 23.5551 83.1813 23.5551 83.118 23.5551H82.7637V23.5681Z" fill="black"/>
<path id="Vector_11" fill-rule="evenodd" clip-rule="evenodd" d="M86.0099 23.542H85.9783L85.7251 23.5746H84.2128H83.8964H83.3585C83.2952 23.5746 83.1686 23.5746 83.1686 23.6723C83.1686 23.77 83.2636 23.77 83.3268 23.77L83.5483 23.8026C83.7065 23.8351 83.7382 23.9002 83.7698 24.0956V25.4242V26.4923C83.7698 27.0785 83.7698 27.5604 83.7382 27.8209C83.7382 27.9837 83.7065 28.0814 83.6116 28.114L83.3901 28.1465C83.2952 28.1465 83.2636 28.1791 83.2636 28.2442C83.2636 28.2768 83.2952 28.3419 83.4218 28.3419L84.1811 28.3094L84.6557 28.3419H85.8517C86.0732 28.3419 86.1681 28.3419 86.2314 28.1465C86.263 28.0163 86.2947 27.593 86.2947 27.4627C86.2947 27.3976 86.2947 27.2999 86.1997 27.2999C86.1048 27.2999 86.1048 27.365 86.1048 27.4301C86.0416 27.6907 85.9783 27.7883 85.8517 27.8535C85.6935 27.9186 85.4404 27.9186 85.3138 27.9186C84.681 27.9186 84.6178 27.8535 84.6178 27.4627V26.7463V26.4858V25.9973C84.6494 25.9973 85.4657 25.9973 85.4657 25.9973C85.6872 26.0299 85.7505 26.1276 85.7505 26.2253L85.7821 26.3555V26.4207C85.7821 26.4858 85.8137 26.5184 85.877 26.5184C85.9719 26.5184 85.9719 26.4207 85.9719 26.3555L86.0036 25.9322L86.0352 25.5415L86.0669 25.4763C86.0669 25.4438 86.0036 25.3786 85.9719 25.3786L85.8454 25.4763C85.7821 25.5415 85.7188 25.5415 85.5606 25.574C85.5606 25.574 84.6494 25.574 84.6178 25.574V23.9849L85.4657 24.0175C85.7505 24.05 85.7821 24.1152 85.8454 24.1803C85.8454 24.2129 85.877 24.4082 85.877 24.4082C85.877 24.5059 85.9087 24.5385 85.9719 24.5385C86.0036 24.5385 86.0669 24.5059 86.0669 24.4408L86.0985 24.1477V24.0175L86.1301 23.6918L86.1618 23.5941C86.1618 23.529 86.0985 23.4965 86.0669 23.4965L86.0099 23.542Z" fill="black"/>
<path id="Vector_12" fill-rule="evenodd" clip-rule="evenodd" d="M91.6861 28.1466L91.5279 28.114C91.433 28.0814 91.2115 28.0489 90.8635 27.7232C90.5787 27.365 90.2307 26.9091 89.7941 26.3621C89.7941 26.3621 89.6359 26.1667 89.6042 26.1016C90.1421 25.6457 90.3952 25.2224 90.3952 24.7404C90.3952 24.252 90.1105 23.9263 89.9523 23.8286C89.6042 23.6007 89.1929 23.5681 88.8195 23.5681H88.4082H87.9653H87.7438H87.1426C87.0794 23.5681 86.9844 23.5681 86.9844 23.6658C86.9844 23.7635 87.0794 23.7635 87.111 23.7635L87.3325 23.7961C87.4907 23.8286 87.554 23.8938 87.554 24.0891L87.5856 25.4177V26.4858C87.5856 27.072 87.5856 27.5539 87.554 27.8144C87.5223 27.9772 87.4907 28.0749 87.3958 28.1075L87.2059 28.1401C87.0793 28.1401 87.0477 28.1726 87.0477 28.2377C87.0477 28.2703 87.0794 28.3354 87.2376 28.3354L87.7121 28.3029H87.9653H88.1551L88.8512 28.3354C88.9777 28.3354 89.0094 28.2703 89.0094 28.2377C89.0094 28.1726 88.9777 28.1401 88.8828 28.1401L88.5917 28.114C88.4652 28.0814 88.4335 27.9837 88.4019 27.8209C88.3703 27.5604 88.3703 27.0394 88.3703 26.4923V26.3946C88.4019 26.3946 88.9081 26.4272 88.9081 26.4272C88.9398 26.4272 88.9714 26.4272 88.9714 26.4272L89.2562 26.8505L89.5726 27.3064C89.9206 27.7949 90.1421 28.088 90.4268 28.2182C90.585 28.3159 90.7433 28.3485 91.0913 28.3485H91.6608C91.6925 28.3485 91.819 28.3485 91.819 28.2508C91.8127 28.1791 91.781 28.1466 91.6861 28.1466ZM89.2562 25.9388C89.1296 26.0039 89.0663 26.0364 88.8449 26.0364C88.6867 26.0364 88.4968 26.0039 88.4019 25.9713C88.3703 25.9388 88.3703 25.9387 88.3703 25.9062V24.024C88.3703 23.9914 88.3703 23.9589 88.4019 23.9589H88.7183C89.0347 23.9589 89.5726 24.1868 89.5726 25.027C89.5726 25.5805 89.3827 25.8411 89.2562 25.9388Z" fill="black"/>
<path id="Vector_13" fill-rule="evenodd" clip-rule="evenodd" d="M91.5595 24.7079C91.5595 25.2289 91.8443 25.6783 92.4771 26.1993L92.7619 26.4272C93.2365 26.7854 93.3314 27.0785 93.3314 27.3651C93.3314 27.6907 93.0783 28.0489 92.572 28.0489C92.3189 28.0489 91.9076 27.9512 91.7494 27.4302L91.6861 27.1371C91.6861 27.0394 91.6545 26.9743 91.5912 26.9743C91.4963 26.9743 91.4646 27.1371 91.4646 27.2023L91.433 28.0163C91.433 28.1466 91.4646 28.2117 91.5912 28.2443C91.8443 28.3745 92.0974 28.4397 92.4771 28.4397C92.8884 28.4397 93.2048 28.342 93.4516 28.1792C93.9895 27.821 94.0528 27.2999 94.0528 27.0459C94.0528 26.4598 93.7996 26.043 93.0466 25.4243L92.8884 25.294C92.3505 24.9033 92.2556 24.7079 92.2556 24.4474C92.2556 24.0892 92.5087 23.8612 92.9201 23.8612C93.2997 23.8612 93.4579 24.024 93.5529 24.1543C93.6794 24.2845 93.7111 24.4799 93.7111 24.5125C93.7111 24.6427 93.7743 24.6753 93.806 24.6753C93.9325 24.6753 93.9325 24.5451 93.9325 24.4474V23.7961V23.6984C93.9325 23.6007 93.8692 23.6007 93.8376 23.5681C93.6478 23.5356 93.3947 23.4705 93.015 23.4705C92.1607 23.477 91.5595 23.9915 91.5595 24.7079Z" fill="black"/>
<path id="Vector_14" fill-rule="evenodd" clip-rule="evenodd" d="M95.9069 23.5681H95.6221H94.8311C94.7679 23.5681 94.6413 23.5681 94.6413 23.6658C94.6413 23.7309 94.7046 23.7635 94.7995 23.7635L94.9893 23.7961C95.0843 23.7961 95.1475 23.8612 95.1475 24.0891L95.1792 25.4177V26.4858C95.1792 27.1045 95.1792 27.5865 95.1475 27.847C95.1159 28.0098 95.0843 28.0749 95.021 28.1075C94.9893 28.1075 94.7995 28.1401 94.7995 28.1401C94.6729 28.1401 94.6413 28.1726 94.6413 28.2377C94.6413 28.2703 94.6729 28.3354 94.8311 28.3354L95.5905 28.3029H95.8436L96.508 28.3354C96.6662 28.3354 96.6662 28.2377 96.6662 28.2377C96.6662 28.2052 96.6662 28.1401 96.5397 28.1401L96.2233 28.1075C96.0967 28.0749 96.0651 28.0098 96.0335 27.847L96.0018 26.4858V25.4177L96.0335 24.0891C96.0335 23.8938 96.0651 23.7961 96.2233 23.7961L96.3815 23.7635C96.4764 23.7635 96.5397 23.7309 96.5397 23.6658C96.5397 23.5681 96.4131 23.5681 96.3498 23.5681H95.9069Z" fill="black"/>
<path id="Vector_15" fill-rule="evenodd" clip-rule="evenodd" d="M96.9826 23.6333C96.9826 23.6658 96.8561 24.252 96.8561 24.3497C96.8561 24.3822 96.8561 24.5125 96.951 24.5125C97.0459 24.5125 97.0459 24.4148 97.0776 24.3822L97.1725 24.1869C97.2358 24.0892 97.3623 24.0566 97.7104 24.024C97.7104 24.024 98.3748 24.024 98.5646 23.9915C98.5646 24.0892 98.5646 26.4924 98.5646 26.4924C98.5646 27.0785 98.5646 27.5605 98.533 27.821C98.5014 28.0163 98.4697 28.0815 98.4064 28.114L98.185 28.1466C98.0584 28.1466 98.0584 28.1792 98.0584 28.2443C98.0584 28.2769 98.0584 28.342 98.2166 28.342L98.976 28.3094H99.2607L99.9252 28.342C100.052 28.342 100.083 28.2443 100.083 28.2443C100.083 28.2117 100.052 28.1466 99.9252 28.1466L99.6404 28.114C99.4822 28.0815 99.4506 27.9838 99.4506 27.821C99.4189 27.5605 99.4189 27.072 99.4189 26.4924C99.4189 26.4924 99.4189 24.0892 99.4189 23.9915C99.4822 23.9915 100.115 24.024 100.115 24.024C100.526 24.024 100.779 24.1543 100.779 24.3171L100.811 24.3822C100.811 24.4799 100.811 24.5776 100.906 24.5776C101.001 24.5776 101.001 24.4474 101.001 24.4148L101.033 23.6984C101.033 23.6007 101.033 23.503 100.938 23.503L100.874 23.5356L100.368 23.5681H97.9698L97.3686 23.5356L97.1788 23.503L97.1155 23.4705C97.0143 23.477 96.9826 23.5681 96.9826 23.6333Z" fill="black"/>
<path id="Vector_16" fill-rule="evenodd" clip-rule="evenodd" d="M105.557 23.568H105.209H104.64C104.608 23.568 104.513 23.568 104.513 23.6657C104.513 23.7309 104.576 23.7634 104.64 23.7634C104.703 23.796 104.734 23.8285 104.734 23.8937C104.734 23.9588 104.703 24.0565 104.64 24.1867C104.64 24.1867 103.849 25.6782 103.792 25.8084C103.76 25.7433 103.728 25.6782 103.728 25.6782C103.475 25.2223 102.874 24.1867 102.811 24.0239L102.747 23.8285C102.747 23.8285 102.747 23.796 102.779 23.7634C102.906 23.7634 102.969 23.7309 102.969 23.6657C102.969 23.6332 102.937 23.568 102.811 23.568H102.399H102.178H101.419C101.26 23.568 101.26 23.6332 101.26 23.6657C101.26 23.6983 101.26 23.7634 101.387 23.7634C101.45 23.7634 101.545 23.796 101.64 23.8285C101.735 23.9262 101.893 24.0565 102.02 24.2844C102.241 24.6101 103.026 25.9712 103.089 26.0689C103.152 26.2317 103.216 26.362 103.216 26.6876V27.2021L103.184 27.8208C103.184 27.9185 103.152 28.0814 103.058 28.1139L102.836 28.1465C102.709 28.1465 102.709 28.2116 102.709 28.2442C102.709 28.3419 102.836 28.3419 102.868 28.3419L103.627 28.3093H103.912L104.545 28.3419C104.703 28.3419 104.734 28.2767 104.734 28.2442C104.734 28.2116 104.703 28.1465 104.576 28.1465L104.291 28.1139C104.165 28.0814 104.102 28.0162 104.07 27.8208V27.2021V26.6811C104.07 26.4857 104.07 26.2904 104.165 26.095C104.26 25.8345 105.076 24.3756 105.298 24.1151C105.424 23.9523 105.487 23.8872 105.614 23.822C105.677 23.7895 105.804 23.7569 105.836 23.7569C105.994 23.7569 105.994 23.6918 105.994 23.6592C105.994 23.5941 105.962 23.5615 105.867 23.5615H105.557V23.568Z" fill="black"/>
<path id="Vector_17" fill-rule="evenodd" clip-rule="evenodd" d="M2.65143 16.9837C2.65143 24.5776 8.64403 30.7451 16.0225 30.7451C23.4009 30.7451 29.3935 24.5776 29.3935 16.9837C29.3935 9.38987 23.4009 3.25488 16.0225 3.25488C8.64403 3.25488 2.65143 9.38987 2.65143 16.9837Z" fill="white"/>
<path id="Vector_18" fill-rule="evenodd" clip-rule="evenodd" d="M16.0161 0.5C7.15695 0.5 0 7.89846 0 16.9837C0 26.1015 7.15695 33.5 16.0161 33.5C24.8753 33.5 32.0322 26.1015 32.0322 16.9837C32.0322 7.89846 24.8753 0.5 16.0161 0.5ZM16.0478 29.0192C9.61853 29.0192 4.35365 23.6007 4.35365 16.9837C4.35365 10.3342 9.61853 4.94819 16.0478 4.94819C22.5086 4.94819 27.7419 10.3342 27.7419 16.9837C27.7482 23.6007 22.5086 29.0192 16.0478 29.0192Z" fill="#003378"/>
<path id="Vector_19" fill-rule="evenodd" clip-rule="evenodd" d="M1.54401 14.3851L1.51237 14.4502L1.48073 14.7433L1.44909 15.0364C1.44909 15.0689 1.44909 15.1341 1.48073 15.1341C1.54401 15.1341 1.54401 15.1015 1.54401 15.0689C1.54401 15.0364 1.57565 15.0038 1.60729 15.0038C1.63893 15.0038 1.70221 15.0364 1.73385 15.0689C1.79713 15.1015 1.95533 15.2318 2.14517 15.3294C2.27173 15.4271 2.39829 15.5248 2.46157 15.59C2.42993 15.59 2.39829 15.6225 2.39829 15.6225C2.14517 15.7202 1.67057 15.9482 1.57565 15.9807C1.57565 15.9807 1.51237 16.0133 1.48073 16.0133C1.48073 16.0133 1.48073 16.0133 1.48073 15.9807C1.44909 15.9156 1.44909 15.883 1.41745 15.883L1.38581 15.9156L1.35417 15.9482V16.1761V16.2738L1.32253 16.5343L1.29089 16.6646C1.29089 16.7297 1.32253 16.7622 1.35417 16.7622C1.35417 16.7622 1.38581 16.7622 1.38581 16.6971C1.38581 16.6646 1.41745 16.5994 1.44909 16.5669C1.48073 16.5343 1.57565 16.4366 1.67057 16.404C1.82877 16.3064 2.51852 15.9482 2.55016 15.9482C2.64508 15.9156 2.70836 15.883 2.86656 15.9156H3.08804C3.11968 15.9156 3.40444 15.9807 3.40444 15.9807C3.43608 15.9807 3.531 16.0133 3.531 16.0458V16.1435V16.2087L3.56264 16.2412H3.59428C3.62592 16.2087 3.62592 16.1761 3.62592 16.1435L3.65756 15.9156V15.7853V15.6225L3.72084 15.2969C3.72084 15.2643 3.72084 15.2643 3.6892 15.2318H3.65756C3.65756 15.2318 3.62592 15.2318 3.59428 15.2969V15.4271C3.56264 15.4923 3.531 15.5248 3.43608 15.5248L3.15132 15.4923H2.8982C2.80328 15.4597 2.70836 15.4597 2.61344 15.3946C2.48688 15.3294 1.85408 14.841 1.72752 14.7433C1.66424 14.6782 1.6326 14.6456 1.6326 14.5805C1.60096 14.5154 1.60096 14.4828 1.60096 14.4502C1.60096 14.3851 1.56932 14.3525 1.53768 14.3525V14.3851H1.54401Z" fill="white"/>
<path id="Vector_20" fill-rule="evenodd" clip-rule="evenodd" d="M2.77167 13.5125C2.04395 13.2845 2.04395 12.7961 2.13887 12.5421C2.20215 12.3467 2.32871 12.1839 2.51855 12.0862C2.74003 11.9559 3.05643 11.9559 3.37283 12.0536C3.72087 12.1513 3.94235 12.3141 4.03727 12.5095C4.13219 12.7049 4.10055 12.9003 4.06891 12.998C3.91071 13.4799 3.37283 13.7079 2.77167 13.5125ZM2.58816 11.6303C2.3034 11.7605 2.11356 12.0211 1.987 12.4118C1.86044 12.77 1.89208 13.1282 2.01864 13.3887C2.17684 13.6818 2.42996 13.9097 2.74636 14.0074C3.28424 14.1703 3.97399 14.0074 4.22711 13.1608C4.32203 12.8351 4.32203 12.4769 4.16383 12.1904C4.00563 11.8973 3.75251 11.6694 3.43611 11.5717C3.11971 11.4675 2.80331 11.4675 2.58816 11.6303Z" fill="white"/>
<path id="Vector_21" fill-rule="evenodd" clip-rule="evenodd" d="M4.1322 8.06122L4.00564 8.2566L3.974 8.32173L3.91072 8.41942L3.78416 8.6148C3.75252 8.64737 3.75252 8.67993 3.75252 8.71249L3.78416 8.74506C3.8158 8.77762 3.8158 8.74506 3.84744 8.71249C3.87908 8.67993 3.91072 8.6148 3.94236 8.58224C4.00564 8.54968 4.03728 8.54968 4.19548 8.64737C4.19548 8.64737 5.10671 9.20095 5.29655 9.29864C5.23327 9.3312 5.04343 9.36377 5.04343 9.36377L4.41063 9.52658C3.80947 9.65684 3.15136 9.78709 3.15136 9.78709L3.08808 9.81966C3.05644 9.81966 2.99316 9.81966 2.99316 9.85222V9.88479C2.99316 9.91735 3.0248 9.94991 3.05644 9.98248L4.53719 10.9529C4.72703 11.0831 4.79031 11.1157 4.79031 11.1808L4.72703 11.3111V11.3762V11.4088H4.75867C4.79031 11.4088 4.82195 11.3762 4.82195 11.3436L4.94851 11.1157L4.98015 11.0506L5.01179 10.9854L5.16999 10.7575C5.20163 10.7249 5.23327 10.6598 5.16999 10.6272H5.13835L5.10671 10.6924C5.07507 10.7249 5.04343 10.7575 5.01179 10.7901C4.98015 10.8226 4.91687 10.8226 4.69539 10.6924C4.69539 10.6924 3.78416 10.1388 3.68924 10.1062C3.72088 10.0737 3.72088 10.0737 3.72088 10.0737C3.91072 10.0411 4.2904 9.97596 4.63211 9.87827L5.16999 9.74802L5.83443 9.5852C5.86607 9.5852 5.92935 9.55264 5.96099 9.52007V9.48751C5.96099 9.45495 5.92935 9.45494 5.89771 9.42238L4.32204 8.38686C4.19548 8.32173 4.16384 8.2566 4.16384 8.22404C4.16384 8.19148 4.16384 8.19148 4.19548 8.19148L4.22712 8.09378V8.06122C4.22712 8.02866 4.22712 8.02866 4.22712 7.99609C4.16384 7.99609 4.1322 8.02866 4.1322 8.06122Z" fill="white"/>
<path id="Vector_22" fill-rule="evenodd" clip-rule="evenodd" d="M5.73948 6.2117C5.6762 6.24427 5.58128 6.30939 5.45472 6.47221C5.29652 6.63503 5.2016 6.83041 5.2016 7.02579C5.2016 7.15605 5.26488 7.2863 5.39144 7.38399C5.58128 7.57937 5.80276 7.6445 6.21408 7.57937L6.37228 7.54681C6.65703 7.51425 6.78359 7.54681 6.91015 7.6445C6.94179 7.70963 6.97343 7.77476 6.97343 7.87245C7.00507 7.93757 6.97343 8.03527 6.87851 8.16552C6.78359 8.23065 6.62539 8.39347 6.40392 8.26321C6.34064 8.23065 6.27736 8.19808 6.27736 8.16552C6.21408 8.13296 6.18244 8.13296 6.18244 8.16552C6.1508 8.19808 6.18244 8.26321 6.21408 8.26321C6.21408 8.29577 6.4672 8.55628 6.4672 8.55628C6.53047 8.62141 6.56211 8.62141 6.62539 8.58885C6.75195 8.55628 6.84687 8.45859 6.97343 8.32834C7.09999 8.16552 7.19491 8.03527 7.22655 7.87245C7.22655 7.83988 7.22655 7.77476 7.22655 7.74219C7.22655 7.51425 7.09999 7.35143 7.03671 7.2863C6.81523 7.09092 6.59375 7.02579 6.12548 7.09092L6.03056 7.12348C5.71417 7.18861 5.61925 7.15605 5.52433 7.05836C5.49269 6.99323 5.46105 6.9281 5.46105 6.86297C5.42941 6.79785 5.49269 6.70016 5.55597 6.60246C5.68253 6.47221 5.77744 6.47221 5.87236 6.47221C5.96728 6.50477 6.03056 6.53734 6.03056 6.5699L6.09384 6.60246L6.12548 6.5699L6.15712 6.53734C6.15712 6.50477 6.12548 6.50477 6.09384 6.43965L5.87236 6.24426L5.84072 6.17914C5.80276 6.14657 5.77112 6.17914 5.73948 6.2117Z" fill="white"/>
<path id="Vector_23" fill-rule="evenodd" clip-rule="evenodd" d="M7.75809 4.45976V4.49232H7.72645L7.63153 4.59001L7.06201 5.04591L6.93545 5.1436L6.71398 5.30641C6.68234 5.30641 6.6507 5.33898 6.6507 5.37154L6.68234 5.40411H6.71398L6.74562 5.37154L6.84054 5.33898C6.93546 5.30641 6.96709 5.30641 7.03037 5.37154C7.09365 5.46923 7.12529 5.53436 7.41005 5.89256L7.72645 6.31589C7.88465 6.54383 8.01121 6.73921 8.07449 6.83691C8.10613 6.9346 8.13777 6.96716 8.10613 6.99972L8.04285 7.06485C7.97957 7.09742 7.97957 7.12998 8.01121 7.16254L8.04285 7.19511L8.10613 7.16254L8.29597 6.99972L8.39089 6.90203L8.58073 6.77178L9.05533 6.41358C9.15025 6.34845 9.18189 6.34845 9.15025 6.25076C9.11861 6.18563 9.02369 5.99025 8.99205 5.92512L8.92877 5.89256H8.89713C8.86549 5.92512 8.89713 5.95769 8.89713 5.99025C8.96041 6.08794 8.96041 6.15307 8.92877 6.2182C8.86549 6.31589 8.77057 6.38101 8.70729 6.41358C8.48581 6.60896 8.45417 6.5764 8.32761 6.44614L8.13777 6.15307L8.03652 6.04887L7.90996 5.85348C7.97324 5.82092 8.19472 5.6581 8.22636 5.62554C8.32128 5.56041 8.38456 5.59297 8.4162 5.59297L8.44784 5.6581L8.47948 5.69067H8.51112H8.54276L8.5744 5.6581L8.54276 5.59297L8.44784 5.43016L8.35292 5.26734L8.32128 5.23477L8.28964 5.20221L8.258 5.23477C8.22636 5.23477 8.22636 5.26734 8.22636 5.2999C8.22636 5.33247 8.19472 5.36503 8.16308 5.39759C8.13144 5.43016 8.06816 5.49528 7.7834 5.69067L7.34045 5.07196C7.40373 5.03939 7.6252 4.84401 7.65684 4.81145C7.7834 4.74632 7.81504 4.77888 7.87832 4.77888C7.90996 4.81145 7.90996 4.84401 7.9416 4.87657C7.97324 4.90914 8.00488 4.90914 8.00488 4.87657C8.03652 4.87657 8.03652 4.84401 8.03652 4.81145L7.9416 4.68119L7.90996 4.64863L7.84668 4.48581L7.81504 4.45325H7.7834H7.75809V4.45976Z" fill="white"/>
<path id="Vector_24" fill-rule="evenodd" clip-rule="evenodd" d="M9.55525 3.41767L9.36541 3.54793L9.23885 3.61305L8.89081 3.77587C8.85917 3.80843 8.79589 3.841 8.82753 3.87356C8.82753 3.90613 8.85917 3.90613 8.92245 3.87356L9.01737 3.841C9.04901 3.841 9.08065 3.841 9.14393 3.93869L9.42869 4.49227L9.68181 4.98073C9.80837 5.24124 9.93493 5.43662 9.96657 5.56687C9.99821 5.66456 9.99821 5.69713 9.96657 5.72969L9.87165 5.76225C9.84001 5.79482 9.84001 5.82738 9.84001 5.85994C9.84001 5.89251 9.87165 5.89251 9.93493 5.85994L10.1564 5.76225L10.2513 5.66456L10.3779 5.59944L10.6626 5.46918C10.7259 5.43662 10.7259 5.40405 10.7259 5.37149H10.6943H10.631L10.5044 5.43662C10.4412 5.46918 10.4095 5.43662 10.3462 5.37149C10.283 5.24124 10.188 5.04585 10.0615 4.78534L9.80837 4.29689C9.58689 3.90613 9.55525 3.841 9.52361 3.74331C9.49197 3.67818 9.49197 3.64562 9.49197 3.64562C9.49197 3.61305 9.49197 3.58049 9.52361 3.54793L9.61853 3.51536C9.61853 3.4828 9.65017 3.4828 9.65017 3.45023C9.65017 3.45023 9.65017 3.45023 9.65017 3.41767C9.61853 3.38511 9.55525 3.41767 9.55525 3.41767Z" fill="white"/>
<path id="Vector_25" fill-rule="evenodd" clip-rule="evenodd" d="M14.2506 1.95886L13.9975 2.02399H13.9026L13.5862 2.08912C13.5545 2.08912 13.5229 2.08912 13.5229 2.12168L13.4912 2.15424L13.5229 2.18681H13.5862H13.6811C13.776 2.18681 13.8076 2.21937 13.8076 2.31706L13.9342 2.93577L14.0291 3.32654C14.0924 3.61961 14.124 3.88012 13.9975 4.0755C13.9026 4.23832 13.7127 4.27088 13.6494 4.30345C13.5545 4.30345 13.428 4.33601 13.2698 4.23832C13.1432 4.17319 13.0167 4.04294 12.9217 3.58704L12.8268 3.16372L12.7319 2.54501C12.7003 2.41475 12.7319 2.38219 12.7952 2.34963H12.8585C12.9217 2.31706 12.9217 2.2845 12.9217 2.2845C12.9217 2.21937 12.8585 2.25194 12.8268 2.25194L12.6053 2.2845L12.4788 2.31706L12.3206 2.34963L12.0358 2.41475C12.0042 2.41475 11.9725 2.41475 11.9725 2.44732V2.47988L12.0042 2.51244H12.0675L12.1624 2.47988C12.2573 2.47988 12.2573 2.51244 12.2889 2.61014C12.3206 2.70783 12.3206 2.80552 12.4155 3.26141L12.5104 3.68474C12.5737 4.0755 12.7003 4.30345 12.9217 4.4337C13.2065 4.59652 13.4912 4.53139 13.6178 4.49883C13.8076 4.46626 14.0291 4.40114 14.1873 4.17319C14.4088 3.91268 14.3772 3.55448 14.3139 3.20279L14.2506 2.87716L14.124 2.25845C14.124 2.16076 14.124 2.09563 14.1873 2.09563L14.2822 2.06307C14.2822 2.06307 14.3455 2.06307 14.3455 1.99794C14.3455 1.96537 14.3139 1.96538 14.2822 1.96538H14.2506V1.95886Z" fill="white"/>
<path id="Vector_26" fill-rule="evenodd" clip-rule="evenodd" d="M15.6997 1.82858C15.6681 1.82858 15.6681 1.86115 15.6681 1.92628L15.5415 3.71076C15.5415 4.00384 15.5099 4.06896 15.4783 4.06896H15.3517C15.2884 4.06896 15.2568 4.10153 15.2568 4.13409L15.2884 4.16665C15.2884 4.19922 15.3201 4.19922 15.3517 4.19922H15.6365H15.6681H15.763L16.0478 4.23178C16.0794 4.23178 16.1427 4.23178 16.1427 4.16665L16.1111 4.13409L16.0478 4.10153C16.0161 4.10153 15.9529 4.10153 15.9212 4.10153C15.8896 4.06896 15.8263 4.0364 15.8263 3.80845V3.77589C15.8263 3.77589 15.8579 2.64268 15.8579 2.54498C15.8896 2.57755 15.8896 2.57755 15.8896 2.57755C16.0161 2.74037 16.2693 3.03344 16.4907 3.32651L16.8704 3.71728L17.345 4.23829C17.3766 4.27086 17.4083 4.30342 17.4399 4.33598C17.5032 4.33598 17.5032 4.23829 17.5032 4.20573L17.6298 2.29099C17.6298 2.12817 17.6614 2.09561 17.7247 2.06304H17.8196L17.8829 2.03048V1.9914C17.8829 1.95884 17.8196 1.95884 17.788 1.95884H17.5665H17.5032L17.402 1.92628H17.1488C17.0856 1.92628 17.0856 1.92628 17.0539 1.92628V1.95884C17.0539 1.9914 17.0539 2.02397 17.1172 2.02397C17.1488 2.02397 17.2121 2.02397 17.2438 2.05653C17.307 2.08909 17.3387 2.12166 17.3387 2.25191C17.3387 2.28448 17.3387 2.28448 17.3387 2.31704C17.3387 2.31704 17.307 3.38513 17.307 3.61307C17.2754 3.58051 17.1172 3.41769 17.1172 3.41769L16.7059 2.92924C16.2946 2.44078 15.8579 1.92628 15.8579 1.92628L15.8263 1.89371C15.7947 1.82858 15.763 1.82858 15.7314 1.79602L15.6997 1.82858Z" fill="white"/>
<path id="Vector_27" fill-rule="evenodd" clip-rule="evenodd" d="M18.9776 2.21937V2.25193V2.2845L19.0409 2.31706L19.1358 2.34962C19.1675 2.34962 19.1991 2.38219 19.1675 2.51244L19.0409 3.13115L18.9144 3.65217C18.8511 3.94524 18.7878 4.17319 18.7562 4.30344C18.7245 4.36857 18.6929 4.40113 18.6612 4.40113H18.5663H18.503L18.4777 4.42718V4.45975L18.541 4.49231L18.7625 4.52488L18.9207 4.55744L19.0472 4.59L19.3636 4.68769C19.4269 4.72026 19.4586 4.65513 19.4586 4.65513L19.4269 4.62257L19.3953 4.59L19.2371 4.55744C19.1738 4.52488 19.1738 4.45975 19.1738 4.39462C19.2054 4.26437 19.2687 4.03642 19.332 3.74335L19.4269 3.22233L19.5851 2.60362C19.6168 2.50593 19.6484 2.47337 19.7117 2.47337H19.8066H19.8699V2.44731C19.9015 2.41475 19.8382 2.38219 19.8066 2.38219L19.5851 2.34962L19.4586 2.31706L19.0789 2.21937C19.0409 2.18681 19.0093 2.18681 18.9776 2.21937Z" fill="white"/>
<path id="Vector_28" fill-rule="evenodd" clip-rule="evenodd" d="M20.6482 2.61011L20.6166 2.64267V2.67523L20.6482 2.7078L20.7431 2.77293C20.8064 2.83805 20.8381 2.87062 20.8381 3.066V5.04587C20.8381 5.20869 20.8064 5.27381 20.8697 5.30638C20.933 5.30638 20.9646 5.27381 21.0912 5.17612L21.1228 5.14356L21.8189 4.45972L22.1353 4.16665L22.4517 3.84101C22.6099 3.6782 22.6732 3.64563 22.7048 3.64563C22.7681 3.64563 22.7997 3.6782 22.8314 3.6782H22.8946L22.9263 3.64563C22.9579 3.61307 22.8946 3.5805 22.863 3.5805L22.7048 3.51538L22.6099 3.48281L22.5466 3.45025L22.3251 3.31999C22.2935 3.31999 22.2302 3.28743 22.1986 3.35256C22.1986 3.38512 22.2302 3.41769 22.2619 3.41769L22.3568 3.48281C22.3568 3.48281 22.3568 3.48281 22.3568 3.51538C22.3568 3.54794 22.3251 3.5805 22.2935 3.61307L21.6291 4.2969C21.6291 4.2969 21.281 4.6551 21.2177 4.72023C21.2177 4.62254 21.281 3.29394 21.281 3.29394C21.281 3.13113 21.281 3.09856 21.3127 3.066C21.3127 3.03343 21.3127 3.03343 21.3443 3.03343C21.3443 3.03343 21.4076 3.03343 21.4392 3.066C21.5025 3.09856 21.5025 3.066 21.5025 3.03343V3.00087C21.5025 3.00087 21.5025 2.96831 21.4392 2.96831L21.2177 2.87062L21.1228 2.80549L20.9646 2.74036L20.7115 2.64267C20.6799 2.61011 20.6482 2.61011 20.6482 2.61011Z" fill="white"/>
<path id="Vector_29" fill-rule="evenodd" clip-rule="evenodd" d="M23.5527 4.06897L23.5211 4.10154L23.5844 4.1341L23.6476 4.19923C23.7109 4.26436 23.7109 4.32948 23.6793 4.39461C23.616 4.4923 23.5844 4.55743 23.3312 4.94819L23.0465 5.37152C22.8883 5.59946 22.7617 5.82741 22.6668 5.89254C22.6035 5.99023 22.5719 6.02279 22.5402 5.99023L22.4453 5.95766L22.382 5.9251L22.3504 5.95766V5.99023L22.4137 6.02279L22.6035 6.15305L22.7301 6.25074L22.8883 6.38099L23.3945 6.73919C23.4894 6.80432 23.5211 6.80432 23.5844 6.73919C23.6476 6.70663 23.7742 6.54381 23.8058 6.47868L23.8375 6.41356L23.8058 6.38099C23.7742 6.38099 23.7426 6.41356 23.7426 6.41356C23.6476 6.51125 23.5844 6.54381 23.5211 6.51125C23.4262 6.51125 23.3312 6.44612 23.268 6.38099C23.1414 6.2833 23.0781 6.21817 23.0781 6.15305C23.0781 6.12048 23.0781 6.08792 23.1414 6.02279L23.3312 5.72972L23.3945 5.63203L23.5211 5.43665C23.5211 5.43665 23.5211 5.43665 23.5211 5.40408C23.5844 5.46921 23.8058 5.63203 23.8691 5.66459C23.9008 5.69716 23.9324 5.76228 23.9324 5.79485V5.82741L23.9008 5.89254L23.8691 5.9251C23.8691 5.95766 23.8691 5.99023 23.9008 5.99023C23.9324 6.02279 23.964 5.99023 23.964 5.95766L24.0906 5.79485L24.2172 5.63203H24.2488V5.59295L24.2172 5.56039C24.2172 5.52782 24.1855 5.52782 24.1539 5.56039C24.1222 5.56039 24.0906 5.52782 24.0273 5.49526C23.9957 5.49526 23.8375 5.39757 23.616 5.23475H23.6476L24.059 4.61604V4.58999C24.1222 4.65512 24.3437 4.81794 24.3754 4.8505C24.4703 4.91563 24.5019 4.94819 24.5019 5.01332C24.5019 5.01332 24.5019 5.01332 24.4703 5.04588C24.4703 5.07845 24.4703 5.11101 24.4386 5.11101V5.17614V5.2087C24.4703 5.2087 24.5019 5.24126 24.5336 5.2087L24.5968 5.07845L24.6601 5.04588L24.755 4.91563L24.7867 4.88306C24.7867 4.8505 24.7867 4.81794 24.755 4.81794H24.7234V4.78537L24.5968 4.75281C24.5652 4.72025 24.059 4.36205 23.9957 4.32948L23.8691 4.23179L23.6476 4.06897C23.616 4.03641 23.5844 4.00385 23.5527 4.06897Z" fill="white"/>
<path id="Vector_30" fill-rule="evenodd" clip-rule="evenodd" d="M25.6979 7.24716C25.6347 7.21459 25.603 7.21459 25.5397 7.1169C25.4765 7.05178 25.4132 6.98665 25.4132 6.95409C25.3815 6.92152 25.3815 6.92152 25.4132 6.92152L26.046 6.27025C26.046 6.23768 26.046 6.23768 26.0776 6.27025C26.1093 6.27025 26.1409 6.33538 26.1725 6.36794C26.2675 6.43307 26.2991 6.53076 26.2991 6.66101C26.2991 6.79127 26.2358 6.92152 26.1093 7.05178C25.9511 7.24716 25.7929 7.24716 25.6979 7.24716ZM25.6979 5.62549L25.6663 5.65805V5.69062L25.6979 5.72318L25.7612 5.82087C25.7929 5.886 25.7929 5.91856 25.7296 6.01625L25.2866 6.47214L24.9386 6.83034C24.7487 7.02573 24.5905 7.22111 24.4956 7.28623C24.4007 7.35136 24.3691 7.38393 24.3374 7.35136L24.2425 7.28623L24.2109 7.25367H24.1792L24.1476 7.28623L24.1792 7.35136L24.3691 7.54674L24.464 7.61187L24.5273 7.677L24.7487 7.93751L24.812 7.97007H24.8437L24.8753 7.93751L24.8437 7.87238L24.7487 7.77469C24.7487 7.74213 24.7171 7.74213 24.7171 7.70956C24.7171 7.677 24.7487 7.64443 24.7804 7.61187C24.8437 7.48162 25.0335 7.3188 25.2233 7.12342L25.255 7.09085C25.255 7.12342 25.4132 7.28623 25.4132 7.28623C25.4448 7.28623 25.4448 7.3188 25.4448 7.3188L25.4132 7.57931L25.3499 7.83982C25.3183 8.00264 25.3183 8.13289 25.3183 8.26314C25.3183 8.32827 25.3183 8.3934 25.3499 8.45853C25.3815 8.55622 25.4132 8.62134 25.5397 8.71903L25.7296 8.94698L25.7929 8.97954L25.8245 8.94698C25.8245 8.94698 25.8245 8.94698 25.8245 8.91442V8.88185L25.7612 8.81673C25.7296 8.78416 25.6663 8.68647 25.6663 8.45853C25.6663 8.45853 25.6663 8.45853 25.6663 8.42596C25.6663 8.23058 25.6979 7.93751 25.7612 7.57931C25.7612 7.57931 25.7612 7.48162 25.7612 7.44905C26.1093 7.48162 26.3307 7.41649 26.5206 7.22111C26.6788 7.05829 26.6788 6.86291 26.6471 6.76522C26.6155 6.56983 26.4889 6.40702 26.3624 6.27676L26.046 5.98369L25.9827 5.886L25.7612 5.65805C25.7612 5.65805 25.7296 5.62549 25.6979 5.62549Z" fill="white"/>
<path id="Vector_31" fill-rule="evenodd" clip-rule="evenodd" d="M27.3369 8.25666C27.1154 8.41948 27.0205 8.64742 26.9888 9.07075V9.23357C26.9888 9.52664 26.8939 9.6569 26.7673 9.75459C26.6408 9.81971 26.4509 9.81971 26.3244 9.59177C26.2295 9.49408 26.1662 9.2987 26.3244 9.10331C26.356 9.07075 26.3877 9.00562 26.4193 9.00562L26.4509 8.9405V8.90142C26.4193 8.86886 26.356 8.90142 26.3244 8.90142L26.008 9.12937C25.9447 9.16193 25.9447 9.19449 25.9447 9.22706C25.9447 9.22706 25.9447 9.22706 25.9447 9.25962C25.9763 9.38987 26.0396 9.52013 26.1345 9.68295C26.2295 9.84577 26.356 9.94346 26.5142 10.0086C26.799 10.1388 27.0205 10.0086 27.1154 9.94346C27.3369 9.78064 27.4318 9.55269 27.4634 9.07075V8.96655C27.4951 8.64091 27.5267 8.54322 27.6216 8.47809C27.6849 8.41296 27.7482 8.41296 27.8431 8.41296C27.9064 8.44553 28.0013 8.47809 28.0329 8.57578C28.1595 8.7386 28.1279 8.83629 28.0962 8.93398C28.0962 8.99911 28.0329 9.06424 28.0013 9.0968C27.938 9.12937 27.938 9.16193 27.9697 9.16193C28.0013 9.22706 28.0646 9.19449 28.0962 9.16193L28.3493 8.99911L28.3746 8.96655C28.4063 8.93398 28.4063 8.90142 28.4063 8.86886C28.3746 8.80373 28.3114 8.67347 28.2164 8.51066C27.9633 8.15897 27.6216 8.06128 27.3369 8.25666Z" fill="white"/>
<path id="Vector_32" fill-rule="evenodd" clip-rule="evenodd" d="M28.9758 9.97607C28.9442 10.0086 28.9442 10.0412 28.9758 10.0738L29.0075 10.1715C29.0075 10.204 29.0075 10.2691 28.9125 10.3017L28.343 10.5948L27.8684 10.8227C27.6153 10.953 27.3938 11.0507 27.2989 11.1158C27.204 11.1484 27.1723 11.1484 27.1407 11.1158L27.1091 11.0181L27.0458 10.953L27.0141 10.9855C26.9825 10.9855 26.9825 11.0181 27.0141 11.0832L27.1091 11.2786L27.1723 11.4089L27.2356 11.5391L27.3622 11.8322L27.4255 11.8973H27.4571L27.4887 11.8648L27.4571 11.7996L27.4255 11.6694C27.3938 11.6043 27.4255 11.5717 27.4887 11.5066C27.5837 11.4414 27.8051 11.3437 28.0583 11.2135L28.5329 10.9855C28.9125 10.7902 29.0075 10.7576 29.1024 10.6925C29.1657 10.6599 29.2289 10.6599 29.2606 10.725L29.2922 10.7902C29.3239 10.8553 29.3555 10.8553 29.3871 10.8227C29.4188 10.8227 29.3871 10.7576 29.3871 10.725L29.2922 10.5297L29.2289 10.3994L29.0707 10.0412C29.0391 10.0086 29.0075 9.97607 28.9758 9.97607Z" fill="white"/>
<path id="Vector_33" fill-rule="evenodd" clip-rule="evenodd" d="M29.7922 11.7931C29.7922 11.7931 29.5074 11.8257 29.4441 11.8257C29.4441 11.8257 29.3808 11.8582 29.4125 11.8908C29.4125 11.9559 29.4441 11.9559 29.4758 11.9559H29.5707C29.634 11.9885 29.6656 12.021 29.7289 12.2164C29.7289 12.2164 29.8238 12.5746 29.8554 12.6072C29.7922 12.6397 28.7227 12.9654 28.7227 12.9654C28.4696 13.0305 28.2165 13.0956 28.1216 13.1282C28.0267 13.1282 27.9634 13.1282 27.9634 13.0956L27.9001 12.9979L27.8685 12.9328H27.8368C27.8368 12.9654 27.8052 12.9654 27.8052 13.0305L27.9001 13.2585L27.9317 13.4213L27.9634 13.5515L28.0583 13.8772C28.0899 13.9423 28.1216 13.9423 28.1216 13.9423C28.1532 13.9097 28.1532 13.9097 28.1532 13.8772V13.8446L28.1216 13.6818C28.1216 13.6167 28.1532 13.5841 28.2165 13.5515C28.3431 13.519 28.5645 13.4538 28.8177 13.3561C28.8177 13.3561 29.7922 13.0631 29.9504 13.0305C29.982 13.0631 30.0453 13.3561 30.0453 13.3561C30.0769 13.4538 30.0769 13.519 30.0769 13.5515C30.0769 13.6492 30.0453 13.7143 30.0136 13.7469H29.982C29.9504 13.7469 29.9187 13.7795 29.9187 13.812C29.9187 13.8772 29.982 13.8446 29.982 13.8446L30.33 13.7469C30.3617 13.7469 30.3933 13.7469 30.3933 13.7143V13.6818V13.6492C30.3617 13.6167 30.33 13.5515 30.2984 13.4213L29.9504 12.2555L29.8871 11.9624V11.8973V11.8322C29.8871 11.7931 29.8238 11.7931 29.7922 11.7931Z" fill="white"/>
<path id="Vector_34" fill-rule="evenodd" clip-rule="evenodd" d="M30.4249 14.4829C30.4249 14.5154 30.4249 14.548 30.3933 14.5805C30.3933 14.6457 30.2983 14.7434 30.2034 14.8085C30.0769 14.9387 29.4757 15.3946 29.4124 15.4272C29.3491 15.4598 29.2859 15.4923 29.1277 15.5249L28.8745 15.5575H28.5898C28.5265 15.5575 28.4632 15.5575 28.4632 15.4923L28.4316 15.3946L28.4 15.3295H28.3683C28.3367 15.3295 28.3367 15.3946 28.3367 15.4272L28.3683 15.6551V15.818V15.9482L28.4 16.2739C28.4 16.3064 28.4316 16.339 28.4316 16.339L28.4632 16.3715L28.4949 16.339V16.2739V16.1436C28.4949 16.0459 28.5581 16.0133 28.6531 16.0133L28.9378 15.9808L29.1593 15.9482C29.2542 15.9482 29.3491 15.9482 29.4757 15.9808C29.5706 16.0133 30.292 16.3715 30.4186 16.4367C30.5135 16.5018 30.5451 16.5344 30.5768 16.5995C30.6084 16.6321 30.6401 16.6972 30.6401 16.7297C30.6401 16.7949 30.6717 16.7949 30.7033 16.7949C30.735 16.7949 30.735 16.7623 30.735 16.6972L30.7033 16.3715L30.6717 16.111C30.6717 16.0785 30.6717 16.0133 30.6084 16.0133C30.5768 16.0459 30.5768 16.0785 30.5768 16.111C30.5768 16.1436 30.5451 16.1436 30.5135 16.1436C30.4819 16.1762 30.4502 16.1436 30.3869 16.1436C30.3237 16.111 30.1338 16.0133 29.944 15.9482C29.7858 15.8831 29.6592 15.818 29.5643 15.7854C29.5959 15.7528 29.6276 15.7203 29.6276 15.7203C29.8491 15.59 30.292 15.2318 30.3553 15.1993C30.3869 15.1993 30.4186 15.1667 30.4502 15.1667H30.4819V15.1993C30.5135 15.2318 30.5135 15.2644 30.5451 15.2644L30.5768 15.2318V15.1993V14.9713L30.5451 14.8736V14.6131V14.4829L30.5135 14.4177H30.4819C30.4565 14.4177 30.4249 14.4177 30.4249 14.4829Z" fill="white"/>
<path id="Vector_35" fill-rule="evenodd" clip-rule="evenodd" d="M0.442932 16.9838C0.442932 25.8411 7.41004 33.0442 16.0161 33.0442C24.6221 33.0442 31.6209 25.8411 31.6209 16.9838C31.6209 8.15901 24.6221 0.955933 16.0161 0.955933C7.41004 0.955933 0.442932 8.15901 0.442932 16.9838ZM0.632772 16.9838C0.632772 8.2567 7.5366 1.15131 16.0161 1.15131C24.4956 1.15131 31.3994 8.2567 31.3994 16.9838C31.3994 25.7434 24.4956 32.8488 16.0161 32.8488C7.5366 32.8488 0.632772 25.7434 0.632772 16.9838Z" fill="white"/>
<path id="Vector_36" fill-rule="evenodd" clip-rule="evenodd" d="M8.38458 18.7683C8.70098 20.3248 9.35909 22.1418 10.688 23.8938L16.0161 18.4101L21.3443 23.8938C22.6668 22.1418 23.3313 20.3248 23.6477 18.7683C21.1861 18.2798 18.6359 18.0193 16.0161 18.0193C13.4027 18.0193 10.8462 18.2798 8.38458 18.7683Z" fill="#003378"/>
<path id="Vector_37" fill-rule="evenodd" clip-rule="evenodd" d="M23.9957 9.3899C23.9957 9.3899 19.3953 9.55272 16.0161 6.7262C12.6433 9.54621 8.03656 9.3899 8.03656 9.3899C8.03656 9.3899 8.03656 13.252 8.03656 15.2969C8.03656 15.9157 8.03656 16.9837 8.28968 18.2798C10.7829 17.7913 13.3647 17.5308 16.0161 17.5308C18.6676 17.5308 21.2494 17.7913 23.7426 18.2798C23.9957 16.9837 23.9957 15.9091 23.9957 15.2969C23.9957 13.252 23.9957 9.3899 23.9957 9.3899Z" fill="#003378"/>
<path id="Vector_38" fill-rule="evenodd" clip-rule="evenodd" d="M11.9472 25.3591C13.0166 26.3946 14.3455 27.339 16.0161 28.1791C17.6867 27.3325 19.0092 26.3946 20.0533 25.3591L16.0161 21.204L11.9472 25.3591Z" fill="#003378"/>
<path id="Vector_39" fill-rule="evenodd" clip-rule="evenodd" d="M10.688 23.8938C11.036 24.3822 11.479 24.8641 11.9473 25.3526L16.0161 21.1975L20.0534 25.3526C20.5596 24.8967 20.9646 24.4148 21.3443 23.8938L16.0161 18.41L10.688 23.8938Z" fill="white"/>
<path id="Vector_40" fill-rule="evenodd" clip-rule="evenodd" d="M8.28967 18.2797C8.32131 18.4425 8.35295 18.6054 8.38459 18.7682C10.8462 18.2797 13.3964 18.0192 16.0161 18.0192C18.6359 18.0192 21.1861 18.2797 23.6477 18.7682C23.6793 18.6054 23.711 18.4425 23.7426 18.2797C21.2494 17.7913 18.6676 17.5308 16.0161 17.5308C13.3647 17.5308 10.7829 17.7978 8.28967 18.2797Z" fill="white"/>
<path id="Vector_41" fill-rule="evenodd" clip-rule="evenodd" d="M9.42869 13.8381C9.42869 13.8381 9.58689 13.8707 9.77673 13.773C9.87165 13.7078 10.0615 13.6102 10.1564 13.7078V12.6072C10.1248 12.5421 10.0299 12.5421 9.84001 12.6072C9.84001 12.6072 9.61853 12.7375 9.42869 12.7375C9.42869 12.7375 9.36541 12.7374 9.36541 12.8026V13.7404C9.36541 13.7404 9.33377 13.8381 9.42869 13.8381Z" fill="white"/>
<path id="Vector_42" fill-rule="evenodd" clip-rule="evenodd" d="M10.6563 13.773C10.8461 13.8707 11.0043 13.8381 11.0043 13.8381C11.0992 13.8381 11.0676 13.7404 11.0676 13.7404V12.8026C11.0676 12.7374 11.0043 12.7375 11.0043 12.7375C10.8145 12.7375 10.593 12.6072 10.593 12.6072C10.4032 12.5421 10.3083 12.5421 10.2766 12.6072V13.7078C10.3715 13.6102 10.5614 13.7078 10.6563 13.773Z" fill="white"/>
<path id="Vector_43" fill-rule="evenodd" clip-rule="evenodd" d="M11.384 14.1311L11.3207 13.0956C11.3207 13.0305 11.2891 12.9654 11.2891 12.9654C11.2891 12.9654 11.2575 12.9002 11.2258 12.8677H11.1942C11.1942 12.9002 11.1942 12.9328 11.1942 12.9328V13.8706C11.1942 13.8706 11.2258 13.9683 11.1625 13.9683C11.1625 13.9683 10.9411 14.0335 10.6879 13.9358C10.6879 13.9358 10.5614 13.8706 10.4981 13.8381C10.4348 13.8055 10.2766 13.7729 10.2133 13.9683C10.1501 13.7729 9.99186 13.8055 9.92858 13.8381C9.8653 13.8706 9.73874 13.9358 9.73874 13.9358C9.48562 14.0335 9.26414 13.9683 9.26414 13.9683C9.2325 13.9683 9.2325 13.8706 9.2325 13.8706V12.9328C9.2325 12.9328 9.2325 12.9002 9.2325 12.8677H9.20086C9.16922 12.9002 9.13758 12.9654 9.13758 12.9654C9.13758 12.9654 9.10594 13.0305 9.10594 13.0956L9.04266 14.1311C9.04266 14.1311 9.04266 14.2614 9.13758 14.2288L9.96022 14.0986C9.96022 14.0986 10.0551 14.0986 10.0551 14.1637C10.0551 14.1637 10.0868 14.2288 10.2133 14.2288C10.3399 14.2288 10.3715 14.1637 10.3715 14.1637C10.3715 14.0986 10.4665 14.0986 10.4665 14.0986L11.3144 14.2288C11.384 14.2549 11.384 14.1311 11.384 14.1311Z" fill="white"/>
<path id="Vector_44" fill-rule="evenodd" clip-rule="evenodd" d="M16.0161 16.9512C13.9658 16.9512 12.2636 15.2318 12.2636 13.1217C12.2636 11.0116 13.9658 9.29224 16.0161 9.29224C18.0664 9.29224 19.737 11.0116 19.737 13.1217C19.7686 15.2318 18.0664 16.9512 16.0161 16.9512ZM16.0161 11.1419C14.9467 11.1419 14.0924 12.0536 14.0924 13.1217C14.0924 14.1898 14.9467 15.1016 16.0161 15.1016C17.0539 15.1016 17.9398 14.1898 17.9398 13.1217C17.9398 12.0536 17.0539 11.1419 16.0161 11.1419Z" fill="white"/>
<path id="Vector_45" fill-rule="evenodd" clip-rule="evenodd" d="M14.3772 24.545C14.3139 24.5776 13.9975 24.773 13.9975 24.8055C13.9659 24.8055 13.9659 24.8055 13.9659 24.8381C13.9659 24.8707 13.9659 24.8707 13.9975 24.8707H14.0292L14.0924 24.8381C14.1241 24.8381 14.1874 24.8055 14.219 24.8055V24.8381V25.066V25.3265V25.7173C14.219 25.7499 14.1874 25.7824 14.1557 25.7824H14.0292L13.9975 25.815C13.9975 25.8476 13.9975 25.8801 14.0608 25.8801H14.2506H14.3456H14.4088H14.5987C14.662 25.8801 14.662 25.8476 14.662 25.815L14.6303 25.7824H14.5038C14.4721 25.7824 14.4721 25.7499 14.4721 25.7173V25.3265V25.0009V24.5776C14.4721 24.5125 14.4405 24.5125 14.4405 24.5125L14.3772 24.545Z" fill="white"/>
<path id="Vector_46" fill-rule="evenodd" clip-rule="evenodd" d="M15.1049 25.5154C15.1049 25.3526 15.1998 25.2549 15.2631 25.2223C15.4213 25.2875 15.5162 25.3852 15.5162 25.5154C15.5162 25.6782 15.4529 25.7759 15.3263 25.7759C15.1998 25.7434 15.1049 25.6457 15.1049 25.5154ZM14.9467 24.8381C14.9467 25.0009 15.0416 25.0986 15.1365 25.1637C14.9783 25.2289 14.8517 25.3591 14.8517 25.5219C14.8517 25.7499 15.0416 25.8801 15.2947 25.8801C15.6111 25.8801 15.7693 25.6847 15.7693 25.4894C15.7693 25.294 15.6111 25.1637 15.4845 25.0986C15.5795 25.066 15.706 24.9683 15.706 24.8055C15.706 24.6101 15.5795 24.5125 15.358 24.5125C15.0416 24.5125 14.9467 24.7078 14.9467 24.8381ZM15.1365 24.8055C15.1365 24.7078 15.1998 24.6101 15.3263 24.6101C15.4213 24.6101 15.4845 24.6753 15.4845 24.8055C15.4845 24.9358 15.4213 25.0009 15.358 25.0335C15.1998 24.9358 15.1365 24.9032 15.1365 24.8055Z" fill="white"/>
<path id="Vector_47" fill-rule="evenodd" clip-rule="evenodd" d="M16.2376 25.5154C16.2376 25.3526 16.3642 25.2549 16.4274 25.2223C16.554 25.2875 16.6806 25.3852 16.6806 25.5154C16.6806 25.6782 16.5856 25.7759 16.4591 25.7759C16.3325 25.7434 16.2376 25.6457 16.2376 25.5154ZM16.0794 24.8381C16.0794 25.0009 16.206 25.0986 16.3009 25.1637C16.111 25.2289 16.0161 25.3591 16.0161 25.5219C16.0161 25.7499 16.1743 25.8801 16.4591 25.8801C16.7438 25.8801 16.902 25.6847 16.902 25.4894C16.902 25.294 16.7438 25.1637 16.6489 25.0986C16.7122 25.066 16.8704 24.9683 16.8704 24.8055C16.8704 24.6101 16.7122 24.5125 16.4907 24.5125C16.1743 24.5125 16.0794 24.7078 16.0794 24.8381ZM16.3009 24.8055C16.3009 24.7078 16.3325 24.6101 16.4907 24.6101C16.554 24.6101 16.6489 24.6753 16.6489 24.8055C16.6489 24.9358 16.554 25.0009 16.4907 25.0335C16.3642 24.9358 16.3009 24.9032 16.3009 24.8055Z" fill="white"/>
<path id="Vector_48" fill-rule="evenodd" clip-rule="evenodd" d="M17.8449 24.5125L17.7183 24.545H17.3386C17.2754 24.545 17.2754 24.545 17.2754 24.5776L17.2437 25.0335C17.2437 25.0335 17.2437 25.066 17.2754 25.0986C17.4019 25.0986 17.6867 25.1963 17.6867 25.4568C17.6867 25.6847 17.5601 25.7499 17.4336 25.7499C17.307 25.7499 17.2437 25.6847 17.2437 25.5545C17.2437 25.5219 17.2121 25.4894 17.1804 25.4894C17.1488 25.4894 17.1488 25.5545 17.1488 25.5545V25.7499V25.7824C17.1488 25.815 17.1488 25.8476 17.1804 25.8476C17.2437 25.8801 17.307 25.8801 17.3703 25.8801C17.75 25.8801 17.9398 25.6196 17.9398 25.3917C17.9398 25.0986 17.655 24.9358 17.3703 24.9032C17.3703 24.8707 17.4019 24.7404 17.4019 24.7404C17.4336 24.7404 17.6867 24.7404 17.6867 24.7404C17.8132 24.7404 17.8132 24.773 17.8132 24.8055C17.8132 24.8381 17.8449 24.8381 17.8449 24.8381C17.8449 24.8381 17.8765 24.8381 17.8765 24.8055L17.9082 24.5776C17.9082 24.545 17.9082 24.5125 17.8765 24.5125H17.8449Z" fill="white"/>
<path id="Vector_49" fill-rule="evenodd" clip-rule="evenodd" d="M2.55652 20.8783C2.55652 21.1389 2.778 21.3668 3.03112 21.3668C3.28424 21.3668 3.50572 21.1389 3.50572 20.8783C3.50572 20.6178 3.28424 20.3899 3.03112 20.3899C2.77167 20.3899 2.55652 20.6178 2.55652 20.8783Z" fill="white"/>
<path id="Vector_50" fill-rule="evenodd" clip-rule="evenodd" d="M29.4504 20.8783C29.4504 21.1389 29.2289 21.3668 28.9758 21.3668C28.7227 21.3668 28.5012 21.1389 28.5012 20.8783C28.5012 20.6178 28.7227 20.3899 28.9758 20.3899C29.2289 20.3899 29.4504 20.6178 29.4504 20.8783Z" fill="white"/>
<path id="Vector_51" fill-rule="evenodd" clip-rule="evenodd" d="M22.2934 13.5776H21.1607C21.1607 13.5776 21.0975 13.545 21.1291 13.6427L21.1924 13.773C21.1924 13.773 21.224 13.8381 21.2557 13.8381H22.1985C22.2302 13.8381 22.2618 13.773 22.2618 13.773L22.3251 13.6102C22.3504 13.545 22.2934 13.5776 22.2934 13.5776Z" fill="white"/>
<path id="Vector_52" fill-rule="evenodd" clip-rule="evenodd" d="M22.072 13.9684H21.3759C21.3759 13.9684 21.281 13.9684 21.3126 14.0335L21.3759 14.1312C21.3759 14.1312 21.3759 14.1638 21.4392 14.1638H22.0087C22.072 14.1638 22.072 14.1312 22.072 14.1312L22.1352 14.0335C22.1669 13.9684 22.072 13.9684 22.072 13.9684Z" fill="white"/>
<path id="Vector_53" fill-rule="evenodd" clip-rule="evenodd" d="M21.9771 14.3852C22.0087 14.2875 21.9454 14.32 21.9454 14.32H21.5025C21.5025 14.32 21.4392 14.2875 21.4708 14.3852L21.5974 14.6782V15.069C21.5974 15.1341 21.629 15.1667 21.6607 15.1667H21.7556C21.8189 15.1667 21.8505 15.1341 21.8505 15.069V14.6782L21.9771 14.3852Z" fill="white"/>
<path id="Vector_54" fill-rule="evenodd" clip-rule="evenodd" d="M21.6607 13.4148C21.6607 13.4148 22.072 13.4473 22.2618 13.2519C22.3567 13.1543 22.3884 13.024 22.3884 12.8937C22.3567 12.7635 22.2302 12.6007 22.1036 12.4704C22.1036 12.4704 21.9138 12.275 21.9454 12.0145C21.9454 11.9494 21.9138 11.9494 21.8505 11.982C21.8505 11.982 21.1861 12.4379 21.3126 12.9524C21.3126 12.9524 21.1228 12.757 21.3126 12.4639C21.3126 12.4313 21.3126 12.3988 21.2493 12.4313C21.1861 12.4965 20.9013 12.7895 21.1544 13.1477C21.1544 13.1543 21.3126 13.3822 21.6607 13.4148Z" fill="white"/>
<path id="Vector_55" fill-rule="evenodd" clip-rule="evenodd" d="M16.7755 29.7356C16.7755 29.7682 16.7755 30.452 16.7755 30.452H16.5856C16.5856 30.452 16.5856 29.7682 16.5856 29.7356C16.554 29.7356 16.1427 29.7356 16.111 29.7356C16.111 29.7356 16.111 29.7682 16.111 29.8007C16.1427 29.8007 16.206 29.8659 16.206 29.9635C16.206 29.9635 16.206 30.8428 16.206 31.5526C15.9528 31.5526 15.1998 31.5526 15.1998 31.5526V30.1264C15.1998 30.1264 15.8326 30.1264 15.8642 30.1264C15.8642 30.0938 15.8642 29.8333 15.8642 29.8007C15.8326 29.8007 14.7315 29.8007 14.6999 29.8007C14.6999 29.8007 14.6999 29.8333 14.6999 29.8659C14.7315 29.8659 14.7948 29.931 14.7948 30.0287C14.7948 30.0287 14.7948 31.8457 14.7948 31.8783C14.8264 31.8783 15.9275 31.8783 16.2123 31.8783C16.2123 32.1714 16.2123 32.3993 16.2123 32.3993C16.2439 32.3993 16.5603 32.3993 16.592 32.3993C16.592 32.3667 16.592 30.8102 16.592 30.8102H16.7818C16.7818 30.8102 16.7818 32.3667 16.7818 32.3993C16.8134 32.3993 17.1615 32.3993 17.1931 32.3993C17.1931 32.3667 17.1931 29.7682 17.1931 29.7356C17.1805 29.7356 16.8071 29.7356 16.7755 29.7356Z" fill="white"/>
<path id="Vector_56" fill-rule="evenodd" clip-rule="evenodd" d="M27.8051 25.7433C27.4887 25.4503 26.2295 24.3822 26.2295 24.3496C26.2295 24.3496 24.9386 25.9713 24.9069 25.9713C24.9386 26.0038 25.16 26.1667 25.16 26.1992C25.1917 26.1667 26.1978 24.9032 26.1978 24.9032C26.1978 24.9032 27.2356 25.8085 27.552 26.069C27.4255 26.1992 27.3622 26.2969 27.3622 26.2969C27.3622 26.2969 26.6661 25.7433 26.6345 25.7108C26.6345 25.7433 26.413 26.0038 26.3813 26.0364C26.413 26.0364 27.0774 26.6226 27.0774 26.6226L26.9509 26.7854C26.9509 26.7854 26.2864 26.1992 26.2548 26.1992C26.2231 26.2318 25.97 26.5574 25.9384 26.5574C25.97 26.59 25.97 26.59 26.0017 26.59C26.0333 26.5574 26.1282 26.59 26.1915 26.6226L26.7294 27.0784C26.7294 27.0784 26.4446 27.4366 26.413 27.4692C26.4446 27.4692 26.6661 27.6646 26.6661 27.6646C26.6977 27.6646 28.2101 25.7824 28.2101 25.7498C28.2101 25.7173 27.9886 25.5545 27.9886 25.5219C27.9633 25.548 27.9001 25.6131 27.8051 25.7433Z" fill="white"/>
<path id="Vector_57" fill-rule="evenodd" clip-rule="evenodd" d="M11.2259 28.7979L10.1564 31.201C10.1881 31.2336 10.5045 31.3964 10.5361 31.3964C10.5361 31.3639 11.6055 28.9932 11.6055 28.9607C11.6055 28.9607 11.2575 28.7979 11.2259 28.7979Z" fill="white"/>
<path id="Vector_58" fill-rule="evenodd" clip-rule="evenodd" d="M10.6563 28.5048C10.6563 28.5373 10.6247 28.5373 10.6247 28.5699C10.688 28.5699 10.688 28.6676 10.6563 28.7653L10.4349 29.2212C10.4349 29.2212 10.0868 29.0258 10.0552 29.0258C10.0235 29.0583 9.92862 29.3189 9.89698 29.3189C9.92862 29.3514 10.3083 29.5142 10.3083 29.5142C10.3083 29.5142 9.6755 30.9405 9.64386 30.9731C9.6755 31.0056 9.96026 31.1359 9.9919 31.1359C9.9919 31.1033 11.0613 28.7327 11.0613 28.7001C11.0677 28.7001 10.688 28.5048 10.6563 28.5048Z" fill="white"/>
<path id="Vector_59" fill-rule="evenodd" clip-rule="evenodd" d="M9.58691 29.2472L9.55527 29.2147C9.87167 28.9867 10.0615 28.7262 10.2197 28.3745C10.2197 28.3745 9.71347 28.114 9.68183 28.114C9.68183 28.1466 9.65019 28.1466 9.65019 28.1791C9.65019 28.1791 9.77675 28.2443 9.68183 28.4397C9.68183 28.4722 9.36543 29.1235 8.48584 29.41C8.51748 29.4426 8.58076 29.6706 8.58076 29.6706H8.6124C8.6124 29.6706 8.89716 29.638 9.27684 29.41H9.30848C9.37176 29.5403 9.46668 29.7357 9.5616 30.2241C9.59324 30.1916 9.878 30.0288 9.878 30.0288C9.84003 29.8334 9.71347 29.5403 9.58691 29.2472Z" fill="white"/>
<path id="Vector_60" fill-rule="evenodd" clip-rule="evenodd" d="M21.3127 30.8363C21.3443 30.8363 22.8883 30.0547 22.8883 30.0547L23.1098 30.5758C23.1414 30.5758 23.4895 30.4129 23.4895 30.4129C23.4895 30.3804 23.1414 29.5988 23.1098 29.5663C23.0782 29.5988 21.1861 30.5367 21.1861 30.5367C21.1861 30.5823 21.3127 30.8363 21.3127 30.8363Z" fill="white"/>
<path id="Vector_61" fill-rule="evenodd" clip-rule="evenodd" d="M22.3884 27.9838C22.3568 28.0163 21.9455 28.2117 21.9138 28.2117C21.9138 28.2443 21.9455 28.2768 21.9455 28.2768C21.9771 28.2443 22.072 28.3094 22.1037 28.4071C22.1037 28.4071 22.6415 29.5403 22.6415 29.5729C22.6732 29.5403 22.9896 29.3775 23.0212 29.3775C23.0212 29.3449 22.8314 28.9542 22.8314 28.9542L23.1794 28.7588C23.1794 28.7262 23.0845 28.4983 23.0529 28.4983L22.7048 28.6611C22.6985 28.6676 22.3884 28.0163 22.3884 27.9838Z" fill="white"/>
<path id="Vector_62" fill-rule="evenodd" clip-rule="evenodd" d="M20.6799 29.8334C20.8381 30.1916 21.2494 30.2893 21.6227 30.1265C21.9708 29.9311 22.1606 29.5078 22.0024 29.1886C21.9075 29.0258 21.7809 28.8956 21.5911 28.863C21.7493 28.7653 21.8758 28.7327 21.8758 28.7002C21.8758 28.7002 21.7493 28.4397 21.7493 28.4071C21.7176 28.4071 21.2114 28.6676 21.2114 28.6676C21.2114 28.6676 21.1165 28.5048 21.1165 28.4722C21.1165 28.4722 20.6735 28.6676 20.6419 28.7002C20.6419 28.7002 20.6735 28.7327 20.6735 28.7653V28.7327C20.7052 28.7327 20.7684 28.7653 20.8317 28.8304V28.863C20.8317 28.863 20.2938 29.1235 20.2622 29.1235C20.2622 29.1561 20.3888 29.4166 20.4204 29.4491C20.4204 29.4491 20.5153 29.384 20.6735 29.3189C20.5913 29.4752 20.5913 29.6706 20.6799 29.8334ZM21.5025 29.866C21.3127 29.9636 21.0912 29.866 20.9963 29.6706C20.9013 29.4752 20.9963 29.2472 21.1861 29.1496C21.3443 29.0844 21.5658 29.1496 21.6607 29.3449C21.7556 29.5403 21.6923 29.7683 21.5025 29.866Z" fill="white"/>
<path id="Vector_63" fill-rule="evenodd" clip-rule="evenodd" d="M5.01173 25.9713C5.01173 25.9713 4.69534 25.6131 4.6637 25.5806L4.63206 25.6131C4.6637 25.6457 4.63206 25.7434 4.56878 25.8085C4.56878 25.8085 4.12582 26.1993 4.09418 26.2318C4.12582 26.2644 5.38509 27.7558 5.38509 27.7558C5.41673 27.7558 5.6382 27.5604 5.6382 27.5604C5.6382 27.5279 4.60042 26.3295 4.60042 26.3295C4.60042 26.3295 4.98009 26.0039 5.01173 25.9713Z" fill="white"/>
<path id="Vector_64" fill-rule="evenodd" clip-rule="evenodd" d="M5.80274 26.069C5.9293 26.2318 6.15078 26.4923 6.15078 26.4923C6.15078 26.4923 5.67618 26.9482 5.64454 26.9482C5.64454 26.9807 5.89766 27.2412 5.9293 27.2738C5.9293 27.2412 7.31512 26.0429 7.31512 26.0103C7.31512 25.9778 6.99872 25.6196 6.99872 25.6196C6.96709 25.6196 6.96708 25.6521 6.93544 25.6521C6.96708 25.6847 6.93544 25.7824 6.87216 25.8475L6.80889 25.9126C6.80889 25.9126 6.49249 25.5219 6.42921 25.4568C6.42921 25.2288 6.36593 25.0009 6.20773 24.8055C5.92297 24.4798 5.44837 24.4147 5.16994 24.7078C4.85354 24.9683 4.85354 25.4568 5.1383 25.7759C5.32814 26.0038 5.54962 26.1015 5.80274 26.069ZM6.55577 26.1341L6.39757 26.2643C6.39757 26.2643 6.23937 26.1015 6.11281 25.9713C6.14445 25.9387 6.17609 25.9387 6.17609 25.9061C6.23937 25.8736 6.27101 25.841 6.30265 25.8084C6.39757 25.9387 6.55577 26.1341 6.55577 26.1341ZM5.42306 25.0009C5.6129 24.838 5.86602 24.8706 5.99258 25.0334C6.15078 25.1962 6.11914 25.4568 5.9293 25.6196C5.7711 25.7498 5.51798 25.7498 5.35978 25.587C5.23322 25.4177 5.26486 25.1637 5.42306 25.0009Z" fill="white"/>
<path id="Vector_65" fill-rule="evenodd" clip-rule="evenodd" d="M76.9925 7.41003C76.9925 7.41003 75.1321 7.41003 75.0055 7.41003C75.0055 7.57285 75.0055 10.9464 75.0055 10.9464H74.088C74.088 10.9464 74.088 7.57285 74.088 7.41003C73.9614 7.41003 71.9112 7.41003 71.7846 7.41003C71.7846 7.50773 71.7846 7.63798 71.7846 7.70311C72.0061 7.70311 72.2275 8.12643 72.2275 8.54976C72.2275 8.54976 72.2275 12.7374 72.2275 16.111C71.1265 16.111 67.4689 16.111 67.4689 16.111V9.32478C67.4689 9.32478 70.4937 9.32478 70.6519 9.32478C70.6519 9.22709 70.6519 7.86593 70.6519 7.73567C70.4937 7.73567 65.1339 7.73567 65.0073 7.73567C65.0073 7.83336 65.0073 7.96362 65.0073 8.02874C65.2288 8.02874 65.4503 8.45207 65.4503 8.8754C65.4503 8.8754 65.4503 17.5699 65.4503 17.7001C65.5768 17.7001 70.8734 17.7001 72.2275 17.7001C72.2275 19.159 72.2275 20.201 72.2275 20.2336C72.3541 20.2336 73.9614 20.2336 74.088 20.2336C74.088 20.1033 74.088 12.5421 74.088 12.5421H75.0055C75.0055 12.5421 75.0055 20.1033 75.0055 20.2336C75.1321 20.2336 76.866 20.2336 76.9925 20.2336C76.9925 20.0968 76.9925 7.57285 76.9925 7.41003Z" fill="black"/>
<path id="Vector_66" fill-rule="evenodd" clip-rule="evenodd" d="M104.234 18.0192C104.234 15.8765 104.234 7.89844 104.234 7.76819C104.234 7.76819 94.5527 7.76819 94.4261 7.76819C94.4261 7.89844 94.4261 9.22704 94.4261 9.35729C94.5527 9.35729 102.216 9.35729 102.216 9.35729C102.216 9.35729 102.216 16.0719 102.216 18.0192C101.362 18.0192 100.64 18.0192 100.64 18.0192C100.64 18.0192 100.64 13.6362 100.64 13.5059C100.514 13.5059 98.8431 13.5059 98.7165 13.5059C98.7165 13.6362 98.7165 18.0192 98.7165 18.0192H97.6471C97.6471 18.0192 97.6471 13.6362 97.6471 13.5059C97.5205 13.5059 95.5652 13.5059 95.4386 13.5059C95.4386 13.571 95.4386 13.7013 95.4386 13.799C95.6601 13.799 95.8816 14.1897 95.8816 14.6131V18.0192C95.8816 18.0192 93.8946 18.0192 93.768 18.0192C93.768 18.1495 93.768 19.4781 93.768 19.6083C93.8946 19.6083 105.31 19.6083 105.43 19.6083C105.43 19.4781 105.43 18.1495 105.43 18.0192C105.399 18.0192 104.893 18.0192 104.234 18.0192Z" fill="black"/>
<path id="Vector_67" fill-rule="evenodd" clip-rule="evenodd" d="M62.4571 7.41003C62.4571 7.57285 62.4571 20.0968 62.4571 20.2271C62.3306 20.2271 60.5967 20.2271 60.4702 20.2271C60.4702 20.0968 60.4702 7.57285 60.4702 7.41003C60.5967 7.41003 62.4571 7.41003 62.4571 7.41003Z" fill="black"/>
<path id="Vector_68" fill-rule="evenodd" clip-rule="evenodd" d="M59.6539 7.40995C59.6539 7.57277 59.6539 20.0968 59.6539 20.227C59.5273 20.227 57.8884 20.227 57.7618 20.227C57.7618 20.0968 57.7618 12.5355 57.7618 12.5355C57.7618 12.5355 55.9014 12.5355 55.7748 12.5355C55.7748 12.4052 55.7748 11.0766 55.7748 10.9464C55.9014 10.9464 57.7618 10.9464 57.7618 10.9464V8.54317C57.7618 8.11984 57.5403 7.69652 57.3189 7.69652C57.3189 7.63139 57.3189 7.50113 57.3189 7.40344C57.4454 7.40996 59.6539 7.40995 59.6539 7.40995Z" fill="black"/>
<path id="Vector_69" fill-rule="evenodd" clip-rule="evenodd" d="M55.1737 7.7356C55.1737 9.55265 54.794 11.2069 53.9777 12.7634L53.946 12.8286L54.041 12.9262C55.2686 13.8641 56.2811 14.841 56.8759 15.6225C56.8126 15.6876 55.9014 17.0162 55.7748 17.1791C54.4523 15.2317 53.6929 14.5805 53.193 14.1637L53.1297 14.1311L53.0981 14.1962C51.8388 16.0133 50.6049 16.7622 50.6049 16.7948C50.5416 16.7297 49.7506 15.9481 49.6873 15.883C52.9336 12.7699 52.9336 9.29865 52.9336 9.23352C52.9336 8.198 52.3008 8.03518 52.3008 8.03518H52.2691C52.2691 7.97005 52.2691 7.8398 52.2691 7.74211C52.4337 7.7356 55.0471 7.7356 55.1737 7.7356Z" fill="black"/>
<path id="Vector_70" fill-rule="evenodd" clip-rule="evenodd" d="M90.9268 15.8505C90.9268 16.0133 90.9268 20.1033 90.9268 20.2335C90.8002 20.2335 89.0347 20.2335 88.9081 20.2335C88.9081 20.1033 88.9081 17.4721 88.9081 17.4721C88.9081 17.4721 80.7071 17.4721 80.5869 17.4721C80.5869 17.3419 80.5869 15.9807 80.5869 15.8505C80.7134 15.8505 90.7686 15.8505 90.9268 15.8505Z" fill="black"/>
<path id="Vector_71" fill-rule="evenodd" clip-rule="evenodd" d="M90.9267 7.40995C90.9267 7.54021 90.9267 10.9464 90.9267 10.9464C90.9267 10.9464 92.7555 10.9464 92.8821 10.9464C92.8821 11.0441 92.8821 12.3727 92.8821 12.5029C92.7555 12.5029 90.9267 12.5029 90.9267 12.5029C90.9267 12.5029 90.9267 14.6456 90.9267 14.7759C90.8002 14.7759 89.0347 14.7759 88.9081 14.7759C88.9081 14.613 88.9081 8.54317 88.9081 8.54317C88.9081 8.08728 88.6866 7.69652 88.4651 7.69652C88.4651 7.59882 88.4651 7.46857 88.4651 7.40344C88.5917 7.40996 90.8002 7.40995 90.9267 7.40995Z" fill="black"/>
<path id="Vector_72" fill-rule="evenodd" clip-rule="evenodd" d="M84.5292 6.73271C84.5292 6.86296 84.5292 7.83336 84.5292 7.83336C84.5292 7.83336 87.2059 7.83336 87.3325 7.83336C87.3325 7.96361 87.3325 9.29221 87.3325 9.42247C87.2059 9.42247 79.6693 9.42247 79.5427 9.42247C79.5427 9.29221 79.5427 7.96361 79.5427 7.83336C79.6693 7.83336 82.5359 7.83336 82.5359 7.83336L82.5042 7.76823C82.4726 7.34491 82.2827 7.01927 82.0929 7.01927H82.0613C82.0613 6.95414 82.0613 6.82389 82.0613 6.7262C82.2258 6.73271 84.5292 6.73271 84.5292 6.73271Z" fill="black"/>
<path id="Vector_73" fill-rule="evenodd" clip-rule="evenodd" d="M79.8275 11.7605C79.8275 10.0412 81.4031 8.64746 83.3585 8.64746C85.3138 8.64746 86.9211 10.0412 86.9211 11.7605C86.9211 13.4799 85.3138 14.9062 83.3585 14.9062C81.4094 14.9062 79.8275 13.4799 79.8275 11.7605ZM81.7828 11.6629C81.7828 12.6984 82.5105 13.545 83.3585 13.545C84.2444 13.545 84.9341 12.6984 84.9341 11.6629C84.9341 10.6273 84.2381 9.78068 83.3585 9.78068C82.5105 9.78068 81.7828 10.6208 81.7828 11.6629Z" fill="black"/>
<path id="Vector_74" fill-rule="evenodd" clip-rule="evenodd" d="M40.4801 15.9807C40.4801 16.111 40.4801 18.5467 40.4801 18.5467C40.4801 18.5467 47.8901 18.5467 48.0167 18.5467C48.0167 18.677 48.0167 20.0381 48.0167 20.1358C47.8901 20.1358 38.6197 20.1358 38.4931 20.1358C38.4931 20.0056 38.4931 17.1204 38.4931 17.1204C38.4931 16.6971 38.2716 16.2738 38.0185 16.2738C38.0185 16.2087 38.0185 16.0784 38.0185 15.9807C38.183 15.9807 40.4801 15.9807 40.4801 15.9807Z" fill="black"/>
<path id="Vector_75" fill-rule="evenodd" clip-rule="evenodd" d="M47.8585 7.41003C47.8585 7.57285 47.8585 16.5279 47.8585 16.6907C47.732 16.6907 45.9981 16.6907 45.8715 16.6907C45.8715 16.5279 45.8715 13.3496 45.8715 13.3496C45.8715 13.3496 42.9417 13.3496 42.8151 13.3496C42.8151 13.2194 42.8151 11.8582 42.8151 11.7605C42.9417 11.7605 45.8715 11.7605 45.8715 11.7605V10.6273C45.8715 10.6273 43.0999 10.6273 42.9733 10.6273C42.9733 10.4971 42.9733 9.16847 42.9733 9.03822C43.0999 9.03822 45.8715 9.03822 45.8715 9.03822V8.54976C45.8715 8.12643 45.6501 7.70311 45.4286 7.70311H45.3969C45.3969 7.63798 45.3969 7.50773 45.3969 7.41003C45.5298 7.41003 47.732 7.41003 47.8585 7.41003Z" fill="black"/>
<path id="Vector_76" fill-rule="evenodd" clip-rule="evenodd" d="M36.4808 11.3046C36.4808 9.3247 38.1514 7.7356 40.2333 7.7356C42.2836 7.7356 43.9542 9.3247 43.9542 11.3046C43.9542 13.2844 42.2836 14.8735 40.2333 14.8735C38.1514 14.8735 36.4808 13.2844 36.4808 11.3046ZM38.4615 11.3046C38.4615 12.4704 39.2525 13.4147 40.227 13.4147C41.1699 13.4147 41.9609 12.4704 41.9609 11.3046C41.9609 10.1388 41.1699 9.19445 40.227 9.19445C39.2525 9.19445 38.4615 10.1388 38.4615 11.3046Z" fill="black"/>
</g>
<defs>
<clipPath id="clip0_1_1481">
<rect width="106" height="33" fill="white" transform="translate(0 0.5)"/>
</clipPath>
</defs>
</svg>
